<svg width="545" height="184" viewBox="0 0 545 184" fill="none" xmlns="http://www.w3.org/2000/svg">
<path fill-rule="evenodd" clip-rule="evenodd" d="M108.692 103.348C106.66 105.333 107.846 115.915 108.692 120.958H109.821C110.204 120.958 110.338 120.776 110.605 120.411C110.831 120.103 111.152 119.665 111.798 119.098C111.798 118.701 112.268 118.354 112.504 118.23C112.739 118.106 113.435 117.262 114.338 114.881C114.338 114.67 114.349 114.479 114.362 114.259C114.395 113.705 114.439 112.972 114.338 111.285C114.258 109.952 114.314 109.81 114.352 109.713C114.381 109.639 114.399 109.591 114.338 109.053C114.257 108.345 114.269 108.163 114.293 107.767C114.312 107.47 114.338 107.053 114.338 106.201V103.348V101.488V99.5041V96.5277C114.338 95.7836 114.197 94.2956 113.209 91.0713C112.749 90.1005 112.709 89.763 112.658 89.3357C112.632 89.1081 112.602 88.8549 112.504 88.467C112.221 87.3509 111.798 84.8707 111.798 82.0184V81.3984C111.61 80.9023 111.064 79.3398 110.387 77.058C110.239 76.341 110.09 76.1037 109.982 75.9318C109.885 75.7766 109.821 75.6748 109.821 75.3218C109.821 74.9595 109.688 74.6854 109.535 74.3707C109.373 74.0391 109.189 73.6623 109.117 73.0896C109.071 72.7271 109.01 72.4562 108.949 72.1833C108.822 71.6162 108.692 71.0408 108.692 69.6173V66.517V63.6648C108.692 63.2378 108.509 62.9256 108.301 62.57C108.025 62.0996 107.705 61.5532 107.705 60.5645V58.8283V55.852C107.705 54.4879 107.424 52.8758 106.577 50.5196C106.283 49.8086 106.372 49.1987 106.485 48.4265C106.588 47.7171 106.712 46.8707 106.577 45.6831C106.414 44.2477 106.156 43.8507 105.776 43.2661C105.499 42.8406 105.158 42.3157 104.742 41.2187C104.087 39.4919 104.053 39.0191 103.981 38.0289C103.944 37.5257 103.897 36.889 103.755 35.8862C103.465 33.8534 103.44 33.7297 103.317 33.1443C103.261 32.8726 103.183 32.5014 103.049 31.7939C102.774 30.3457 102.737 30.359 102.591 30.4116C102.512 30.44 102.401 30.48 102.202 30.3058C101.776 29.9309 101.591 29.1307 101.221 27.5304C101.102 27.0137 100.963 26.4135 100.791 25.7173C100.66 25.1855 100.558 24.7787 100.476 24.4527C100.325 23.8527 100.243 23.5265 100.173 23.1983C100.089 22.8074 100.022 22.4138 99.8755 21.5512C99.8534 21.4216 99.8295 21.2814 99.8035 21.129C99.5082 19.3988 99.3502 18.8152 99.138 18.0311C99.0459 17.6912 98.9437 17.3135 98.8157 16.7885C98.604 15.9204 98.4982 15.7034 98.3924 15.4864C98.2865 15.2694 98.1807 15.0523 97.969 14.1843C97.6218 12.7604 97.1797 12.2541 96.6427 11.6391C96.5249 11.5042 96.4026 11.3641 96.2757 11.208C95.8927 10.7368 95.676 10.3021 95.4677 9.88415C95.2922 9.53214 95.1226 9.19198 94.8646 8.85179C94.5442 8.42947 94.4966 8.16699 94.4121 7.70157C94.3478 7.34691 94.262 6.87441 94.0179 6.12354C93.7218 5.2128 93.814 4.67746 93.9279 4.0163C94.0311 3.41703 94.1521 2.7144 94.0179 1.53518C93.8004 -0.376508 93.3313 -0.0779762 92.8693 0.216121C92.7319 0.303585 92.5951 0.390657 92.4657 0.419084C92.1112 0.49696 91.9237 0.770453 91.7284 1.0553C91.6127 1.22405 91.4943 1.39678 91.3368 1.53518C90.9135 1.90722 90.7723 3.39535 90.7723 5.0075C90.7723 5.6499 90.8172 6.01663 90.8532 6.31169C90.9076 6.7571 90.9421 7.0392 90.7723 7.85976C90.5801 8.78876 90.5188 8.91254 90.4101 9.132C90.3592 9.2348 90.2979 9.35858 90.2079 9.59592C89.9257 10.34 89.7846 10.712 89.2201 12.0761C88.8584 12.9504 88.9603 13.4171 89.0801 13.9661C89.1473 14.2737 89.2201 14.6071 89.2201 15.0524C89.2201 15.5183 89.2599 15.8091 89.2947 16.0631C89.3525 16.485 89.3963 16.805 89.2201 17.6566C89.1445 18.0222 89.0689 18.3343 88.9987 18.6239C88.8069 19.4154 88.6557 20.0396 88.6557 21.129V24.8493V27.2055V30.3058C88.6557 30.8803 88.4314 32.4733 88.2136 34.0193C88.0084 35.477 87.809 36.893 87.809 37.3744V40.2267C87.809 41.0091 87.5797 41.4893 87.0179 42.6661C86.9563 42.7949 86.8908 42.9321 86.8212 43.0789C86.4106 43.9449 86.4779 44.055 86.6059 44.2645C86.6979 44.415 86.8212 44.6168 86.8212 45.1871V48.9075V51.8837C86.8212 52.7301 86.7299 52.8945 86.5993 53.1299C86.5002 53.3084 86.3785 53.5276 86.2568 54.116C86.2256 54.2664 86.198 54.4032 86.1724 54.5296L86.1723 54.53C85.9659 55.5499 85.8967 55.8923 85.269 57.2162C84.807 58.1906 84.95 58.7928 85.1038 59.4406C85.1849 59.7821 85.269 60.1364 85.269 60.5645C85.269 61.0038 85.2867 61.2875 85.3033 61.5534C85.3335 62.0381 85.3601 62.4636 85.269 63.6648C85.1944 64.6479 85.1198 65.25 85.0244 66.0203C84.9393 66.7074 84.8376 67.5285 84.7045 68.8733C84.6312 69.614 84.577 70.2125 84.5319 70.7101C84.4033 72.1287 84.349 72.7272 84.1401 73.4617C83.9308 74.1972 83.644 74.4556 82.8771 75.1465C82.6096 75.3875 82.2837 75.6811 81.8823 76.0659C80.9779 76.933 81.1274 77.0002 81.298 77.0769C81.4203 77.1319 81.5534 77.1918 81.3179 77.5541C80.8715 78.2405 81.1311 81.098 81.2592 82.5092C81.2931 82.8826 81.3179 83.1548 81.3179 83.2586C81.3179 83.7546 81.3179 84.3747 81.8823 87.1029C81.8823 87.723 81.7412 88.4051 81.6001 89.0871C81.459 89.7692 81.3179 90.4512 81.3179 91.0713V93.5515C81.3179 94.2266 81.3426 94.5973 81.361 94.8729C81.3865 95.2555 81.3999 95.4551 81.3179 96.0317C81.2556 96.4697 81.1658 96.7627 81.0485 97.1454C80.9001 97.6295 80.7076 98.2573 80.4712 99.5041C80.3784 99.9934 80.2924 100.411 80.2146 100.789C79.9377 102.134 79.7656 102.97 79.7656 104.713V109.797V114.013V119.594V120.958C80.6593 121.165 82.5879 121.652 83.1523 121.95C83.8579 122.322 86.539 122.322 87.809 122.322H91.7601C92.6225 122.322 93.2585 122.376 93.8016 122.423C94.6804 122.498 95.3164 122.552 96.2757 122.322C97.1941 122.102 97.5691 122.273 97.9561 122.449C98.2231 122.57 98.4957 122.694 98.9566 122.694C99.8596 122.694 99.7091 123.356 99.5211 123.686V124.802C99.5211 125.174 99.5211 125.794 98.9566 127.407C98.9566 127.903 99.3329 127.944 99.5211 127.903C99.8974 127.944 100.791 128.002 101.355 127.903C102.06 127.779 103.19 127.283 103.19 126.787C103.19 126.573 103.033 126.428 102.855 126.264C102.618 126.046 102.344 125.793 102.344 125.298V122.694C102.344 121.978 102.577 121.672 102.799 121.381C102.999 121.118 103.19 120.868 103.19 120.338C103.19 119.787 103.19 119.538 103.224 119.293C103.252 119.091 103.303 118.892 103.396 118.53C103.419 118.441 103.444 118.341 103.472 118.23C103.698 117.337 103.378 117.61 103.19 117.858L102.344 116.494C102.014 116.7 100.988 117.262 99.5211 117.858C98.3659 118.326 98.218 118.254 97.9142 118.105C97.7357 118.018 97.5033 117.904 96.9809 117.858C95.5696 117.734 94.8646 117.61 95.4286 115.626C96.6617 114.542 96.9251 114.216 97.9142 112.991L97.9155 112.99C98.0577 112.814 98.2149 112.619 98.3922 112.401C99.2644 111.328 99.2741 111.25 99.2875 111.142C99.2958 111.075 99.3055 110.997 99.5211 110.665C99.9726 109.971 100.932 109.301 101.355 109.053H96.9809C95.7062 109.053 95.7239 109.001 95.897 108.498C95.9922 108.222 96.1344 107.809 96.1344 107.193C96.1344 106.138 96.1344 105.724 96.3243 105.395C96.4469 105.182 96.6487 105.004 96.9809 104.713C97.6581 104.117 98.2039 103.555 98.3922 103.348C97.9217 103.348 96.6704 103.175 95.4286 102.48C94.3128 101.856 94.6554 101.617 95.0411 101.347C95.1919 101.242 95.3493 101.132 95.4286 100.992C95.5272 100.819 95.7463 100.767 95.9897 100.709C96.4431 100.601 96.9809 100.472 96.9809 99.5041C96.932 99.4325 96.885 99.3659 96.8399 99.3019C96.4943 98.8119 96.2592 98.4785 96.1344 97.2719C95.9933 95.9077 97.5455 94.7916 98.3922 94.2956C99.096 93.8832 99.0197 95.0135 98.9739 95.6915C98.9646 95.8291 98.9566 95.9481 98.9566 96.0317C98.9566 96.3949 99.1079 96.6251 99.2996 96.917C99.3698 97.0238 99.4454 97.1389 99.5211 97.2719C99.6115 97.4308 99.7019 97.5515 99.8247 97.7155C100.085 98.0636 100.492 98.6069 101.355 100.124C101.711 100.671 101.618 100.824 101.501 101.018C101.432 101.131 101.355 101.259 101.355 101.488V103.348C101.355 103.684 101.323 104.033 101.291 104.378C101.229 105.053 101.168 105.708 101.355 106.201C101.581 106.796 104.742 107.771 106.294 108.185C106.059 107.689 105.588 106.449 105.588 105.457C105.588 104.321 105.114 103.913 104.601 103.471C104.554 103.431 104.507 103.39 104.459 103.348C104.07 103.006 104.218 102.016 104.347 101.149C104.405 100.759 104.459 100.394 104.459 100.124C104.459 99.4376 104.901 98.5959 105.295 97.8445L105.295 97.8442C105.399 97.6456 105.5 97.4533 105.588 97.2719C105.924 96.584 106.702 96.1298 107.292 95.7857C107.446 95.6955 107.588 95.613 107.705 95.5357C108.156 95.2381 109.304 93.0141 109.821 91.9394C110.292 94.9156 110.724 101.364 108.692 103.348ZM104.459 64.6568C104.413 64.7809 104.206 65.0537 103.755 65.1529C103.19 65.2769 101.355 65.6489 101.355 65.1529C101.355 64.8752 101.134 64.5587 100.841 64.1381C100.61 63.8073 100.334 63.4121 100.086 62.9207C99.7246 62.2068 99.8254 61.8481 99.945 61.4227C100.012 61.183 100.086 60.9221 100.086 60.5645C100.086 60.2188 100.103 59.9935 100.119 59.7785C100.15 59.3766 100.178 59.0105 100.086 57.9602C100.009 57.0816 99.848 56.4609 99.7176 55.9574C99.6087 55.537 99.5211 55.1985 99.5211 54.86V52.9998C99.5211 51.8837 98.675 50.8915 97.8279 51.3876C97.6489 51.4925 97.4825 51.5752 97.3301 51.651C96.7614 51.9336 96.3871 52.1196 96.2757 52.9998C96.2129 53.4959 96.0386 53.6 95.8643 53.7041C95.6465 53.8342 95.4286 53.9643 95.4286 54.86C95.4286 55.5479 95.3001 55.9423 95.2076 56.2262C95.0834 56.6076 95.024 56.7897 95.4286 57.2162C95.9932 57.8114 96.6987 57.4642 96.9809 57.2162H97.8279V57.9602C97.8279 58.2496 97.7652 58.539 97.7025 58.8283C97.5772 59.4071 97.4518 59.9859 97.8279 60.5645C98.1101 60.9986 98.1101 61.1535 98.1102 61.3551C98.1102 61.5566 98.1103 61.8046 98.3924 62.4246C98.5804 62.8379 98.7058 63.1686 98.8102 63.4441C99.0192 63.9954 99.1446 64.3261 99.5211 64.6568C99.747 64.8553 99.6793 65.0141 99.5981 65.2046C99.4763 65.4903 99.3241 65.8474 100.086 66.517C100.086 67.4945 100.183 68.0879 100.256 68.5361C100.36 69.1682 100.416 69.5117 100.086 70.2374C99.9024 70.6398 99.7787 70.8464 99.6758 71.0181C99.4616 71.3754 99.3379 71.5819 98.9566 73.0896C98.6537 74.2875 98.3508 74.7712 98.1352 75.1155C97.9491 75.4128 97.8279 75.6063 97.8279 76.0659C97.8279 76.3958 97.8279 76.5474 97.9109 76.6439C97.9816 76.726 98.1123 76.7682 98.3542 76.8463C98.683 76.9524 99.2174 77.1249 100.086 77.5541C100.761 77.8878 101.285 78.1994 101.71 78.4523C102.706 79.0451 103.161 79.3157 103.755 78.7941C104.005 78.5742 104.267 78.506 104.513 78.4421C105.098 78.2899 105.588 78.1626 105.588 76.0659V71.2294C105.588 70.5415 105.794 70.2826 105.942 70.0963C106.14 69.8459 106.235 69.7265 105.588 68.8733C105.217 68.3842 104.846 68.029 104.555 67.7506C103.961 67.1819 103.701 66.9333 104.459 66.517C105.362 66.021 104.836 65.0702 104.459 64.6568ZM93.0533 15.024C92.8852 14.2709 92.8659 14.1843 92.7479 14.1843C93.2183 14.1843 94.3001 14.3579 94.8646 15.0524C94.9747 15.188 95.0643 15.2933 95.1401 15.3825C95.5501 15.8648 95.5609 15.8776 96.2757 17.6566C96.7375 18.8059 96.9053 19.1075 97.0083 19.4254C97.0942 19.6906 97.1349 19.9671 97.2635 20.7569C97.352 21.3009 97.4405 21.7232 97.5203 22.1038C97.695 22.9379 97.8279 23.572 97.8279 24.8493C97.8279 25.8009 97.9756 26.006 98.1954 26.3114C98.4053 26.603 98.681 26.986 98.9566 28.1975C99.1432 29.0177 99.299 29.6074 99.4342 30.119C99.7077 31.1544 99.8968 31.87 100.086 33.53C100.264 35.0989 100.499 35.328 100.648 35.4729C100.734 35.5571 100.791 35.6128 100.791 35.8862C100.791 36.6303 99.5211 35.8862 99.5211 35.1422C99.5211 34.763 99.3745 34.5771 99.2121 34.371C99.0558 34.1727 98.8848 33.9558 98.8157 33.53C98.7586 33.1782 98.6087 32.8264 98.4412 32.4332C98.1955 31.8564 97.9118 31.1907 97.8279 30.3058C97.7463 29.4453 97.2401 29.1239 96.8276 28.8619C96.5267 28.6708 96.2757 28.5114 96.2757 28.1975C96.2757 27.4535 96.2757 27.2055 95.4286 24.8493C94.8958 23.3672 94.8101 23.3571 94.6443 23.3375C94.5465 23.3259 94.4208 23.3111 94.159 22.9891C93.5946 22.2946 93.2653 22.121 93.1712 22.121V19.0207C93.1712 18.1592 93.2184 17.629 93.2548 17.2186C93.3076 16.6248 93.3381 16.2817 93.1712 15.5484C93.125 15.345 93.0863 15.1717 93.0533 15.024Z" fill="#D9D9D9"/>
<path fill-rule="evenodd" clip-rule="evenodd" d="M108.692 103.348C106.66 105.333 107.846 115.915 108.692 120.958H109.821C110.204 120.958 110.338 120.776 110.605 120.411C110.831 120.103 111.152 119.665 111.798 119.098C111.798 118.701 112.268 118.354 112.504 118.23C112.739 118.106 113.435 117.262 114.338 114.881C114.338 114.67 114.349 114.479 114.362 114.259C114.395 113.705 114.439 112.972 114.338 111.285C114.258 109.952 114.314 109.81 114.352 109.713C114.381 109.639 114.399 109.591 114.338 109.053C114.257 108.345 114.269 108.163 114.293 107.767C114.312 107.47 114.338 107.053 114.338 106.201V103.348V101.488V99.5041V96.5277C114.338 95.7836 114.197 94.2956 113.209 91.0713C112.749 90.1005 112.709 89.763 112.658 89.3357C112.632 89.1081 112.602 88.8549 112.504 88.467C112.221 87.3509 111.798 84.8707 111.798 82.0184V81.3984C111.61 80.9023 111.064 79.3398 110.387 77.058C110.239 76.341 110.09 76.1037 109.982 75.9318C109.885 75.7766 109.821 75.6748 109.821 75.3218C109.821 74.9595 109.688 74.6854 109.535 74.3707C109.373 74.0391 109.189 73.6623 109.117 73.0896C109.071 72.7271 109.01 72.4562 108.949 72.1833C108.822 71.6162 108.692 71.0408 108.692 69.6173V66.517V63.6648C108.692 63.2378 108.509 62.9256 108.301 62.57C108.025 62.0996 107.705 61.5532 107.705 60.5645V58.8283V55.852C107.705 54.4879 107.424 52.8758 106.577 50.5196C106.283 49.8086 106.372 49.1987 106.485 48.4265C106.588 47.7171 106.712 46.8707 106.577 45.6831C106.414 44.2477 106.156 43.8507 105.776 43.2661C105.499 42.8406 105.158 42.3157 104.742 41.2187C104.087 39.4919 104.053 39.0191 103.981 38.0289C103.944 37.5257 103.897 36.889 103.755 35.8862C103.465 33.8534 103.44 33.7297 103.317 33.1443C103.261 32.8726 103.183 32.5014 103.049 31.7939C102.774 30.3457 102.737 30.359 102.591 30.4116C102.512 30.44 102.401 30.48 102.202 30.3058C101.776 29.9309 101.591 29.1307 101.221 27.5304C101.102 27.0137 100.963 26.4135 100.791 25.7173C100.66 25.1855 100.558 24.7787 100.476 24.4527C100.325 23.8527 100.243 23.5265 100.173 23.1983C100.089 22.8074 100.022 22.4138 99.8755 21.5512C99.8534 21.4216 99.8295 21.2814 99.8035 21.129C99.5082 19.3988 99.3502 18.8152 99.138 18.0311C99.0459 17.6912 98.9437 17.3135 98.8157 16.7885C98.604 15.9204 98.4982 15.7034 98.3924 15.4864C98.2865 15.2694 98.1807 15.0523 97.969 14.1843C97.6218 12.7604 97.1797 12.2541 96.6427 11.6391C96.5249 11.5042 96.4026 11.3641 96.2757 11.208C95.8927 10.7368 95.676 10.3021 95.4677 9.88415C95.2922 9.53214 95.1226 9.19198 94.8646 8.85179C94.5442 8.42947 94.4966 8.16699 94.4121 7.70157C94.3478 7.34691 94.262 6.87441 94.0179 6.12354C93.7218 5.2128 93.814 4.67746 93.9279 4.0163C94.0311 3.41703 94.1521 2.7144 94.0179 1.53518C93.8004 -0.376508 93.3313 -0.0779762 92.8693 0.216121C92.7319 0.303585 92.5951 0.390657 92.4657 0.419084C92.1112 0.49696 91.9237 0.770453 91.7284 1.0553C91.6127 1.22405 91.4943 1.39678 91.3368 1.53518C90.9135 1.90722 90.7723 3.39535 90.7723 5.0075C90.7723 5.6499 90.8172 6.01663 90.8532 6.31169C90.9076 6.7571 90.9421 7.0392 90.7723 7.85976C90.5801 8.78876 90.5188 8.91254 90.4101 9.132C90.3592 9.2348 90.2979 9.35858 90.2079 9.59592C89.9257 10.34 89.7846 10.712 89.2201 12.0761C88.8584 12.9504 88.9603 13.4171 89.0801 13.9661C89.1473 14.2737 89.2201 14.6071 89.2201 15.0524C89.2201 15.5183 89.2599 15.8091 89.2947 16.0631C89.3525 16.485 89.3963 16.805 89.2201 17.6566C89.1445 18.0222 89.0689 18.3343 88.9987 18.6239C88.8069 19.4154 88.6557 20.0396 88.6557 21.129V24.8493V27.2055V30.3058C88.6557 30.8803 88.4314 32.4733 88.2136 34.0193C88.0084 35.477 87.809 36.893 87.809 37.3744V40.2267C87.809 41.0091 87.5797 41.4893 87.0179 42.6661C86.9563 42.7949 86.8908 42.9321 86.8212 43.0789C86.4106 43.9449 86.4779 44.055 86.6059 44.2645C86.6979 44.415 86.8212 44.6168 86.8212 45.1871V48.9075V51.8837C86.8212 52.7301 86.7299 52.8945 86.5993 53.1299C86.5002 53.3084 86.3785 53.5276 86.2568 54.116C86.2256 54.2664 86.198 54.4032 86.1724 54.5296L86.1723 54.53C85.9659 55.5499 85.8967 55.8923 85.269 57.2162C84.807 58.1906 84.95 58.7928 85.1038 59.4406C85.1849 59.7821 85.269 60.1364 85.269 60.5645C85.269 61.0038 85.2867 61.2875 85.3033 61.5534C85.3335 62.0381 85.3601 62.4636 85.269 63.6648C85.1944 64.6479 85.1198 65.25 85.0244 66.0203C84.9393 66.7074 84.8376 67.5285 84.7045 68.8733C84.6312 69.614 84.577 70.2125 84.5319 70.7101C84.4033 72.1287 84.349 72.7272 84.1401 73.4617C83.9308 74.1972 83.644 74.4556 82.8771 75.1465C82.6096 75.3875 82.2837 75.6811 81.8823 76.0659C80.9779 76.933 81.1274 77.0002 81.298 77.0769C81.4203 77.1319 81.5534 77.1918 81.3179 77.5541C80.8715 78.2405 81.1311 81.098 81.2592 82.5092C81.2931 82.8826 81.3179 83.1548 81.3179 83.2586C81.3179 83.7546 81.3179 84.3747 81.8823 87.1029C81.8823 87.723 81.7412 88.4051 81.6001 89.0871C81.459 89.7692 81.3179 90.4512 81.3179 91.0713V93.5515C81.3179 94.2266 81.3426 94.5973 81.361 94.8729C81.3865 95.2555 81.3999 95.4551 81.3179 96.0317C81.2556 96.4697 81.1658 96.7627 81.0485 97.1454C80.9001 97.6295 80.7076 98.2573 80.4712 99.5041C80.3784 99.9934 80.2924 100.411 80.2146 100.789C79.9377 102.134 79.7656 102.97 79.7656 104.713V109.797V114.013V119.594V120.958C80.6593 121.165 82.5879 121.652 83.1523 121.95C83.8579 122.322 86.539 122.322 87.809 122.322H91.7601C92.6225 122.322 93.2585 122.376 93.8016 122.423C94.6804 122.498 95.3164 122.552 96.2757 122.322C97.1941 122.102 97.5691 122.273 97.9561 122.449C98.2231 122.57 98.4957 122.694 98.9566 122.694C99.8596 122.694 99.7091 123.356 99.5211 123.686V124.802C99.5211 125.174 99.5211 125.794 98.9566 127.407C98.9566 127.903 99.3329 127.944 99.5211 127.903C99.8974 127.944 100.791 128.002 101.355 127.903C102.06 127.779 103.19 127.283 103.19 126.787C103.19 126.573 103.033 126.428 102.855 126.264C102.618 126.046 102.344 125.793 102.344 125.298V122.694C102.344 121.978 102.577 121.672 102.799 121.381C102.999 121.118 103.19 120.868 103.19 120.338C103.19 119.787 103.19 119.538 103.224 119.293C103.252 119.091 103.303 118.892 103.396 118.53C103.419 118.441 103.444 118.341 103.472 118.23C103.698 117.337 103.378 117.61 103.19 117.858L102.344 116.494C102.014 116.7 100.988 117.262 99.5211 117.858C98.3659 118.326 98.218 118.254 97.9142 118.105C97.7357 118.018 97.5033 117.904 96.9809 117.858C95.5696 117.734 94.8646 117.61 95.4286 115.626C96.6617 114.542 96.9251 114.216 97.9142 112.991L97.9155 112.99C98.0577 112.814 98.2149 112.619 98.3922 112.401C99.2644 111.328 99.2741 111.25 99.2875 111.142C99.2958 111.075 99.3055 110.997 99.5211 110.665C99.9726 109.971 100.932 109.301 101.355 109.053H96.9809C95.7062 109.053 95.7239 109.001 95.897 108.498C95.9922 108.222 96.1344 107.809 96.1344 107.193C96.1344 106.138 96.1344 105.724 96.3243 105.395C96.4469 105.182 96.6487 105.004 96.9809 104.713C97.6581 104.117 98.2039 103.555 98.3922 103.348C97.9217 103.348 96.6704 103.175 95.4286 102.48C94.3128 101.856 94.6554 101.617 95.0411 101.347C95.1919 101.242 95.3493 101.132 95.4286 100.992C95.5272 100.819 95.7463 100.767 95.9897 100.709C96.4431 100.601 96.9809 100.472 96.9809 99.5041C96.932 99.4325 96.885 99.3659 96.8399 99.3019C96.4943 98.8119 96.2592 98.4785 96.1344 97.2719C95.9933 95.9077 97.5455 94.7916 98.3922 94.2956C99.096 93.8832 99.0197 95.0135 98.9739 95.6915C98.9646 95.8291 98.9566 95.9481 98.9566 96.0317C98.9566 96.3949 99.1079 96.6251 99.2996 96.917C99.3698 97.0238 99.4454 97.1389 99.5211 97.2719C99.6115 97.4308 99.7019 97.5515 99.8247 97.7155C100.085 98.0636 100.492 98.6069 101.355 100.124C101.711 100.671 101.618 100.824 101.501 101.018C101.432 101.131 101.355 101.259 101.355 101.488V103.348C101.355 103.684 101.323 104.033 101.291 104.378C101.229 105.053 101.168 105.708 101.355 106.201C101.581 106.796 104.742 107.771 106.294 108.185C106.059 107.689 105.588 106.449 105.588 105.457C105.588 104.321 105.114 103.913 104.601 103.471C104.554 103.431 104.507 103.39 104.459 103.348C104.07 103.006 104.218 102.016 104.347 101.149C104.405 100.759 104.459 100.394 104.459 100.124C104.459 99.4376 104.901 98.5959 105.295 97.8445L105.295 97.8442C105.399 97.6456 105.5 97.4533 105.588 97.2719C105.924 96.584 106.702 96.1298 107.292 95.7857C107.446 95.6955 107.588 95.613 107.705 95.5357C108.156 95.2381 109.304 93.0141 109.821 91.9394C110.292 94.9156 110.724 101.364 108.692 103.348ZM104.459 64.6568C104.413 64.7809 104.206 65.0537 103.755 65.1529C103.19 65.2769 101.355 65.6489 101.355 65.1529C101.355 64.8752 101.134 64.5587 100.841 64.1381C100.61 63.8073 100.334 63.4121 100.086 62.9207C99.7246 62.2068 99.8254 61.8481 99.945 61.4227C100.012 61.183 100.086 60.9221 100.086 60.5645C100.086 60.2188 100.103 59.9935 100.119 59.7785C100.15 59.3766 100.178 59.0105 100.086 57.9602C100.009 57.0816 99.848 56.4609 99.7176 55.9574C99.6087 55.537 99.5211 55.1985 99.5211 54.86V52.9998C99.5211 51.8837 98.675 50.8915 97.8279 51.3876C97.6489 51.4925 97.4825 51.5752 97.3301 51.651C96.7614 51.9336 96.3871 52.1196 96.2757 52.9998C96.2129 53.4959 96.0386 53.6 95.8643 53.7041C95.6465 53.8342 95.4286 53.9643 95.4286 54.86C95.4286 55.5479 95.3001 55.9423 95.2076 56.2262C95.0834 56.6076 95.024 56.7897 95.4286 57.2162C95.9932 57.8114 96.6987 57.4642 96.9809 57.2162H97.8279V57.9602C97.8279 58.2496 97.7652 58.539 97.7025 58.8283C97.5772 59.4071 97.4518 59.9859 97.8279 60.5645C98.1101 60.9986 98.1101 61.1535 98.1102 61.3551C98.1102 61.5566 98.1103 61.8046 98.3924 62.4246C98.5804 62.8379 98.7058 63.1686 98.8102 63.4441C99.0192 63.9954 99.1446 64.3261 99.5211 64.6568C99.747 64.8553 99.6793 65.0141 99.5981 65.2046C99.4763 65.4903 99.3241 65.8474 100.086 66.517C100.086 67.4945 100.183 68.0879 100.256 68.5361C100.36 69.1682 100.416 69.5117 100.086 70.2374C99.9024 70.6398 99.7787 70.8464 99.6758 71.0181C99.4616 71.3754 99.3379 71.5819 98.9566 73.0896C98.6537 74.2875 98.3508 74.7712 98.1352 75.1155C97.9491 75.4128 97.8279 75.6063 97.8279 76.0659C97.8279 76.3958 97.8279 76.5474 97.9109 76.6439C97.9816 76.726 98.1123 76.7682 98.3542 76.8463C98.683 76.9524 99.2174 77.1249 100.086 77.5541C100.761 77.8878 101.285 78.1994 101.71 78.4523C102.706 79.0451 103.161 79.3157 103.755 78.7941C104.005 78.5742 104.267 78.506 104.513 78.4421C105.098 78.2899 105.588 78.1626 105.588 76.0659V71.2294C105.588 70.5415 105.794 70.2826 105.942 70.0963C106.14 69.8459 106.235 69.7265 105.588 68.8733C105.217 68.3842 104.846 68.029 104.555 67.7506C103.961 67.1819 103.701 66.9333 104.459 66.517C105.362 66.021 104.836 65.0702 104.459 64.6568ZM93.0533 15.024C92.8852 14.2709 92.8659 14.1843 92.7479 14.1843C93.2183 14.1843 94.3001 14.3579 94.8646 15.0524C94.9747 15.188 95.0643 15.2933 95.1401 15.3825C95.5501 15.8648 95.5609 15.8776 96.2757 17.6566C96.7375 18.8059 96.9053 19.1075 97.0083 19.4254C97.0942 19.6906 97.1349 19.9671 97.2635 20.7569C97.352 21.3009 97.4405 21.7232 97.5203 22.1038C97.695 22.9379 97.8279 23.572 97.8279 24.8493C97.8279 25.8009 97.9756 26.006 98.1954 26.3114C98.4053 26.603 98.681 26.986 98.9566 28.1975C99.1432 29.0177 99.299 29.6074 99.4342 30.119C99.7077 31.1544 99.8968 31.87 100.086 33.53C100.264 35.0989 100.499 35.328 100.648 35.4729C100.734 35.5571 100.791 35.6128 100.791 35.8862C100.791 36.6303 99.5211 35.8862 99.5211 35.1422C99.5211 34.763 99.3745 34.5771 99.2121 34.371C99.0558 34.1727 98.8848 33.9558 98.8157 33.53C98.7586 33.1782 98.6087 32.8264 98.4412 32.4332C98.1955 31.8564 97.9118 31.1907 97.8279 30.3058C97.7463 29.4453 97.2401 29.1239 96.8276 28.8619C96.5267 28.6708 96.2757 28.5114 96.2757 28.1975C96.2757 27.4535 96.2757 27.2055 95.4286 24.8493C94.8958 23.3672 94.8101 23.3571 94.6443 23.3375C94.5465 23.3259 94.4208 23.3111 94.159 22.9891C93.5946 22.2946 93.2653 22.121 93.1712 22.121V19.0207C93.1712 18.1592 93.2184 17.629 93.2548 17.2186C93.3076 16.6248 93.3381 16.2817 93.1712 15.5484C93.125 15.345 93.0863 15.1717 93.0533 15.024Z" fill="#F8EDB7"/>
<path fill-rule="evenodd" clip-rule="evenodd" d="M70.8212 107.381C69.3536 108.962 70.2097 117.396 70.8212 121.415H71.6367C71.9128 121.415 72.0095 121.27 72.2029 120.979C72.366 120.734 72.5979 120.385 73.0642 119.933C73.0642 119.616 73.4039 119.34 73.5737 119.241C73.7436 119.142 74.2464 118.47 74.8986 116.572C74.8986 116.404 74.9068 116.251 74.9163 116.076C74.9401 115.635 74.9716 115.051 74.8986 113.706C74.841 112.644 74.8812 112.53 74.9085 112.453C74.9295 112.394 74.9429 112.356 74.8986 111.927C74.8405 111.363 74.8487 111.217 74.8665 110.903C74.8798 110.666 74.8986 110.333 74.8986 109.654V107.381V105.898V104.317V101.945C74.8986 101.352 74.7967 100.166 74.0833 97.5958C73.7509 96.8221 73.7221 96.5531 73.6856 96.2126C73.6662 96.0311 73.6446 95.8294 73.5737 95.5202C73.3699 94.6307 73.0642 92.654 73.0642 90.3808V89.8866C72.9283 89.4912 72.5342 88.2459 72.045 86.4273C71.9379 85.8559 71.8306 85.6667 71.7529 85.5297C71.6827 85.4061 71.6367 85.325 71.6367 85.0436C71.6367 84.7549 71.5402 84.5364 71.4295 84.2856C71.3127 84.0213 71.1801 83.721 71.1278 83.2646C71.0947 82.9756 71.0508 82.7597 71.0065 82.5423C70.9145 82.0902 70.8212 81.6316 70.8212 80.4972V78.0263V75.7531C70.8212 75.4127 70.689 75.1639 70.5384 74.8805C70.3393 74.5056 70.108 74.0702 70.108 73.2822V71.8984V69.5264C70.108 68.4391 69.9048 67.1543 69.2934 65.2764C69.0809 64.7098 69.1453 64.2237 69.2268 63.6082C69.3016 63.0428 69.3909 62.3683 69.2934 61.4218C69.1754 60.2777 68.9891 59.9614 68.7149 59.4954C68.5152 59.1563 68.269 58.738 67.9685 57.8637C67.4954 56.4874 67.4705 56.1107 67.4182 55.3214C67.3917 54.9204 67.3581 54.4129 67.2551 53.6138C67.0462 51.9936 67.0276 51.895 66.9393 51.4284C66.8984 51.2119 66.8424 50.9161 66.7455 50.3522C66.5471 49.198 66.5204 49.2086 66.4147 49.2505C66.3575 49.2732 66.2772 49.305 66.134 49.1662C65.8259 48.8674 65.6924 48.2296 65.4255 46.9542C65.3394 46.5424 65.2393 46.0641 65.1149 45.5092C65.0199 45.0853 64.9461 44.7611 64.887 44.5013C64.7782 44.0231 64.7191 43.7631 64.6684 43.5016C64.608 43.1901 64.5596 42.8763 64.4535 42.1889C64.4375 42.0855 64.4203 41.9738 64.4015 41.8523C64.1882 40.4734 64.0741 40.0083 63.9208 39.3833C63.8544 39.1124 63.7805 38.8115 63.6881 38.393C63.5352 37.7012 63.4588 37.5282 63.3823 37.3552C63.3059 37.1823 63.2295 37.0093 63.0766 36.3175C62.8258 35.1826 62.5065 34.7791 62.1187 34.2889C62.0336 34.1815 61.9453 34.0698 61.8536 33.9454C61.577 33.5698 61.4205 33.2234 61.2701 32.8903C61.1433 32.6097 61.0209 32.3386 60.8345 32.0675C60.6031 31.7309 60.5687 31.5217 60.5077 31.1508C60.4612 30.8681 60.3993 30.4915 60.223 29.8931C60.0092 29.1673 60.0758 28.7406 60.158 28.2137C60.2325 27.736 60.3199 27.1761 60.223 26.2362C60.0659 24.7126 59.7272 24.9505 59.3934 25.1849C59.2942 25.2547 59.1954 25.324 59.1019 25.3467C58.846 25.4088 58.7105 25.6267 58.5695 25.8538C58.4859 25.9883 58.4004 26.1259 58.2866 26.2362C57.9809 26.5327 57.879 27.7188 57.879 29.0036C57.879 29.5156 57.9113 29.8079 57.9374 30.0431C57.9767 30.3981 58.0016 30.6229 57.879 31.2769C57.7402 32.0173 57.6959 32.1159 57.6174 32.2908C57.5806 32.3728 57.5363 32.4714 57.4713 32.6606C57.2675 33.2536 57.1656 33.5501 56.7579 34.6373C56.4967 35.334 56.5703 35.706 56.6568 36.1435C56.7054 36.3887 56.7579 36.6544 56.7579 37.0094C56.7579 37.3807 56.7867 37.6125 56.8118 37.8148C56.8535 38.1511 56.8852 38.4061 56.7579 39.0849C56.7033 39.3762 56.6487 39.625 56.598 39.8558C56.4595 40.4866 56.3503 40.9841 56.3503 41.8523V44.8174V46.6953V49.1662C56.3503 49.624 56.1883 50.8936 56.031 52.1259C55.8828 53.2876 55.7388 54.4161 55.7388 54.7998V57.0731C55.7388 57.6966 55.5732 58.0793 55.1674 59.0172C55.123 59.1199 55.0757 59.2292 55.0254 59.3463C54.7289 60.0365 54.7774 60.1242 54.8699 60.2912C54.9363 60.4111 55.0254 60.572 55.0254 61.0265V63.9916V66.3636C55.0254 67.0382 54.9595 67.1692 54.8651 67.3568C54.7935 67.4991 54.7056 67.6738 54.6177 68.1427C54.5953 68.2626 54.5753 68.3716 54.5568 68.4724L54.5567 68.4727C54.4077 69.2856 54.3577 69.5585 53.9043 70.6136C53.5707 71.3901 53.674 71.8701 53.785 72.3864C53.8436 72.6586 53.9043 72.9409 53.9043 73.2822C53.9043 73.6323 53.9171 73.8584 53.9291 74.0703C53.951 74.4566 53.9701 74.7957 53.9043 75.7531C53.8505 76.5366 53.7966 77.0165 53.7277 77.6303C53.6662 78.178 53.5928 78.8324 53.4967 79.9042C53.4437 80.4945 53.4046 80.9715 53.372 81.3681C53.2791 82.4987 53.2399 82.9758 53.089 83.5611C52.9379 84.1473 52.7308 84.3533 52.1769 84.9039C51.9837 85.096 51.7483 85.33 51.4584 85.6367C50.8052 86.3277 50.9132 86.3812 51.0364 86.4424C51.1247 86.4862 51.2209 86.5339 51.0507 86.8227C50.7284 87.3698 50.9158 89.6472 51.0084 90.7719C51.0329 91.0695 51.0507 91.2864 51.0507 91.3692C51.0507 91.7645 51.0507 92.2587 51.4584 94.4331C51.4584 94.9273 51.3565 95.4709 51.2546 96.0145C51.1527 96.5581 51.0507 97.1017 51.0507 97.5958V99.5726C51.0507 100.111 51.0686 100.406 51.0819 100.626C51.1004 100.931 51.11 101.09 51.0507 101.549C51.0057 101.898 50.9409 102.132 50.8562 102.437C50.749 102.823 50.61 103.323 50.4393 104.317C50.3722 104.707 50.3101 105.04 50.2539 105.341C50.0539 106.413 49.9297 107.079 49.9297 108.468V112.52V115.88V120.328V121.415C50.5751 121.58 51.968 121.969 52.3756 122.206C52.8852 122.503 54.8216 122.503 55.7388 122.503H58.5924C59.2152 122.503 59.6745 122.546 60.0668 122.583C60.7015 122.642 61.1608 122.686 61.8536 122.503C62.5169 122.327 62.7878 122.463 63.0672 122.603C63.2601 122.7 63.457 122.799 63.7898 122.799C64.442 122.799 64.3333 123.326 64.1975 123.59V124.479C64.1975 124.776 64.1975 125.27 63.7898 126.555C63.7898 126.95 64.0616 126.983 64.1975 126.95C64.4693 126.983 65.1148 127.029 65.5222 126.95C66.0314 126.851 66.8474 126.456 66.8474 126.061C66.8474 125.89 66.7341 125.775 66.605 125.644C66.4343 125.47 66.2359 125.269 66.2359 124.875V122.799C66.2359 122.228 66.4045 121.984 66.5646 121.753C66.7095 121.543 66.8474 121.344 66.8474 120.921C66.8474 120.482 66.8474 120.283 66.872 120.088C66.8922 119.928 66.929 119.769 66.996 119.48C67.0125 119.409 67.0309 119.33 67.0512 119.241C67.2143 118.529 66.9833 118.747 66.8474 118.944L66.2359 117.857C65.998 118.022 65.2573 118.47 64.1975 118.944C63.3632 119.318 63.2564 119.26 63.037 119.141C62.9081 119.072 62.7402 118.981 62.3629 118.944C61.3436 118.846 60.8345 118.747 61.2419 117.165C62.1324 116.301 62.3226 116.042 63.037 115.066L63.0379 115.065C63.1406 114.924 63.2542 114.769 63.3822 114.596C64.0121 113.74 64.0191 113.678 64.0288 113.592C64.0348 113.539 64.0418 113.476 64.1975 113.212C64.5236 112.658 65.2165 112.125 65.5222 111.927H62.3629C61.4423 111.927 61.4551 111.886 61.5801 111.485C61.6489 111.265 61.7516 110.935 61.7516 110.445C61.7516 109.604 61.7516 109.274 61.8887 109.011C61.9773 108.842 62.123 108.7 62.3629 108.468C62.852 107.993 63.2462 107.545 63.3822 107.381C63.0424 107.381 62.1387 107.242 61.2419 106.689C60.436 106.191 60.6834 106 60.9619 105.786C61.0709 105.702 61.1846 105.614 61.2419 105.503C61.3131 105.365 61.4713 105.323 61.6471 105.277C61.9745 105.191 62.3629 105.088 62.3629 104.317C62.3276 104.26 62.2937 104.207 62.2611 104.156C62.0115 103.765 61.8417 103.499 61.7516 102.538C61.6497 101.45 62.7707 100.561 63.3822 100.166C63.8905 99.8369 63.8354 100.738 63.8024 101.278C63.7956 101.388 63.7898 101.483 63.7898 101.549C63.7898 101.839 63.8991 102.022 64.0376 102.255C64.0883 102.34 64.1429 102.432 64.1975 102.538C64.2628 102.664 64.3281 102.76 64.4168 102.891C64.6051 103.169 64.8989 103.602 65.5222 104.811C65.779 105.247 65.7121 105.369 65.6276 105.523C65.5779 105.614 65.5222 105.715 65.5222 105.898V107.381C65.5222 107.648 65.4989 107.927 65.4759 108.201C65.431 108.739 65.3873 109.261 65.5222 109.654C65.6853 110.128 67.9681 110.906 69.0892 111.235C68.9192 110.84 68.5793 109.851 68.5793 109.061C68.5793 108.155 68.2372 107.831 67.8663 107.479C67.8324 107.446 67.7982 107.414 67.764 107.381C67.4828 107.108 67.5894 106.318 67.6827 105.627C67.7247 105.317 67.764 105.026 67.764 104.811C67.764 104.264 68.0827 103.593 68.3672 102.994L68.3673 102.994C68.4425 102.836 68.5154 102.682 68.5793 102.538C68.8215 101.989 69.3837 101.627 69.8095 101.353C69.9211 101.281 70.0233 101.215 70.108 101.154C70.4341 100.917 71.263 99.1443 71.6367 98.2877C71.9763 100.66 72.2887 105.799 70.8212 107.381ZM67.764 76.5437C67.7302 76.6425 67.5812 76.86 67.2551 76.9391C66.8474 77.0379 65.5222 77.3344 65.5222 76.9391C65.5222 76.7178 65.3627 76.4655 65.1507 76.1303C64.984 75.8666 64.7848 75.5516 64.6053 75.16C64.3445 74.5911 64.4173 74.3052 64.5037 73.9661C64.5523 73.7751 64.6053 73.5672 64.6053 73.2822C64.6053 73.0066 64.6177 72.827 64.6295 72.6557C64.6516 72.3354 64.6717 72.0436 64.6053 71.2066C64.5498 70.5063 64.4336 70.0116 64.3395 69.6103C64.2608 69.2753 64.1975 69.0055 64.1975 68.7357V67.2531C64.1975 66.3636 63.5864 65.5729 62.9747 65.9683C62.8454 66.0518 62.7252 66.1177 62.6151 66.1781C62.2044 66.4034 61.9341 66.5516 61.8536 67.2531C61.8083 67.6485 61.6824 67.7315 61.5565 67.8144C61.3992 67.9181 61.2419 68.0218 61.2419 68.7357C61.2419 69.2839 61.1491 69.5983 61.0822 69.8245C60.9925 70.1286 60.9497 70.2737 61.2419 70.6136C61.6496 71.088 62.1591 70.8113 62.3629 70.6136H62.9747V71.2066C62.9747 71.4372 62.9294 71.6678 62.8841 71.8984C62.7936 72.3597 62.703 72.821 62.9747 73.2822C63.1784 73.6281 63.1785 73.7516 63.1785 73.9122C63.1785 74.0728 63.1786 74.2705 63.3823 74.7647C63.5181 75.0941 63.6087 75.3576 63.6841 75.5772C63.8351 76.0165 63.9256 76.2801 64.1975 76.5437C64.3606 76.7019 64.3118 76.8284 64.2531 76.9802C64.1652 77.2079 64.0552 77.4926 64.6053 78.0263C64.6053 78.8053 64.6755 79.2782 64.7285 79.6354C64.8033 80.1393 64.8439 80.413 64.6053 80.9913C64.4729 81.3121 64.3835 81.4767 64.3092 81.6136C64.1546 81.8984 64.0652 82.0629 63.7898 83.2646C63.5711 84.2193 63.3523 84.6048 63.1966 84.8792C63.0622 85.1161 62.9747 85.2703 62.9747 85.6367C62.9747 85.8996 62.9747 86.0204 63.0346 86.0973C63.0856 86.1628 63.18 86.1964 63.3548 86.2586C63.5923 86.3432 63.9782 86.4806 64.6053 86.8227C65.0929 87.0887 65.4712 87.337 65.7782 87.5386C66.498 88.0111 66.8264 88.2267 67.2551 87.811C67.4358 87.6357 67.6254 87.5814 67.8028 87.5305C68.2256 87.4092 68.5793 87.3077 68.5793 85.6367V81.782C68.5793 81.2338 68.7277 81.0274 68.8346 80.8789C68.9782 80.6794 69.0467 80.5842 68.5793 79.9042C68.3113 79.5144 68.0433 79.2313 67.8333 79.0094C67.4042 78.5561 67.2166 78.358 67.764 78.0263C68.4162 77.6309 68.0357 76.8732 67.764 76.5437ZM59.5263 36.9867C59.405 36.3865 59.391 36.3175 59.3058 36.3175C59.6455 36.3175 60.4268 36.4558 60.8345 37.0094C60.914 37.1174 60.9787 37.2013 61.0335 37.2724C61.3296 37.6568 61.3374 37.667 61.8536 39.0849C62.1871 40.0009 62.3084 40.2413 62.3827 40.4946C62.4448 40.706 62.4742 40.9264 62.567 41.5558C62.631 41.9894 62.6949 42.3259 62.7525 42.6293C62.8787 43.294 62.9747 43.7994 62.9747 44.8174C62.9747 45.5758 63.0813 45.7393 63.2401 45.9827C63.3917 46.2151 63.5908 46.5203 63.7898 47.4859C63.9246 48.1396 64.0371 48.6096 64.1347 49.0173C64.3323 49.8425 64.4689 50.4128 64.6053 51.7359C64.7342 52.9862 64.9039 53.1689 65.0113 53.2843C65.0736 53.3514 65.1149 53.3959 65.1149 53.6138C65.1149 54.2068 64.1975 53.6138 64.1975 53.0207C64.1975 52.7186 64.0917 52.5704 63.9744 52.4061C63.8615 52.2481 63.738 52.0752 63.6881 51.7359C63.6468 51.4555 63.5386 51.175 63.4176 50.8617C63.2401 50.402 63.0353 49.8715 62.9747 49.1662C62.9158 48.4804 62.5502 48.2242 62.2522 48.0154C62.0349 47.8631 61.8536 47.736 61.8536 47.4859C61.8536 46.8929 61.8536 46.6953 61.2419 44.8174C60.8571 43.6362 60.7952 43.6281 60.6754 43.6125C60.6047 43.6033 60.514 43.5915 60.3249 43.3348C59.9173 42.7813 59.6795 42.643 59.6115 42.643V40.1721C59.6115 39.4854 59.6456 39.0629 59.6719 38.7358C59.71 38.2625 59.7321 37.9891 59.6115 37.4046C59.5781 37.2426 59.5502 37.1044 59.5263 36.9867Z" fill="#D9D9D9"/>
<path fill-rule="evenodd" clip-rule="evenodd" d="M70.8212 107.381C69.3536 108.962 70.2097 117.396 70.8212 121.415H71.6367C71.9128 121.415 72.0095 121.27 72.2029 120.979C72.366 120.734 72.5979 120.385 73.0642 119.933C73.0642 119.616 73.4039 119.34 73.5737 119.241C73.7436 119.142 74.2464 118.47 74.8986 116.572C74.8986 116.404 74.9068 116.251 74.9163 116.076C74.9401 115.635 74.9716 115.051 74.8986 113.706C74.841 112.644 74.8812 112.53 74.9085 112.453C74.9295 112.394 74.9429 112.356 74.8986 111.927C74.8405 111.363 74.8487 111.217 74.8665 110.903C74.8798 110.666 74.8986 110.333 74.8986 109.654V107.381V105.898V104.317V101.945C74.8986 101.352 74.7967 100.166 74.0833 97.5958C73.7509 96.8221 73.7221 96.5531 73.6856 96.2126C73.6662 96.0311 73.6446 95.8294 73.5737 95.5202C73.3699 94.6307 73.0642 92.654 73.0642 90.3808V89.8866C72.9283 89.4912 72.5342 88.2459 72.045 86.4273C71.9379 85.8559 71.8306 85.6667 71.7529 85.5297C71.6827 85.4061 71.6367 85.325 71.6367 85.0436C71.6367 84.7549 71.5402 84.5364 71.4295 84.2856C71.3127 84.0213 71.1801 83.721 71.1278 83.2646C71.0947 82.9756 71.0508 82.7597 71.0065 82.5423C70.9145 82.0902 70.8212 81.6316 70.8212 80.4972V78.0263V75.7531C70.8212 75.4127 70.689 75.1639 70.5384 74.8805C70.3393 74.5056 70.108 74.0702 70.108 73.2822V71.8984V69.5264C70.108 68.4391 69.9048 67.1543 69.2934 65.2764C69.0809 64.7098 69.1453 64.2237 69.2268 63.6082C69.3016 63.0428 69.3909 62.3683 69.2934 61.4218C69.1754 60.2777 68.9891 59.9614 68.7149 59.4954C68.5152 59.1563 68.269 58.738 67.9685 57.8637C67.4954 56.4874 67.4705 56.1107 67.4182 55.3214C67.3917 54.9204 67.3581 54.4129 67.2551 53.6138C67.0462 51.9936 67.0276 51.895 66.9393 51.4284C66.8984 51.2119 66.8424 50.9161 66.7455 50.3522C66.5471 49.198 66.5204 49.2086 66.4147 49.2505C66.3575 49.2732 66.2772 49.305 66.134 49.1662C65.8259 48.8674 65.6924 48.2296 65.4255 46.9542C65.3394 46.5424 65.2393 46.0641 65.1149 45.5092C65.0199 45.0853 64.9461 44.7611 64.887 44.5013C64.7782 44.0231 64.7191 43.7631 64.6684 43.5016C64.608 43.1901 64.5596 42.8763 64.4535 42.1889C64.4375 42.0855 64.4203 41.9738 64.4015 41.8523C64.1882 40.4734 64.0741 40.0083 63.9208 39.3833C63.8544 39.1124 63.7805 38.8115 63.6881 38.393C63.5352 37.7012 63.4588 37.5282 63.3823 37.3552C63.3059 37.1823 63.2295 37.0093 63.0766 36.3175C62.8258 35.1826 62.5065 34.7791 62.1187 34.2889C62.0336 34.1815 61.9453 34.0698 61.8536 33.9454C61.577 33.5698 61.4205 33.2234 61.2701 32.8903C61.1433 32.6097 61.0209 32.3386 60.8345 32.0675C60.6031 31.7309 60.5687 31.5217 60.5077 31.1508C60.4612 30.8681 60.3993 30.4915 60.223 29.8931C60.0092 29.1673 60.0758 28.7406 60.158 28.2137C60.2325 27.736 60.3199 27.1761 60.223 26.2362C60.0659 24.7126 59.7272 24.9505 59.3934 25.1849C59.2942 25.2547 59.1954 25.324 59.1019 25.3467C58.846 25.4088 58.7105 25.6267 58.5695 25.8538C58.4859 25.9883 58.4004 26.1259 58.2866 26.2362C57.9809 26.5327 57.879 27.7188 57.879 29.0036C57.879 29.5156 57.9113 29.8079 57.9374 30.0431C57.9767 30.3981 58.0016 30.6229 57.879 31.2769C57.7402 32.0173 57.6959 32.1159 57.6174 32.2908C57.5806 32.3728 57.5363 32.4714 57.4713 32.6606C57.2675 33.2536 57.1656 33.5501 56.7579 34.6373C56.4967 35.334 56.5703 35.706 56.6568 36.1435C56.7054 36.3887 56.7579 36.6544 56.7579 37.0094C56.7579 37.3807 56.7867 37.6125 56.8118 37.8148C56.8535 38.1511 56.8852 38.4061 56.7579 39.0849C56.7033 39.3762 56.6487 39.625 56.598 39.8558C56.4595 40.4866 56.3503 40.9841 56.3503 41.8523V44.8174V46.6953V49.1662C56.3503 49.624 56.1883 50.8936 56.031 52.1259C55.8828 53.2876 55.7388 54.4161 55.7388 54.7998V57.0731C55.7388 57.6966 55.5732 58.0793 55.1674 59.0172C55.123 59.1199 55.0757 59.2292 55.0254 59.3463C54.7289 60.0365 54.7774 60.1242 54.8699 60.2912C54.9363 60.4111 55.0254 60.572 55.0254 61.0265V63.9916V66.3636C55.0254 67.0382 54.9595 67.1692 54.8651 67.3568C54.7935 67.4991 54.7056 67.6738 54.6177 68.1427C54.5953 68.2626 54.5753 68.3716 54.5568 68.4724L54.5567 68.4727C54.4077 69.2856 54.3577 69.5585 53.9043 70.6136C53.5707 71.3901 53.674 71.8701 53.785 72.3864C53.8436 72.6586 53.9043 72.9409 53.9043 73.2822C53.9043 73.6323 53.9171 73.8584 53.9291 74.0703C53.951 74.4566 53.9701 74.7957 53.9043 75.7531C53.8505 76.5366 53.7966 77.0165 53.7277 77.6303C53.6662 78.178 53.5928 78.8324 53.4967 79.9042C53.4437 80.4945 53.4046 80.9715 53.372 81.3681C53.2791 82.4987 53.2399 82.9758 53.089 83.5611C52.9379 84.1473 52.7308 84.3533 52.1769 84.9039C51.9837 85.096 51.7483 85.33 51.4584 85.6367C50.8052 86.3277 50.9132 86.3812 51.0364 86.4424C51.1247 86.4862 51.2209 86.5339 51.0507 86.8227C50.7284 87.3698 50.9158 89.6472 51.0084 90.7719C51.0329 91.0695 51.0507 91.2864 51.0507 91.3692C51.0507 91.7645 51.0507 92.2587 51.4584 94.4331C51.4584 94.9273 51.3565 95.4709 51.2546 96.0145C51.1527 96.5581 51.0507 97.1017 51.0507 97.5958V99.5726C51.0507 100.111 51.0686 100.406 51.0819 100.626C51.1004 100.931 51.11 101.09 51.0507 101.549C51.0057 101.898 50.9409 102.132 50.8562 102.437C50.749 102.823 50.61 103.323 50.4393 104.317C50.3722 104.707 50.3101 105.04 50.2539 105.341C50.0539 106.413 49.9297 107.079 49.9297 108.468V112.52V115.88V120.328V121.415C50.5751 121.58 51.968 121.969 52.3756 122.206C52.8852 122.503 54.8216 122.503 55.7388 122.503H58.5924C59.2152 122.503 59.6745 122.546 60.0668 122.583C60.7015 122.642 61.1608 122.686 61.8536 122.503C62.5169 122.327 62.7878 122.463 63.0672 122.603C63.2601 122.7 63.457 122.799 63.7898 122.799C64.442 122.799 64.3333 123.326 64.1975 123.59V124.479C64.1975 124.776 64.1975 125.27 63.7898 126.555C63.7898 126.95 64.0616 126.983 64.1975 126.95C64.4693 126.983 65.1148 127.029 65.5222 126.95C66.0314 126.851 66.8474 126.456 66.8474 126.061C66.8474 125.89 66.7341 125.775 66.605 125.644C66.4343 125.47 66.2359 125.269 66.2359 124.875V122.799C66.2359 122.228 66.4045 121.984 66.5646 121.753C66.7095 121.543 66.8474 121.344 66.8474 120.921C66.8474 120.482 66.8474 120.283 66.872 120.088C66.8922 119.928 66.929 119.769 66.996 119.48C67.0125 119.409 67.0309 119.33 67.0512 119.241C67.2143 118.529 66.9833 118.747 66.8474 118.944L66.2359 117.857C65.998 118.022 65.2573 118.47 64.1975 118.944C63.3632 119.318 63.2564 119.26 63.037 119.141C62.9081 119.072 62.7402 118.981 62.3629 118.944C61.3436 118.846 60.8345 118.747 61.2419 117.165C62.1324 116.301 62.3226 116.042 63.037 115.066L63.0379 115.065C63.1406 114.924 63.2542 114.769 63.3822 114.596C64.0121 113.74 64.0191 113.678 64.0288 113.592C64.0348 113.539 64.0418 113.476 64.1975 113.212C64.5236 112.658 65.2165 112.125 65.5222 111.927H62.3629C61.4423 111.927 61.4551 111.886 61.5801 111.485C61.6489 111.265 61.7516 110.935 61.7516 110.445C61.7516 109.604 61.7516 109.274 61.8887 109.011C61.9773 108.842 62.123 108.7 62.3629 108.468C62.852 107.993 63.2462 107.545 63.3822 107.381C63.0424 107.381 62.1387 107.242 61.2419 106.689C60.436 106.191 60.6834 106 60.9619 105.786C61.0709 105.702 61.1846 105.614 61.2419 105.503C61.3131 105.365 61.4713 105.323 61.6471 105.277C61.9745 105.191 62.3629 105.088 62.3629 104.317C62.3276 104.26 62.2937 104.207 62.2611 104.156C62.0115 103.765 61.8417 103.499 61.7516 102.538C61.6497 101.45 62.7707 100.561 63.3822 100.166C63.8905 99.8369 63.8354 100.738 63.8024 101.278C63.7956 101.388 63.7898 101.483 63.7898 101.549C63.7898 101.839 63.8991 102.022 64.0376 102.255C64.0883 102.34 64.1429 102.432 64.1975 102.538C64.2628 102.664 64.3281 102.76 64.4168 102.891C64.6051 103.169 64.8989 103.602 65.5222 104.811C65.779 105.247 65.7121 105.369 65.6276 105.523C65.5779 105.614 65.5222 105.715 65.5222 105.898V107.381C65.5222 107.648 65.4989 107.927 65.4759 108.201C65.431 108.739 65.3873 109.261 65.5222 109.654C65.6853 110.128 67.9681 110.906 69.0892 111.235C68.9192 110.84 68.5793 109.851 68.5793 109.061C68.5793 108.155 68.2372 107.831 67.8663 107.479C67.8324 107.446 67.7982 107.414 67.764 107.381C67.4828 107.108 67.5894 106.318 67.6827 105.627C67.7247 105.317 67.764 105.026 67.764 104.811C67.764 104.264 68.0827 103.593 68.3672 102.994L68.3673 102.994C68.4425 102.836 68.5154 102.682 68.5793 102.538C68.8215 101.989 69.3837 101.627 69.8095 101.353C69.9211 101.281 70.0233 101.215 70.108 101.154C70.4341 100.917 71.263 99.1443 71.6367 98.2877C71.9763 100.66 72.2887 105.799 70.8212 107.381ZM67.764 76.5437C67.7302 76.6425 67.5812 76.86 67.2551 76.9391C66.8474 77.0379 65.5222 77.3344 65.5222 76.9391C65.5222 76.7178 65.3627 76.4655 65.1507 76.1303C64.984 75.8666 64.7848 75.5516 64.6053 75.16C64.3445 74.5911 64.4173 74.3052 64.5037 73.9661C64.5523 73.7751 64.6053 73.5672 64.6053 73.2822C64.6053 73.0066 64.6177 72.827 64.6295 72.6557C64.6516 72.3354 64.6717 72.0436 64.6053 71.2066C64.5498 70.5063 64.4336 70.0116 64.3395 69.6103C64.2608 69.2753 64.1975 69.0055 64.1975 68.7357V67.2531C64.1975 66.3636 63.5864 65.5729 62.9747 65.9683C62.8454 66.0518 62.7252 66.1177 62.6151 66.1781C62.2044 66.4034 61.9341 66.5516 61.8536 67.2531C61.8083 67.6485 61.6824 67.7315 61.5565 67.8144C61.3992 67.9181 61.2419 68.0218 61.2419 68.7357C61.2419 69.2839 61.1491 69.5983 61.0822 69.8245C60.9925 70.1286 60.9497 70.2737 61.2419 70.6136C61.6496 71.088 62.1591 70.8113 62.3629 70.6136H62.9747V71.2066C62.9747 71.4372 62.9294 71.6678 62.8841 71.8984C62.7936 72.3597 62.703 72.821 62.9747 73.2822C63.1784 73.6281 63.1785 73.7516 63.1785 73.9122C63.1785 74.0728 63.1786 74.2705 63.3823 74.7647C63.5181 75.0941 63.6087 75.3576 63.6841 75.5772C63.8351 76.0165 63.9256 76.2801 64.1975 76.5437C64.3606 76.7019 64.3118 76.8284 64.2531 76.9802C64.1652 77.2079 64.0552 77.4926 64.6053 78.0263C64.6053 78.8053 64.6755 79.2782 64.7285 79.6354C64.8033 80.1393 64.8439 80.413 64.6053 80.9913C64.4729 81.3121 64.3835 81.4767 64.3092 81.6136C64.1546 81.8984 64.0652 82.0629 63.7898 83.2646C63.5711 84.2193 63.3523 84.6048 63.1966 84.8792C63.0622 85.1161 62.9747 85.2703 62.9747 85.6367C62.9747 85.8996 62.9747 86.0204 63.0346 86.0973C63.0856 86.1628 63.18 86.1964 63.3548 86.2586C63.5923 86.3432 63.9782 86.4806 64.6053 86.8227C65.0929 87.0887 65.4712 87.337 65.7782 87.5386C66.498 88.0111 66.8264 88.2267 67.2551 87.811C67.4358 87.6357 67.6254 87.5814 67.8028 87.5305C68.2256 87.4092 68.5793 87.3077 68.5793 85.6367V81.782C68.5793 81.2338 68.7277 81.0274 68.8346 80.8789C68.9782 80.6794 69.0467 80.5842 68.5793 79.9042C68.3113 79.5144 68.0433 79.2313 67.8333 79.0094C67.4042 78.5561 67.2166 78.358 67.764 78.0263C68.4162 77.6309 68.0357 76.8732 67.764 76.5437ZM59.5263 36.9867C59.405 36.3865 59.391 36.3175 59.3058 36.3175C59.6455 36.3175 60.4268 36.4558 60.8345 37.0094C60.914 37.1174 60.9787 37.2013 61.0335 37.2724C61.3296 37.6568 61.3374 37.667 61.8536 39.0849C62.1871 40.0009 62.3084 40.2413 62.3827 40.4946C62.4448 40.706 62.4742 40.9264 62.567 41.5558C62.631 41.9894 62.6949 42.3259 62.7525 42.6293C62.8787 43.294 62.9747 43.7994 62.9747 44.8174C62.9747 45.5758 63.0813 45.7393 63.2401 45.9827C63.3917 46.2151 63.5908 46.5203 63.7898 47.4859C63.9246 48.1396 64.0371 48.6096 64.1347 49.0173C64.3323 49.8425 64.4689 50.4128 64.6053 51.7359C64.7342 52.9862 64.9039 53.1689 65.0113 53.2843C65.0736 53.3514 65.1149 53.3959 65.1149 53.6138C65.1149 54.2068 64.1975 53.6138 64.1975 53.0207C64.1975 52.7186 64.0917 52.5704 63.9744 52.4061C63.8615 52.2481 63.738 52.0752 63.6881 51.7359C63.6468 51.4555 63.5386 51.175 63.4176 50.8617C63.2401 50.402 63.0353 49.8715 62.9747 49.1662C62.9158 48.4804 62.5502 48.2242 62.2522 48.0154C62.0349 47.8631 61.8536 47.736 61.8536 47.4859C61.8536 46.8929 61.8536 46.6953 61.2419 44.8174C60.8571 43.6362 60.7952 43.6281 60.6754 43.6125C60.6047 43.6033 60.514 43.5915 60.3249 43.3348C59.9173 42.7813 59.6795 42.643 59.6115 42.643V40.1721C59.6115 39.4854 59.6456 39.0629 59.6719 38.7358C59.71 38.2625 59.7321 37.9891 59.6115 37.4046C59.5781 37.2426 59.5502 37.1044 59.5263 36.9867Z" fill="#F8EDB7"/>
<path d="M276.824 71.3693C276.957 70.3229 277.084 69.2765 277.205 68.23C278.294 58.8115 278.905 49.3862 279.038 39.9542C279.171 30.5222 278.826 21.0835 278.002 11.638C277.911 10.5885 277.813 9.53893 277.71 8.48926C277.577 9.5356 277.45 10.582 277.329 11.6285C276.24 21.047 275.629 30.4723 275.496 39.9043C275.363 49.3363 275.708 58.7751 276.532 68.2205C276.623 69.27 276.721 70.3196 276.824 71.3693Z" fill="#584B21"/>
<path d="M276.824 71.3693C276.957 70.3229 277.084 69.2765 277.205 68.23C278.294 58.8115 278.905 49.3862 279.038 39.9542C279.171 30.5222 278.826 21.0835 278.002 11.638C277.911 10.5885 277.813 9.53893 277.71 8.48926C277.577 9.5356 277.45 10.582 277.329 11.6285C276.24 21.047 275.629 30.4723 275.496 39.9043C275.363 49.3363 275.708 58.7751 276.532 68.2205C276.623 69.27 276.721 70.3196 276.824 71.3693Z" fill="#F8EDB7"/>
<path d="M289.857 74.4541C290.389 73.5437 290.916 72.6308 291.438 71.7156C296.133 63.4783 300.39 55.0474 304.211 46.4228C308.031 37.7981 311.415 28.9798 314.361 19.9678C314.688 18.9665 315.01 17.9628 315.326 16.9566C314.794 17.8671 314.267 18.78 313.745 19.6952C309.05 27.9324 304.792 36.3634 300.972 44.988C297.151 53.6126 293.768 62.4309 290.822 71.443C290.495 72.4443 290.173 73.448 289.857 74.4541Z" fill="#584B21"/>
<path d="M289.857 74.4541C290.389 73.5437 290.916 72.6308 291.438 71.7156C296.133 63.4783 300.39 55.0474 304.211 46.4228C308.031 37.7981 311.415 28.9798 314.361 19.9678C314.688 18.9665 315.01 17.9628 315.326 16.9566C314.794 17.8671 314.267 18.78 313.745 19.6952C309.05 27.9324 304.792 36.3634 300.972 44.988C297.151 53.6126 293.768 62.4309 290.822 71.443C290.495 72.4443 290.173 73.448 289.857 74.4541Z" fill="#F8EDB7"/>
<path d="M262.335 73.416C261.802 72.5056 261.275 71.5927 260.754 70.6775C256.059 62.4402 251.801 54.0093 247.98 45.3847C244.16 36.7601 240.777 27.9417 237.831 18.9297C237.503 17.9284 237.182 16.9247 236.865 15.9185C237.397 16.829 237.925 17.7419 238.446 18.6571C243.141 26.8943 247.399 35.3253 251.219 43.9499C255.04 52.5745 258.423 61.3929 261.369 70.4049C261.696 71.4062 262.018 72.4099 262.335 73.416Z" fill="#584B21"/>
<path d="M262.335 73.416C261.802 72.5056 261.275 71.5927 260.754 70.6775C256.059 62.4402 251.801 54.0093 247.98 45.3847C244.16 36.7601 240.777 27.9417 237.831 18.9297C237.503 17.9284 237.182 16.9247 236.865 15.9185C237.397 16.829 237.925 17.7419 238.446 18.6571C243.141 26.8943 247.399 35.3253 251.219 43.9499C255.04 52.5745 258.423 61.3929 261.369 70.4049C261.696 71.4062 262.018 72.4099 262.335 73.416Z" fill="#F8EDB7"/>
<path d="M301.635 81.9809C302.431 81.2885 303.222 80.5921 304.009 79.8917C311.091 73.5882 317.822 66.9613 324.199 60.0111C330.577 53.0609 336.602 45.7873 342.275 38.1905C342.905 37.3464 343.531 36.4983 344.153 35.6462C343.357 36.3386 342.566 37.035 341.779 37.7354C334.697 44.0389 327.967 50.6658 321.589 57.616C315.211 64.5662 309.186 71.8398 303.513 79.4367C302.883 80.2808 302.257 81.1288 301.635 81.9809Z" fill="#584B21"/>
<path d="M301.635 81.9809C302.431 81.2885 303.222 80.5921 304.009 79.8917C311.091 73.5882 317.822 66.9613 324.199 60.0111C330.577 53.0609 336.602 45.7873 342.275 38.1905C342.905 37.3464 343.531 36.4983 344.153 35.6462C343.357 36.3386 342.566 37.035 341.779 37.7354C334.697 44.0389 327.967 50.6658 321.589 57.616C315.211 64.5662 309.186 71.8398 303.513 79.4367C302.883 80.2808 302.257 81.1288 301.635 81.9809Z" fill="#F8EDB7"/>
<path d="M250.564 80.9409C249.768 80.2485 248.977 79.5521 248.19 78.8517C241.108 72.5482 234.378 65.9213 228 58.9711C221.622 52.0209 215.597 44.7473 209.924 37.1504C209.294 36.3063 208.668 35.4582 208.046 34.6061C208.842 35.2985 209.633 35.9949 210.42 36.6953C217.502 42.9989 224.232 49.6257 230.61 56.5759C236.988 63.5262 243.013 70.7997 248.686 78.3966C249.316 79.2407 249.942 80.0888 250.564 80.9409Z" fill="#584B21"/>
<path d="M250.564 80.9409C249.768 80.2485 248.977 79.5521 248.19 78.8517C241.108 72.5482 234.378 65.9213 228 58.9711C221.622 52.0209 215.597 44.7473 209.924 37.1504C209.294 36.3063 208.668 35.4582 208.046 34.6061C208.842 35.2985 209.633 35.9949 210.42 36.6953C217.502 42.9989 224.232 49.6257 230.61 56.5759C236.988 63.5262 243.013 70.7997 248.686 78.3966C249.316 79.2407 249.942 80.0888 250.564 80.9409Z" fill="#F8EDB7"/>
<path d="M314.013 91.2925C314.986 90.8844 315.955 90.4711 316.922 90.0527C325.623 86.2867 334.091 82.1033 342.326 77.5023C350.561 72.9014 358.563 67.8829 366.331 62.447C367.194 61.843 368.054 61.2338 368.912 60.6195C367.939 61.0277 366.969 61.4409 366.002 61.8594C357.301 65.6253 348.833 69.8088 340.598 74.4097C332.364 79.0107 324.362 84.0292 316.594 89.4651C315.731 90.0691 314.87 90.6782 314.013 91.2925Z" fill="#584B21"/>
<path d="M314.013 91.2925C314.986 90.8844 315.955 90.4711 316.922 90.0527C325.623 86.2867 334.091 82.1033 342.326 77.5023C350.561 72.9014 358.563 67.8829 366.331 62.447C367.194 61.843 368.054 61.2338 368.912 60.6195C367.939 61.0277 366.969 61.4409 366.002 61.8594C357.301 65.6253 348.833 69.8088 340.598 74.4097C332.364 79.0107 324.362 84.0292 316.594 89.4651C315.731 90.0691 314.87 90.6782 314.013 91.2925Z" fill="#F8EDB7"/>
<path d="M238.174 90.2545C237.202 89.8463 236.232 89.433 235.265 89.0146C226.564 85.2486 218.096 81.0652 209.861 76.4642C201.626 71.8633 193.625 66.8448 185.857 61.4089C184.994 60.8049 184.133 60.1957 183.276 59.5814C184.249 59.9896 185.218 60.4029 186.185 60.8213C194.886 64.5872 203.354 68.7707 211.589 73.3717C219.824 77.9726 227.825 82.9911 235.594 88.427C236.457 89.031 237.317 89.6402 238.174 90.2545Z" fill="#584B21"/>
<path d="M238.174 90.2545C237.202 89.8463 236.232 89.433 235.265 89.0146C226.564 85.2486 218.096 81.0652 209.861 76.4642C201.626 71.8633 193.625 66.8448 185.857 61.4089C184.994 60.8049 184.133 60.1957 183.276 59.5814C184.249 59.9896 185.218 60.4029 186.185 60.8213C194.886 64.5872 203.354 68.7707 211.589 73.3717C219.824 77.9726 227.825 82.9911 235.594 88.427C236.457 89.031 237.317 89.6402 238.174 90.2545Z" fill="#F8EDB7"/>
<path d="M315.803 104.628C316.858 104.604 317.911 104.573 318.964 104.538C328.44 104.214 337.851 103.417 347.198 102.147C356.545 100.876 365.828 99.1309 375.046 96.9122C376.07 96.6657 377.093 96.4133 378.116 96.1551C377.062 96.1793 376.008 96.2093 374.955 96.2452C365.479 96.5684 356.068 97.3654 346.721 98.6363C337.374 99.9072 328.092 101.652 318.873 103.871C317.849 104.117 316.826 104.37 315.803 104.628Z" fill="#584B21"/>
<path d="M315.803 104.628C316.858 104.604 317.911 104.573 318.964 104.538C328.44 104.214 337.851 103.417 347.198 102.147C356.545 100.876 365.828 99.1309 375.046 96.9122C376.07 96.6657 377.093 96.4133 378.116 96.1551C377.062 96.1793 376.008 96.2093 374.955 96.2452C365.479 96.5684 356.068 97.3654 346.721 98.6363C337.374 99.9072 328.092 101.652 318.873 103.871C317.849 104.117 316.826 104.37 315.803 104.628Z" fill="#F8EDB7"/>
<path d="M236.412 103.589C235.357 103.564 234.304 103.534 233.251 103.499C223.775 103.175 214.364 102.378 205.017 101.107C195.67 99.8366 186.387 98.0918 177.169 95.8731C176.145 95.6266 175.121 95.3742 174.099 95.116C175.153 95.1402 176.207 95.1703 177.26 95.2062C186.736 95.5293 196.147 96.3263 205.494 97.5972C214.841 98.8681 224.123 100.613 233.341 102.832C234.366 103.078 235.389 103.33 236.412 103.589Z" fill="#584B21"/>
<path d="M236.412 103.589C235.357 103.564 234.304 103.534 233.251 103.499C223.775 103.175 214.364 102.378 205.017 101.107C195.67 99.8366 186.387 98.0918 177.169 95.8731C176.145 95.6266 175.121 95.3742 174.099 95.116C175.153 95.1402 176.207 95.1703 177.26 95.2062C186.736 95.5293 196.147 96.3263 205.494 97.5972C214.841 98.8681 224.123 100.613 233.341 102.832C234.366 103.078 235.389 103.33 236.412 103.589Z" fill="#F8EDB7"/>
<path d="M-104 145.918C-104 145.918 -104 145.918 -104 145.918C-95.3951 143.844 -86.673 141.951 -77.9481 140.157C-38.0405 132.263 2.61606 125.15 42.9004 126.626C81.8404 128.734 120.138 137.746 157.947 147.926C186.288 155.461 214.317 164.433 243.435 170.268C293.909 178.595 344.683 180.665 395.387 183.049C404.287 183.412 413.312 183.746 422.067 184C413.339 183.274 404.344 182.493 395.474 181.705C345.04 176.924 294.062 173.127 244.673 164.078C216.308 157.883 188.253 148.658 159.795 141.086C121.797 130.857 82.8656 122.148 43.1301 120.927C1.69617 120.405 -38.6542 129.048 -78.2499 138.845C-86.8925 141.057 -95.5168 143.387 -104 145.918Z" fill="#584B21"/>
<path d="M-104 145.918C-104 145.918 -104 145.918 -104 145.918C-95.3951 143.844 -86.673 141.951 -77.9481 140.157C-38.0405 132.263 2.61606 125.15 42.9004 126.626C81.8404 128.734 120.138 137.746 157.947 147.926C186.288 155.461 214.317 164.433 243.435 170.268C293.909 178.595 344.683 180.665 395.387 183.049C404.287 183.412 413.312 183.746 422.067 184C413.339 183.274 404.344 182.493 395.474 181.705C345.04 176.924 294.062 173.127 244.673 164.078C216.308 157.883 188.253 148.658 159.795 141.086C121.797 130.857 82.8656 122.148 43.1301 120.927C1.69617 120.405 -38.6542 129.048 -78.2499 138.845C-86.8925 141.057 -95.5168 143.387 -104 145.918Z" fill="#F8EDB7"/>
<path d="M317.582 166.132C324.014 165.929 329.877 165.665 336.185 165.25C392.091 162.989 445.87 143.57 498.503 128.516C551.789 114.181 607.846 120.395 662.512 130.645C668.383 131.746 674.43 132.944 680.692 134.249C680.692 134.249 680.692 134.249 680.692 134.249C674.543 132.485 668.595 130.85 662.807 129.332C609.067 115.359 551.693 106.896 496.769 121.646C442.803 137.078 391.653 157.756 336.051 163.911C329.8 164.747 323.982 165.457 317.582 166.132Z" fill="#584B21"/>
<path d="M317.582 166.132C324.014 165.929 329.877 165.665 336.185 165.25C392.091 162.989 445.87 143.57 498.503 128.516C551.789 114.181 607.846 120.395 662.512 130.645C668.383 131.746 674.43 132.944 680.692 134.249C680.692 134.249 680.692 134.249 680.692 134.249C674.543 132.485 668.595 130.85 662.807 129.332C609.067 115.359 551.693 106.896 496.769 121.646C442.803 137.078 391.653 157.756 336.051 163.911C329.8 164.747 323.982 165.457 317.582 166.132Z" fill="#F8EDB7"/>
<path d="M127.152 118.303C133.231 117.516 139.367 116.833 145.484 116.222C159.75 114.849 174.098 113.668 188.243 114.07C218.713 114.248 246.503 130.388 278.429 131.483C289.046 132.073 299.684 131.543 310.146 129.952C352.456 123.261 389.655 100.838 431.669 104.267C445.106 104.984 458.633 106.932 472.066 109.016C478.158 109.98 484.209 110.994 490.262 112.103C484.311 110.533 478.344 109.078 472.322 107.694C459.024 104.682 445.641 101.908 431.952 100.456C388.87 94.7261 349.11 116.813 309.087 122.946C299.061 124.47 288.939 125.04 278.763 124.607C248.798 124.167 219.976 108.838 188.279 110.136C173.741 110.472 159.492 112.53 145.304 114.888C139.231 115.922 133.153 117.05 127.152 118.303Z" fill="#584B21"/>
<path d="M127.152 118.303C133.231 117.516 139.367 116.833 145.484 116.222C159.75 114.849 174.098 113.668 188.243 114.07C218.713 114.248 246.503 130.388 278.429 131.483C289.046 132.073 299.684 131.543 310.146 129.952C352.456 123.261 389.655 100.838 431.669 104.267C445.106 104.984 458.633 106.932 472.066 109.016C478.158 109.98 484.209 110.994 490.262 112.103C484.311 110.533 478.344 109.078 472.322 107.694C459.024 104.682 445.641 101.908 431.952 100.456C388.87 94.7261 349.11 116.813 309.087 122.946C299.061 124.47 288.939 125.04 278.763 124.607C248.798 124.167 219.976 108.838 188.279 110.136C173.741 110.472 159.492 112.53 145.304 114.888C139.231 115.922 133.153 117.05 127.152 118.303Z" fill="#F8EDB7"/>
<path d="M172.32 123.619C174.462 123.853 176.585 124.15 178.707 124.473C196.987 127.566 215.584 131.021 232.772 136.775C233.465 137.054 234.148 137.326 234.822 137.592C252.733 144.715 272.167 150.439 291.63 149.164C293.78 149.169 295.928 149.205 298.08 149.303C295.952 148.97 293.811 148.709 291.664 148.492C272.165 147.804 254.031 141.378 236.122 134.296C235.453 134.032 234.775 133.764 234.086 133.49C215.935 127.491 197.437 125.111 178.775 123.803C176.625 123.691 174.475 123.617 172.32 123.619Z" fill="#584B21"/>
<path d="M172.32 123.619C174.462 123.853 176.585 124.15 178.707 124.473C196.987 127.566 215.584 131.021 232.772 136.775C233.465 137.054 234.148 137.326 234.822 137.592C252.733 144.715 272.167 150.439 291.63 149.164C293.78 149.169 295.928 149.205 298.08 149.303C295.952 148.97 293.811 148.709 291.664 148.492C272.165 147.804 254.031 141.378 236.122 134.296C235.453 134.032 234.775 133.764 234.086 133.49C215.935 127.491 197.437 125.111 178.775 123.803C176.625 123.691 174.475 123.617 172.32 123.619Z" fill="#F8EDB7"/>
<path d="M274.173 80.2236C292.759 80.2238 307.826 95.2914 307.826 113.878C307.826 118.55 306.876 121.397 305.335 123.137C303.805 124.864 301.546 125.666 298.526 125.904C295.495 126.144 291.858 125.806 287.705 125.394C283.617 124.987 279.071 124.513 274.295 124.505C269.781 123.173 265.346 122.985 261.268 123.147C259.21 123.229 257.232 123.401 255.384 123.561C253.527 123.721 251.811 123.867 250.237 123.909C247.05 123.994 244.693 123.63 243.108 122.299C241.554 120.992 240.519 118.552 240.519 113.878C240.519 95.2913 255.586 80.2236 274.173 80.2236Z" fill="#584B21"/>
<path d="M274.173 80.2236C292.759 80.2238 307.826 95.2914 307.826 113.878C307.826 118.55 306.876 121.397 305.335 123.137C303.805 124.864 301.546 125.666 298.526 125.904C295.495 126.144 291.858 125.806 287.705 125.394C283.617 124.987 279.071 124.513 274.295 124.505C269.781 123.173 265.346 122.985 261.268 123.147C259.21 123.229 257.232 123.401 255.384 123.561C253.527 123.721 251.811 123.867 250.237 123.909C247.05 123.994 244.693 123.63 243.108 122.299C241.554 120.992 240.519 118.552 240.519 113.878C240.519 95.2913 255.586 80.2236 274.173 80.2236Z" fill="#F8EDB7"/>
<path d="M274.173 80.2236C292.759 80.2238 307.826 95.2914 307.826 113.878C307.826 118.55 306.876 121.397 305.335 123.137C303.805 124.864 301.546 125.666 298.526 125.904C295.495 126.144 291.858 125.806 287.705 125.394C283.617 124.987 279.071 124.513 274.295 124.505C269.781 123.173 265.346 122.985 261.268 123.147C259.21 123.229 257.232 123.401 255.384 123.561C253.527 123.721 251.811 123.867 250.237 123.909C247.05 123.994 244.693 123.63 243.108 122.299C241.554 120.992 240.519 118.552 240.519 113.878C240.519 95.2913 255.586 80.2236 274.173 80.2236Z" stroke="#584B21" stroke-width="1.77127"/>
<path d="M274.173 80.2236C292.759 80.2238 307.826 95.2914 307.826 113.878C307.826 118.55 306.876 121.397 305.335 123.137C303.805 124.864 301.546 125.666 298.526 125.904C295.495 126.144 291.858 125.806 287.705 125.394C283.617 124.987 279.071 124.513 274.295 124.505C269.781 123.173 265.346 122.985 261.268 123.147C259.21 123.229 257.232 123.401 255.384 123.561C253.527 123.721 251.811 123.867 250.237 123.909C247.05 123.994 244.693 123.63 243.108 122.299C241.554 120.992 240.519 118.552 240.519 113.878C240.519 95.2913 255.586 80.2236 274.173 80.2236Z" stroke="#F8EDB7" stroke-width="1.77127"/>
</svg>
