<svg width="550" height="163" viewBox="0 0 550 163" fill="none" xmlns="http://www.w3.org/2000/svg">
<path fill-rule="evenodd" clip-rule="evenodd" d="M184.661 51.9628C183.64 52.9605 184.236 58.2812 184.661 60.8168H185.229C185.421 60.8168 185.489 60.7251 185.623 60.5415C185.737 60.3868 185.898 60.1668 186.223 59.8815C186.223 59.682 186.459 59.5074 186.578 59.4451C186.696 59.3827 187.046 58.9587 187.5 57.7615C187.5 57.6553 187.506 57.5591 187.512 57.4486C187.529 57.1703 187.551 56.8015 187.5 55.9533C187.46 55.2831 187.488 55.2116 187.507 55.1629C187.521 55.1256 187.531 55.1018 187.5 54.831C187.459 54.4752 187.465 54.3834 187.478 54.1847C187.487 54.0352 187.5 53.8253 187.5 53.3969V51.9628V51.0276V50.0299V48.5334C187.5 48.1593 187.429 47.4111 186.932 45.79C186.701 45.3019 186.681 45.1322 186.655 44.9173C186.642 44.8029 186.627 44.6756 186.578 44.4806C186.436 43.9194 186.223 42.6724 186.223 41.2383V40.9265C186.128 40.6771 185.854 39.8915 185.513 38.7442C185.439 38.3837 185.364 38.2644 185.31 38.178C185.261 38.0999 185.229 38.0488 185.229 37.8713C185.229 37.6891 185.162 37.5513 185.085 37.3931C185.004 37.2263 184.911 37.0369 184.875 36.7489C184.852 36.5667 184.821 36.4304 184.79 36.2933C184.726 36.0081 184.661 35.7188 184.661 35.0031V33.4443V32.0102C184.661 31.7955 184.569 31.6385 184.464 31.4597C184.326 31.2232 184.165 30.9485 184.165 30.4514V29.5785V28.082C184.165 27.3961 184.023 26.5856 183.598 25.4009C183.45 25.0434 183.495 24.7367 183.551 24.3485C183.603 23.9918 183.666 23.5662 183.598 22.9691C183.516 22.2474 183.386 22.0478 183.195 21.7539C183.056 21.5399 182.885 21.276 182.675 20.7245C182.346 19.8562 182.329 19.6185 182.292 19.1206C182.274 18.8677 182.25 18.5475 182.179 18.0433C182.033 17.0212 182.02 16.959 181.959 16.6647C181.93 16.5281 181.891 16.3415 181.824 15.9857C181.686 15.2576 181.667 15.2643 181.594 15.2907C181.554 15.305 181.498 15.3251 181.398 15.2375C181.184 15.049 181.091 14.6467 180.905 13.8421C180.845 13.5823 180.775 13.2805 180.689 12.9305C180.623 12.6631 180.571 12.4585 180.53 12.2946C180.454 11.9929 180.413 11.8289 180.378 11.664C180.336 11.4674 180.302 11.2695 180.228 10.8358C180.217 10.7706 180.205 10.7001 180.192 10.6235C180.044 9.7536 179.964 9.46016 179.857 9.0659C179.811 8.89499 179.76 8.70513 179.695 8.44114C179.589 8.00468 179.536 7.89556 179.483 7.78644C179.429 7.67733 179.376 7.56821 179.27 7.13175C179.095 6.41581 178.873 6.16125 178.603 5.85204C178.544 5.78424 178.482 5.7138 178.418 5.6353C178.226 5.39836 178.117 5.17982 178.012 4.96968C177.924 4.79269 177.839 4.62166 177.709 4.45061C177.548 4.23828 177.524 4.1063 177.481 3.87229C177.449 3.69397 177.406 3.4564 177.283 3.07887C177.134 2.62096 177.181 2.35179 177.238 2.01937C177.29 1.71806 177.351 1.36478 177.283 0.77188C177.174 -0.189305 176.938 -0.0392059 176.706 0.108664C176.637 0.152641 176.568 0.19642 176.503 0.210712C176.324 0.249868 176.23 0.387378 176.132 0.530597C176.074 0.615442 176.014 0.70229 175.935 0.77188C175.722 0.958936 175.651 1.70716 175.651 2.51773C175.651 2.84073 175.674 3.02512 175.692 3.17347C175.719 3.39742 175.737 3.53926 175.651 3.95183C175.555 4.41893 175.524 4.48116 175.469 4.59151C175.444 4.64319 175.413 4.70542 175.367 4.82476C175.226 5.19887 175.155 5.38592 174.871 6.0718C174.689 6.51135 174.74 6.74604 174.8 7.02203C174.834 7.17669 174.871 7.34432 174.871 7.56824C174.871 7.80248 174.891 7.94872 174.908 8.07639C174.937 8.28856 174.959 8.44943 174.871 8.87763C174.833 9.06141 174.795 9.21833 174.759 9.36398C174.663 9.76191 174.587 10.0758 174.587 10.6235V12.494V13.6787V15.2375C174.587 15.5264 174.474 16.3273 174.365 17.1047C174.262 17.8376 174.161 18.5495 174.161 18.7916V20.2257C174.161 20.6191 174.046 20.8605 173.764 21.4522C173.733 21.517 173.7 21.5859 173.665 21.6598C173.458 22.0952 173.492 22.1505 173.556 22.2559C173.603 22.3315 173.665 22.433 173.665 22.7198V24.5903V26.0868C173.665 26.5123 173.619 26.595 173.553 26.7133C173.503 26.8031 173.442 26.9133 173.381 27.2091C173.365 27.2847 173.351 27.3535 173.338 27.4171L173.338 27.4173C173.235 27.9301 173.2 28.1023 172.884 28.7679C172.652 29.2578 172.724 29.5606 172.801 29.8863C172.842 30.058 172.884 30.2361 172.884 30.4514C172.884 30.6723 172.893 30.8149 172.901 30.9486C172.917 31.1923 172.93 31.4063 172.884 32.0102C172.847 32.5045 172.809 32.8072 172.761 33.1945C172.718 33.54 172.667 33.9528 172.6 34.629C172.564 35.0014 172.536 35.3023 172.514 35.5525C172.449 36.2658 172.422 36.5667 172.317 36.936C172.211 37.3058 172.067 37.4357 171.682 37.7831C171.547 37.9043 171.383 38.0519 171.181 38.2454C170.727 38.6813 170.802 38.7151 170.888 38.7537C170.949 38.7814 171.016 38.8115 170.898 38.9936C170.673 39.3388 170.804 40.7755 170.868 41.485C170.885 41.6728 170.898 41.8096 170.898 41.8618C170.898 42.1112 170.898 42.423 171.181 43.7947C171.181 44.1065 171.11 44.4494 171.04 44.7924C170.969 45.1353 170.898 45.4782 170.898 45.79V47.037C170.898 47.3765 170.91 47.5628 170.919 47.7014C170.932 47.8938 170.939 47.9941 170.898 48.2841C170.866 48.5043 170.821 48.6516 170.762 48.844C170.688 49.0874 170.591 49.4031 170.472 50.0299C170.425 50.276 170.382 50.4861 170.343 50.6759C170.204 51.3522 170.117 51.7724 170.117 52.6487V55.2051V57.3251V60.1309V60.8168C170.567 60.9207 171.536 61.166 171.82 61.3156C172.175 61.5027 173.523 61.5027 174.161 61.5027H176.148C176.582 61.5027 176.901 61.53 177.174 61.5533C177.616 61.591 177.936 61.6183 178.418 61.5027C178.88 61.392 179.069 61.4778 179.263 61.5663C179.397 61.6274 179.535 61.6897 179.766 61.6897C180.22 61.6897 180.145 62.0223 180.05 62.1886V62.7497C180.05 62.9368 180.05 63.2485 179.766 64.0591C179.766 64.3085 179.955 64.3293 180.05 64.3085C180.239 64.3293 180.689 64.3584 180.972 64.3085C181.327 64.2462 181.895 63.9968 181.895 63.7474C181.895 63.64 181.816 63.5673 181.726 63.4845C181.607 63.3749 181.469 63.2477 181.469 62.9991V61.6897C181.469 61.3296 181.587 61.1758 181.698 61.0296C181.799 60.8974 181.895 60.7716 181.895 60.5051C181.895 60.2279 181.895 60.1028 181.912 59.9796C181.926 59.8783 181.952 59.7782 181.998 59.596C182.01 59.5511 182.023 59.5012 182.037 59.4451C182.15 58.9961 181.989 59.1333 181.895 59.258L181.469 58.5721C181.304 58.6761 180.788 58.9587 180.05 59.258C179.469 59.4936 179.395 59.4572 179.242 59.3823C179.152 59.3384 179.036 59.2811 178.773 59.258C178.063 59.1957 177.709 59.1333 177.992 58.1357C178.612 57.5907 178.745 57.4268 179.242 56.8113L179.243 56.8105C179.314 56.722 179.393 56.6242 179.482 56.5145C179.921 55.975 179.926 55.9357 179.933 55.8813C179.937 55.8477 179.942 55.8083 180.05 55.6416C180.277 55.2924 180.759 54.9557 180.972 54.831H178.773C178.132 54.831 178.141 54.8051 178.228 54.5522C178.276 54.4132 178.347 54.2055 178.347 53.8957C178.347 53.3653 178.347 53.1572 178.443 52.9916C178.504 52.8847 178.606 52.7955 178.773 52.6487C179.113 52.3494 179.388 52.0668 179.482 51.9628C179.246 51.9628 178.617 51.8755 177.992 51.5264C177.431 51.2126 177.604 51.0922 177.798 50.9566C177.873 50.9036 177.953 50.8483 177.992 50.7781C178.042 50.691 178.152 50.6648 178.275 50.6356C178.503 50.5813 178.773 50.5168 178.773 50.0299C178.748 49.9939 178.725 49.9605 178.702 49.9283C178.528 49.6819 178.41 49.5143 178.347 48.9076C178.276 48.2217 179.057 47.6606 179.482 47.4111C179.836 47.2038 179.798 47.7721 179.775 48.113C179.77 48.1822 179.766 48.242 179.766 48.2841C179.766 48.4667 179.842 48.5824 179.939 48.7292C179.974 48.7829 180.012 48.8408 180.05 48.9076C180.096 48.9875 180.141 49.0482 180.203 49.1307C180.334 49.3057 180.538 49.5788 180.972 50.3417C181.151 50.6167 181.105 50.6937 181.046 50.791C181.011 50.8481 180.972 50.9123 180.972 51.0276V51.9628C180.972 52.1315 180.956 52.3073 180.94 52.4805C180.909 52.8197 180.878 53.1493 180.972 53.3969C181.086 53.6962 182.675 54.1867 183.456 54.3946C183.337 54.1452 183.101 53.5216 183.101 53.0228C183.101 52.4516 182.862 52.2467 182.604 52.0246C182.581 52.0043 182.557 51.9838 182.533 51.9628C182.337 51.7908 182.411 51.2927 182.476 50.8569C182.506 50.6607 182.533 50.4772 182.533 50.3417C182.533 49.9965 182.755 49.5733 182.953 49.1955L182.953 49.1954C183.005 49.0955 183.056 48.9988 183.101 48.9076C183.269 48.5618 183.661 48.3334 183.957 48.1604C184.035 48.115 184.106 48.0735 184.165 48.0347C184.392 47.885 184.969 46.7668 185.229 46.2265C185.466 47.7229 185.683 50.9652 184.661 51.9628ZM182.533 32.509C182.509 32.5713 182.406 32.7085 182.179 32.7584C181.895 32.8208 180.972 33.0078 180.972 32.7584C180.972 32.6188 180.861 32.4597 180.714 32.2482C180.598 32.0818 180.459 31.8831 180.334 31.6361C180.152 31.2771 180.203 31.0968 180.263 30.8829C180.297 30.7624 180.334 30.6312 180.334 30.4514C180.334 30.2776 180.343 30.1643 180.351 30.0562C180.366 29.8541 180.38 29.6701 180.334 29.142C180.295 28.7002 180.214 28.3881 180.149 28.135C180.094 27.9236 180.05 27.7534 180.05 27.5832V26.6479C180.05 26.0868 179.625 25.5879 179.199 25.8373C179.109 25.8901 179.025 25.9316 178.948 25.9697C178.663 26.1118 178.474 26.2053 178.418 26.6479C178.387 26.8973 178.299 26.9497 178.211 27.002C178.102 27.0674 177.992 27.1329 177.992 27.5832C177.992 27.9291 177.928 28.1274 177.881 28.2701C177.819 28.4619 177.789 28.5534 177.992 28.7679C178.276 29.0672 178.631 28.8926 178.773 28.7679H179.199V29.142C179.199 29.2875 179.167 29.433 179.136 29.5785C179.073 29.8695 179.01 30.1605 179.199 30.4514C179.341 30.6696 179.341 30.7476 179.341 30.8489C179.341 30.9502 179.341 31.0749 179.483 31.3867C179.577 31.5945 179.64 31.7607 179.693 31.8993C179.798 32.1764 179.861 32.3427 180.05 32.509C180.164 32.6088 180.13 32.6886 180.089 32.7844C180.028 32.928 179.951 33.1076 180.334 33.4443C180.334 33.9358 180.383 34.2341 180.42 34.4594C180.472 34.7773 180.5 34.95 180.334 35.3148C180.242 35.5172 180.18 35.6211 180.128 35.7074C180.02 35.887 179.958 35.9909 179.766 36.7489C179.614 37.3512 179.462 37.5944 179.353 37.7675C179.26 37.917 179.199 38.0143 179.199 38.2454C179.199 38.4113 179.199 38.4875 179.241 38.536C179.276 38.5773 179.342 38.5985 179.463 38.6378C179.629 38.6911 179.897 38.7778 180.334 38.9936C180.673 39.1614 180.937 39.3181 181.151 39.4452C181.652 39.7433 181.88 39.8794 182.179 39.6171C182.305 39.5065 182.436 39.4722 182.56 39.4401C182.854 39.3636 183.101 39.2996 183.101 38.2454V35.8136C183.101 35.4678 183.204 35.3376 183.278 35.2439C183.378 35.118 183.426 35.058 183.101 34.629C182.914 34.3831 182.727 34.2045 182.581 34.0645C182.282 33.7786 182.152 33.6536 182.533 33.4443C182.987 33.1949 182.722 32.7168 182.533 32.509ZM176.798 7.55395C176.714 7.17533 176.704 7.13175 176.645 7.13175C176.881 7.13175 177.425 7.21905 177.709 7.56824C177.764 7.63639 177.809 7.68934 177.847 7.73421C178.053 7.97671 178.059 7.98312 178.418 8.87763C178.651 9.45548 178.735 9.60713 178.787 9.76695C178.83 9.9003 178.85 10.0393 178.915 10.4364C178.96 10.7099 179.004 10.9223 179.044 11.1136C179.132 11.533 179.199 11.8518 179.199 12.494C179.199 12.9725 179.273 13.0757 179.384 13.2292C179.489 13.3758 179.628 13.5684 179.766 14.1775C179.86 14.5899 179.938 14.8864 180.006 15.1436C180.144 15.6642 180.239 16.024 180.334 16.8587C180.424 17.6475 180.542 17.7627 180.617 17.8355C180.66 17.8779 180.689 17.9059 180.689 18.0433C180.689 18.4175 180.05 18.0433 180.05 17.6692C180.05 17.4786 179.976 17.3851 179.895 17.2815C179.816 17.1818 179.73 17.0727 179.695 16.8587C179.667 16.6818 179.591 16.5049 179.507 16.3072C179.384 16.0172 179.241 15.6825 179.199 15.2375C179.158 14.8049 178.903 14.6433 178.696 14.5115C178.545 14.4155 178.418 14.3353 178.418 14.1775C178.418 13.8034 178.418 13.6787 177.992 12.494C177.725 11.7489 177.681 11.7438 177.598 11.7339C177.549 11.7281 177.486 11.7207 177.354 11.5587C177.07 11.2096 176.905 11.1223 176.857 11.1223V9.56347C176.857 9.13031 176.881 8.86374 176.899 8.6574C176.926 8.35881 176.941 8.18634 176.857 7.81762C176.834 7.71537 176.815 7.62821 176.798 7.55395Z" fill="#D9D9D9"/>
<path fill-rule="evenodd" clip-rule="evenodd" d="M184.661 51.9628C183.64 52.9605 184.236 58.2812 184.661 60.8168H185.229C185.421 60.8168 185.489 60.7251 185.623 60.5415C185.737 60.3868 185.898 60.1668 186.223 59.8815C186.223 59.682 186.459 59.5074 186.578 59.4451C186.696 59.3827 187.046 58.9587 187.5 57.7615C187.5 57.6553 187.506 57.5591 187.512 57.4486C187.529 57.1703 187.551 56.8015 187.5 55.9533C187.46 55.2831 187.488 55.2116 187.507 55.1629C187.521 55.1256 187.531 55.1018 187.5 54.831C187.459 54.4752 187.465 54.3834 187.478 54.1847C187.487 54.0352 187.5 53.8253 187.5 53.3969V51.9628V51.0276V50.0299V48.5334C187.5 48.1593 187.429 47.4111 186.932 45.79C186.701 45.3019 186.681 45.1322 186.655 44.9173C186.642 44.8029 186.627 44.6756 186.578 44.4806C186.436 43.9194 186.223 42.6724 186.223 41.2383V40.9265C186.128 40.6771 185.854 39.8915 185.513 38.7442C185.439 38.3837 185.364 38.2644 185.31 38.178C185.261 38.0999 185.229 38.0488 185.229 37.8713C185.229 37.6891 185.162 37.5513 185.085 37.3931C185.004 37.2263 184.911 37.0369 184.875 36.7489C184.852 36.5667 184.821 36.4304 184.79 36.2933C184.726 36.0081 184.661 35.7188 184.661 35.0031V33.4443V32.0102C184.661 31.7955 184.569 31.6385 184.464 31.4597C184.326 31.2232 184.165 30.9485 184.165 30.4514V29.5785V28.082C184.165 27.3961 184.023 26.5856 183.598 25.4009C183.45 25.0434 183.495 24.7367 183.551 24.3485C183.603 23.9918 183.666 23.5662 183.598 22.9691C183.516 22.2474 183.386 22.0478 183.195 21.7539C183.056 21.5399 182.885 21.276 182.675 20.7245C182.346 19.8562 182.329 19.6185 182.292 19.1206C182.274 18.8677 182.25 18.5475 182.179 18.0433C182.033 17.0212 182.02 16.959 181.959 16.6647C181.93 16.5281 181.891 16.3415 181.824 15.9857C181.686 15.2576 181.667 15.2643 181.594 15.2907C181.554 15.305 181.498 15.3251 181.398 15.2375C181.184 15.049 181.091 14.6467 180.905 13.8421C180.845 13.5823 180.775 13.2805 180.689 12.9305C180.623 12.6631 180.571 12.4585 180.53 12.2946C180.454 11.9929 180.413 11.8289 180.378 11.664C180.336 11.4674 180.302 11.2695 180.228 10.8358C180.217 10.7706 180.205 10.7001 180.192 10.6235C180.044 9.7536 179.964 9.46016 179.857 9.0659C179.811 8.89499 179.76 8.70513 179.695 8.44114C179.589 8.00468 179.536 7.89556 179.483 7.78644C179.429 7.67733 179.376 7.56821 179.27 7.13175C179.095 6.41581 178.873 6.16125 178.603 5.85204C178.544 5.78424 178.482 5.7138 178.418 5.6353C178.226 5.39836 178.117 5.17982 178.012 4.96968C177.924 4.79269 177.839 4.62166 177.709 4.45061C177.548 4.23828 177.524 4.1063 177.481 3.87229C177.449 3.69397 177.406 3.4564 177.283 3.07887C177.134 2.62096 177.181 2.35179 177.238 2.01937C177.29 1.71806 177.351 1.36478 177.283 0.77188C177.174 -0.189305 176.938 -0.0392059 176.706 0.108664C176.637 0.152641 176.568 0.19642 176.503 0.210712C176.324 0.249868 176.23 0.387378 176.132 0.530597C176.074 0.615442 176.014 0.70229 175.935 0.77188C175.722 0.958936 175.651 1.70716 175.651 2.51773C175.651 2.84073 175.674 3.02512 175.692 3.17347C175.719 3.39742 175.737 3.53926 175.651 3.95183C175.555 4.41893 175.524 4.48116 175.469 4.59151C175.444 4.64319 175.413 4.70542 175.367 4.82476C175.226 5.19887 175.155 5.38592 174.871 6.0718C174.689 6.51135 174.74 6.74604 174.8 7.02203C174.834 7.17669 174.871 7.34432 174.871 7.56824C174.871 7.80248 174.891 7.94872 174.908 8.07639C174.937 8.28856 174.959 8.44943 174.871 8.87763C174.833 9.06141 174.795 9.21833 174.759 9.36398C174.663 9.76191 174.587 10.0758 174.587 10.6235V12.494V13.6787V15.2375C174.587 15.5264 174.474 16.3273 174.365 17.1047C174.262 17.8376 174.161 18.5495 174.161 18.7916V20.2257C174.161 20.6191 174.046 20.8605 173.764 21.4522C173.733 21.517 173.7 21.5859 173.665 21.6598C173.458 22.0952 173.492 22.1505 173.556 22.2559C173.603 22.3315 173.665 22.433 173.665 22.7198V24.5903V26.0868C173.665 26.5123 173.619 26.595 173.553 26.7133C173.503 26.8031 173.442 26.9133 173.381 27.2091C173.365 27.2847 173.351 27.3535 173.338 27.4171L173.338 27.4173C173.235 27.9301 173.2 28.1023 172.884 28.7679C172.652 29.2578 172.724 29.5606 172.801 29.8863C172.842 30.058 172.884 30.2361 172.884 30.4514C172.884 30.6723 172.893 30.8149 172.901 30.9486C172.917 31.1923 172.93 31.4063 172.884 32.0102C172.847 32.5045 172.809 32.8072 172.761 33.1945C172.718 33.54 172.667 33.9528 172.6 34.629C172.564 35.0014 172.536 35.3023 172.514 35.5525C172.449 36.2658 172.422 36.5667 172.317 36.936C172.211 37.3058 172.067 37.4357 171.682 37.7831C171.547 37.9043 171.383 38.0519 171.181 38.2454C170.727 38.6813 170.802 38.7151 170.888 38.7537C170.949 38.7814 171.016 38.8115 170.898 38.9936C170.673 39.3388 170.804 40.7755 170.868 41.485C170.885 41.6728 170.898 41.8096 170.898 41.8618C170.898 42.1112 170.898 42.423 171.181 43.7947C171.181 44.1065 171.11 44.4494 171.04 44.7924C170.969 45.1353 170.898 45.4782 170.898 45.79V47.037C170.898 47.3765 170.91 47.5628 170.919 47.7014C170.932 47.8938 170.939 47.9941 170.898 48.2841C170.866 48.5043 170.821 48.6516 170.762 48.844C170.688 49.0874 170.591 49.4031 170.472 50.0299C170.425 50.276 170.382 50.4861 170.343 50.6759C170.204 51.3522 170.117 51.7724 170.117 52.6487V55.2051V57.3251V60.1309V60.8168C170.567 60.9207 171.536 61.166 171.82 61.3156C172.175 61.5027 173.523 61.5027 174.161 61.5027H176.148C176.582 61.5027 176.901 61.53 177.174 61.5533C177.616 61.591 177.936 61.6183 178.418 61.5027C178.88 61.392 179.069 61.4778 179.263 61.5663C179.397 61.6274 179.535 61.6897 179.766 61.6897C180.22 61.6897 180.145 62.0223 180.05 62.1886V62.7497C180.05 62.9368 180.05 63.2485 179.766 64.0591C179.766 64.3085 179.955 64.3293 180.05 64.3085C180.239 64.3293 180.689 64.3584 180.972 64.3085C181.327 64.2462 181.895 63.9968 181.895 63.7474C181.895 63.64 181.816 63.5673 181.726 63.4845C181.607 63.3749 181.469 63.2477 181.469 62.9991V61.6897C181.469 61.3296 181.587 61.1758 181.698 61.0296C181.799 60.8974 181.895 60.7716 181.895 60.5051C181.895 60.2279 181.895 60.1028 181.912 59.9796C181.926 59.8783 181.952 59.7782 181.998 59.596C182.01 59.5511 182.023 59.5012 182.037 59.4451C182.15 58.9961 181.989 59.1333 181.895 59.258L181.469 58.5721C181.304 58.6761 180.788 58.9587 180.05 59.258C179.469 59.4936 179.395 59.4572 179.242 59.3823C179.152 59.3384 179.036 59.2811 178.773 59.258C178.063 59.1957 177.709 59.1333 177.992 58.1357C178.612 57.5907 178.745 57.4268 179.242 56.8113L179.243 56.8105C179.314 56.722 179.393 56.6242 179.482 56.5145C179.921 55.975 179.926 55.9357 179.933 55.8813C179.937 55.8477 179.942 55.8083 180.05 55.6416C180.277 55.2924 180.759 54.9557 180.972 54.831H178.773C178.132 54.831 178.141 54.8051 178.228 54.5522C178.276 54.4132 178.347 54.2055 178.347 53.8957C178.347 53.3653 178.347 53.1572 178.443 52.9916C178.504 52.8847 178.606 52.7955 178.773 52.6487C179.113 52.3494 179.388 52.0668 179.482 51.9628C179.246 51.9628 178.617 51.8755 177.992 51.5264C177.431 51.2126 177.604 51.0922 177.798 50.9566C177.873 50.9036 177.953 50.8483 177.992 50.7781C178.042 50.691 178.152 50.6648 178.275 50.6356C178.503 50.5813 178.773 50.5168 178.773 50.0299C178.748 49.9939 178.725 49.9605 178.702 49.9283C178.528 49.6819 178.41 49.5143 178.347 48.9076C178.276 48.2217 179.057 47.6606 179.482 47.4111C179.836 47.2038 179.798 47.7721 179.775 48.113C179.77 48.1822 179.766 48.242 179.766 48.2841C179.766 48.4667 179.842 48.5824 179.939 48.7292C179.974 48.7829 180.012 48.8408 180.05 48.9076C180.096 48.9875 180.141 49.0482 180.203 49.1307C180.334 49.3057 180.538 49.5788 180.972 50.3417C181.151 50.6167 181.105 50.6937 181.046 50.791C181.011 50.8481 180.972 50.9123 180.972 51.0276V51.9628C180.972 52.1315 180.956 52.3073 180.94 52.4805C180.909 52.8197 180.878 53.1493 180.972 53.3969C181.086 53.6962 182.675 54.1867 183.456 54.3946C183.337 54.1452 183.101 53.5216 183.101 53.0228C183.101 52.4516 182.862 52.2467 182.604 52.0246C182.581 52.0043 182.557 51.9838 182.533 51.9628C182.337 51.7908 182.411 51.2927 182.476 50.8569C182.506 50.6607 182.533 50.4772 182.533 50.3417C182.533 49.9965 182.755 49.5733 182.953 49.1955L182.953 49.1954C183.005 49.0955 183.056 48.9988 183.101 48.9076C183.269 48.5618 183.661 48.3334 183.957 48.1604C184.035 48.115 184.106 48.0735 184.165 48.0347C184.392 47.885 184.969 46.7668 185.229 46.2265C185.466 47.7229 185.683 50.9652 184.661 51.9628ZM182.533 32.509C182.509 32.5713 182.406 32.7085 182.179 32.7584C181.895 32.8208 180.972 33.0078 180.972 32.7584C180.972 32.6188 180.861 32.4597 180.714 32.2482C180.598 32.0818 180.459 31.8831 180.334 31.6361C180.152 31.2771 180.203 31.0968 180.263 30.8829C180.297 30.7624 180.334 30.6312 180.334 30.4514C180.334 30.2776 180.343 30.1643 180.351 30.0562C180.366 29.8541 180.38 29.6701 180.334 29.142C180.295 28.7002 180.214 28.3881 180.149 28.135C180.094 27.9236 180.05 27.7534 180.05 27.5832V26.6479C180.05 26.0868 179.625 25.5879 179.199 25.8373C179.109 25.8901 179.025 25.9316 178.948 25.9697C178.663 26.1118 178.474 26.2053 178.418 26.6479C178.387 26.8973 178.299 26.9497 178.211 27.002C178.102 27.0674 177.992 27.1329 177.992 27.5832C177.992 27.9291 177.928 28.1274 177.881 28.2701C177.819 28.4619 177.789 28.5534 177.992 28.7679C178.276 29.0672 178.631 28.8926 178.773 28.7679H179.199V29.142C179.199 29.2875 179.167 29.433 179.136 29.5785C179.073 29.8695 179.01 30.1605 179.199 30.4514C179.341 30.6696 179.341 30.7476 179.341 30.8489C179.341 30.9502 179.341 31.0749 179.483 31.3867C179.577 31.5945 179.64 31.7607 179.693 31.8993C179.798 32.1764 179.861 32.3427 180.05 32.509C180.164 32.6088 180.13 32.6886 180.089 32.7844C180.028 32.928 179.951 33.1076 180.334 33.4443C180.334 33.9358 180.383 34.2341 180.42 34.4594C180.472 34.7773 180.5 34.95 180.334 35.3148C180.242 35.5172 180.18 35.6211 180.128 35.7074C180.02 35.887 179.958 35.9909 179.766 36.7489C179.614 37.3512 179.462 37.5944 179.353 37.7675C179.26 37.917 179.199 38.0143 179.199 38.2454C179.199 38.4113 179.199 38.4875 179.241 38.536C179.276 38.5773 179.342 38.5985 179.463 38.6378C179.629 38.6911 179.897 38.7778 180.334 38.9936C180.673 39.1614 180.937 39.3181 181.151 39.4452C181.652 39.7433 181.88 39.8794 182.179 39.6171C182.305 39.5065 182.436 39.4722 182.56 39.4401C182.854 39.3636 183.101 39.2996 183.101 38.2454V35.8136C183.101 35.4678 183.204 35.3376 183.278 35.2439C183.378 35.118 183.426 35.058 183.101 34.629C182.914 34.3831 182.727 34.2045 182.581 34.0645C182.282 33.7786 182.152 33.6536 182.533 33.4443C182.987 33.1949 182.722 32.7168 182.533 32.509ZM176.798 7.55395C176.714 7.17533 176.704 7.13175 176.645 7.13175C176.881 7.13175 177.425 7.21905 177.709 7.56824C177.764 7.63639 177.809 7.68934 177.847 7.73421C178.053 7.97671 178.059 7.98312 178.418 8.87763C178.651 9.45548 178.735 9.60713 178.787 9.76695C178.83 9.9003 178.85 10.0393 178.915 10.4364C178.96 10.7099 179.004 10.9223 179.044 11.1136C179.132 11.533 179.199 11.8518 179.199 12.494C179.199 12.9725 179.273 13.0757 179.384 13.2292C179.489 13.3758 179.628 13.5684 179.766 14.1775C179.86 14.5899 179.938 14.8864 180.006 15.1436C180.144 15.6642 180.239 16.024 180.334 16.8587C180.424 17.6475 180.542 17.7627 180.617 17.8355C180.66 17.8779 180.689 17.9059 180.689 18.0433C180.689 18.4175 180.05 18.0433 180.05 17.6692C180.05 17.4786 179.976 17.3851 179.895 17.2815C179.816 17.1818 179.73 17.0727 179.695 16.8587C179.667 16.6818 179.591 16.5049 179.507 16.3072C179.384 16.0172 179.241 15.6825 179.199 15.2375C179.158 14.8049 178.903 14.6433 178.696 14.5115C178.545 14.4155 178.418 14.3353 178.418 14.1775C178.418 13.8034 178.418 13.6787 177.992 12.494C177.725 11.7489 177.681 11.7438 177.598 11.7339C177.549 11.7281 177.486 11.7207 177.354 11.5587C177.07 11.2096 176.905 11.1223 176.857 11.1223V9.56347C176.857 9.13031 176.881 8.86374 176.899 8.6574C176.926 8.35881 176.941 8.18634 176.857 7.81762C176.834 7.71537 176.815 7.62821 176.798 7.55395Z" fill="#F8EDB7"/>
<path fill-rule="evenodd" clip-rule="evenodd" d="M165.625 53.9931C164.887 54.7882 165.318 59.0288 165.625 61.0496H166.035C166.174 61.0496 166.223 60.9765 166.32 60.8303C166.402 60.7069 166.519 60.5316 166.753 60.3042C166.753 60.1452 166.924 60.0061 167.009 59.9564C167.095 59.9067 167.347 59.5688 167.675 58.6146C167.675 58.5299 167.679 58.4532 167.684 58.3652C167.696 58.1434 167.712 57.8495 167.675 57.1735C167.646 56.6393 167.667 56.5823 167.68 56.5435C167.691 56.5138 167.698 56.4948 167.675 56.279C167.646 55.9954 167.65 55.9222 167.659 55.7639C167.666 55.6448 167.675 55.4774 167.675 55.1361V53.9931V53.2477V52.4526V51.2599C167.675 50.9617 167.624 50.3654 167.265 49.0734C167.098 48.6843 167.084 48.5491 167.065 48.3779C167.056 48.2867 167.045 48.1852 167.009 48.0298C166.907 47.5825 166.753 46.5887 166.753 45.4457V45.1972C166.685 44.9984 166.486 44.3723 166.241 43.4579C166.187 43.1706 166.133 43.0755 166.094 43.0066C166.058 42.9445 166.035 42.9037 166.035 42.7622C166.035 42.617 165.987 42.5072 165.931 42.3811C165.872 42.2482 165.806 42.0972 165.779 41.8677C165.763 41.7225 165.741 41.6139 165.718 41.5046C165.672 41.2773 165.625 41.0467 165.625 40.4763V39.2339V38.091C165.625 37.9199 165.559 37.7948 165.483 37.6523C165.383 37.4638 165.267 37.2448 165.267 36.8486V36.1529V34.9602C165.267 34.4136 165.164 33.7676 164.857 32.8234C164.75 32.5385 164.783 32.2941 164.824 31.9847C164.861 31.7004 164.906 31.3612 164.857 30.8853C164.798 30.3101 164.704 30.151 164.566 29.9168C164.466 29.7463 164.342 29.5359 164.191 29.0964C163.953 28.4044 163.94 28.2149 163.914 27.8181C163.901 27.6165 163.884 27.3613 163.832 26.9595C163.727 26.1449 163.718 26.0953 163.673 25.8607C163.653 25.7519 163.625 25.6031 163.576 25.3196C163.476 24.7393 163.463 24.7446 163.41 24.7657C163.381 24.7771 163.341 24.7931 163.269 24.7233C163.114 24.5731 163.046 24.2524 162.912 23.6112C162.869 23.4041 162.819 23.1636 162.756 22.8846C162.708 22.6715 162.671 22.5085 162.642 22.3778C162.587 22.1374 162.557 22.0067 162.532 21.8752C162.501 21.7185 162.477 21.5608 162.424 21.2151C162.416 21.1632 162.407 21.107 162.397 21.0459C162.29 20.3526 162.233 20.1188 162.156 19.8046C162.122 19.6683 162.085 19.517 162.039 19.3066C161.962 18.9588 161.923 18.8718 161.885 18.7848C161.847 18.6979 161.808 18.6109 161.731 18.2631C161.605 17.6925 161.445 17.4896 161.25 17.2431C161.207 17.1891 161.162 17.133 161.116 17.0704C160.977 16.8816 160.899 16.7074 160.823 16.5399C160.759 16.3988 160.698 16.2625 160.604 16.1262C160.488 15.957 160.47 15.8518 160.44 15.6653C160.416 15.5232 160.385 15.3338 160.296 15.0329C160.189 14.668 160.222 14.4535 160.264 14.1885C160.301 13.9484 160.345 13.6668 160.296 13.1943C160.218 12.4282 160.047 12.5479 159.879 12.6657C159.83 12.7008 159.78 12.7356 159.733 12.747C159.604 12.7782 159.536 12.8878 159.465 13.002C159.423 13.0696 159.38 13.1388 159.323 13.1943C159.169 13.3434 159.118 13.9397 159.118 14.5857C159.118 14.8431 159.134 14.9901 159.147 15.1083C159.167 15.2868 159.18 15.3999 159.118 15.7287C159.048 16.101 159.026 16.1506 158.986 16.2385C158.968 16.2797 158.946 16.3293 158.913 16.4244C158.81 16.7226 158.759 16.8716 158.554 17.4183C158.423 17.7686 158.46 17.9556 158.503 18.1756C158.528 18.2989 158.554 18.4325 158.554 18.6109C158.554 18.7976 158.569 18.9142 158.581 19.0159C158.602 19.185 158.618 19.3132 158.554 19.6545C158.527 19.801 158.499 19.926 158.474 20.0421C158.404 20.3593 158.349 20.6094 158.349 21.0459V22.5368V23.4809V24.7233C158.349 24.9535 158.268 25.5918 158.189 26.2114C158.114 26.7955 158.042 27.3629 158.042 27.5559V28.6988C158.042 29.0124 157.959 29.2048 157.755 29.6763C157.732 29.728 157.708 29.7829 157.683 29.8418C157.534 30.1888 157.559 30.2329 157.605 30.3169C157.638 30.3772 157.683 30.458 157.683 30.6866V32.1774V33.3701C157.683 33.7092 157.65 33.7751 157.603 33.8694C157.567 33.9409 157.522 34.0288 157.478 34.2646C157.467 34.3248 157.457 34.3797 157.448 34.4303L157.448 34.4305C157.373 34.8392 157.347 34.9764 157.12 35.5069C156.952 35.8974 157.004 36.1387 157.06 36.3982C157.089 36.5351 157.12 36.6771 157.12 36.8486C157.12 37.0247 157.126 37.1384 157.132 37.2449C157.143 37.4391 157.153 37.6096 157.12 38.091C157.092 38.4849 157.065 38.7262 157.031 39.0349C157 39.3102 156.963 39.6392 156.915 40.1781C156.888 40.475 156.868 40.7148 156.852 40.9142C156.805 41.4827 156.785 41.7225 156.71 42.0168C156.634 42.3116 156.529 42.4151 156.251 42.692C156.154 42.7885 156.035 42.9062 155.89 43.0604C155.561 43.4078 155.616 43.4348 155.678 43.4655C155.722 43.4876 155.77 43.5115 155.685 43.6567C155.523 43.9318 155.617 45.0769 155.663 45.6424C155.676 45.792 155.685 45.9011 155.685 45.9427C155.685 46.1414 155.685 46.3899 155.89 47.4832C155.89 47.7316 155.838 48.005 155.787 48.2783C155.736 48.5516 155.685 48.8249 155.685 49.0734V50.0673C155.685 50.3378 155.694 50.4863 155.7 50.5968C155.71 50.7501 155.715 50.8301 155.685 51.0611C155.662 51.2366 155.63 51.354 155.587 51.5074C155.533 51.7014 155.463 51.953 155.377 52.4526C155.344 52.6487 155.312 52.8161 155.284 52.9674C155.184 53.5065 155.121 53.8413 155.121 54.5397V56.5772V58.2668V60.503V61.0496C155.446 61.1325 156.146 61.3279 156.351 61.4472C156.607 61.5963 157.581 61.5963 158.042 61.5963H159.477C159.79 61.5963 160.021 61.618 160.218 61.6366C160.537 61.6667 160.768 61.6884 161.116 61.5963C161.45 61.5081 161.586 61.5764 161.727 61.647C161.824 61.6956 161.923 61.7454 162.09 61.7454C162.418 61.7454 162.363 62.0104 162.295 62.1429V62.5902C162.295 62.7392 162.295 62.9877 162.09 63.6337C162.09 63.8325 162.227 63.8491 162.295 63.8325C162.432 63.8491 162.756 63.8723 162.961 63.8325C163.217 63.7828 163.627 63.584 163.627 63.3853C163.627 63.2997 163.57 63.2417 163.505 63.1757C163.419 63.0884 163.32 62.987 163.32 62.7889V61.7454C163.32 61.4583 163.405 61.3357 163.485 61.2193C163.558 61.1139 163.627 61.0136 163.627 60.8012C163.627 60.5802 163.627 60.4806 163.64 60.3824C163.65 60.3016 163.668 60.2219 163.702 60.0766C163.71 60.0409 163.719 60.0011 163.73 59.9564C163.812 59.5986 163.696 59.7079 163.627 59.8073L163.32 59.2607C163.2 59.3435 162.828 59.5688 162.295 59.8073C161.875 59.9951 161.822 59.966 161.711 59.9064C161.647 59.8713 161.562 59.8257 161.372 59.8073C160.86 59.7576 160.604 59.7079 160.809 58.9128C161.257 58.4785 161.352 58.3478 161.711 57.8573L161.712 57.8566C161.763 57.7861 161.821 57.7081 161.885 57.6208C162.202 57.1908 162.205 57.1594 162.21 57.1161C162.213 57.0893 162.217 57.0579 162.295 56.925C162.459 56.6468 162.807 56.3784 162.961 56.279H161.372C160.91 56.279 160.916 56.2583 160.979 56.0568C161.013 55.946 161.065 55.7805 161.065 55.5336C161.065 55.1109 161.065 54.945 161.134 54.813C161.179 54.7278 161.252 54.6567 161.372 54.5397C161.618 54.3012 161.817 54.0759 161.885 53.9931C161.714 53.9931 161.26 53.9235 160.809 53.6452C160.404 53.3952 160.528 53.2992 160.668 53.1911C160.723 53.1489 160.78 53.1048 160.809 53.0489C160.845 52.9795 160.924 52.9585 161.013 52.9353C161.177 52.892 161.372 52.8406 161.372 52.4526C161.355 52.4239 161.338 52.3972 161.321 52.3716C161.196 52.1752 161.11 52.0416 161.065 51.5581C161.014 51.0114 161.577 50.5642 161.885 50.3654C162.14 50.2002 162.113 50.6531 162.096 50.9248C162.093 50.9799 162.09 51.0276 162.09 51.0611C162.09 51.2067 162.145 51.2989 162.214 51.4159C162.24 51.4587 162.267 51.5048 162.295 51.5581C162.328 51.6218 162.361 51.6701 162.405 51.7359C162.5 51.8754 162.648 52.0931 162.961 52.701C163.09 52.9203 163.056 52.9816 163.014 53.0592C162.989 53.1047 162.961 53.1558 162.961 53.2477V53.9931C162.961 54.1275 162.949 54.2676 162.938 54.4057C162.915 54.676 162.893 54.9387 162.961 55.1361C163.043 55.3746 164.191 55.7655 164.754 55.9312C164.669 55.7324 164.498 55.2354 164.498 54.8379C164.498 54.3827 164.326 54.2193 164.14 54.0423C164.122 54.0261 164.105 54.0098 164.088 53.9931C163.947 53.856 164 53.459 164.047 53.1116C164.068 52.9553 164.088 52.809 164.088 52.701C164.088 52.4259 164.248 52.0887 164.391 51.7875L164.391 51.7874C164.429 51.7079 164.466 51.6308 164.498 51.5581C164.62 51.2825 164.902 51.1004 165.117 50.9625C165.173 50.9264 165.224 50.8933 165.267 50.8624C165.431 50.7431 165.847 49.8519 166.035 49.4212C166.206 50.6139 166.363 53.198 165.625 53.9931ZM164.088 38.4885C164.071 38.5382 163.996 38.6475 163.832 38.6873C163.627 38.737 162.961 38.8861 162.961 38.6873C162.961 38.576 162.881 38.4492 162.774 38.2807C162.69 38.1481 162.59 37.9897 162.5 37.7928C162.369 37.5068 162.405 37.363 162.449 37.1925C162.473 37.0965 162.5 36.9919 162.5 36.8486C162.5 36.7101 162.506 36.6198 162.512 36.5337C162.523 36.3726 162.533 36.2259 162.5 35.805C162.472 35.453 162.414 35.2042 162.366 35.0025C162.327 34.834 162.295 34.6984 162.295 34.5627V33.8173C162.295 33.3701 161.988 32.9725 161.68 33.1713C161.615 33.2133 161.555 33.2464 161.499 33.2768C161.293 33.39 161.157 33.4646 161.116 33.8173C161.094 34.0161 161.03 34.0578 160.967 34.0995C160.888 34.1517 160.809 34.2038 160.809 34.5627C160.809 34.8384 160.762 34.9964 160.729 35.1102C160.683 35.263 160.662 35.336 160.809 35.5069C161.014 35.7454 161.27 35.6063 161.372 35.5069H161.68V35.805C161.68 35.921 161.657 36.037 161.634 36.1529C161.589 36.3848 161.543 36.6168 161.68 36.8486C161.782 37.0226 161.782 37.0847 161.783 37.1654C161.783 37.2462 161.783 37.3456 161.885 37.594C161.953 37.7596 161.999 37.8921 162.037 38.0026C162.113 38.2235 162.158 38.356 162.295 38.4885C162.377 38.568 162.352 38.6317 162.323 38.708C162.279 38.8225 162.223 38.9656 162.5 39.2339C162.5 39.6257 162.535 39.8634 162.562 40.043C162.599 40.2963 162.62 40.434 162.5 40.7248C162.433 40.886 162.388 40.9688 162.351 41.0376C162.273 41.1808 162.228 41.2635 162.09 41.8677C161.98 42.3478 161.87 42.5416 161.792 42.6795C161.724 42.7987 161.68 42.8762 161.68 43.0604C161.68 43.1926 161.68 43.2533 161.71 43.292C161.736 43.3249 161.783 43.3418 161.871 43.3731C161.991 43.4156 162.185 43.4847 162.5 43.6567C162.745 43.7905 162.935 43.9153 163.09 44.0167C163.452 44.2542 163.617 44.3626 163.832 44.1536C163.923 44.0655 164.018 44.0382 164.108 44.0126C164.32 43.9516 164.498 43.9006 164.498 43.0604V41.1223C164.498 40.8466 164.573 40.7429 164.626 40.6682C164.699 40.5679 164.733 40.52 164.498 40.1781C164.363 39.9821 164.229 39.8398 164.123 39.7283C163.907 39.5004 163.813 39.4007 164.088 39.2339C164.416 39.0352 164.225 38.6542 164.088 38.4885ZM159.946 18.5995C159.885 18.2978 159.878 18.2631 159.835 18.2631C160.006 18.2631 160.399 18.3326 160.604 18.6109C160.644 18.6652 160.676 18.7074 160.704 18.7432C160.853 18.9365 160.857 18.9416 161.116 19.6545C161.284 20.1151 161.345 20.2359 161.382 20.3633C161.414 20.4696 161.428 20.5804 161.475 20.8968C161.507 21.1148 161.539 21.2841 161.568 21.4366C161.632 21.7708 161.68 22.0249 161.68 22.5368C161.68 22.9181 161.734 23.0003 161.813 23.1227C161.89 23.2395 161.99 23.393 162.09 23.8785C162.158 24.2071 162.214 24.4434 162.263 24.6484C162.363 25.0633 162.431 25.3501 162.5 26.0153C162.565 26.644 162.65 26.7358 162.704 26.7939C162.735 26.8276 162.756 26.8499 162.756 26.9595C162.756 27.2577 162.295 26.9595 162.295 26.6613C162.295 26.5094 162.242 26.4349 162.183 26.3523C162.126 26.2729 162.064 26.1859 162.039 26.0153C162.018 25.8743 161.964 25.7333 161.903 25.5758C161.813 25.3447 161.71 25.0779 161.68 24.7233C161.65 24.3785 161.467 24.2497 161.317 24.1447C161.208 24.0681 161.116 24.0042 161.116 23.8785C161.116 23.5803 161.116 23.4809 160.809 22.5368C160.615 21.9429 160.584 21.9388 160.524 21.931C160.488 21.9263 160.443 21.9204 160.348 21.7913C160.143 21.513 160.023 21.4435 159.989 21.4435V20.2011C159.989 19.8559 160.006 19.6434 160.019 19.479C160.039 19.241 160.05 19.1036 159.989 18.8097C159.972 18.7282 159.958 18.6587 159.946 18.5995Z" fill="#D9D9D9"/>
<path fill-rule="evenodd" clip-rule="evenodd" d="M165.625 53.9931C164.887 54.7882 165.318 59.0288 165.625 61.0496H166.035C166.174 61.0496 166.223 60.9765 166.32 60.8303C166.402 60.7069 166.519 60.5316 166.753 60.3042C166.753 60.1452 166.924 60.0061 167.009 59.9564C167.095 59.9067 167.347 59.5688 167.675 58.6146C167.675 58.5299 167.679 58.4532 167.684 58.3652C167.696 58.1434 167.712 57.8495 167.675 57.1735C167.646 56.6393 167.667 56.5823 167.68 56.5435C167.691 56.5138 167.698 56.4948 167.675 56.279C167.646 55.9954 167.65 55.9222 167.659 55.7639C167.666 55.6448 167.675 55.4774 167.675 55.1361V53.9931V53.2477V52.4526V51.2599C167.675 50.9617 167.624 50.3654 167.265 49.0734C167.098 48.6843 167.084 48.5491 167.065 48.3779C167.056 48.2867 167.045 48.1852 167.009 48.0298C166.907 47.5825 166.753 46.5887 166.753 45.4457V45.1972C166.685 44.9984 166.486 44.3723 166.241 43.4579C166.187 43.1706 166.133 43.0755 166.094 43.0066C166.058 42.9445 166.035 42.9037 166.035 42.7622C166.035 42.617 165.987 42.5072 165.931 42.3811C165.872 42.2482 165.806 42.0972 165.779 41.8677C165.763 41.7225 165.741 41.6139 165.718 41.5046C165.672 41.2773 165.625 41.0467 165.625 40.4763V39.2339V38.091C165.625 37.9199 165.559 37.7948 165.483 37.6523C165.383 37.4638 165.267 37.2448 165.267 36.8486V36.1529V34.9602C165.267 34.4136 165.164 33.7676 164.857 32.8234C164.75 32.5385 164.783 32.2941 164.824 31.9847C164.861 31.7004 164.906 31.3612 164.857 30.8853C164.798 30.3101 164.704 30.151 164.566 29.9168C164.466 29.7463 164.342 29.5359 164.191 29.0964C163.953 28.4044 163.94 28.2149 163.914 27.8181C163.901 27.6165 163.884 27.3613 163.832 26.9595C163.727 26.1449 163.718 26.0953 163.673 25.8607C163.653 25.7519 163.625 25.6031 163.576 25.3196C163.476 24.7393 163.463 24.7446 163.41 24.7657C163.381 24.7771 163.341 24.7931 163.269 24.7233C163.114 24.5731 163.046 24.2524 162.912 23.6112C162.869 23.4041 162.819 23.1636 162.756 22.8846C162.708 22.6715 162.671 22.5085 162.642 22.3778C162.587 22.1374 162.557 22.0067 162.532 21.8752C162.501 21.7185 162.477 21.5608 162.424 21.2151C162.416 21.1632 162.407 21.107 162.397 21.0459C162.29 20.3526 162.233 20.1188 162.156 19.8046C162.122 19.6683 162.085 19.517 162.039 19.3066C161.962 18.9588 161.923 18.8718 161.885 18.7848C161.847 18.6979 161.808 18.6109 161.731 18.2631C161.605 17.6925 161.445 17.4896 161.25 17.2431C161.207 17.1891 161.162 17.133 161.116 17.0704C160.977 16.8816 160.899 16.7074 160.823 16.5399C160.759 16.3988 160.698 16.2625 160.604 16.1262C160.488 15.957 160.47 15.8518 160.44 15.6653C160.416 15.5232 160.385 15.3338 160.296 15.0329C160.189 14.668 160.222 14.4535 160.264 14.1885C160.301 13.9484 160.345 13.6668 160.296 13.1943C160.218 12.4282 160.047 12.5479 159.879 12.6657C159.83 12.7008 159.78 12.7356 159.733 12.747C159.604 12.7782 159.536 12.8878 159.465 13.002C159.423 13.0696 159.38 13.1388 159.323 13.1943C159.169 13.3434 159.118 13.9397 159.118 14.5857C159.118 14.8431 159.134 14.9901 159.147 15.1083C159.167 15.2868 159.18 15.3999 159.118 15.7287C159.048 16.101 159.026 16.1506 158.986 16.2385C158.968 16.2797 158.946 16.3293 158.913 16.4244C158.81 16.7226 158.759 16.8716 158.554 17.4183C158.423 17.7686 158.46 17.9556 158.503 18.1756C158.528 18.2989 158.554 18.4325 158.554 18.6109C158.554 18.7976 158.569 18.9142 158.581 19.0159C158.602 19.185 158.618 19.3132 158.554 19.6545C158.527 19.801 158.499 19.926 158.474 20.0421C158.404 20.3593 158.349 20.6094 158.349 21.0459V22.5368V23.4809V24.7233C158.349 24.9535 158.268 25.5918 158.189 26.2114C158.114 26.7955 158.042 27.3629 158.042 27.5559V28.6988C158.042 29.0124 157.959 29.2048 157.755 29.6763C157.732 29.728 157.708 29.7829 157.683 29.8418C157.534 30.1888 157.559 30.2329 157.605 30.3169C157.638 30.3772 157.683 30.458 157.683 30.6866V32.1774V33.3701C157.683 33.7092 157.65 33.7751 157.603 33.8694C157.567 33.9409 157.522 34.0288 157.478 34.2646C157.467 34.3248 157.457 34.3797 157.448 34.4303L157.448 34.4305C157.373 34.8392 157.347 34.9764 157.12 35.5069C156.952 35.8974 157.004 36.1387 157.06 36.3982C157.089 36.5351 157.12 36.6771 157.12 36.8486C157.12 37.0247 157.126 37.1384 157.132 37.2449C157.143 37.4391 157.153 37.6096 157.12 38.091C157.092 38.4849 157.065 38.7262 157.031 39.0349C157 39.3102 156.963 39.6392 156.915 40.1781C156.888 40.475 156.868 40.7148 156.852 40.9142C156.805 41.4827 156.785 41.7225 156.71 42.0168C156.634 42.3116 156.529 42.4151 156.251 42.692C156.154 42.7885 156.035 42.9062 155.89 43.0604C155.561 43.4078 155.616 43.4348 155.678 43.4655C155.722 43.4876 155.77 43.5115 155.685 43.6567C155.523 43.9318 155.617 45.0769 155.663 45.6424C155.676 45.792 155.685 45.9011 155.685 45.9427C155.685 46.1414 155.685 46.3899 155.89 47.4832C155.89 47.7316 155.838 48.005 155.787 48.2783C155.736 48.5516 155.685 48.8249 155.685 49.0734V50.0673C155.685 50.3378 155.694 50.4863 155.7 50.5968C155.71 50.7501 155.715 50.8301 155.685 51.0611C155.662 51.2366 155.63 51.354 155.587 51.5074C155.533 51.7014 155.463 51.953 155.377 52.4526C155.344 52.6487 155.312 52.8161 155.284 52.9674C155.184 53.5065 155.121 53.8413 155.121 54.5397V56.5772V58.2668V60.503V61.0496C155.446 61.1325 156.146 61.3279 156.351 61.4472C156.607 61.5963 157.581 61.5963 158.042 61.5963H159.477C159.79 61.5963 160.021 61.618 160.218 61.6366C160.537 61.6667 160.768 61.6884 161.116 61.5963C161.45 61.5081 161.586 61.5764 161.727 61.647C161.824 61.6956 161.923 61.7454 162.09 61.7454C162.418 61.7454 162.363 62.0104 162.295 62.1429V62.5902C162.295 62.7392 162.295 62.9877 162.09 63.6337C162.09 63.8325 162.227 63.8491 162.295 63.8325C162.432 63.8491 162.756 63.8723 162.961 63.8325C163.217 63.7828 163.627 63.584 163.627 63.3853C163.627 63.2997 163.57 63.2417 163.505 63.1757C163.419 63.0884 163.32 62.987 163.32 62.7889V61.7454C163.32 61.4583 163.405 61.3357 163.485 61.2193C163.558 61.1139 163.627 61.0136 163.627 60.8012C163.627 60.5802 163.627 60.4806 163.64 60.3824C163.65 60.3016 163.668 60.2219 163.702 60.0766C163.71 60.0409 163.719 60.0011 163.73 59.9564C163.812 59.5986 163.696 59.7079 163.627 59.8073L163.32 59.2607C163.2 59.3435 162.828 59.5688 162.295 59.8073C161.875 59.9951 161.822 59.966 161.711 59.9064C161.647 59.8713 161.562 59.8257 161.372 59.8073C160.86 59.7576 160.604 59.7079 160.809 58.9128C161.257 58.4785 161.352 58.3478 161.711 57.8573L161.712 57.8566C161.763 57.7861 161.821 57.7081 161.885 57.6208C162.202 57.1908 162.205 57.1594 162.21 57.1161C162.213 57.0893 162.217 57.0579 162.295 56.925C162.459 56.6468 162.807 56.3784 162.961 56.279H161.372C160.91 56.279 160.916 56.2583 160.979 56.0568C161.013 55.946 161.065 55.7805 161.065 55.5336C161.065 55.1109 161.065 54.945 161.134 54.813C161.179 54.7278 161.252 54.6567 161.372 54.5397C161.618 54.3012 161.817 54.0759 161.885 53.9931C161.714 53.9931 161.26 53.9235 160.809 53.6452C160.404 53.3952 160.528 53.2992 160.668 53.1911C160.723 53.1489 160.78 53.1048 160.809 53.0489C160.845 52.9795 160.924 52.9585 161.013 52.9353C161.177 52.892 161.372 52.8406 161.372 52.4526C161.355 52.4239 161.338 52.3972 161.321 52.3716C161.196 52.1752 161.11 52.0416 161.065 51.5581C161.014 51.0114 161.577 50.5642 161.885 50.3654C162.14 50.2002 162.113 50.6531 162.096 50.9248C162.093 50.9799 162.09 51.0276 162.09 51.0611C162.09 51.2067 162.145 51.2989 162.214 51.4159C162.24 51.4587 162.267 51.5048 162.295 51.5581C162.328 51.6218 162.361 51.6701 162.405 51.7359C162.5 51.8754 162.648 52.0931 162.961 52.701C163.09 52.9203 163.056 52.9816 163.014 53.0592C162.989 53.1047 162.961 53.1558 162.961 53.2477V53.9931C162.961 54.1275 162.949 54.2676 162.938 54.4057C162.915 54.676 162.893 54.9387 162.961 55.1361C163.043 55.3746 164.191 55.7655 164.754 55.9312C164.669 55.7324 164.498 55.2354 164.498 54.8379C164.498 54.3827 164.326 54.2193 164.14 54.0423C164.122 54.0261 164.105 54.0098 164.088 53.9931C163.947 53.856 164 53.459 164.047 53.1116C164.068 52.9553 164.088 52.809 164.088 52.701C164.088 52.4259 164.248 52.0887 164.391 51.7875L164.391 51.7874C164.429 51.7079 164.466 51.6308 164.498 51.5581C164.62 51.2825 164.902 51.1004 165.117 50.9625C165.173 50.9264 165.224 50.8933 165.267 50.8624C165.431 50.7431 165.847 49.8519 166.035 49.4212C166.206 50.6139 166.363 53.198 165.625 53.9931ZM164.088 38.4885C164.071 38.5382 163.996 38.6475 163.832 38.6873C163.627 38.737 162.961 38.8861 162.961 38.6873C162.961 38.576 162.881 38.4492 162.774 38.2807C162.69 38.1481 162.59 37.9897 162.5 37.7928C162.369 37.5068 162.405 37.363 162.449 37.1925C162.473 37.0965 162.5 36.9919 162.5 36.8486C162.5 36.7101 162.506 36.6198 162.512 36.5337C162.523 36.3726 162.533 36.2259 162.5 35.805C162.472 35.453 162.414 35.2042 162.366 35.0025C162.327 34.834 162.295 34.6984 162.295 34.5627V33.8173C162.295 33.3701 161.988 32.9725 161.68 33.1713C161.615 33.2133 161.555 33.2464 161.499 33.2768C161.293 33.39 161.157 33.4646 161.116 33.8173C161.094 34.0161 161.03 34.0578 160.967 34.0995C160.888 34.1517 160.809 34.2038 160.809 34.5627C160.809 34.8384 160.762 34.9964 160.729 35.1102C160.683 35.263 160.662 35.336 160.809 35.5069C161.014 35.7454 161.27 35.6063 161.372 35.5069H161.68V35.805C161.68 35.921 161.657 36.037 161.634 36.1529C161.589 36.3848 161.543 36.6168 161.68 36.8486C161.782 37.0226 161.782 37.0847 161.783 37.1654C161.783 37.2462 161.783 37.3456 161.885 37.594C161.953 37.7596 161.999 37.8921 162.037 38.0026C162.113 38.2235 162.158 38.356 162.295 38.4885C162.377 38.568 162.352 38.6317 162.323 38.708C162.279 38.8225 162.223 38.9656 162.5 39.2339C162.5 39.6257 162.535 39.8634 162.562 40.043C162.599 40.2963 162.62 40.434 162.5 40.7248C162.433 40.886 162.388 40.9688 162.351 41.0376C162.273 41.1808 162.228 41.2635 162.09 41.8677C161.98 42.3478 161.87 42.5416 161.792 42.6795C161.724 42.7987 161.68 42.8762 161.68 43.0604C161.68 43.1926 161.68 43.2533 161.71 43.292C161.736 43.3249 161.783 43.3418 161.871 43.3731C161.991 43.4156 162.185 43.4847 162.5 43.6567C162.745 43.7905 162.935 43.9153 163.09 44.0167C163.452 44.2542 163.617 44.3626 163.832 44.1536C163.923 44.0655 164.018 44.0382 164.108 44.0126C164.32 43.9516 164.498 43.9006 164.498 43.0604V41.1223C164.498 40.8466 164.573 40.7429 164.626 40.6682C164.699 40.5679 164.733 40.52 164.498 40.1781C164.363 39.9821 164.229 39.8398 164.123 39.7283C163.907 39.5004 163.813 39.4007 164.088 39.2339C164.416 39.0352 164.225 38.6542 164.088 38.4885ZM159.946 18.5995C159.885 18.2978 159.878 18.2631 159.835 18.2631C160.006 18.2631 160.399 18.3326 160.604 18.6109C160.644 18.6652 160.676 18.7074 160.704 18.7432C160.853 18.9365 160.857 18.9416 161.116 19.6545C161.284 20.1151 161.345 20.2359 161.382 20.3633C161.414 20.4696 161.428 20.5804 161.475 20.8968C161.507 21.1148 161.539 21.2841 161.568 21.4366C161.632 21.7708 161.68 22.0249 161.68 22.5368C161.68 22.9181 161.734 23.0003 161.813 23.1227C161.89 23.2395 161.99 23.393 162.09 23.8785C162.158 24.2071 162.214 24.4434 162.263 24.6484C162.363 25.0633 162.431 25.3501 162.5 26.0153C162.565 26.644 162.65 26.7358 162.704 26.7939C162.735 26.8276 162.756 26.8499 162.756 26.9595C162.756 27.2577 162.295 26.9595 162.295 26.6613C162.295 26.5094 162.242 26.4349 162.183 26.3523C162.126 26.2729 162.064 26.1859 162.039 26.0153C162.018 25.8743 161.964 25.7333 161.903 25.5758C161.813 25.3447 161.71 25.0779 161.68 24.7233C161.65 24.3785 161.467 24.2497 161.317 24.1447C161.208 24.0681 161.116 24.0042 161.116 23.8785C161.116 23.5803 161.116 23.4809 160.809 22.5368C160.615 21.9429 160.584 21.9388 160.524 21.931C160.488 21.9263 160.443 21.9204 160.348 21.7913C160.143 21.513 160.023 21.4435 159.989 21.4435V20.2011C159.989 19.8559 160.006 19.6434 160.019 19.479C160.039 19.241 160.05 19.1036 159.989 18.8097C159.972 18.7282 159.958 18.6587 159.946 18.5995Z" fill="#F8EDB7"/>
<path d="M269.203 35.8842C269.27 35.3581 269.334 34.8319 269.395 34.3058C269.942 29.5702 270.249 24.8312 270.316 20.0889C270.383 15.3466 270.209 10.6008 269.795 5.85172C269.749 5.32404 269.7 4.79632 269.648 4.26855C269.582 4.79465 269.518 5.32078 269.457 5.84695C268.909 10.5825 268.602 15.3215 268.535 20.0638C268.468 24.8062 268.642 29.5519 269.056 34.301C269.102 34.8287 269.151 35.3564 269.203 35.8842Z" fill="#F8EDB7"/>
<path d="M269.203 35.8842C269.27 35.3581 269.334 34.8319 269.395 34.3058C269.942 29.5702 270.249 24.8312 270.316 20.0889C270.383 15.3466 270.209 10.6008 269.795 5.85172C269.749 5.32404 269.7 4.79632 269.648 4.26855C269.582 4.79465 269.518 5.32078 269.457 5.84695C268.909 10.5825 268.602 15.3215 268.535 20.0638C268.468 24.8062 268.642 29.5519 269.056 34.301C269.102 34.8287 269.151 35.3564 269.203 35.8842Z" fill="#F8EDB7"/>
<path d="M275.76 37.4365C276.028 36.9787 276.293 36.5197 276.555 36.0595C278.915 31.9179 281.056 27.6789 282.977 23.3425C284.898 19.0061 286.599 14.5723 288.08 10.0411C288.245 9.53767 288.407 9.03301 288.566 8.52714C288.298 8.98492 288.033 9.44389 287.771 9.90407C285.41 14.0457 283.269 18.2847 281.349 22.6211C279.428 26.9575 277.727 31.3913 276.245 35.9225C276.081 36.4259 275.919 36.9306 275.76 37.4365Z" fill="#F8EDB7"/>
<path d="M275.76 37.4365C276.028 36.9787 276.293 36.5197 276.555 36.0595C278.915 31.9179 281.056 27.6789 282.977 23.3425C284.898 19.0061 286.599 14.5723 288.08 10.0411C288.245 9.53767 288.407 9.03301 288.566 8.52714C288.298 8.98492 288.033 9.44389 287.771 9.90407C285.41 14.0457 283.269 18.2847 281.349 22.6211C279.428 26.9575 277.727 31.3913 276.245 35.9225C276.081 36.4259 275.919 36.9306 275.76 37.4365Z" fill="#F8EDB7"/>
<path d="M261.928 36.915C261.66 36.4572 261.395 35.9982 261.133 35.538C258.772 31.3964 256.631 27.1574 254.71 22.821C252.789 18.4846 251.088 14.0508 249.607 9.51965C249.443 9.01619 249.281 8.51152 249.122 8.00565C249.389 8.46343 249.654 8.92241 249.917 9.38259C252.277 13.5242 254.418 17.7632 256.339 22.0996C258.26 26.436 259.961 30.8698 261.442 35.401C261.607 35.9044 261.769 36.4091 261.928 36.915Z" fill="#F8EDB7"/>
<path d="M261.928 36.915C261.66 36.4572 261.395 35.9982 261.133 35.538C258.772 31.3964 256.631 27.1574 254.71 22.821C252.789 18.4846 251.088 14.0508 249.607 9.51965C249.443 9.01619 249.281 8.51152 249.122 8.00565C249.389 8.46343 249.654 8.92241 249.917 9.38259C252.277 13.5242 254.418 17.7632 256.339 22.0996C258.26 26.436 259.961 30.8698 261.442 35.401C261.607 35.9044 261.769 36.4091 261.928 36.915Z" fill="#F8EDB7"/>
<path d="M281.685 41.2221C282.085 40.874 282.483 40.5238 282.879 40.1717C286.44 37.0023 289.823 33.6704 293.03 30.1758C296.237 26.6813 299.266 23.0242 302.119 19.2046C302.435 18.7802 302.75 18.3537 303.063 17.9253C302.663 18.2735 302.265 18.6236 301.869 18.9758C298.308 22.1451 294.924 25.4771 291.718 28.9716C288.511 32.4661 285.482 36.1232 282.629 39.9429C282.312 40.3673 281.998 40.7937 281.685 41.2221Z" fill="#F8EDB7"/>
<path d="M281.685 41.2221C282.085 40.874 282.483 40.5238 282.879 40.1717C286.44 37.0023 289.823 33.6704 293.03 30.1758C296.237 26.6813 299.266 23.0242 302.119 19.2046C302.435 18.7802 302.75 18.3537 303.063 17.9253C302.663 18.2735 302.265 18.6236 301.869 18.9758C298.308 22.1451 294.924 25.4771 291.718 28.9716C288.511 32.4661 285.482 36.1232 282.629 39.9429C282.312 40.3673 281.998 40.7937 281.685 41.2221Z" fill="#F8EDB7"/>
<path d="M256.01 40.6996C255.61 40.3515 255.212 40.0014 254.817 39.6492C251.256 36.4798 247.872 33.1479 244.665 29.6534C241.459 26.1589 238.429 22.5018 235.577 18.6821C235.26 18.2577 234.945 17.8313 234.633 17.4029C235.033 17.751 235.43 18.1011 235.826 18.4533C239.387 21.6227 242.771 24.9546 245.978 28.4491C249.184 31.9436 252.214 35.6007 255.066 39.4204C255.383 39.8448 255.698 40.2712 256.01 40.6996Z" fill="#F8EDB7"/>
<path d="M256.01 40.6996C255.61 40.3515 255.212 40.0014 254.817 39.6492C251.256 36.4798 247.872 33.1479 244.665 29.6534C241.459 26.1589 238.429 22.5018 235.577 18.6821C235.26 18.2577 234.945 17.8313 234.633 17.4029C235.033 17.751 235.43 18.1011 235.826 18.4533C239.387 21.6227 242.771 24.9546 245.978 28.4491C249.184 31.9436 252.214 35.6007 255.066 39.4204C255.383 39.8448 255.698 40.2712 256.01 40.6996Z" fill="#F8EDB7"/>
<path d="M287.909 45.9035C288.398 45.6983 288.886 45.4905 289.372 45.2801C293.747 43.3866 298.004 41.2832 302.145 38.9699C306.285 36.6566 310.308 34.1333 314.214 31.4002C314.648 31.0965 315.081 30.7902 315.512 30.4813C315.023 30.6865 314.535 30.8943 314.049 31.1047C309.674 32.9982 305.416 35.1016 301.276 37.415C297.136 39.7283 293.113 42.2515 289.207 44.9847C288.773 45.2884 288.34 45.5946 287.909 45.9035Z" fill="#F8EDB7"/>
<path d="M287.909 45.9035C288.398 45.6983 288.886 45.4905 289.372 45.2801C293.747 43.3866 298.004 41.2832 302.145 38.9699C306.285 36.6566 310.308 34.1333 314.214 31.4002C314.648 31.0965 315.081 30.7902 315.512 30.4813C315.023 30.6865 314.535 30.8943 314.049 31.1047C309.674 32.9982 305.416 35.1016 301.276 37.415C297.136 39.7283 293.113 42.2515 289.207 44.9847C288.773 45.2884 288.34 45.5946 287.909 45.9035Z" fill="#F8EDB7"/>
<path d="M249.771 45.382C249.282 45.1768 248.794 44.969 248.308 44.7586C243.933 42.8651 239.675 40.7617 235.535 38.4484C231.394 36.1351 227.371 33.6118 223.466 30.8787C223.032 30.575 222.599 30.2687 222.168 29.9599C222.657 30.1651 223.145 30.3729 223.631 30.5832C228.006 32.4767 232.263 34.5802 236.404 36.8935C240.544 39.2068 244.567 41.73 248.473 44.4632C248.907 44.7669 249.339 45.0732 249.771 45.382Z" fill="#F8EDB7"/>
<path d="M249.771 45.382C249.282 45.1768 248.794 44.969 248.308 44.7586C243.933 42.8651 239.675 40.7617 235.535 38.4484C231.394 36.1351 227.371 33.6118 223.466 30.8787C223.032 30.575 222.599 30.2687 222.168 29.9599C222.657 30.1651 223.145 30.3729 223.631 30.5832C228.006 32.4767 232.263 34.5802 236.404 36.8935C240.544 39.2068 244.567 41.73 248.473 44.4632C248.907 44.7669 249.339 45.0732 249.771 45.382Z" fill="#F8EDB7"/>
<path d="M288.81 52.6066C289.34 52.5944 289.87 52.5793 290.399 52.5612C295.164 52.3988 299.896 51.998 304.595 51.359C309.295 50.72 313.962 49.8428 318.597 48.7273C319.112 48.6033 319.626 48.4764 320.14 48.3466C319.61 48.3588 319.08 48.3739 318.551 48.3919C313.787 48.5544 309.055 48.9551 304.355 49.5941C299.656 50.2331 294.988 51.1104 290.354 52.2259C289.839 52.3499 289.324 52.4768 288.81 52.6066Z" fill="#F8EDB7"/>
<path d="M288.81 52.6066C289.34 52.5944 289.87 52.5793 290.399 52.5612C295.164 52.3988 299.896 51.998 304.595 51.359C309.295 50.72 313.962 49.8428 318.597 48.7273C319.112 48.6033 319.626 48.4764 320.14 48.3466C319.61 48.3588 319.08 48.3739 318.551 48.3919C313.787 48.5544 309.055 48.9551 304.355 49.5941C299.656 50.2331 294.988 51.1104 290.354 52.2259C289.839 52.3499 289.324 52.4768 288.81 52.6066Z" fill="#F8EDB7"/>
<path d="M248.881 52.0861C248.351 52.0739 247.822 52.0588 247.292 52.0407C242.528 51.8783 237.796 51.4775 233.096 50.8385C228.397 50.1995 223.729 49.3223 219.095 48.2068C218.58 48.0828 218.065 47.9559 217.551 47.8261C218.081 47.8383 218.611 47.8534 219.14 47.8714C223.905 48.0339 228.637 48.4346 233.336 49.0736C238.036 49.7126 242.703 50.5899 247.338 51.7054C247.853 51.8294 248.367 51.9562 248.881 52.0861Z" fill="#F8EDB7"/>
<path d="M248.881 52.0861C248.351 52.0739 247.822 52.0588 247.292 52.0407C242.528 51.8783 237.796 51.4775 233.096 50.8385C228.397 50.1995 223.729 49.3223 219.095 48.2068C218.58 48.0828 218.065 47.9559 217.551 47.8261C218.081 47.8383 218.611 47.8534 219.14 47.8714C223.905 48.0339 228.637 48.4346 233.336 49.0736C238.036 49.7126 242.703 50.5899 247.338 51.7054C247.853 51.8294 248.367 51.9562 248.881 52.0861Z" fill="#F8EDB7"/>
<path d="M77.7383 73.3687C77.7383 73.3687 77.7383 73.3687 77.7383 73.3687C82.0648 72.326 86.4502 71.3745 90.837 70.4725C110.902 66.5032 131.344 62.9268 151.599 63.6691C171.178 64.7288 190.433 69.2602 209.443 74.3787C223.693 78.1669 237.786 82.6784 252.426 85.6119C277.804 89.7986 303.333 90.8394 328.826 92.038C333.301 92.2209 337.839 92.3886 342.241 92.5162C342.241 92.5162 342.241 92.5162 342.241 92.5162C337.852 92.1515 333.33 91.7587 328.87 91.3626C303.512 88.9585 277.881 87.0492 253.049 82.4995C238.787 79.385 224.681 74.7466 210.372 70.9396C191.267 65.7965 171.693 61.4177 151.714 60.8038C130.882 60.5414 110.594 64.8868 90.6853 69.8129C86.3398 70.9246 82.0036 72.0965 77.7383 73.3687Z" fill="#F8EDB7"/>
<path d="M77.7383 73.3687C77.7383 73.3687 77.7383 73.3687 77.7383 73.3687C82.0648 72.326 86.4502 71.3745 90.837 70.4725C110.902 66.5032 131.344 62.9268 151.599 63.6691C171.178 64.7288 190.433 69.2602 209.443 74.3787C223.693 78.1669 237.786 82.6784 252.426 85.6119C277.804 89.7986 303.333 90.8394 328.826 92.038C333.301 92.2209 337.839 92.3886 342.241 92.5162C342.241 92.5162 342.241 92.5162 342.241 92.5162C337.852 92.1515 333.33 91.7587 328.87 91.3626C303.512 88.9585 277.881 87.0492 253.049 82.4995C238.787 79.385 224.681 74.7466 210.372 70.9396C191.267 65.7965 171.693 61.4177 151.714 60.8038C130.882 60.5414 110.594 64.8868 90.6853 69.8129C86.3398 70.9246 82.0036 72.0965 77.7383 73.3687Z" fill="#F8EDB7"/>
<path d="M289.695 83.5313C292.929 83.4292 295.877 83.2966 299.049 83.0881C327.158 81.9509 354.198 72.1873 380.661 64.6183C407.453 57.4107 435.638 60.535 463.124 65.689C466.076 66.2426 469.116 66.8445 472.264 67.5009C469.173 66.614 466.182 65.7919 463.272 65.0286C436.252 58.0032 407.405 53.748 379.789 61.1644C352.656 68.9231 326.938 79.3199 298.981 82.4146C295.838 82.835 292.913 83.1922 289.695 83.5313Z" fill="#F8EDB7"/>
<path d="M289.695 83.5313C292.929 83.4292 295.877 83.2966 299.049 83.0881C327.158 81.9509 354.198 72.1873 380.661 64.6183C407.453 57.4107 435.638 60.535 463.124 65.689C466.076 66.2426 469.116 66.8445 472.264 67.5009C469.173 66.614 466.182 65.7919 463.272 65.0286C436.252 58.0032 407.405 53.748 379.789 61.1644C352.656 68.9231 326.938 79.3199 298.981 82.4146C295.838 82.835 292.913 83.1922 289.695 83.5313Z" fill="#F8EDB7"/>
<path d="M193.965 59.4856C193.965 59.4856 193.965 59.4856 193.965 59.4856C197.021 59.09 200.107 58.7467 203.182 58.4397C210.355 57.7493 217.569 57.1552 224.681 57.3575C240.001 57.447 253.974 65.5618 270.025 66.1124C275.364 66.4093 280.713 66.1425 285.973 65.3427C307.246 61.9785 325.949 50.7047 347.074 52.4284C353.83 52.7891 360.631 53.7687 367.385 54.8163C370.448 55.3008 373.49 55.8108 376.534 56.3686C376.534 56.3686 376.534 56.3686 376.534 56.3686C373.542 55.579 370.542 54.8473 367.514 54.1517C360.828 52.6373 354.098 51.2427 347.216 50.5125C325.554 47.6315 305.563 58.7366 285.44 61.8204C280.399 62.5863 275.31 62.8731 270.194 62.6553C255.128 62.4344 240.636 54.7269 224.699 55.3797C217.389 55.5485 210.225 56.5834 203.092 57.7689C200.038 58.2886 196.982 58.8558 193.965 59.4856Z" fill="#F8EDB7"/>
<path d="M193.965 59.4856C193.965 59.4856 193.965 59.4856 193.965 59.4856C197.021 59.09 200.107 58.7467 203.182 58.4397C210.355 57.7493 217.569 57.1552 224.681 57.3575C240.001 57.447 253.974 65.5618 270.025 66.1124C275.364 66.4093 280.713 66.1425 285.973 65.3427C307.246 61.9785 325.949 50.7047 347.074 52.4284C353.83 52.7891 360.631 53.7687 367.385 54.8163C370.448 55.3008 373.49 55.8108 376.534 56.3686C376.534 56.3686 376.534 56.3686 376.534 56.3686C373.542 55.579 370.542 54.8473 367.514 54.1517C360.828 52.6373 354.098 51.2427 347.216 50.5125C325.554 47.6315 305.563 58.7366 285.44 61.8204C280.399 62.5863 275.31 62.8731 270.194 62.6553C255.128 62.4344 240.636 54.7269 224.699 55.3797C217.389 55.5485 210.225 56.5834 203.092 57.7689C200.038 58.2886 196.982 58.8558 193.965 59.4856Z" fill="#F8EDB7"/>
<path d="M216.668 62.1572C217.745 62.2749 218.812 62.4239 219.879 62.5866C229.07 64.1415 238.42 65.8788 247.063 68.7719C247.411 68.912 247.755 69.0488 248.093 69.1825C257.099 72.7642 266.87 75.6423 276.656 75.0012C277.737 75.0033 278.817 75.0218 279.899 75.0706C278.829 74.9036 277.753 74.7722 276.673 74.6632C266.869 74.3172 257.752 71.086 248.747 67.5255C248.411 67.3929 248.07 67.2578 247.723 67.1201C238.597 64.104 229.296 62.9073 219.913 62.2499C218.832 62.1932 217.751 62.1563 216.668 62.1572Z" fill="#F8EDB7"/>
<path d="M216.668 62.1572C217.745 62.2749 218.812 62.4239 219.879 62.5866C229.07 64.1415 238.42 65.8788 247.063 68.7719C247.411 68.912 247.755 69.0488 248.093 69.1825C257.099 72.7642 266.87 75.6423 276.656 75.0012C277.737 75.0033 278.817 75.0218 279.899 75.0706C278.829 74.9036 277.753 74.7722 276.673 74.6632C266.869 74.3172 257.752 71.086 248.747 67.5255C248.411 67.3929 248.07 67.2578 247.723 67.1201C238.597 64.104 229.296 62.9073 219.913 62.2499C218.832 62.1932 217.751 62.1563 216.668 62.1572Z" fill="#F8EDB7"/>
<path d="M267.874 40.3359C277.219 40.3359 284.795 47.9117 284.795 57.2568C284.795 59.6062 284.317 61.0373 283.542 61.9121C282.773 62.7806 281.637 63.1837 280.119 63.3037C278.595 63.4241 276.766 63.2545 274.678 63.0469C272.623 62.8426 270.339 62.6048 267.939 62.6006C265.669 61.9298 263.438 61.8363 261.386 61.918C260.351 61.9591 259.357 62.0448 258.428 62.125C257.494 62.2056 256.631 62.2798 255.84 62.3008C254.238 62.3433 253.052 62.1604 252.256 61.4912C251.474 60.8344 250.953 59.6069 250.953 57.2568C250.953 47.9117 258.529 40.336 267.874 40.3359Z" fill="#F8EDB7"/>
<path d="M267.874 40.3359C277.219 40.3359 284.795 47.9117 284.795 57.2568C284.795 59.6062 284.317 61.0373 283.542 61.9121C282.773 62.7806 281.637 63.1837 280.119 63.3037C278.595 63.4241 276.766 63.2545 274.678 63.0469C272.623 62.8426 270.339 62.6048 267.939 62.6006C265.669 61.9298 263.438 61.8363 261.386 61.918C260.351 61.9591 259.357 62.0448 258.428 62.125C257.494 62.2056 256.631 62.2798 255.84 62.3008C254.238 62.3433 253.052 62.1604 252.256 61.4912C251.474 60.8344 250.953 59.6069 250.953 57.2568C250.953 47.9117 258.529 40.336 267.874 40.3359Z" fill="#F8EDB7"/>
<path d="M267.874 40.3359C277.219 40.3359 284.795 47.9117 284.795 57.2568C284.795 59.6062 284.317 61.0373 283.542 61.9121C282.773 62.7806 281.637 63.1837 280.119 63.3037C278.595 63.4241 276.766 63.2545 274.678 63.0469C272.623 62.8426 270.339 62.6048 267.939 62.6006C265.669 61.9298 263.438 61.8363 261.386 61.918C260.351 61.9591 259.357 62.0448 258.428 62.125C257.494 62.2056 256.631 62.2798 255.84 62.3008C254.238 62.3433 253.052 62.1604 252.256 61.4912C251.474 60.8344 250.953 59.6069 250.953 57.2568C250.953 47.9117 258.529 40.336 267.874 40.3359Z" stroke="#F8EDB7" stroke-width="0.890581"/>
<path d="M267.874 40.3359C277.219 40.3359 284.795 47.9117 284.795 57.2568C284.795 59.6062 284.317 61.0373 283.542 61.9121C282.773 62.7806 281.637 63.1837 280.119 63.3037C278.595 63.4241 276.766 63.2545 274.678 63.0469C272.623 62.8426 270.339 62.6048 267.939 62.6006C265.669 61.9298 263.438 61.8363 261.386 61.918C260.351 61.9591 259.357 62.0448 258.428 62.125C257.494 62.2056 256.631 62.2798 255.84 62.3008C254.238 62.3433 253.052 62.1604 252.256 61.4912C251.474 60.8344 250.953 59.6069 250.953 57.2568C250.953 47.9117 258.529 40.336 267.874 40.3359Z" stroke="#F8EDB7" stroke-width="0.890581"/>
<path d="M3.65745 152.861V134.501C3.65745 133.481 3.51011 132.665 3.21544 132.053C2.94343 131.418 2.29741 131.101 1.27738 131.101H0.597361V130.421H9.50563C13.9938 130.421 17.3372 131.418 19.5359 133.413C21.7573 135.407 22.868 138.105 22.868 141.505C22.868 143.704 22.392 145.664 21.44 147.387C20.5106 149.087 19.1166 150.425 17.2579 151.399C15.4218 152.374 13.1324 152.861 10.3897 152.861H3.65745ZM10.2876 151.671C11.965 151.671 13.4724 151.263 14.8098 150.447C16.1472 149.631 17.2012 148.475 17.9719 146.979C18.7652 145.46 19.1619 143.681 19.1619 141.641C19.1619 139.624 18.7766 137.867 18.0059 136.371C17.2352 134.875 16.1812 133.707 14.8438 132.869C13.5064 132.03 11.965 131.611 10.2196 131.611C9.72097 131.611 9.17695 131.656 8.5876 131.747C8.02092 131.837 7.43156 131.973 6.81955 132.155V151.229C7.27289 151.32 7.69224 151.399 8.07758 151.467C8.4856 151.535 8.87094 151.592 9.23362 151.637C9.61896 151.66 9.97031 151.671 10.2876 151.671ZM30.4449 152.861C29.6516 152.861 29.0282 152.759 28.5749 152.555C28.1442 152.351 27.8382 151.955 27.6569 151.365C27.4755 150.776 27.3848 149.915 27.3848 148.781V130.421H30.4449V148.781C30.4449 149.801 30.5809 150.629 30.8529 151.263C31.1476 151.875 31.805 152.181 32.825 152.181H33.505V152.861H30.4449ZM62.6492 154.391C61.0172 154.391 59.7365 154.131 58.8071 153.609C57.9004 153.111 57.2657 152.329 56.903 151.263C56.5404 150.175 56.359 148.781 56.359 147.081V133.991L47.8588 152.861H47.1787L38.3385 133.651V152.861H36.9784V130.421H40.2085L48.3688 148.101L56.359 130.421H59.4191V147.081C59.4191 149.144 59.6798 150.765 60.2011 151.943C60.7225 153.122 61.5385 153.711 62.6492 153.711V154.391ZM74.9467 153.541C72.7933 153.541 70.9232 153.02 69.3365 151.977C67.7725 150.912 66.5598 149.484 65.6984 147.693C64.837 145.88 64.4064 143.862 64.4064 141.641C64.4064 139.42 64.837 137.414 65.6984 135.623C66.5598 133.809 67.7725 132.381 69.3365 131.339C70.9232 130.273 72.7933 129.741 74.9467 129.741C77.1001 129.741 78.9588 130.273 80.5229 131.339C82.1096 132.381 83.3336 133.809 84.195 135.623C85.0563 137.414 85.487 139.42 85.487 141.641C85.487 143.862 85.0563 145.88 84.195 147.693C83.3336 149.484 82.1096 150.912 80.5229 151.977C78.9588 153.02 77.1001 153.541 74.9467 153.541ZM74.9467 152.181C76.4427 152.181 77.7234 151.751 78.7888 150.889C79.8542 150.028 80.6702 148.815 81.2369 147.251C81.8036 145.664 82.0869 143.794 82.0869 141.641C82.0869 139.488 81.8036 137.629 81.2369 136.065C80.6702 134.478 79.8542 133.254 78.7888 132.393C77.7234 131.531 76.4427 131.101 74.9467 131.101C73.4733 131.101 72.1926 131.531 71.1046 132.393C70.0392 133.254 69.2232 134.478 68.6565 136.065C68.0898 137.629 67.8065 139.488 67.8065 141.641C67.8065 143.794 68.0898 145.664 68.6565 147.251C69.2232 148.815 70.0392 150.028 71.1046 150.889C72.1926 151.751 73.4733 152.181 74.9467 152.181ZM105.346 153.201C104.576 153.201 103.862 153.054 103.204 152.759C102.569 152.442 101.935 151.932 101.3 151.229C100.688 150.504 100.008 149.518 99.2601 148.271L95.86 142.491H93.4799V152.861H90.4198V134.501C90.4198 133.481 90.2725 132.665 89.9778 132.053C89.7058 131.418 89.0598 131.101 88.0397 131.101H87.3597V130.421H96.2C96.7667 130.421 97.424 130.466 98.172 130.557C98.92 130.625 99.6681 130.772 100.416 130.999C101.187 131.225 101.889 131.565 102.524 132.019C103.182 132.472 103.703 133.061 104.088 133.787C104.496 134.512 104.7 135.419 104.7 136.507C104.7 137.799 104.417 138.842 103.85 139.635C103.306 140.406 102.615 140.995 101.776 141.403C100.937 141.811 100.099 142.117 99.2601 142.321L102.83 148.271C103.692 149.722 104.462 150.719 105.142 151.263C105.822 151.785 106.582 152.091 107.42 152.181V152.861C107.239 152.952 106.956 153.031 106.57 153.099C106.208 153.167 105.8 153.201 105.346 153.201ZM93.4799 141.301H95.928C96.4266 141.301 96.982 141.21 97.594 141.029C98.206 140.848 98.7954 140.576 99.3621 140.213C99.9287 139.828 100.393 139.329 100.756 138.717C101.119 138.105 101.3 137.357 101.3 136.473C101.3 135.589 101.119 134.841 100.756 134.229C100.393 133.617 99.9287 133.118 99.3621 132.733C98.7954 132.347 98.206 132.064 97.594 131.883C96.982 131.701 96.4266 131.611 95.928 131.611C95.5653 131.611 95.1459 131.645 94.6699 131.713C94.2166 131.781 93.8199 131.86 93.4799 131.951V141.301ZM128.186 153.031C127.687 153.031 127.075 152.941 126.35 152.759C125.624 152.555 124.91 152.147 124.208 151.535C123.505 150.901 122.904 149.926 122.405 148.611L121.555 146.401H112.035L109.315 152.861H107.785L117.305 130.421H118.325L125.806 148.611C126.35 149.881 126.871 150.776 127.37 151.297C127.868 151.796 128.594 152.091 129.546 152.181V152.861C129.364 152.907 129.149 152.941 128.9 152.963C128.673 153.009 128.435 153.031 128.186 153.031ZM112.545 145.041H120.875L116.795 135.181L112.545 145.041ZM140.724 152.861V134.501C140.724 133.481 140.577 132.665 140.282 132.053C140.01 131.418 139.364 131.101 138.344 131.101H137.664V130.421H146.572C151.06 130.421 154.404 131.418 156.602 133.413C158.824 135.407 159.935 138.105 159.935 141.505C159.935 143.704 159.459 145.664 158.507 147.387C157.577 149.087 156.183 150.425 154.324 151.399C152.488 152.374 150.199 152.861 147.456 152.861H140.724ZM147.354 151.671C149.032 151.671 150.539 151.263 151.876 150.447C153.214 149.631 154.268 148.475 155.038 146.979C155.832 145.46 156.228 143.681 156.228 141.641C156.228 139.624 155.843 137.867 155.072 136.371C154.302 134.875 153.248 133.707 151.91 132.869C150.573 132.03 149.032 131.611 147.286 131.611C146.788 131.611 146.244 131.656 145.654 131.747C145.087 131.837 144.498 131.973 143.886 132.155V151.229C144.339 151.32 144.759 151.399 145.144 151.467C145.552 151.535 145.938 151.592 146.3 151.637C146.686 151.66 147.037 151.671 147.354 151.671ZM164.797 152.861V134.501C164.797 133.481 164.65 132.665 164.355 132.053C164.083 131.418 163.437 131.101 162.417 131.101H161.737V130.421H176.221C177.015 130.421 177.615 130.557 178.023 130.829C178.431 131.078 178.715 131.418 178.873 131.849C179.032 132.257 179.111 132.687 179.111 133.141V135.691H178.431C178.431 134.331 178.057 133.345 177.309 132.733C176.584 132.098 175.541 131.781 174.181 131.781H167.857V140.621H177.037V141.981H167.857V151.501H173.807C175.349 151.501 176.561 151.218 177.445 150.651C178.352 150.085 179.066 149.121 179.587 147.761L180.267 147.931L179.077 151.161C178.896 151.683 178.59 152.102 178.159 152.419C177.751 152.714 177.207 152.861 176.527 152.861H164.797ZM184.852 152.861V134.501C184.852 133.481 184.705 132.665 184.41 132.053C184.138 131.418 183.492 131.101 182.472 131.101H181.792V130.421H184.852C185.646 130.421 186.258 130.523 186.688 130.727C187.142 130.931 187.459 131.327 187.64 131.917C187.822 132.506 187.912 133.367 187.912 134.501V151.501H199.983V152.861H184.852ZM217.412 152.861V131.781H214.352C212.992 131.781 211.938 132.098 211.19 132.733C210.465 133.345 210.102 134.331 210.102 135.691H209.422V133.141C209.422 132.687 209.501 132.257 209.66 131.849C209.819 131.418 210.102 131.078 210.51 130.829C210.941 130.557 211.541 130.421 212.312 130.421H228.123V131.781H220.472V152.861H217.412ZM247.061 153.201C246.291 153.201 245.577 153.054 244.919 152.759C244.285 152.442 243.65 151.932 243.015 151.229C242.403 150.504 241.723 149.518 240.975 148.271L237.575 142.491H235.195V152.861H232.135V134.501C232.135 133.481 231.988 132.665 231.693 132.053C231.421 131.418 230.775 131.101 229.755 131.101H229.075V130.421H237.915C238.482 130.421 239.139 130.466 239.887 130.557C240.635 130.625 241.383 130.772 242.131 130.999C242.902 131.225 243.605 131.565 244.239 132.019C244.897 132.472 245.418 133.061 245.803 133.787C246.211 134.512 246.415 135.419 246.415 136.507C246.415 137.799 246.132 138.842 245.565 139.635C245.021 140.406 244.33 140.995 243.491 141.403C242.653 141.811 241.814 142.117 240.975 142.321L244.545 148.271C245.407 149.722 246.177 150.719 246.857 151.263C247.537 151.785 248.297 152.091 249.135 152.181V152.861C248.954 152.952 248.671 153.031 248.285 153.099C247.923 153.167 247.515 153.201 247.061 153.201ZM235.195 141.301H237.643C238.142 141.301 238.697 141.21 239.309 141.029C239.921 140.848 240.511 140.576 241.077 140.213C241.644 139.828 242.109 139.329 242.471 138.717C242.834 138.105 243.015 137.357 243.015 136.473C243.015 135.589 242.834 134.841 242.471 134.229C242.109 133.617 241.644 133.118 241.077 132.733C240.511 132.347 239.921 132.064 239.309 131.883C238.697 131.701 238.142 131.611 237.643 131.611C237.28 131.611 236.861 131.645 236.385 131.713C235.932 131.781 235.535 131.86 235.195 131.951V141.301ZM269.901 153.031C269.402 153.031 268.79 152.941 268.065 152.759C267.339 152.555 266.625 152.147 265.923 151.535C265.22 150.901 264.619 149.926 264.121 148.611L263.271 146.401H253.75L251.03 152.861H249.5L259.02 130.421H260.04L267.521 148.611C268.065 149.881 268.586 150.776 269.085 151.297C269.583 151.796 270.309 152.091 271.261 152.181V152.861C271.079 152.907 270.864 152.941 270.615 152.963C270.388 153.009 270.15 153.031 269.901 153.031ZM254.26 145.041H262.591L258.51 135.181L254.26 145.041ZM298.93 154.391C297.298 154.391 296.017 154.131 295.088 153.609C294.181 153.111 293.546 152.329 293.183 151.263C292.821 150.175 292.639 148.781 292.639 147.081V133.991L284.139 152.861H283.459L274.619 133.651V152.861H273.259V130.421H276.489L284.649 148.101L292.639 130.421H295.7V147.081C295.7 149.144 295.96 150.765 296.482 151.943C297.003 153.122 297.819 153.711 298.93 153.711V154.391ZM311.227 153.541C309.074 153.541 307.204 153.02 305.617 151.977C304.053 150.912 302.84 149.484 301.979 147.693C301.117 145.88 300.687 143.862 300.687 141.641C300.687 139.42 301.117 137.414 301.979 135.623C302.84 133.809 304.053 132.381 305.617 131.339C307.204 130.273 309.074 129.741 311.227 129.741C313.381 129.741 315.239 130.273 316.803 131.339C318.39 132.381 319.614 133.809 320.475 135.623C321.337 137.414 321.767 139.42 321.767 141.641C321.767 143.862 321.337 145.88 320.475 147.693C319.614 149.484 318.39 150.912 316.803 151.977C315.239 153.02 313.381 153.541 311.227 153.541ZM311.227 152.181C312.723 152.181 314.004 151.751 315.069 150.889C316.135 150.028 316.951 148.815 317.517 147.251C318.084 145.664 318.367 143.794 318.367 141.641C318.367 139.488 318.084 137.629 317.517 136.065C316.951 134.478 316.135 133.254 315.069 132.393C314.004 131.531 312.723 131.101 311.227 131.101C309.754 131.101 308.473 131.531 307.385 132.393C306.32 133.254 305.504 134.478 304.937 136.065C304.37 137.629 304.087 139.488 304.087 141.641C304.087 143.794 304.37 145.664 304.937 147.251C305.504 148.815 306.32 150.028 307.385 150.889C308.473 151.751 309.754 152.181 311.227 152.181ZM342.817 153.201L328.196 135.011V152.861H326.836V134.501C326.836 133.481 326.621 132.665 326.19 132.053C325.76 131.418 324.955 131.101 323.776 131.101H323.436V130.421H325.646C326.757 130.421 327.664 130.602 328.366 130.965C329.092 131.327 329.715 131.826 330.236 132.461L342.137 147.251V130.421H343.497V153.201H342.817ZM355.076 152.861V131.781H352.016C350.656 131.781 349.602 132.098 348.854 132.733C348.129 133.345 347.766 134.331 347.766 135.691H347.086V133.141C347.086 132.687 347.166 132.257 347.324 131.849C347.483 131.418 347.766 131.078 348.174 130.829C348.605 130.557 349.206 130.421 349.976 130.421H365.787V131.781H358.137V152.861H355.076ZM376.905 153.541C374.751 153.541 372.881 153.02 371.295 151.977C369.731 150.912 368.518 149.484 367.657 147.693C366.795 145.88 366.365 143.862 366.365 141.641C366.365 139.42 366.795 137.414 367.657 135.623C368.518 133.809 369.731 132.381 371.295 131.339C372.881 130.273 374.751 129.741 376.905 129.741C379.058 129.741 380.917 130.273 382.481 131.339C384.068 132.381 385.292 133.809 386.153 135.623C387.015 137.414 387.445 139.42 387.445 141.641C387.445 143.862 387.015 145.88 386.153 147.693C385.292 149.484 384.068 150.912 382.481 151.977C380.917 153.02 379.058 153.541 376.905 153.541ZM376.905 152.181C378.401 152.181 379.682 151.751 380.747 150.889C381.812 150.028 382.628 148.815 383.195 147.251C383.762 145.664 384.045 143.794 384.045 141.641C384.045 139.488 383.762 137.629 383.195 136.065C382.628 134.478 381.812 133.254 380.747 132.393C379.682 131.531 378.401 131.101 376.905 131.101C375.431 131.101 374.151 131.531 373.063 132.393C371.997 133.254 371.181 134.478 370.615 136.065C370.048 137.629 369.765 139.488 369.765 141.641C369.765 143.794 370.048 145.664 370.615 147.251C371.181 148.815 371.997 150.028 373.063 150.889C374.151 151.751 375.431 152.181 376.905 152.181ZM406.211 152.861V131.781H403.151C401.791 131.781 400.737 132.098 399.989 132.733C399.263 133.345 398.901 134.331 398.901 135.691H398.221V133.141C398.221 132.687 398.3 132.257 398.459 131.849C398.617 131.418 398.901 131.078 399.309 130.829C399.739 130.557 400.34 130.421 401.111 130.421H416.921V131.781H409.271V152.861H406.211ZM428.039 153.541C425.886 153.541 424.016 153.02 422.429 151.977C420.865 150.912 419.652 149.484 418.791 147.693C417.93 145.88 417.499 143.862 417.499 141.641C417.499 139.42 417.93 137.414 418.791 135.623C419.652 133.809 420.865 132.381 422.429 131.339C424.016 130.273 425.886 129.741 428.039 129.741C430.193 129.741 432.051 130.273 433.615 131.339C435.202 132.381 436.426 133.809 437.287 135.623C438.149 137.414 438.58 139.42 438.58 141.641C438.58 143.862 438.149 145.88 437.287 147.693C436.426 149.484 435.202 150.912 433.615 151.977C432.051 153.02 430.193 153.541 428.039 153.541ZM428.039 152.181C429.535 152.181 430.816 151.751 431.881 150.889C432.947 150.028 433.763 148.815 434.329 147.251C434.896 145.664 435.179 143.794 435.179 141.641C435.179 139.488 434.896 137.629 434.329 136.065C433.763 134.478 432.947 133.254 431.881 132.393C430.816 131.531 429.535 131.101 428.039 131.101C426.566 131.101 425.285 131.531 424.197 132.393C423.132 133.254 422.316 134.478 421.749 136.065C421.182 137.629 420.899 139.488 420.899 141.641C420.899 143.794 421.182 145.664 421.749 147.251C422.316 148.815 423.132 150.028 424.197 150.889C425.285 151.751 426.566 152.181 428.039 152.181ZM449.729 153.439C448.822 153.439 447.904 153.337 446.975 153.133C446.068 152.952 445.229 152.68 444.459 152.317C443.711 151.955 443.11 151.524 442.657 151.025C442.203 150.504 441.977 149.926 441.977 149.291V145.653H442.589C442.974 147.943 443.722 149.586 444.833 150.583C445.966 151.581 447.496 152.079 449.423 152.079C450.194 152.079 450.919 151.955 451.599 151.705C452.279 151.433 452.823 151.037 453.231 150.515C453.662 149.994 453.877 149.359 453.877 148.611C453.877 147.614 453.56 146.764 452.925 146.061C452.313 145.358 451.384 144.644 450.137 143.919L445.955 141.437C444.504 140.576 443.473 139.703 442.861 138.819C442.271 137.935 441.977 136.858 441.977 135.589C441.977 133.843 442.577 132.449 443.779 131.407C445.003 130.341 446.601 129.809 448.573 129.809C449.412 129.809 450.262 129.899 451.123 130.081C451.984 130.262 452.778 130.534 453.503 130.897C454.228 131.237 454.806 131.656 455.237 132.155C455.69 132.653 455.917 133.231 455.917 133.889V137.527H455.305C454.92 135.237 454.183 133.605 453.095 132.631C452.007 131.656 450.5 131.169 448.573 131.169C447.916 131.169 447.281 131.316 446.669 131.611C446.057 131.883 445.558 132.279 445.173 132.801C444.81 133.299 444.629 133.9 444.629 134.603C444.629 135.577 444.946 136.382 445.581 137.017C446.216 137.652 447.156 138.332 448.403 139.057L452.585 141.539C454.036 142.4 455.101 143.239 455.781 144.055C456.461 144.848 456.801 145.88 456.801 147.149C456.801 149.053 456.166 150.583 454.897 151.739C453.628 152.873 451.905 153.439 449.729 153.439ZM470.306 153.541C468.153 153.541 466.283 153.031 464.696 152.011C463.132 150.969 461.92 149.575 461.058 147.829C460.197 146.061 459.766 144.112 459.766 141.981C459.766 140.281 460.038 138.694 460.582 137.221C461.126 135.725 461.886 134.421 462.86 133.311C463.835 132.2 464.957 131.327 466.226 130.693C467.496 130.058 468.856 129.741 470.306 129.741C472.188 129.741 473.809 130.013 475.169 130.557C476.529 131.078 477.515 131.713 478.127 132.461C478.557 132.982 478.807 133.707 478.875 134.637C478.943 135.566 478.977 136.541 478.977 137.561H478.297C477.866 135.339 477.061 133.707 475.883 132.665C474.727 131.622 473.208 131.101 471.326 131.101C469.853 131.101 468.493 131.441 467.246 132.121C466 132.801 465.002 133.934 464.254 135.521C463.529 137.108 463.166 139.261 463.166 141.981C463.166 143.25 463.314 144.497 463.608 145.721C463.926 146.922 464.413 148.011 465.07 148.985C465.728 149.96 466.566 150.742 467.586 151.331C468.629 151.898 469.876 152.181 471.326 152.181C473.027 152.181 474.489 151.773 475.713 150.957C476.937 150.141 478.025 148.963 478.977 147.421L479.657 147.931C478.569 150.062 477.243 151.535 475.679 152.351C474.115 153.145 472.324 153.541 470.306 153.541ZM502.031 153.031C501.532 153.031 500.92 152.941 500.195 152.759C499.469 152.555 498.755 152.147 498.053 151.535C497.35 150.901 496.749 149.926 496.251 148.611L495.401 146.401H485.88L483.16 152.861H481.63L491.15 130.421H492.17L499.651 148.611C500.195 149.881 500.716 150.776 501.215 151.297C501.713 151.796 502.439 152.091 503.391 152.181V152.861C503.209 152.907 502.994 152.941 502.745 152.963C502.518 153.009 502.28 153.031 502.031 153.031ZM486.39 145.041H494.72L490.64 135.181L486.39 145.041ZM522.185 153.201L507.565 135.011V152.861H506.205V134.501C506.205 133.481 505.99 132.665 505.559 132.053C505.128 131.418 504.323 131.101 503.145 131.101H502.805V130.421H505.015C506.126 130.421 507.032 130.602 507.735 130.965C508.46 131.327 509.084 131.826 509.605 132.461L521.505 147.251V130.421H522.865V153.201H522.185ZM537.845 153.541C535.692 153.541 533.822 153.02 532.235 151.977C530.671 150.912 529.458 149.484 528.597 147.693C527.736 145.88 527.305 143.862 527.305 141.641C527.305 139.42 527.736 137.414 528.597 135.623C529.458 133.809 530.671 132.381 532.235 131.339C533.822 130.273 535.692 129.741 537.845 129.741C539.999 129.741 541.857 130.273 543.421 131.339C545.008 132.381 546.232 133.809 547.093 135.623C547.955 137.414 548.386 139.42 548.386 141.641C548.386 143.862 547.955 145.88 547.093 147.693C546.232 149.484 545.008 150.912 543.421 151.977C541.857 153.02 539.999 153.541 537.845 153.541ZM537.845 152.181C539.341 152.181 540.622 151.751 541.687 150.889C542.753 150.028 543.569 148.815 544.135 147.251C544.702 145.664 544.985 143.794 544.985 141.641C544.985 139.488 544.702 137.629 544.135 136.065C543.569 134.478 542.753 133.254 541.687 132.393C540.622 131.531 539.341 131.101 537.845 131.101C536.372 131.101 535.091 131.531 534.003 132.393C532.938 133.254 532.122 134.478 531.555 136.065C530.988 137.629 530.705 139.488 530.705 141.641C530.705 143.794 530.988 145.664 531.555 147.251C532.122 148.815 532.938 150.028 534.003 150.889C535.091 151.751 536.372 152.181 537.845 152.181Z" fill="#F8EDB7"/>
</svg>
