<svg width="685" height="249" viewBox="0 0 685 249" fill="none" xmlns="http://www.w3.org/2000/svg">
<path fill-rule="evenodd" clip-rule="evenodd" d="M230.024 64.7023C228.752 65.9445 229.494 72.5696 230.024 75.7269H230.731C230.97 75.7269 231.054 75.6127 231.222 75.3842C231.363 75.1915 231.564 74.9175 231.968 74.5623C231.968 74.3138 232.263 74.0965 232.41 74.0189C232.557 73.9412 232.993 73.4133 233.558 71.9226C233.558 71.7903 233.566 71.6705 233.574 71.533C233.594 71.1864 233.622 70.7272 233.558 69.6711C233.508 68.8365 233.543 68.7475 233.567 68.6869C233.585 68.6404 233.597 68.6108 233.558 68.2736C233.508 67.8306 233.515 67.7162 233.531 67.4688C233.542 67.2827 233.558 67.0213 233.558 66.488V64.7023V63.5377V62.2955V60.4321C233.558 59.9662 233.47 59.0347 232.852 57.0161C232.563 56.4083 232.539 56.197 232.507 55.9295C232.49 55.787 232.471 55.6285 232.41 55.3856C232.233 54.6869 231.968 53.1341 231.968 51.3484V50.9602C231.85 50.6497 231.509 49.6714 231.085 48.2429C230.992 47.794 230.899 47.6454 230.832 47.5378C230.771 47.4407 230.731 47.377 230.731 47.1559C230.731 46.9291 230.647 46.7575 230.551 46.5605C230.45 46.3529 230.335 46.117 230.29 45.7585C230.261 45.5315 230.223 45.3619 230.185 45.1911C230.105 44.836 230.024 44.4758 230.024 43.5846V41.6436V39.858C230.024 39.5906 229.909 39.3952 229.779 39.1725C229.606 38.878 229.406 38.536 229.406 37.917V36.83V34.9667C229.406 34.1127 229.23 33.1034 228.699 31.6283C228.515 31.1831 228.571 30.8013 228.642 30.3179C228.707 29.8737 228.784 29.3439 228.699 28.6004C228.597 27.7017 228.436 27.4531 228.198 27.0871C228.025 26.8208 227.812 26.4922 227.551 25.8054C227.141 24.7243 227.119 24.4283 227.074 23.8083C227.051 23.4933 227.022 23.0947 226.933 22.4669C226.752 21.1943 226.735 21.1168 226.659 20.7503C226.623 20.5802 226.575 20.3478 226.491 19.9049C226.319 18.9982 226.296 19.0065 226.204 19.0395C226.155 19.0573 226.085 19.0823 225.961 18.9732C225.694 18.7385 225.578 18.2376 225.347 17.2357C225.272 16.9122 225.185 16.5364 225.077 16.1006C224.995 15.7676 224.931 15.5129 224.88 15.3088C224.786 14.9332 224.734 14.729 224.69 14.5235C224.638 14.2788 224.596 14.0324 224.504 13.4923C224.49 13.4112 224.475 13.3234 224.459 13.228C224.274 12.1448 224.175 11.7794 224.042 11.2885C223.985 11.0757 223.921 10.8393 223.841 10.5106C223.708 9.96714 223.642 9.83127 223.576 9.6954C223.509 9.55954 223.443 9.42367 223.31 8.8802C223.093 7.98874 222.816 7.67177 222.48 7.28675C222.406 7.20232 222.33 7.11462 222.25 7.01688C222.011 6.72185 221.875 6.44973 221.744 6.18807C221.635 5.96769 221.528 5.75473 221.367 5.54175C221.166 5.27735 221.137 5.11302 221.084 4.82164C221.043 4.5996 220.99 4.30379 220.837 3.8337C220.651 3.26352 220.709 2.92837 220.78 2.51444C220.845 2.13927 220.921 1.69938 220.837 0.961117C220.701 -0.235716 220.407 -0.0488178 220.118 0.135305C220.032 0.190063 219.946 0.244575 219.865 0.262371C219.643 0.311126 219.526 0.482349 219.403 0.66068C219.331 0.766326 219.257 0.874467 219.158 0.961117C218.893 1.19403 218.805 2.12569 218.805 3.13499C218.805 3.53717 218.833 3.76677 218.856 3.95149C218.89 4.23035 218.911 4.40696 218.805 4.92068C218.685 5.50229 218.646 5.57978 218.578 5.71718C218.546 5.78153 218.508 5.85903 218.452 6.00762C218.275 6.47345 218.187 6.70636 217.833 7.56038C217.607 8.1077 217.67 8.39992 217.746 8.74358C217.788 8.93616 217.833 9.14489 217.833 9.42371C217.833 9.71537 217.858 9.89747 217.88 10.0564C217.916 10.3206 217.943 10.5209 217.833 11.0541C217.786 11.2829 217.738 11.4783 217.695 11.6597C217.574 12.1552 217.48 12.546 217.48 13.228V15.5571V17.0323V18.9732C217.48 19.3329 217.339 20.3302 217.203 21.2981C217.075 22.2107 216.95 23.0972 216.95 23.3986V25.1843C216.95 25.6741 216.806 25.9748 216.454 26.7115C216.416 26.7922 216.375 26.878 216.331 26.97C216.074 27.5121 216.116 27.5811 216.196 27.7122C216.254 27.8064 216.331 27.9328 216.331 28.2898V30.619V32.4823C216.331 33.0122 216.274 33.1151 216.192 33.2625C216.13 33.3742 216.054 33.5115 215.978 33.8798C215.958 33.974 215.941 34.0596 215.925 34.1388L215.925 34.139C215.796 34.7776 215.752 34.9919 215.359 35.8208C215.07 36.4308 215.16 36.8078 215.256 37.2133C215.307 37.4272 215.359 37.649 215.359 37.917C215.359 38.192 215.371 38.3696 215.381 38.5361C215.4 38.8395 215.417 39.1059 215.359 39.858C215.313 40.4735 215.266 40.8504 215.206 41.3326C215.153 41.7628 215.089 42.2768 215.006 43.1188C214.96 43.5825 214.926 43.9572 214.898 44.2688C214.818 45.1569 214.784 45.5316 214.653 45.9914C214.522 46.4519 214.342 46.6137 213.862 47.0462C213.695 47.1971 213.491 47.3809 213.239 47.6218C212.673 48.1646 212.767 48.2067 212.873 48.2547C212.95 48.2892 213.033 48.3266 212.886 48.5535C212.606 48.9832 212.769 50.7722 212.849 51.6557C212.87 51.8895 212.886 52.0599 212.886 52.1248C212.886 52.4354 212.886 52.8236 213.239 54.5316C213.239 54.9198 213.151 55.3468 213.063 55.7739C212.974 56.2009 212.886 56.6279 212.886 57.0161V58.5688C212.886 58.9915 212.901 59.2235 212.913 59.3961C212.929 59.6356 212.937 59.7606 212.886 60.1216C212.847 60.3958 212.791 60.5792 212.717 60.8188C212.624 61.1219 212.504 61.5149 212.356 62.2955C212.298 62.6018 212.244 62.8634 212.195 63.0999C212.022 63.942 211.914 64.4652 211.914 65.5563V68.7395V71.3792V74.8729V75.7269C212.474 75.8563 213.681 76.1617 214.034 76.348C214.476 76.5809 216.155 76.5809 216.95 76.5809H219.423C219.963 76.5809 220.361 76.6149 220.701 76.644C221.252 76.6909 221.65 76.7249 222.25 76.5809C222.825 76.4431 223.06 76.5499 223.302 76.6601C223.47 76.7362 223.64 76.8139 223.929 76.8139C224.494 76.8139 224.4 77.2279 224.282 77.435V78.1337C224.282 78.3666 224.282 78.7548 223.929 79.7641C223.929 80.0747 224.164 80.1006 224.282 80.0747C224.518 80.1006 225.077 80.1368 225.43 80.0747C225.872 79.997 226.579 79.6865 226.579 79.3759C226.579 79.2422 226.481 79.1517 226.369 79.0486C226.221 78.9122 226.049 78.7538 226.049 78.4443V76.8139C226.049 76.3654 226.195 76.1739 226.334 75.9919C226.46 75.8273 226.579 75.6706 226.579 75.3387C226.579 74.9936 226.579 74.8379 226.601 74.6844C226.618 74.5583 226.65 74.4337 226.708 74.2068C226.722 74.1509 226.738 74.0888 226.756 74.0189C226.897 73.4599 226.697 73.6307 226.579 73.786L226.049 72.9319C225.843 73.0613 225.201 73.4133 224.282 73.786C223.559 74.0794 223.466 74.034 223.276 73.9408C223.164 73.886 223.019 73.8147 222.692 73.786C221.808 73.7083 221.367 73.6307 221.72 72.3885C222.492 71.7099 222.657 71.5058 223.276 70.7394L223.277 70.7384C223.366 70.6282 223.464 70.5064 223.575 70.3699C224.121 69.6981 224.128 69.6491 224.136 69.5814C224.141 69.5395 224.147 69.4905 224.282 69.2829C224.565 68.8482 225.165 68.4289 225.43 68.2736H222.692C221.894 68.2736 221.905 68.2413 222.013 67.9265C222.073 67.7533 222.162 67.4947 222.162 67.1091C222.162 66.4486 222.162 66.1895 222.281 65.9833C222.358 65.8501 222.484 65.7391 222.692 65.5563C223.116 65.1836 223.458 64.8317 223.575 64.7023C223.281 64.7023 222.497 64.5936 221.72 64.1588C221.021 63.7681 221.236 63.6182 221.477 63.4494C221.572 63.3833 221.67 63.3144 221.72 63.2271C221.782 63.1187 221.919 63.086 222.071 63.0496C222.355 62.982 222.692 62.9017 222.692 62.2955C222.661 62.2507 222.632 62.209 222.604 62.1689C222.387 61.8621 222.24 61.6534 222.162 60.898C222.074 60.044 223.045 59.3452 223.575 59.0347C224.016 58.7765 223.968 59.4841 223.94 59.9086C223.934 59.9947 223.929 60.0692 223.929 60.1216C223.929 60.3489 224.023 60.4931 224.144 60.6758C224.187 60.7427 224.235 60.8148 224.282 60.898C224.339 60.9975 224.395 61.073 224.472 61.1757C224.635 61.3937 224.89 61.7338 225.43 62.6837C225.653 63.0262 225.595 63.122 225.522 63.2432C225.479 63.3143 225.43 63.3941 225.43 63.5377V64.7023C225.43 64.9123 225.41 65.1311 225.39 65.3469C225.351 65.7692 225.314 66.1796 225.43 66.488C225.572 66.8606 227.551 67.4714 228.523 67.7302C228.375 67.4196 228.08 66.6432 228.08 66.0221C228.08 65.3109 227.784 65.0557 227.462 64.7792C227.433 64.7538 227.403 64.7283 227.374 64.7023C227.13 64.4881 227.222 63.8678 227.303 63.3251C227.34 63.0809 227.374 62.8524 227.374 62.6837C227.374 62.2539 227.65 61.7269 227.897 61.2565L227.897 61.2563C227.962 61.132 228.025 61.0116 228.08 60.898C228.29 60.4674 228.778 60.183 229.147 59.9676C229.244 59.9111 229.332 59.8594 229.406 59.811C229.688 59.6247 230.407 58.2324 230.731 57.5595C231.025 59.4229 231.296 63.4601 230.024 64.7023ZM227.374 40.479C227.344 40.5567 227.215 40.7275 226.933 40.7896C226.579 40.8672 225.43 41.1001 225.43 40.7896C225.43 40.6158 225.292 40.4176 225.108 40.1543C224.964 39.9472 224.791 39.6997 224.636 39.3921C224.41 38.9452 224.473 38.7206 224.548 38.4543C224.59 38.3042 224.636 38.1409 224.636 37.917C224.636 37.7005 224.646 37.5595 224.657 37.4249C224.676 37.1733 224.693 36.9441 224.636 36.2866C224.588 35.7365 224.487 35.3479 224.405 35.0327C224.337 34.7695 224.282 34.5575 224.282 34.3456V33.181C224.282 32.4823 223.752 31.8611 223.222 32.1717C223.11 32.2374 223.006 32.2892 222.91 32.3366C222.554 32.5135 222.32 32.6299 222.25 33.181C222.211 33.4916 222.102 33.5568 221.993 33.622C221.856 33.7034 221.72 33.7849 221.72 34.3456C221.72 34.7763 221.64 35.0232 221.582 35.2009C221.504 35.4398 221.467 35.5537 221.72 35.8208C222.074 36.1934 222.515 35.976 222.692 35.8208H223.222V36.2866C223.222 36.4677 223.183 36.6489 223.144 36.83C223.065 37.1924 222.987 37.5547 223.222 37.917C223.399 38.1887 223.399 38.2858 223.399 38.4119C223.399 38.5381 223.399 38.6934 223.576 39.0815C223.693 39.3403 223.772 39.5473 223.837 39.7198C223.968 40.0649 224.046 40.272 224.282 40.479C224.424 40.6033 224.381 40.7027 224.33 40.822C224.254 41.0008 224.159 41.2244 224.636 41.6436C224.636 42.2556 224.696 42.6271 224.742 42.9077C224.807 43.3034 224.843 43.5185 224.636 43.9728C224.521 44.2248 224.443 44.3541 224.379 44.4616C224.245 44.6853 224.167 44.8145 223.929 45.7585C223.739 46.5084 223.55 46.8112 223.415 47.0268C223.298 47.2129 223.222 47.334 223.222 47.6218C223.222 47.8283 223.222 47.9233 223.274 47.9837C223.318 48.0351 223.4 48.0615 223.552 48.1104C223.757 48.1768 224.092 48.2848 224.636 48.5535C225.058 48.7624 225.386 48.9575 225.652 49.1158C226.276 49.487 226.561 49.6564 226.933 49.3298C227.089 49.1921 227.254 49.1494 227.407 49.1094C227.774 49.0141 228.08 48.9344 228.08 47.6218V44.5939C228.08 44.1632 228.209 44.0011 228.302 43.8845C228.426 43.7277 228.486 43.6529 228.08 43.1188C227.848 42.8126 227.616 42.5902 227.434 42.4159C227.062 42.0599 226.899 41.9042 227.374 41.6436C227.939 41.3331 227.609 40.7378 227.374 40.479ZM220.233 9.40591C220.128 8.93446 220.116 8.8802 220.042 8.8802C220.336 8.8802 221.014 8.9889 221.367 9.42371C221.436 9.50856 221.492 9.57449 221.539 9.63036C221.796 9.93231 221.803 9.9403 222.25 11.0541C222.539 11.7736 222.645 11.9625 222.709 12.1615C222.763 12.3275 222.788 12.5006 222.869 12.995C222.924 13.3356 222.98 13.6 223.03 13.8383C223.139 14.3605 223.222 14.7575 223.222 15.5571C223.222 16.1529 223.315 16.2813 223.452 16.4725C223.584 16.6551 223.756 16.8949 223.929 17.6533C224.046 18.1668 224.143 18.536 224.228 18.8563C224.399 19.5045 224.517 19.9525 224.636 20.9918C224.747 21.974 224.895 22.1175 224.988 22.2082C225.042 22.2609 225.077 22.2958 225.077 22.4669C225.077 22.9328 224.282 22.4669 224.282 22.0011C224.282 21.7637 224.19 21.6473 224.089 21.5183C223.991 21.3942 223.884 21.2583 223.841 20.9918C223.805 20.7715 223.711 20.5513 223.606 20.3051C223.452 19.944 223.275 19.5273 223.222 18.9732C223.171 18.4345 222.854 18.2333 222.596 18.0693C222.408 17.9496 222.25 17.8498 222.25 17.6533C222.25 17.1875 222.25 17.0323 221.72 15.5571C221.386 14.6293 221.333 14.6229 221.229 14.6107C221.168 14.6034 221.089 14.5941 220.925 14.3925C220.572 13.9578 220.366 13.8491 220.307 13.8491V11.9081C220.307 11.3687 220.336 11.0368 220.359 10.7799C220.392 10.4081 220.411 10.1933 220.307 9.73422C220.278 9.60691 220.254 9.49838 220.233 9.40591Z" fill="#D9D9D9"/>
<path fill-rule="evenodd" clip-rule="evenodd" d="M230.024 64.7023C228.752 65.9445 229.494 72.5696 230.024 75.7269H230.731C230.97 75.7269 231.054 75.6127 231.222 75.3842C231.363 75.1915 231.564 74.9175 231.968 74.5623C231.968 74.3138 232.263 74.0965 232.41 74.0189C232.557 73.9412 232.993 73.4133 233.558 71.9226C233.558 71.7903 233.566 71.6705 233.574 71.533C233.594 71.1864 233.622 70.7272 233.558 69.6711C233.508 68.8365 233.543 68.7475 233.567 68.6869C233.585 68.6404 233.597 68.6108 233.558 68.2736C233.508 67.8306 233.515 67.7162 233.531 67.4688C233.542 67.2827 233.558 67.0213 233.558 66.488V64.7023V63.5377V62.2955V60.4321C233.558 59.9662 233.47 59.0347 232.852 57.0161C232.563 56.4083 232.539 56.197 232.507 55.9295C232.49 55.787 232.471 55.6285 232.41 55.3856C232.233 54.6869 231.968 53.1341 231.968 51.3484V50.9602C231.85 50.6497 231.509 49.6714 231.085 48.2429C230.992 47.794 230.899 47.6454 230.832 47.5378C230.771 47.4407 230.731 47.377 230.731 47.1559C230.731 46.9291 230.647 46.7575 230.551 46.5605C230.45 46.3529 230.335 46.117 230.29 45.7585C230.261 45.5315 230.223 45.3619 230.185 45.1911C230.105 44.836 230.024 44.4758 230.024 43.5846V41.6436V39.858C230.024 39.5906 229.909 39.3952 229.779 39.1725C229.606 38.878 229.406 38.536 229.406 37.917V36.83V34.9667C229.406 34.1127 229.23 33.1034 228.699 31.6283C228.515 31.1831 228.571 30.8013 228.642 30.3179C228.707 29.8737 228.784 29.3439 228.699 28.6004C228.597 27.7017 228.436 27.4531 228.198 27.0871C228.025 26.8208 227.812 26.4922 227.551 25.8054C227.141 24.7243 227.119 24.4283 227.074 23.8083C227.051 23.4933 227.022 23.0947 226.933 22.4669C226.752 21.1943 226.735 21.1168 226.659 20.7503C226.623 20.5802 226.575 20.3478 226.491 19.9049C226.319 18.9982 226.296 19.0065 226.204 19.0395C226.155 19.0573 226.085 19.0823 225.961 18.9732C225.694 18.7385 225.578 18.2376 225.347 17.2357C225.272 16.9122 225.185 16.5364 225.077 16.1006C224.995 15.7676 224.931 15.5129 224.88 15.3088C224.786 14.9332 224.734 14.729 224.69 14.5235C224.638 14.2788 224.596 14.0324 224.504 13.4923C224.49 13.4112 224.475 13.3234 224.459 13.228C224.274 12.1448 224.175 11.7794 224.042 11.2885C223.985 11.0757 223.921 10.8393 223.841 10.5106C223.708 9.96714 223.642 9.83127 223.576 9.6954C223.509 9.55954 223.443 9.42367 223.31 8.8802C223.093 7.98874 222.816 7.67177 222.48 7.28675C222.406 7.20232 222.33 7.11462 222.25 7.01688C222.011 6.72185 221.875 6.44973 221.744 6.18807C221.635 5.96769 221.528 5.75473 221.367 5.54175C221.166 5.27735 221.137 5.11302 221.084 4.82164C221.043 4.5996 220.99 4.30379 220.837 3.8337C220.651 3.26352 220.709 2.92837 220.78 2.51444C220.845 2.13927 220.921 1.69938 220.837 0.961117C220.701 -0.235716 220.407 -0.0488178 220.118 0.135305C220.032 0.190063 219.946 0.244575 219.865 0.262371C219.643 0.311126 219.526 0.482349 219.403 0.66068C219.331 0.766326 219.257 0.874467 219.158 0.961117C218.893 1.19403 218.805 2.12569 218.805 3.13499C218.805 3.53717 218.833 3.76677 218.856 3.95149C218.89 4.23035 218.911 4.40696 218.805 4.92068C218.685 5.50229 218.646 5.57978 218.578 5.71718C218.546 5.78153 218.508 5.85903 218.452 6.00762C218.275 6.47345 218.187 6.70636 217.833 7.56038C217.607 8.1077 217.67 8.39992 217.746 8.74358C217.788 8.93616 217.833 9.14489 217.833 9.42371C217.833 9.71537 217.858 9.89747 217.88 10.0564C217.916 10.3206 217.943 10.5209 217.833 11.0541C217.786 11.2829 217.738 11.4783 217.695 11.6597C217.574 12.1552 217.48 12.546 217.48 13.228V15.5571V17.0323V18.9732C217.48 19.3329 217.339 20.3302 217.203 21.2981C217.075 22.2107 216.95 23.0972 216.95 23.3986V25.1843C216.95 25.6741 216.806 25.9748 216.454 26.7115C216.416 26.7922 216.375 26.878 216.331 26.97C216.074 27.5121 216.116 27.5811 216.196 27.7122C216.254 27.8064 216.331 27.9328 216.331 28.2898V30.619V32.4823C216.331 33.0122 216.274 33.1151 216.192 33.2625C216.13 33.3742 216.054 33.5115 215.978 33.8798C215.958 33.974 215.941 34.0596 215.925 34.1388L215.925 34.139C215.796 34.7776 215.752 34.9919 215.359 35.8208C215.07 36.4308 215.16 36.8078 215.256 37.2133C215.307 37.4272 215.359 37.649 215.359 37.917C215.359 38.192 215.371 38.3696 215.381 38.5361C215.4 38.8395 215.417 39.1059 215.359 39.858C215.313 40.4735 215.266 40.8504 215.206 41.3326C215.153 41.7628 215.089 42.2768 215.006 43.1188C214.96 43.5825 214.926 43.9572 214.898 44.2688C214.818 45.1569 214.784 45.5316 214.653 45.9914C214.522 46.4519 214.342 46.6137 213.862 47.0462C213.695 47.1971 213.491 47.3809 213.239 47.6218C212.673 48.1646 212.767 48.2067 212.873 48.2547C212.95 48.2892 213.033 48.3266 212.886 48.5535C212.606 48.9832 212.769 50.7722 212.849 51.6557C212.87 51.8895 212.886 52.0599 212.886 52.1248C212.886 52.4354 212.886 52.8236 213.239 54.5316C213.239 54.9198 213.151 55.3468 213.063 55.7739C212.974 56.2009 212.886 56.6279 212.886 57.0161V58.5688C212.886 58.9915 212.901 59.2235 212.913 59.3961C212.929 59.6356 212.937 59.7606 212.886 60.1216C212.847 60.3958 212.791 60.5792 212.717 60.8188C212.624 61.1219 212.504 61.5149 212.356 62.2955C212.298 62.6018 212.244 62.8634 212.195 63.0999C212.022 63.942 211.914 64.4652 211.914 65.5563V68.7395V71.3792V74.8729V75.7269C212.474 75.8563 213.681 76.1617 214.034 76.348C214.476 76.5809 216.155 76.5809 216.95 76.5809H219.423C219.963 76.5809 220.361 76.6149 220.701 76.644C221.252 76.6909 221.65 76.7249 222.25 76.5809C222.825 76.4431 223.06 76.5499 223.302 76.6601C223.47 76.7362 223.64 76.8139 223.929 76.8139C224.494 76.8139 224.4 77.2279 224.282 77.435V78.1337C224.282 78.3666 224.282 78.7548 223.929 79.7641C223.929 80.0747 224.164 80.1006 224.282 80.0747C224.518 80.1006 225.077 80.1368 225.43 80.0747C225.872 79.997 226.579 79.6865 226.579 79.3759C226.579 79.2422 226.481 79.1517 226.369 79.0486C226.221 78.9122 226.049 78.7538 226.049 78.4443V76.8139C226.049 76.3654 226.195 76.1739 226.334 75.9919C226.46 75.8273 226.579 75.6706 226.579 75.3387C226.579 74.9936 226.579 74.8379 226.601 74.6844C226.618 74.5583 226.65 74.4337 226.708 74.2068C226.722 74.1509 226.738 74.0888 226.756 74.0189C226.897 73.4599 226.697 73.6307 226.579 73.786L226.049 72.9319C225.843 73.0613 225.201 73.4133 224.282 73.786C223.559 74.0794 223.466 74.034 223.276 73.9408C223.164 73.886 223.019 73.8147 222.692 73.786C221.808 73.7083 221.367 73.6307 221.72 72.3885C222.492 71.7099 222.657 71.5058 223.276 70.7394L223.277 70.7384C223.366 70.6282 223.464 70.5064 223.575 70.3699C224.121 69.6981 224.128 69.6491 224.136 69.5814C224.141 69.5395 224.147 69.4905 224.282 69.2829C224.565 68.8482 225.165 68.4289 225.43 68.2736H222.692C221.894 68.2736 221.905 68.2413 222.013 67.9265C222.073 67.7533 222.162 67.4947 222.162 67.1091C222.162 66.4486 222.162 66.1895 222.281 65.9833C222.358 65.8501 222.484 65.7391 222.692 65.5563C223.116 65.1836 223.458 64.8317 223.575 64.7023C223.281 64.7023 222.497 64.5936 221.72 64.1588C221.021 63.7681 221.236 63.6182 221.477 63.4494C221.572 63.3833 221.67 63.3144 221.72 63.2271C221.782 63.1187 221.919 63.086 222.071 63.0496C222.355 62.982 222.692 62.9017 222.692 62.2955C222.661 62.2507 222.632 62.209 222.604 62.1689C222.387 61.8621 222.24 61.6534 222.162 60.898C222.074 60.044 223.045 59.3452 223.575 59.0347C224.016 58.7765 223.968 59.4841 223.94 59.9086C223.934 59.9947 223.929 60.0692 223.929 60.1216C223.929 60.3489 224.023 60.4931 224.144 60.6758C224.187 60.7427 224.235 60.8148 224.282 60.898C224.339 60.9975 224.395 61.073 224.472 61.1757C224.635 61.3937 224.89 61.7338 225.43 62.6837C225.653 63.0262 225.595 63.122 225.522 63.2432C225.479 63.3143 225.43 63.3941 225.43 63.5377V64.7023C225.43 64.9123 225.41 65.1311 225.39 65.3469C225.351 65.7692 225.314 66.1796 225.43 66.488C225.572 66.8606 227.551 67.4714 228.523 67.7302C228.375 67.4196 228.08 66.6432 228.08 66.0221C228.08 65.3109 227.784 65.0557 227.462 64.7792C227.433 64.7538 227.403 64.7283 227.374 64.7023C227.13 64.4881 227.222 63.8678 227.303 63.3251C227.34 63.0809 227.374 62.8524 227.374 62.6837C227.374 62.2539 227.65 61.7269 227.897 61.2565L227.897 61.2563C227.962 61.132 228.025 61.0116 228.08 60.898C228.29 60.4674 228.778 60.183 229.147 59.9676C229.244 59.9111 229.332 59.8594 229.406 59.811C229.688 59.6247 230.407 58.2324 230.731 57.5595C231.025 59.4229 231.296 63.4601 230.024 64.7023ZM227.374 40.479C227.344 40.5567 227.215 40.7275 226.933 40.7896C226.579 40.8672 225.43 41.1001 225.43 40.7896C225.43 40.6158 225.292 40.4176 225.108 40.1543C224.964 39.9472 224.791 39.6997 224.636 39.3921C224.41 38.9452 224.473 38.7206 224.548 38.4543C224.59 38.3042 224.636 38.1409 224.636 37.917C224.636 37.7005 224.646 37.5595 224.657 37.4249C224.676 37.1733 224.693 36.9441 224.636 36.2866C224.588 35.7365 224.487 35.3479 224.405 35.0327C224.337 34.7695 224.282 34.5575 224.282 34.3456V33.181C224.282 32.4823 223.752 31.8611 223.222 32.1717C223.11 32.2374 223.006 32.2892 222.91 32.3366C222.554 32.5135 222.32 32.6299 222.25 33.181C222.211 33.4916 222.102 33.5568 221.993 33.622C221.856 33.7034 221.72 33.7849 221.72 34.3456C221.72 34.7763 221.64 35.0232 221.582 35.2009C221.504 35.4398 221.467 35.5537 221.72 35.8208C222.074 36.1934 222.515 35.976 222.692 35.8208H223.222V36.2866C223.222 36.4677 223.183 36.6489 223.144 36.83C223.065 37.1924 222.987 37.5547 223.222 37.917C223.399 38.1887 223.399 38.2858 223.399 38.4119C223.399 38.5381 223.399 38.6934 223.576 39.0815C223.693 39.3403 223.772 39.5473 223.837 39.7198C223.968 40.0649 224.046 40.272 224.282 40.479C224.424 40.6033 224.381 40.7027 224.33 40.822C224.254 41.0008 224.159 41.2244 224.636 41.6436C224.636 42.2556 224.696 42.6271 224.742 42.9077C224.807 43.3034 224.843 43.5185 224.636 43.9728C224.521 44.2248 224.443 44.3541 224.379 44.4616C224.245 44.6853 224.167 44.8145 223.929 45.7585C223.739 46.5084 223.55 46.8112 223.415 47.0268C223.298 47.2129 223.222 47.334 223.222 47.6218C223.222 47.8283 223.222 47.9233 223.274 47.9837C223.318 48.0351 223.4 48.0615 223.552 48.1104C223.757 48.1768 224.092 48.2848 224.636 48.5535C225.058 48.7624 225.386 48.9575 225.652 49.1158C226.276 49.487 226.561 49.6564 226.933 49.3298C227.089 49.1921 227.254 49.1494 227.407 49.1094C227.774 49.0141 228.08 48.9344 228.08 47.6218V44.5939C228.08 44.1632 228.209 44.0011 228.302 43.8845C228.426 43.7277 228.486 43.6529 228.08 43.1188C227.848 42.8126 227.616 42.5902 227.434 42.4159C227.062 42.0599 226.899 41.9042 227.374 41.6436C227.939 41.3331 227.609 40.7378 227.374 40.479ZM220.233 9.40591C220.128 8.93446 220.116 8.8802 220.042 8.8802C220.336 8.8802 221.014 8.9889 221.367 9.42371C221.436 9.50856 221.492 9.57449 221.539 9.63036C221.796 9.93231 221.803 9.9403 222.25 11.0541C222.539 11.7736 222.645 11.9625 222.709 12.1615C222.763 12.3275 222.788 12.5006 222.869 12.995C222.924 13.3356 222.98 13.6 223.03 13.8383C223.139 14.3605 223.222 14.7575 223.222 15.5571C223.222 16.1529 223.315 16.2813 223.452 16.4725C223.584 16.6551 223.756 16.8949 223.929 17.6533C224.046 18.1668 224.143 18.536 224.228 18.8563C224.399 19.5045 224.517 19.9525 224.636 20.9918C224.747 21.974 224.895 22.1175 224.988 22.2082C225.042 22.2609 225.077 22.2958 225.077 22.4669C225.077 22.9328 224.282 22.4669 224.282 22.0011C224.282 21.7637 224.19 21.6473 224.089 21.5183C223.991 21.3942 223.884 21.2583 223.841 20.9918C223.805 20.7715 223.711 20.5513 223.606 20.3051C223.452 19.944 223.275 19.5273 223.222 18.9732C223.171 18.4345 222.854 18.2333 222.596 18.0693C222.408 17.9496 222.25 17.8498 222.25 17.6533C222.25 17.1875 222.25 17.0323 221.72 15.5571C221.386 14.6293 221.333 14.6229 221.229 14.6107C221.168 14.6034 221.089 14.5941 220.925 14.3925C220.572 13.9578 220.366 13.8491 220.307 13.8491V11.9081C220.307 11.3687 220.336 11.0368 220.359 10.7799C220.392 10.4081 220.411 10.1933 220.307 9.73422C220.278 9.60691 220.254 9.49838 220.233 9.40591Z" fill="#F8EDB7"/>
<path fill-rule="evenodd" clip-rule="evenodd" d="M206.314 67.2264C205.395 68.2164 205.931 73.4966 206.314 76.013H206.824C206.997 76.013 207.058 75.9219 207.179 75.7398C207.281 75.5862 207.426 75.3679 207.718 75.0848C207.718 74.8867 207.931 74.7135 208.037 74.6517C208.143 74.5898 208.458 74.169 208.866 72.981C208.866 72.8755 208.872 72.78 208.877 72.6704C208.892 72.3942 208.912 72.0282 208.866 71.1865C208.83 70.5214 208.855 70.4504 208.873 70.4021C208.886 70.3651 208.894 70.3414 208.866 70.0728C208.83 69.7197 208.835 69.6285 208.846 69.4313C208.855 69.283 208.866 69.0746 208.866 68.6496V67.2264V66.2982V65.3082V63.8231C208.866 63.4518 208.803 62.7094 208.356 61.1006C208.148 60.6161 208.13 60.4477 208.107 60.2345C208.095 60.121 208.081 59.9947 208.037 59.8011C207.909 59.2442 207.718 58.0067 207.718 56.5835V56.2741C207.633 56.0266 207.386 55.2469 207.08 54.1084C207.013 53.7507 206.946 53.6322 206.897 53.5465C206.853 53.4691 206.824 53.4183 206.824 53.2421C206.824 53.0613 206.764 52.9246 206.695 52.7676C206.621 52.6021 206.538 52.4141 206.506 52.1283C206.485 51.9474 206.457 51.8123 206.43 51.6761C206.372 51.3931 206.314 51.106 206.314 50.3958V48.8488V47.4257C206.314 47.2126 206.231 47.0568 206.137 46.8794C206.012 46.6447 205.867 46.3721 205.867 45.8788V45.0124V43.5274C205.867 42.8467 205.74 42.0423 205.357 40.8667C205.224 40.5119 205.264 40.2076 205.315 39.8223C205.362 39.4683 205.418 39.046 205.357 38.4535C205.283 37.7372 205.167 37.5391 204.995 37.2474C204.87 37.0351 204.716 36.7732 204.528 36.2259C204.232 35.3642 204.216 35.1284 204.183 34.6343C204.167 34.3832 204.146 34.0655 204.081 33.5651C203.95 32.5508 203.939 32.4891 203.883 32.197C203.858 32.0614 203.823 31.8763 203.762 31.5232C203.638 30.8006 203.621 30.8073 203.555 30.8335C203.519 30.8477 203.469 30.8676 203.379 30.7807C203.186 30.5936 203.103 30.1944 202.936 29.3959C202.882 29.1381 202.819 28.8386 202.741 28.4912C202.682 28.2258 202.636 28.0229 202.599 27.8602C202.53 27.5608 202.493 27.3981 202.462 27.2343C202.424 27.0393 202.394 26.8429 202.327 26.4125C202.317 26.3478 202.306 26.2778 202.295 26.2018C202.161 25.3385 202.09 25.0473 201.994 24.6561C201.952 24.4864 201.906 24.298 201.848 24.0361C201.752 23.6029 201.704 23.4946 201.657 23.3863C201.609 23.2781 201.561 23.1698 201.465 22.7366C201.308 22.0261 201.108 21.7735 200.865 21.4667C200.812 21.3994 200.757 21.3295 200.699 21.2516C200.526 21.0164 200.428 20.7996 200.334 20.591C200.255 20.4154 200.178 20.2457 200.061 20.0759C199.917 19.8652 199.895 19.7342 199.857 19.502C199.828 19.325 199.789 19.0893 199.679 18.7146C199.545 18.2602 199.586 17.9931 199.638 17.6632C199.685 17.3642 199.739 17.0136 199.679 16.4252C199.58 15.4713 199.368 15.6203 199.159 15.767C199.097 15.8107 199.035 15.8541 198.977 15.8683C198.816 15.9071 198.732 16.0436 198.643 16.1857C198.591 16.2699 198.538 16.3561 198.466 16.4252C198.275 16.6108 198.211 17.3533 198.211 18.1577C198.211 18.4783 198.231 18.6613 198.248 18.8085C198.272 19.0307 198.288 19.1715 198.211 19.5809C198.124 20.0445 198.096 20.1062 198.047 20.2157C198.024 20.267 197.997 20.3288 197.956 20.4472C197.828 20.8185 197.764 21.0041 197.509 21.6847C197.346 22.121 197.392 22.3539 197.446 22.6277C197.476 22.7812 197.509 22.9476 197.509 23.1698C197.509 23.4023 197.527 23.5474 197.543 23.6741C197.569 23.8846 197.589 24.0443 197.509 24.4692C197.475 24.6516 197.441 24.8073 197.409 24.9519C197.322 25.3468 197.254 25.6582 197.254 26.2018V28.0581V29.2338V30.7807C197.254 31.0673 197.153 31.8622 197.054 32.6336C196.961 33.361 196.871 34.0675 196.871 34.3077V35.7309C196.871 36.1213 196.768 36.3609 196.514 36.948C196.486 37.0123 196.456 37.0808 196.425 37.1541C196.239 37.5861 196.269 37.6411 196.327 37.7456C196.369 37.8207 196.425 37.9214 196.425 38.206V40.0623V41.5473C196.425 41.9696 196.383 42.0517 196.324 42.1691C196.279 42.2582 196.224 42.3676 196.169 42.6611C196.155 42.7362 196.143 42.8045 196.131 42.8675L196.131 42.8677C196.038 43.3766 196.007 43.5475 195.723 44.2081C195.514 44.6942 195.579 44.9947 195.648 45.3179C195.685 45.4884 195.723 45.6651 195.723 45.8788C195.723 46.0979 195.731 46.2395 195.738 46.3722C195.752 46.614 195.764 46.8263 195.723 47.4257C195.689 47.9162 195.655 48.2166 195.612 48.601C195.574 48.9438 195.528 49.3535 195.468 50.0245C195.434 50.3941 195.41 50.6927 195.389 50.941C195.331 51.6489 195.307 51.9475 195.212 52.314C195.118 52.681 194.988 52.8099 194.641 53.1546C194.52 53.2749 194.373 53.4214 194.191 53.6134C193.783 54.046 193.85 54.0796 193.927 54.1178C193.983 54.1453 194.043 54.1752 193.936 54.3559C193.734 54.6984 193.852 56.1242 193.91 56.8284C193.925 57.0147 193.936 57.1505 193.936 57.2023C193.936 57.4498 193.936 57.7592 194.191 59.1205C194.191 59.4299 194.128 59.7702 194.064 60.1105C194 60.4508 193.936 60.7912 193.936 61.1006V62.3381C193.936 62.675 193.947 62.8599 193.956 62.9974C193.967 63.1883 193.973 63.2879 193.936 63.5756C193.908 63.7942 193.867 63.9404 193.814 64.1313C193.747 64.3729 193.66 64.6861 193.553 65.3082C193.511 65.5524 193.473 65.7609 193.437 65.9493C193.312 66.6205 193.234 67.0374 193.234 67.907V70.444V72.5478V75.3323V76.013C193.638 76.1161 194.51 76.3595 194.766 76.508C195.085 76.6936 196.297 76.6936 196.871 76.6936H198.658C199.048 76.6936 199.335 76.7207 199.581 76.7438C199.978 76.7813 200.266 76.8083 200.699 76.6936C201.115 76.5838 201.284 76.6689 201.459 76.7567C201.58 76.8173 201.703 76.8792 201.912 76.8792C202.32 76.8792 202.252 77.2093 202.167 77.3743V77.9312C202.167 78.1168 202.167 78.4262 201.912 79.2306C201.912 79.4781 202.082 79.4987 202.167 79.4781C202.337 79.4987 202.741 79.5276 202.996 79.4781C203.315 79.4162 203.826 79.1687 203.826 78.9212C203.826 78.8146 203.755 78.7425 203.674 78.6603C203.567 78.5516 203.443 78.4253 203.443 78.1787V76.8792C203.443 76.5219 203.549 76.3692 203.649 76.2242C203.74 76.093 203.826 75.9681 203.826 75.7036C203.826 75.4285 203.826 75.3044 203.841 75.1821C203.854 75.0816 203.877 74.9823 203.919 74.8014C203.929 74.7569 203.941 74.7074 203.953 74.6517C204.056 74.2062 203.911 74.3423 203.826 74.466L203.443 73.7854C203.294 73.8885 202.83 74.169 202.167 74.466C201.645 74.6999 201.578 74.6637 201.44 74.5894C201.36 74.5458 201.255 74.4889 201.018 74.466C200.38 74.4042 200.061 74.3423 200.316 73.3522C200.874 72.8114 200.993 72.6487 201.44 72.0379L201.441 72.0371C201.505 71.9493 201.576 71.8522 201.656 71.7434C202.051 71.208 202.055 71.169 202.061 71.115C202.065 71.0817 202.069 71.0426 202.167 70.8772C202.371 70.5306 202.805 70.1965 202.996 70.0728H201.018C200.442 70.0728 200.45 70.047 200.528 69.7961C200.571 69.6581 200.636 69.452 200.636 69.1446C200.636 68.6182 200.636 68.4117 200.721 68.2473C200.777 68.1412 200.868 68.0527 201.018 67.907C201.325 67.61 201.571 67.3295 201.656 67.2264C201.444 67.2264 200.878 67.1398 200.316 66.7933C199.812 66.4819 199.967 66.3624 200.141 66.2278C200.209 66.1752 200.281 66.1203 200.316 66.0507C200.361 65.9643 200.46 65.9382 200.57 65.9093C200.775 65.8553 201.018 65.7914 201.018 65.3082C200.996 65.2725 200.975 65.2393 200.955 65.2074C200.798 64.9628 200.692 64.7965 200.636 64.1944C200.572 63.5138 201.274 62.9569 201.656 62.7094C201.975 62.5036 201.94 63.0676 201.919 63.4059C201.915 63.4745 201.912 63.5339 201.912 63.5756C201.912 63.7568 201.98 63.8717 202.067 64.0173C202.098 64.0707 202.133 64.1281 202.167 64.1944C202.208 64.2737 202.249 64.3339 202.304 64.4158C202.422 64.5895 202.606 64.8606 202.996 65.6176C203.157 65.8906 203.115 65.9669 203.062 66.0635C203.031 66.1202 202.996 66.1838 202.996 66.2982V67.2264C202.996 67.3938 202.982 67.5682 202.967 67.7401C202.939 68.0768 202.912 68.4038 202.996 68.6496C203.098 68.9466 204.528 69.4334 205.229 69.6396C205.123 69.3921 204.91 68.7733 204.91 68.2783C204.91 67.7115 204.696 67.5081 204.464 67.2877C204.443 67.2675 204.421 67.2472 204.4 67.2264C204.224 67.0557 204.29 66.5613 204.349 66.1288C204.375 65.9342 204.4 65.752 204.4 65.6176C204.4 65.275 204.599 64.8551 204.777 64.4801L204.777 64.48C204.825 64.3809 204.87 64.285 204.91 64.1944C205.062 63.8512 205.414 63.6245 205.68 63.4529C205.75 63.4079 205.814 63.3667 205.867 63.3281C206.071 63.1796 206.59 62.07 206.824 61.5337C207.037 63.0187 207.232 66.2364 206.314 67.2264ZM204.4 47.9207C204.379 47.9825 204.285 48.1187 204.081 48.1682C203.826 48.2301 202.996 48.4157 202.996 48.1682C202.996 48.0296 202.896 47.8717 202.764 47.6618C202.659 47.4968 202.535 47.2996 202.422 47.0544C202.259 46.6982 202.304 46.5192 202.359 46.307C202.389 46.1873 202.422 46.0572 202.422 45.8788C202.422 45.7062 202.43 45.5938 202.437 45.4865C202.451 45.286 202.464 45.1034 202.422 44.5793C202.387 44.1409 202.315 43.8312 202.256 43.5799C202.207 43.3702 202.167 43.2013 202.167 43.0324V42.1042C202.167 41.5473 201.784 41.0523 201.401 41.2998C201.32 41.3521 201.245 41.3934 201.176 41.4312C200.919 41.5722 200.75 41.665 200.699 42.1042C200.671 42.3517 200.592 42.4037 200.513 42.4556C200.415 42.5206 200.316 42.5855 200.316 43.0324C200.316 43.3756 200.258 43.5724 200.217 43.7141C200.16 43.9044 200.134 43.9952 200.316 44.2081C200.572 44.5051 200.891 44.3318 201.018 44.2081H201.401V44.5793C201.401 44.7237 201.373 44.8681 201.345 45.0124C201.288 45.3012 201.231 45.59 201.401 45.8788C201.529 46.0953 201.529 46.1726 201.529 46.2732C201.529 46.3737 201.529 46.4975 201.657 46.8069C201.742 47.0131 201.798 47.1781 201.845 47.3156C201.94 47.5906 201.997 47.7556 202.167 47.9207C202.269 48.0197 202.238 48.0989 202.202 48.194C202.147 48.3365 202.078 48.5147 202.422 48.8488C202.422 49.3366 202.466 49.6326 202.499 49.8563C202.546 50.1717 202.572 50.3431 202.422 50.7051C202.339 50.906 202.283 51.009 202.237 51.0947C202.14 51.273 202.084 51.376 201.912 52.1283C201.775 52.726 201.638 52.9674 201.54 53.1392C201.456 53.2875 201.401 53.3841 201.401 53.6134C201.401 53.778 201.401 53.8537 201.439 53.9018C201.471 53.9428 201.53 53.9638 201.639 54.0028C201.788 54.0557 202.03 54.1418 202.422 54.3559C202.727 54.5225 202.964 54.6779 203.157 54.8041C203.607 55.0999 203.813 55.2349 204.081 54.9747C204.194 54.8649 204.313 54.8309 204.424 54.799C204.689 54.7231 204.91 54.6596 204.91 53.6134V51.2002C204.91 50.8569 205.003 50.7277 205.07 50.6348C205.16 50.5098 205.203 50.4502 204.91 50.0245C204.742 49.7805 204.575 49.6033 204.443 49.4643C204.174 49.1806 204.057 49.0565 204.4 48.8488C204.808 48.6013 204.57 48.1269 204.4 47.9207ZM199.242 23.1556C199.166 22.7799 199.158 22.7366 199.104 22.7366C199.317 22.7366 199.806 22.8233 200.061 23.1698C200.111 23.2374 200.152 23.29 200.186 23.3345C200.371 23.5752 200.376 23.5815 200.699 24.4692C200.908 25.0427 200.984 25.1932 201.031 25.3518C201.07 25.4841 201.088 25.6221 201.146 26.0161C201.186 26.2876 201.226 26.4983 201.262 26.6882C201.341 27.1044 201.401 27.4208 201.401 28.0581C201.401 28.5329 201.468 28.6353 201.567 28.7877C201.662 28.9332 201.787 29.1243 201.912 29.7288C201.996 30.138 202.066 30.4322 202.128 30.6875C202.251 31.2041 202.337 31.5612 202.422 32.3895C202.503 33.1723 202.609 33.2866 202.676 33.3589C202.715 33.4009 202.741 33.4287 202.741 33.5651C202.741 33.9364 202.167 33.5651 202.167 33.1939C202.167 33.0047 202.101 32.9119 202.027 32.8091C201.957 32.7102 201.879 32.6019 201.848 32.3895C201.822 32.2139 201.754 32.0384 201.679 31.8422C201.568 31.5544 201.439 31.2223 201.401 30.7807C201.364 30.3514 201.136 30.191 200.949 30.0602C200.813 29.9649 200.699 29.8853 200.699 29.7288C200.699 29.3575 200.699 29.2338 200.316 28.0581C200.076 27.3186 200.037 27.3135 199.962 27.3038C199.918 27.298 199.861 27.2906 199.742 27.1299C199.487 26.7834 199.338 26.6968 199.296 26.6968V25.1498C199.296 24.72 199.317 24.4554 199.334 24.2507C199.357 23.9544 199.371 23.7832 199.296 23.4173C199.275 23.3158 199.257 23.2293 199.242 23.1556Z" fill="#D9D9D9"/>
<path fill-rule="evenodd" clip-rule="evenodd" d="M206.314 67.2264C205.395 68.2164 205.931 73.4966 206.314 76.013H206.824C206.997 76.013 207.058 75.9219 207.179 75.7398C207.281 75.5862 207.426 75.3679 207.718 75.0848C207.718 74.8867 207.931 74.7135 208.037 74.6517C208.143 74.5898 208.458 74.169 208.866 72.981C208.866 72.8755 208.872 72.78 208.877 72.6704C208.892 72.3942 208.912 72.0282 208.866 71.1865C208.83 70.5214 208.855 70.4504 208.873 70.4021C208.886 70.3651 208.894 70.3414 208.866 70.0728C208.83 69.7197 208.835 69.6285 208.846 69.4313C208.855 69.283 208.866 69.0746 208.866 68.6496V67.2264V66.2982V65.3082V63.8231C208.866 63.4518 208.803 62.7094 208.356 61.1006C208.148 60.6161 208.13 60.4477 208.107 60.2345C208.095 60.121 208.081 59.9947 208.037 59.8011C207.909 59.2442 207.718 58.0067 207.718 56.5835V56.2741C207.633 56.0266 207.386 55.2469 207.08 54.1084C207.013 53.7507 206.946 53.6322 206.897 53.5465C206.853 53.4691 206.824 53.4183 206.824 53.2421C206.824 53.0613 206.764 52.9246 206.695 52.7676C206.621 52.6021 206.538 52.4141 206.506 52.1283C206.485 51.9474 206.457 51.8123 206.43 51.6761C206.372 51.3931 206.314 51.106 206.314 50.3958V48.8488V47.4257C206.314 47.2126 206.231 47.0568 206.137 46.8794C206.012 46.6447 205.867 46.3721 205.867 45.8788V45.0124V43.5274C205.867 42.8467 205.74 42.0423 205.357 40.8667C205.224 40.5119 205.264 40.2076 205.315 39.8223C205.362 39.4683 205.418 39.046 205.357 38.4535C205.283 37.7372 205.167 37.5391 204.995 37.2474C204.87 37.0351 204.716 36.7732 204.528 36.2259C204.232 35.3642 204.216 35.1284 204.183 34.6343C204.167 34.3832 204.146 34.0655 204.081 33.5651C203.95 32.5508 203.939 32.4891 203.883 32.197C203.858 32.0614 203.823 31.8763 203.762 31.5232C203.638 30.8006 203.621 30.8073 203.555 30.8335C203.519 30.8477 203.469 30.8676 203.379 30.7807C203.186 30.5936 203.103 30.1944 202.936 29.3959C202.882 29.1381 202.819 28.8386 202.741 28.4912C202.682 28.2258 202.636 28.0229 202.599 27.8602C202.53 27.5608 202.493 27.3981 202.462 27.2343C202.424 27.0393 202.394 26.8429 202.327 26.4125C202.317 26.3478 202.306 26.2778 202.295 26.2018C202.161 25.3385 202.09 25.0473 201.994 24.6561C201.952 24.4864 201.906 24.298 201.848 24.0361C201.752 23.6029 201.704 23.4946 201.657 23.3863C201.609 23.2781 201.561 23.1698 201.465 22.7366C201.308 22.0261 201.108 21.7735 200.865 21.4667C200.812 21.3994 200.757 21.3295 200.699 21.2516C200.526 21.0164 200.428 20.7996 200.334 20.591C200.255 20.4154 200.178 20.2457 200.061 20.0759C199.917 19.8652 199.895 19.7342 199.857 19.502C199.828 19.325 199.789 19.0893 199.679 18.7146C199.545 18.2602 199.586 17.9931 199.638 17.6632C199.685 17.3642 199.739 17.0136 199.679 16.4252C199.58 15.4713 199.368 15.6203 199.159 15.767C199.097 15.8107 199.035 15.8541 198.977 15.8683C198.816 15.9071 198.732 16.0436 198.643 16.1857C198.591 16.2699 198.538 16.3561 198.466 16.4252C198.275 16.6108 198.211 17.3533 198.211 18.1577C198.211 18.4783 198.231 18.6613 198.248 18.8085C198.272 19.0307 198.288 19.1715 198.211 19.5809C198.124 20.0445 198.096 20.1062 198.047 20.2157C198.024 20.267 197.997 20.3288 197.956 20.4472C197.828 20.8185 197.764 21.0041 197.509 21.6847C197.346 22.121 197.392 22.3539 197.446 22.6277C197.476 22.7812 197.509 22.9476 197.509 23.1698C197.509 23.4023 197.527 23.5474 197.543 23.6741C197.569 23.8846 197.589 24.0443 197.509 24.4692C197.475 24.6516 197.441 24.8073 197.409 24.9519C197.322 25.3468 197.254 25.6582 197.254 26.2018V28.0581V29.2338V30.7807C197.254 31.0673 197.153 31.8622 197.054 32.6336C196.961 33.361 196.871 34.0675 196.871 34.3077V35.7309C196.871 36.1213 196.768 36.3609 196.514 36.948C196.486 37.0123 196.456 37.0808 196.425 37.1541C196.239 37.5861 196.269 37.6411 196.327 37.7456C196.369 37.8207 196.425 37.9214 196.425 38.206V40.0623V41.5473C196.425 41.9696 196.383 42.0517 196.324 42.1691C196.279 42.2582 196.224 42.3676 196.169 42.6611C196.155 42.7362 196.143 42.8045 196.131 42.8675L196.131 42.8677C196.038 43.3766 196.007 43.5475 195.723 44.2081C195.514 44.6942 195.579 44.9947 195.648 45.3179C195.685 45.4884 195.723 45.6651 195.723 45.8788C195.723 46.0979 195.731 46.2395 195.738 46.3722C195.752 46.614 195.764 46.8263 195.723 47.4257C195.689 47.9162 195.655 48.2166 195.612 48.601C195.574 48.9438 195.528 49.3535 195.468 50.0245C195.434 50.3941 195.41 50.6927 195.389 50.941C195.331 51.6489 195.307 51.9475 195.212 52.314C195.118 52.681 194.988 52.8099 194.641 53.1546C194.52 53.2749 194.373 53.4214 194.191 53.6134C193.783 54.046 193.85 54.0796 193.927 54.1178C193.983 54.1453 194.043 54.1752 193.936 54.3559C193.734 54.6984 193.852 56.1242 193.91 56.8284C193.925 57.0147 193.936 57.1505 193.936 57.2023C193.936 57.4498 193.936 57.7592 194.191 59.1205C194.191 59.4299 194.128 59.7702 194.064 60.1105C194 60.4508 193.936 60.7912 193.936 61.1006V62.3381C193.936 62.675 193.947 62.8599 193.956 62.9974C193.967 63.1883 193.973 63.2879 193.936 63.5756C193.908 63.7942 193.867 63.9404 193.814 64.1313C193.747 64.3729 193.66 64.6861 193.553 65.3082C193.511 65.5524 193.473 65.7609 193.437 65.9493C193.312 66.6205 193.234 67.0374 193.234 67.907V70.444V72.5478V75.3323V76.013C193.638 76.1161 194.51 76.3595 194.766 76.508C195.085 76.6936 196.297 76.6936 196.871 76.6936H198.658C199.048 76.6936 199.335 76.7207 199.581 76.7438C199.978 76.7813 200.266 76.8083 200.699 76.6936C201.115 76.5838 201.284 76.6689 201.459 76.7567C201.58 76.8173 201.703 76.8792 201.912 76.8792C202.32 76.8792 202.252 77.2093 202.167 77.3743V77.9312C202.167 78.1168 202.167 78.4262 201.912 79.2306C201.912 79.4781 202.082 79.4987 202.167 79.4781C202.337 79.4987 202.741 79.5276 202.996 79.4781C203.315 79.4162 203.826 79.1687 203.826 78.9212C203.826 78.8146 203.755 78.7425 203.674 78.6603C203.567 78.5516 203.443 78.4253 203.443 78.1787V76.8792C203.443 76.5219 203.549 76.3692 203.649 76.2242C203.74 76.093 203.826 75.9681 203.826 75.7036C203.826 75.4285 203.826 75.3044 203.841 75.1821C203.854 75.0816 203.877 74.9823 203.919 74.8014C203.929 74.7569 203.941 74.7074 203.953 74.6517C204.056 74.2062 203.911 74.3423 203.826 74.466L203.443 73.7854C203.294 73.8885 202.83 74.169 202.167 74.466C201.645 74.6999 201.578 74.6637 201.44 74.5894C201.36 74.5458 201.255 74.4889 201.018 74.466C200.38 74.4042 200.061 74.3423 200.316 73.3522C200.874 72.8114 200.993 72.6487 201.44 72.0379L201.441 72.0371C201.505 71.9493 201.576 71.8522 201.656 71.7434C202.051 71.208 202.055 71.169 202.061 71.115C202.065 71.0817 202.069 71.0426 202.167 70.8772C202.371 70.5306 202.805 70.1965 202.996 70.0728H201.018C200.442 70.0728 200.45 70.047 200.528 69.7961C200.571 69.6581 200.636 69.452 200.636 69.1446C200.636 68.6182 200.636 68.4117 200.721 68.2473C200.777 68.1412 200.868 68.0527 201.018 67.907C201.325 67.61 201.571 67.3295 201.656 67.2264C201.444 67.2264 200.878 67.1398 200.316 66.7933C199.812 66.4819 199.967 66.3624 200.141 66.2278C200.209 66.1752 200.281 66.1203 200.316 66.0507C200.361 65.9643 200.46 65.9382 200.57 65.9093C200.775 65.8553 201.018 65.7914 201.018 65.3082C200.996 65.2725 200.975 65.2393 200.955 65.2074C200.798 64.9628 200.692 64.7965 200.636 64.1944C200.572 63.5138 201.274 62.9569 201.656 62.7094C201.975 62.5036 201.94 63.0676 201.919 63.4059C201.915 63.4745 201.912 63.5339 201.912 63.5756C201.912 63.7568 201.98 63.8717 202.067 64.0173C202.098 64.0707 202.133 64.1281 202.167 64.1944C202.208 64.2737 202.249 64.3339 202.304 64.4158C202.422 64.5895 202.606 64.8606 202.996 65.6176C203.157 65.8906 203.115 65.9669 203.062 66.0635C203.031 66.1202 202.996 66.1838 202.996 66.2982V67.2264C202.996 67.3938 202.982 67.5682 202.967 67.7401C202.939 68.0768 202.912 68.4038 202.996 68.6496C203.098 68.9466 204.528 69.4334 205.229 69.6396C205.123 69.3921 204.91 68.7733 204.91 68.2783C204.91 67.7115 204.696 67.5081 204.464 67.2877C204.443 67.2675 204.421 67.2472 204.4 67.2264C204.224 67.0557 204.29 66.5613 204.349 66.1288C204.375 65.9342 204.4 65.752 204.4 65.6176C204.4 65.275 204.599 64.8551 204.777 64.4801L204.777 64.48C204.825 64.3809 204.87 64.285 204.91 64.1944C205.062 63.8512 205.414 63.6245 205.68 63.4529C205.75 63.4079 205.814 63.3667 205.867 63.3281C206.071 63.1796 206.59 62.07 206.824 61.5337C207.037 63.0187 207.232 66.2364 206.314 67.2264ZM204.4 47.9207C204.379 47.9825 204.285 48.1187 204.081 48.1682C203.826 48.2301 202.996 48.4157 202.996 48.1682C202.996 48.0296 202.896 47.8717 202.764 47.6618C202.659 47.4968 202.535 47.2996 202.422 47.0544C202.259 46.6982 202.304 46.5192 202.359 46.307C202.389 46.1873 202.422 46.0572 202.422 45.8788C202.422 45.7062 202.43 45.5938 202.437 45.4865C202.451 45.286 202.464 45.1034 202.422 44.5793C202.387 44.1409 202.315 43.8312 202.256 43.5799C202.207 43.3702 202.167 43.2013 202.167 43.0324V42.1042C202.167 41.5473 201.784 41.0523 201.401 41.2998C201.32 41.3521 201.245 41.3934 201.176 41.4312C200.919 41.5722 200.75 41.665 200.699 42.1042C200.671 42.3517 200.592 42.4037 200.513 42.4556C200.415 42.5206 200.316 42.5855 200.316 43.0324C200.316 43.3756 200.258 43.5724 200.217 43.7141C200.16 43.9044 200.134 43.9952 200.316 44.2081C200.572 44.5051 200.891 44.3318 201.018 44.2081H201.401V44.5793C201.401 44.7237 201.373 44.8681 201.345 45.0124C201.288 45.3012 201.231 45.59 201.401 45.8788C201.529 46.0953 201.529 46.1726 201.529 46.2732C201.529 46.3737 201.529 46.4975 201.657 46.8069C201.742 47.0131 201.798 47.1781 201.845 47.3156C201.94 47.5906 201.997 47.7556 202.167 47.9207C202.269 48.0197 202.238 48.0989 202.202 48.194C202.147 48.3365 202.078 48.5147 202.422 48.8488C202.422 49.3366 202.466 49.6326 202.499 49.8563C202.546 50.1717 202.572 50.3431 202.422 50.7051C202.339 50.906 202.283 51.009 202.237 51.0947C202.14 51.273 202.084 51.376 201.912 52.1283C201.775 52.726 201.638 52.9674 201.54 53.1392C201.456 53.2875 201.401 53.3841 201.401 53.6134C201.401 53.778 201.401 53.8537 201.439 53.9018C201.471 53.9428 201.53 53.9638 201.639 54.0028C201.788 54.0557 202.03 54.1418 202.422 54.3559C202.727 54.5225 202.964 54.6779 203.157 54.8041C203.607 55.0999 203.813 55.2349 204.081 54.9747C204.194 54.8649 204.313 54.8309 204.424 54.799C204.689 54.7231 204.91 54.6596 204.91 53.6134V51.2002C204.91 50.8569 205.003 50.7277 205.07 50.6348C205.16 50.5098 205.203 50.4502 204.91 50.0245C204.742 49.7805 204.575 49.6033 204.443 49.4643C204.174 49.1806 204.057 49.0565 204.4 48.8488C204.808 48.6013 204.57 48.1269 204.4 47.9207ZM199.242 23.1556C199.166 22.7799 199.158 22.7366 199.104 22.7366C199.317 22.7366 199.806 22.8233 200.061 23.1698C200.111 23.2374 200.152 23.29 200.186 23.3345C200.371 23.5752 200.376 23.5815 200.699 24.4692C200.908 25.0427 200.984 25.1932 201.031 25.3518C201.07 25.4841 201.088 25.6221 201.146 26.0161C201.186 26.2876 201.226 26.4983 201.262 26.6882C201.341 27.1044 201.401 27.4208 201.401 28.0581C201.401 28.5329 201.468 28.6353 201.567 28.7877C201.662 28.9332 201.787 29.1243 201.912 29.7288C201.996 30.138 202.066 30.4322 202.128 30.6875C202.251 31.2041 202.337 31.5612 202.422 32.3895C202.503 33.1723 202.609 33.2866 202.676 33.3589C202.715 33.4009 202.741 33.4287 202.741 33.5651C202.741 33.9364 202.167 33.5651 202.167 33.1939C202.167 33.0047 202.101 32.9119 202.027 32.8091C201.957 32.7102 201.879 32.6019 201.848 32.3895C201.822 32.2139 201.754 32.0384 201.679 31.8422C201.568 31.5544 201.439 31.2223 201.401 30.7807C201.364 30.3514 201.136 30.191 200.949 30.0602C200.813 29.9649 200.699 29.8853 200.699 29.7288C200.699 29.3575 200.699 29.2338 200.316 28.0581C200.076 27.3186 200.037 27.3135 199.962 27.3038C199.918 27.298 199.861 27.2906 199.742 27.1299C199.487 26.7834 199.338 26.6968 199.296 26.6968V25.1498C199.296 24.72 199.317 24.4554 199.334 24.2507C199.357 23.9544 199.371 23.7832 199.296 23.4173C199.275 23.3158 199.257 23.2293 199.242 23.1556Z" fill="#F8EDB7"/>
<path d="M335.285 44.6811C335.368 44.026 335.448 43.3709 335.524 42.7157C336.205 36.8192 336.588 30.9184 336.671 25.0134C336.754 19.1084 336.538 13.1992 336.023 7.28575C335.965 6.6287 335.904 5.97161 335.84 5.31445C335.756 5.96952 335.677 6.62464 335.601 7.27982C334.919 13.1764 334.537 19.0772 334.454 24.9822C334.37 30.8871 334.587 36.7964 335.102 42.7098C335.159 43.3668 335.22 44.0239 335.285 44.6811Z" fill="#584B21"/>
<path d="M335.285 44.6811C335.368 44.026 335.448 43.3709 335.524 42.7157C336.205 36.8192 336.588 30.9184 336.671 25.0134C336.754 19.1084 336.538 13.1992 336.023 7.28575C335.965 6.6287 335.904 5.97161 335.84 5.31445C335.756 5.96952 335.677 6.62464 335.601 7.27982C334.919 13.1764 334.537 19.0772 334.454 24.9822C334.37 30.8871 334.587 36.7964 335.102 42.7098C335.159 43.3668 335.22 44.0239 335.285 44.6811Z" fill="#F8EDB7"/>
<path d="M343.443 46.6127C343.777 46.0427 344.107 45.4712 344.433 44.8982C347.373 39.7412 350.038 34.4629 352.43 29.0634C354.822 23.6639 356.94 18.1431 358.784 12.501C358.989 11.8741 359.191 11.2457 359.389 10.6158C359.056 11.1858 358.726 11.7573 358.399 12.3304C355.46 17.4873 352.794 22.7656 350.402 28.1651C348.01 33.5647 345.892 39.0855 344.048 44.7275C343.843 45.3544 343.641 45.9828 343.443 46.6127Z" fill="#584B21"/>
<path d="M343.443 46.6127C343.777 46.0427 344.107 45.4712 344.433 44.8982C347.373 39.7412 350.038 34.4629 352.43 29.0634C354.822 23.6639 356.94 18.1431 358.784 12.501C358.989 11.8741 359.191 11.2457 359.389 10.6158C359.056 11.1858 358.726 11.7573 358.399 12.3304C355.46 17.4873 352.794 22.7656 350.402 28.1651C348.01 33.5647 345.892 39.0855 344.048 44.7275C343.843 45.3544 343.641 45.9828 343.443 46.6127Z" fill="#F8EDB7"/>
<path d="M326.213 45.9623C325.88 45.3923 325.55 44.8208 325.223 44.2478C322.284 39.0908 319.618 33.8125 317.226 28.413C314.834 23.0135 312.716 17.4927 310.872 11.8506C310.667 11.2237 310.465 10.5953 310.267 9.96545C310.601 10.5355 310.931 11.107 311.257 11.68C314.197 16.837 316.862 22.1152 319.254 27.5148C321.646 32.9143 323.764 38.4351 325.608 44.0771C325.813 44.704 326.015 45.3324 326.213 45.9623Z" fill="#584B21"/>
<path d="M326.213 45.9623C325.88 45.3923 325.55 44.8208 325.223 44.2478C322.284 39.0908 319.618 33.8125 317.226 28.413C314.834 23.0135 312.716 17.4927 310.872 11.8506C310.667 11.2237 310.465 10.5953 310.267 9.96545C310.601 10.5355 310.931 11.107 311.257 11.68C314.197 16.837 316.862 22.1152 319.254 27.5148C321.646 32.9143 323.764 38.4351 325.608 44.0771C325.813 44.704 326.015 45.3324 326.213 45.9623Z" fill="#F8EDB7"/>
<path d="M350.818 51.3247C351.317 50.8912 351.812 50.4552 352.305 50.0167C356.739 46.0703 360.952 41.9215 364.945 37.5703C368.938 33.219 372.71 28.6653 376.262 23.9092C376.656 23.3808 377.048 22.8498 377.437 22.3163C376.939 22.7498 376.444 23.1858 375.951 23.6243C371.517 27.5707 367.304 31.7195 363.311 36.0708C359.318 40.422 355.546 44.9757 351.994 49.7318C351.6 50.2603 351.208 50.7912 350.818 51.3247Z" fill="#584B21"/>
<path d="M350.818 51.3247C351.317 50.8912 351.812 50.4552 352.305 50.0167C356.739 46.0703 360.952 41.9215 364.945 37.5703C368.938 33.219 372.71 28.6653 376.262 23.9092C376.656 23.3808 377.048 22.8498 377.437 22.3163C376.939 22.7498 376.444 23.1858 375.951 23.6243C371.517 27.5707 367.304 31.7195 363.311 36.0708C359.318 40.422 355.546 44.9757 351.994 49.7318C351.6 50.2603 351.208 50.7912 350.818 51.3247Z" fill="#F8EDB7"/>
<path d="M318.846 50.6733C318.347 50.2398 317.852 49.8038 317.359 49.3653C312.925 45.419 308.712 41.2701 304.719 36.9189C300.726 32.5676 296.954 28.014 293.403 23.2579C293.008 22.7294 292.616 22.1984 292.227 21.665C292.725 22.0985 293.22 22.5345 293.713 22.9729C298.147 26.9193 302.36 31.0681 306.353 35.4194C310.346 39.7706 314.118 44.3243 317.67 49.0804C318.065 49.6089 318.456 50.1398 318.846 50.6733Z" fill="#584B21"/>
<path d="M318.846 50.6733C318.347 50.2398 317.852 49.8038 317.359 49.3653C312.925 45.419 308.712 41.2701 304.719 36.9189C300.726 32.5676 296.954 28.014 293.403 23.2579C293.008 22.7294 292.616 22.1984 292.227 21.665C292.725 22.0985 293.22 22.5345 293.713 22.9729C298.147 26.9193 302.36 31.0681 306.353 35.4194C310.346 39.7706 314.118 44.3243 317.67 49.0804C318.065 49.6089 318.456 50.1398 318.846 50.6733Z" fill="#F8EDB7"/>
<path d="M358.568 57.154C359.177 56.8985 359.784 56.6398 360.389 56.3778C365.836 54.0201 371.138 51.401 376.293 48.5205C381.449 45.64 386.458 42.4982 391.322 39.095C391.862 38.7168 392.401 38.3355 392.937 37.9509C392.328 38.2064 391.721 38.4651 391.116 38.7271C385.669 41.0848 380.367 43.7039 375.212 46.5844C370.056 49.4649 365.047 52.6067 360.183 56.0099C359.643 56.3881 359.104 56.7694 358.568 57.154Z" fill="#584B21"/>
<path d="M358.568 57.154C359.177 56.8985 359.784 56.6398 360.389 56.3778C365.836 54.0201 371.138 51.401 376.293 48.5205C381.449 45.64 386.458 42.4982 391.322 39.095C391.862 38.7168 392.401 38.3355 392.937 37.9509C392.328 38.2064 391.721 38.4651 391.116 38.7271C385.669 41.0848 380.367 43.7039 375.212 46.5844C370.056 49.4649 365.047 52.6067 360.183 56.0099C359.643 56.3881 359.104 56.7694 358.568 57.154Z" fill="#F8EDB7"/>
<path d="M311.089 56.5046C310.48 56.2491 309.873 55.9903 309.267 55.7284C303.82 53.3707 298.518 50.7516 293.363 47.8711C288.207 44.9906 283.198 41.8488 278.335 38.4456C277.794 38.0674 277.256 37.6861 276.719 37.3015C277.328 37.557 277.935 37.8157 278.54 38.0777C283.988 40.4354 289.289 43.0545 294.445 45.935C299.6 48.8154 304.609 51.9573 309.473 55.3605C310.013 55.7387 310.552 56.12 311.089 56.5046Z" fill="#584B21"/>
<path d="M311.089 56.5046C310.48 56.2491 309.873 55.9903 309.267 55.7284C303.82 53.3707 298.518 50.7516 293.363 47.8711C288.207 44.9906 283.198 41.8488 278.335 38.4456C277.794 38.0674 277.256 37.6861 276.719 37.3015C277.328 37.557 277.935 37.8157 278.54 38.0777C283.988 40.4354 289.289 43.0545 294.445 45.935C299.6 48.8154 304.609 51.9573 309.473 55.3605C310.013 55.7387 310.552 56.12 311.089 56.5046Z" fill="#F8EDB7"/>
<path d="M359.688 65.5031C360.348 65.4879 361.008 65.4691 361.667 65.4466C367.599 65.2443 373.492 64.7453 379.343 63.9497C385.195 63.154 391.006 62.0617 396.777 60.6727C397.419 60.5183 398.059 60.3603 398.7 60.1987C398.039 60.2138 397.38 60.2327 396.721 60.2551C390.788 60.4574 384.896 60.9564 379.044 61.7521C373.193 62.5477 367.381 63.6401 361.61 65.0291C360.969 65.1834 360.328 65.3414 359.688 65.5031Z" fill="#584B21"/>
<path d="M359.688 65.5031C360.348 65.4879 361.008 65.4691 361.667 65.4466C367.599 65.2443 373.492 64.7453 379.343 63.9497C385.195 63.154 391.006 62.0617 396.777 60.6727C397.419 60.5183 398.059 60.3603 398.7 60.1987C398.039 60.2138 397.38 60.2327 396.721 60.2551C390.788 60.4574 384.896 60.9564 379.044 61.7521C373.193 62.5477 367.381 63.6401 361.61 65.0291C360.969 65.1834 360.328 65.3414 359.688 65.5031Z" fill="#F8EDB7"/>
<path d="M309.984 64.8527C309.324 64.8375 308.664 64.8187 308.005 64.7962C302.072 64.5939 296.18 64.095 290.329 63.2993C284.477 62.5036 278.666 61.4113 272.894 60.0223C272.253 59.868 271.612 59.71 270.972 59.5483C271.632 59.5635 272.292 59.5823 272.951 59.6047C278.884 59.807 284.776 60.306 290.627 61.1017C296.479 61.8973 302.291 62.9897 308.062 64.3787C308.703 64.533 309.344 64.691 309.984 64.8527Z" fill="#584B21"/>
<path d="M309.984 64.8527C309.324 64.8375 308.664 64.8187 308.005 64.7962C302.072 64.5939 296.18 64.095 290.329 63.2993C284.477 62.5036 278.666 61.4113 272.894 60.0223C272.253 59.868 271.612 59.71 270.972 59.5483C271.632 59.5635 272.292 59.5823 272.951 59.6047C278.884 59.807 284.776 60.306 290.627 61.1017C296.479 61.8973 302.291 62.9897 308.062 64.3787C308.703 64.533 309.344 64.691 309.984 64.8527Z" fill="#F8EDB7"/>
<path d="M96.8672 91.3527C102.254 90.0543 107.715 88.8696 113.177 87.7465C138.162 82.804 163.615 78.3508 188.836 79.2751C213.214 80.5946 237.191 86.237 260.862 92.6103C278.605 97.3272 296.153 102.945 314.382 106.597C345.982 111.811 377.769 113.107 409.513 114.599C415.085 114.827 420.735 115.036 426.216 115.194C420.752 114.74 415.121 114.251 409.568 113.758C377.993 110.765 346.078 108.387 315.157 102.722C297.399 98.844 279.835 93.0684 262.019 88.3281C238.229 81.924 213.856 76.4718 188.979 75.7074C163.039 75.3806 137.778 80.7914 112.988 86.9252C107.578 88.3095 102.178 89.7686 96.8672 91.3527Z" fill="#584B21"/>
<path d="M96.8672 91.3527C102.254 90.0543 107.715 88.8696 113.177 87.7465C138.162 82.804 163.615 78.3508 188.836 79.2751C213.214 80.5946 237.191 86.237 260.862 92.6103C278.605 97.3272 296.153 102.945 314.382 106.597C345.982 111.811 377.769 113.107 409.513 114.599C415.085 114.827 420.735 115.036 426.216 115.194C420.752 114.74 415.121 114.251 409.568 113.758C377.993 110.765 346.078 108.387 315.157 102.722C297.399 98.844 279.835 93.0684 262.019 88.3281C238.229 81.924 213.856 76.4718 188.979 75.7074C163.039 75.3806 137.778 80.7914 112.988 86.9252C107.578 88.3095 102.178 89.7686 96.8672 91.3527Z" fill="#F8EDB7"/>
<path d="M360.801 104.008C364.828 103.881 368.498 103.716 372.447 103.456C407.448 102.04 441.117 89.8829 474.068 80.4582C507.428 71.4835 542.524 75.3738 576.747 81.7914C580.423 82.4807 584.209 83.2302 588.129 84.0475C584.28 82.9432 580.556 81.9195 576.932 80.9692C543.288 72.2214 507.368 66.9229 472.982 76.1575C439.197 85.8184 407.173 98.7641 372.363 102.618C368.45 103.141 364.807 103.586 360.801 104.008Z" fill="#584B21"/>
<path d="M360.801 104.008C364.828 103.881 368.498 103.716 372.447 103.456C407.448 102.04 441.117 89.8829 474.068 80.4582C507.428 71.4835 542.524 75.3738 576.747 81.7914C580.423 82.4807 584.209 83.2302 588.129 84.0475C584.28 82.9432 580.556 81.9195 576.932 80.9692C543.288 72.2214 507.368 66.9229 472.982 76.1575C439.197 85.8184 407.173 98.7641 372.363 102.618C368.45 103.141 364.807 103.586 360.801 104.008Z" fill="#F8EDB7"/>
<path d="M241.582 74.0641C245.388 73.5715 249.229 73.1439 253.059 72.7617C261.99 71.902 270.973 71.1624 279.828 71.4143C298.904 71.5257 316.303 81.6299 336.29 82.3154C342.937 82.6852 349.597 82.353 356.147 81.3571C382.636 77.1681 405.924 63.1303 432.227 65.2766C440.64 65.7258 449.109 66.9456 457.519 68.25C461.332 68.8533 465.121 69.4884 468.911 70.1829C468.911 70.1829 468.911 70.1829 468.911 70.1829C465.185 69.1997 461.449 68.2886 457.679 67.4225C449.354 65.5367 440.975 63.8002 432.405 62.891C405.433 59.3037 380.541 73.1314 355.484 76.9713C349.207 77.9249 342.87 78.2821 336.499 78.0108C317.74 77.7357 299.695 68.1387 279.851 68.9515C270.749 69.1617 261.829 70.4503 252.946 71.9264C249.144 72.5736 245.339 73.2798 241.582 74.0641Z" fill="#584B21"/>
<path d="M241.582 74.0641C245.388 73.5715 249.229 73.1439 253.059 72.7617C261.99 71.902 270.973 71.1624 279.828 71.4143C298.904 71.5257 316.303 81.6299 336.29 82.3154C342.937 82.6852 349.597 82.353 356.147 81.3571C382.636 77.1681 405.924 63.1303 432.227 65.2766C440.64 65.7258 449.109 66.9456 457.519 68.25C461.332 68.8533 465.121 69.4884 468.911 70.1829C468.911 70.1829 468.911 70.1829 468.911 70.1829C465.185 69.1997 461.449 68.2886 457.679 67.4225C449.354 65.5367 440.975 63.8002 432.405 62.891C405.433 59.3037 380.541 73.1314 355.484 76.9713C349.207 77.9249 342.87 78.2821 336.499 78.0108C317.74 77.7357 299.695 68.1387 279.851 68.9515C270.749 69.1617 261.829 70.4503 252.946 71.9264C249.144 72.5736 245.339 73.2798 241.582 74.0641Z" fill="#F8EDB7"/>
<path d="M269.859 77.3926C271.2 77.539 272.529 77.7247 273.858 77.9272C285.302 79.8634 296.945 82.0266 307.706 85.629C308.139 85.8034 308.567 85.9738 308.989 86.1402C320.203 90.6 332.369 94.1837 344.554 93.3854C345.9 93.388 347.245 93.4111 348.593 93.4719C347.26 93.264 345.92 93.1003 344.576 92.9646C332.368 92.5338 321.015 88.5104 309.803 84.0769C309.384 83.9119 308.96 83.7437 308.528 83.5721C297.165 79.8166 285.584 78.3266 273.9 77.508C272.554 77.4373 271.208 77.3914 269.859 77.3926Z" fill="#584B21"/>
<path d="M269.859 77.3926C271.2 77.539 272.529 77.7247 273.858 77.9272C285.302 79.8634 296.945 82.0266 307.706 85.629C308.139 85.8034 308.567 85.9738 308.989 86.1402C320.203 90.6 332.369 94.1837 344.554 93.3854C345.9 93.388 347.245 93.4111 348.593 93.4719C347.26 93.264 345.92 93.1003 344.576 92.9646C332.368 92.5338 321.015 88.5104 309.803 84.0769C309.384 83.9119 308.96 83.7437 308.528 83.5721C297.165 79.8166 285.584 78.3266 273.9 77.508C272.554 77.4373 271.208 77.3914 269.859 77.3926Z" fill="#F8EDB7"/>
<path d="M333.624 50.2246C345.26 50.2247 354.693 59.6576 354.693 71.2939C354.693 74.2191 354.098 76.0015 353.134 77.0908C352.176 78.1723 350.761 78.6738 348.871 78.8232C346.973 78.9732 344.696 78.7615 342.096 78.5029C339.537 78.2485 336.693 77.9535 333.704 77.9482C330.877 77.1133 328.099 76.996 325.545 77.0977C324.257 77.1489 323.018 77.2556 321.861 77.3555C320.699 77.4558 319.624 77.5481 318.639 77.5742C316.644 77.6272 315.168 77.3999 314.176 76.5664C313.203 75.7485 312.555 74.2201 312.555 71.2939C312.555 59.6576 321.988 50.2246 333.624 50.2246Z" fill="#584B21"/>
<path d="M333.624 50.2246C345.26 50.2247 354.693 59.6576 354.693 71.2939C354.693 74.2191 354.098 76.0015 353.134 77.0908C352.176 78.1723 350.761 78.6738 348.871 78.8232C346.973 78.9732 344.696 78.7615 342.096 78.5029C339.537 78.2485 336.693 77.9535 333.704 77.9482C330.877 77.1133 328.099 76.996 325.545 77.0977C324.257 77.1489 323.018 77.2556 321.861 77.3555C320.699 77.4558 319.624 77.5481 318.639 77.5742C316.644 77.6272 315.168 77.3999 314.176 76.5664C313.203 75.7485 312.555 74.2201 312.555 71.2939C312.555 59.6576 321.988 50.2246 333.624 50.2246Z" fill="#F8EDB7"/>
<path d="M333.624 50.2246C345.26 50.2247 354.693 59.6576 354.693 71.2939C354.693 74.2191 354.098 76.0015 353.134 77.0908C352.176 78.1723 350.761 78.6738 348.871 78.8232C346.973 78.9732 344.696 78.7615 342.096 78.5029C339.537 78.2485 336.693 77.9535 333.704 77.9482C330.877 77.1133 328.099 76.996 325.545 77.0977C324.257 77.1489 323.018 77.2556 321.861 77.3555C320.699 77.4558 319.624 77.5481 318.639 77.5742C316.644 77.6272 315.168 77.3999 314.176 76.5664C313.203 75.7485 312.555 74.2201 312.555 71.2939C312.555 59.6576 321.988 50.2246 333.624 50.2246Z" stroke="#584B21" stroke-width="1.10892"/>
<path d="M333.624 50.2246C345.26 50.2247 354.693 59.6576 354.693 71.2939C354.693 74.2191 354.098 76.0015 353.134 77.0908C352.176 78.1723 350.761 78.6738 348.871 78.8232C346.973 78.9732 344.696 78.7615 342.096 78.5029C339.537 78.2485 336.693 77.9535 333.704 77.9482C330.877 77.1133 328.099 76.996 325.545 77.0977C324.257 77.1489 323.018 77.2556 321.861 77.3555C320.699 77.4558 319.624 77.5481 318.639 77.5742C316.644 77.6272 315.168 77.3999 314.176 76.5664C313.203 75.7485 312.555 74.2201 312.555 71.2939C312.555 59.6576 321.988 50.2246 333.624 50.2246Z" stroke="#F8EDB7" stroke-width="1.10892"/>
<path d="M4.63395 189.959V167.097C4.63395 165.827 4.45049 164.811 4.08357 164.049C3.74487 163.259 2.94047 162.863 1.67037 162.863H0.82363V162.017H11.9159C17.5043 162.017 21.6675 163.259 24.4053 165.742C27.1713 168.226 28.5543 171.585 28.5543 175.818C28.5543 178.556 27.9615 180.998 26.7761 183.143C25.6189 185.26 23.8831 186.925 21.5687 188.138C19.2825 189.352 16.4318 189.959 13.0166 189.959H4.63395ZM12.8896 188.477C14.9782 188.477 16.8552 187.969 18.5204 186.953C20.1857 185.937 21.4981 184.498 22.4578 182.635C23.4456 180.744 23.9395 178.528 23.9395 175.988C23.9395 173.476 23.4597 171.288 22.5001 169.426C21.5405 167.563 20.228 166.109 18.5628 165.065C16.8975 164.021 14.9782 163.498 12.805 163.498C12.184 163.498 11.5066 163.555 10.7728 163.668C10.0672 163.781 9.33334 163.95 8.57127 164.176V187.927C9.13576 188.04 9.65792 188.138 10.1377 188.223C10.6458 188.308 11.1256 188.378 11.5772 188.435C12.057 188.463 12.4945 188.477 12.8896 188.477ZM37.9888 189.959C37.0009 189.959 36.2247 189.832 35.6602 189.578C35.124 189.324 34.7429 188.83 34.5171 188.096C34.2913 187.362 34.1784 186.29 34.1784 184.879V162.017H37.9888V184.879C37.9888 186.149 38.1581 187.179 38.4968 187.969C38.8637 188.731 39.6822 189.112 40.9523 189.112H41.7991V189.959H37.9888ZM78.0884 191.864C76.0562 191.864 74.4615 191.54 73.3043 190.89C72.1753 190.269 71.385 189.296 70.9334 187.969C70.4819 186.614 70.2561 184.879 70.2561 182.762V166.462L59.6718 189.959H58.8251L47.8175 166.039V189.959H46.1241V162.017H50.1461L60.3069 184.032L70.2561 162.017H74.0664V182.762C74.0664 185.33 74.391 187.348 75.0401 188.816C75.6893 190.284 76.7054 191.017 78.0884 191.017V191.864ZM93.4008 190.806C90.7194 190.806 88.3909 190.157 86.4152 188.858C84.4677 187.532 82.9577 185.754 81.8851 183.524C80.8126 181.266 80.2763 178.754 80.2763 175.988C80.2763 173.222 80.8126 170.724 81.8851 168.494C82.9577 166.236 84.4677 164.458 86.4152 163.16C88.3909 161.833 90.7194 161.17 93.4008 161.17C96.0821 161.17 98.3965 161.833 100.344 163.16C102.32 164.458 103.844 166.236 104.916 168.494C105.989 170.724 106.525 173.222 106.525 175.988C106.525 178.754 105.989 181.266 104.916 183.524C103.844 185.754 102.32 187.532 100.344 188.858C98.3965 190.157 96.0821 190.806 93.4008 190.806ZM93.4008 189.112C95.2636 189.112 96.8583 188.576 98.1848 187.503C99.5114 186.431 100.527 184.921 101.233 182.973C101.939 180.998 102.291 178.669 102.291 175.988C102.291 173.306 101.939 170.992 101.233 169.045C100.527 167.069 99.5114 165.545 98.1848 164.472C96.8583 163.4 95.2636 162.863 93.4008 162.863C91.5662 162.863 89.9715 163.4 88.6167 164.472C87.2901 165.545 86.274 167.069 85.5684 169.045C84.8628 170.992 84.51 173.306 84.51 175.988C84.51 178.669 84.8628 180.998 85.5684 182.973C86.274 184.921 87.2901 186.431 88.6167 187.503C89.9715 188.576 91.5662 189.112 93.4008 189.112ZM131.253 190.382C130.294 190.382 129.404 190.199 128.586 189.832C127.796 189.437 127.005 188.802 126.215 187.927C125.453 187.024 124.606 185.796 123.675 184.244L119.441 177.046H116.478V189.959H112.667V167.097C112.667 165.827 112.484 164.811 112.117 164.049C111.778 163.259 110.974 162.863 109.704 162.863H108.857V162.017H119.865C120.57 162.017 121.389 162.073 122.32 162.186C123.252 162.271 124.183 162.454 125.114 162.736C126.074 163.019 126.949 163.442 127.739 164.006C128.558 164.571 129.207 165.305 129.687 166.208C130.195 167.111 130.449 168.24 130.449 169.595C130.449 171.204 130.096 172.502 129.39 173.49C128.713 174.45 127.852 175.183 126.808 175.691C125.764 176.2 124.719 176.581 123.675 176.835L128.12 184.244C129.193 186.05 130.152 187.292 130.999 187.969C131.846 188.618 132.791 188.999 133.836 189.112V189.959C133.61 190.072 133.257 190.171 132.777 190.255C132.326 190.34 131.818 190.382 131.253 190.382ZM116.478 175.564H119.526C120.147 175.564 120.838 175.452 121.6 175.226C122.362 175 123.096 174.661 123.802 174.21C124.508 173.73 125.086 173.109 125.538 172.347C125.989 171.585 126.215 170.653 126.215 169.553C126.215 168.452 125.989 167.52 125.538 166.758C125.086 165.996 124.508 165.375 123.802 164.896C123.096 164.416 122.362 164.063 121.6 163.837C120.838 163.611 120.147 163.498 119.526 163.498C119.074 163.498 118.552 163.541 117.959 163.625C117.395 163.71 116.901 163.809 116.478 163.922V175.564ZM159.692 190.171C159.071 190.171 158.309 190.058 157.406 189.832C156.503 189.578 155.614 189.07 154.739 188.308C153.864 187.518 153.116 186.304 152.495 184.667L151.436 181.915H139.582L136.195 189.959H134.29L146.144 162.017H147.414L156.728 184.667C157.406 186.247 158.055 187.362 158.676 188.011C159.297 188.632 160.2 188.999 161.385 189.112V189.959C161.16 190.015 160.892 190.058 160.581 190.086C160.299 190.142 160.002 190.171 159.692 190.171ZM140.217 180.222H150.59L145.509 167.944L140.217 180.222ZM175.304 189.959V167.097C175.304 165.827 175.121 164.811 174.754 164.049C174.415 163.259 173.611 162.863 172.341 162.863H171.494V162.017H182.586C188.175 162.017 192.338 163.259 195.076 165.742C197.842 168.226 199.225 171.585 199.225 175.818C199.225 178.556 198.632 180.998 197.447 183.143C196.289 185.26 194.554 186.925 192.239 188.138C189.953 189.352 187.102 189.959 183.687 189.959H175.304ZM183.56 188.477C185.649 188.477 187.526 187.969 189.191 186.953C190.856 185.937 192.169 184.498 193.128 182.635C194.116 180.744 194.61 178.528 194.61 175.988C194.61 173.476 194.13 171.288 193.171 169.426C192.211 167.563 190.898 166.109 189.233 165.065C187.568 164.021 185.649 163.498 183.475 163.498C182.854 163.498 182.177 163.555 181.443 163.668C180.738 163.781 180.004 163.95 179.242 164.176V187.927C179.806 188.04 180.328 188.138 180.808 188.223C181.316 188.308 181.796 188.378 182.248 188.435C182.727 188.463 183.165 188.477 183.56 188.477ZM205.279 189.959V167.097C205.279 165.827 205.096 164.811 204.729 164.049C204.39 163.259 203.586 162.863 202.316 162.863H201.469V162.017H219.504C220.492 162.017 221.24 162.186 221.748 162.525C222.256 162.835 222.609 163.259 222.807 163.795C223.004 164.303 223.103 164.839 223.103 165.404V168.579H222.256C222.256 166.885 221.791 165.658 220.859 164.896C219.956 164.105 218.658 163.71 216.964 163.71H209.089V174.718H220.52V176.411H209.089V188.266H216.498C218.418 188.266 219.928 187.913 221.028 187.207C222.157 186.501 223.047 185.302 223.696 183.608L224.542 183.82L223.061 187.842C222.835 188.491 222.454 189.013 221.918 189.409C221.41 189.776 220.732 189.959 219.885 189.959H205.279ZM230.251 189.959V167.097C230.251 165.827 230.068 164.811 229.701 164.049C229.362 163.259 228.558 162.863 227.288 162.863H226.441V162.017H230.251C231.239 162.017 232.001 162.144 232.537 162.398C233.102 162.652 233.497 163.146 233.723 163.879C233.949 164.613 234.062 165.686 234.062 167.097V188.266H249.091V189.959H230.251ZM270.794 189.959V163.71H266.983C265.29 163.71 263.978 164.105 263.046 164.896C262.143 165.658 261.691 166.885 261.691 168.579H260.845V165.404C260.845 164.839 260.943 164.303 261.141 163.795C261.339 163.259 261.691 162.835 262.199 162.525C262.736 162.186 263.484 162.017 264.443 162.017H284.13V163.71H274.604V189.959H270.794ZM307.712 190.382C306.752 190.382 305.863 190.199 305.045 189.832C304.254 189.437 303.464 188.802 302.674 187.927C301.912 187.024 301.065 185.796 300.134 184.244L295.9 177.046H292.936V189.959H289.126V167.097C289.126 165.827 288.943 164.811 288.576 164.049C288.237 163.259 287.433 162.863 286.162 162.863H285.316V162.017H296.323C297.029 162.017 297.847 162.073 298.779 162.186C299.71 162.271 300.642 162.454 301.573 162.736C302.533 163.019 303.408 163.442 304.198 164.006C305.016 164.571 305.666 165.305 306.145 166.208C306.653 167.111 306.907 168.24 306.907 169.595C306.907 171.204 306.555 172.502 305.849 173.49C305.172 174.45 304.311 175.183 303.266 175.691C302.222 176.2 301.178 176.581 300.134 176.835L304.579 184.244C305.651 186.05 306.611 187.292 307.458 187.969C308.305 188.618 309.25 188.999 310.294 189.112V189.959C310.069 190.072 309.716 190.171 309.236 190.255C308.784 190.34 308.276 190.382 307.712 190.382ZM292.936 175.564H295.985C296.605 175.564 297.297 175.452 298.059 175.226C298.821 175 299.555 174.661 300.261 174.21C300.966 173.73 301.545 173.109 301.996 172.347C302.448 171.585 302.674 170.653 302.674 169.553C302.674 168.452 302.448 167.52 301.996 166.758C301.545 165.996 300.966 165.375 300.261 164.896C299.555 164.416 298.821 164.063 298.059 163.837C297.297 163.611 296.605 163.498 295.985 163.498C295.533 163.498 295.011 163.541 294.418 163.625C293.854 163.71 293.36 163.809 292.936 163.922V175.564ZM336.151 190.171C335.53 190.171 334.768 190.058 333.864 189.832C332.961 189.578 332.072 189.07 331.197 188.308C330.322 187.518 329.574 186.304 328.953 184.667L327.895 181.915H316.041L312.654 189.959H310.749L322.603 162.017H323.873L333.187 184.667C333.864 186.247 334.514 187.362 335.135 188.011C335.755 188.632 336.659 188.999 337.844 189.112V189.959C337.618 190.015 337.35 190.058 337.04 190.086C336.757 190.142 336.461 190.171 336.151 190.171ZM316.676 180.222H327.048L321.968 167.944L316.676 180.222ZM372.296 191.864C370.264 191.864 368.67 191.54 367.512 190.89C366.383 190.269 365.593 189.296 365.141 187.969C364.69 186.614 364.464 184.879 364.464 182.762V166.462L353.88 189.959H353.033L342.026 166.039V189.959H340.332V162.017H344.354L354.515 184.032L364.464 162.017H368.274V182.762C368.274 185.33 368.599 187.348 369.248 188.816C369.897 190.284 370.913 191.017 372.296 191.017V191.864ZM387.609 190.806C384.927 190.806 382.599 190.157 380.623 188.858C378.676 187.532 377.166 185.754 376.093 183.524C375.021 181.266 374.484 178.754 374.484 175.988C374.484 173.222 375.021 170.724 376.093 168.494C377.166 166.236 378.676 164.458 380.623 163.16C382.599 161.833 384.927 161.17 387.609 161.17C390.29 161.17 392.605 161.833 394.552 163.16C396.528 164.458 398.052 166.236 399.124 168.494C400.197 170.724 400.733 173.222 400.733 175.988C400.733 178.754 400.197 181.266 399.124 183.524C398.052 185.754 396.528 187.532 394.552 188.858C392.605 190.157 390.29 190.806 387.609 190.806ZM387.609 189.112C389.472 189.112 391.066 188.576 392.393 187.503C393.719 186.431 394.735 184.921 395.441 182.973C396.147 180.998 396.499 178.669 396.499 175.988C396.499 173.306 396.147 170.992 395.441 169.045C394.735 167.069 393.719 165.545 392.393 164.472C391.066 163.4 389.472 162.863 387.609 162.863C385.774 162.863 384.179 163.4 382.825 164.472C381.498 165.545 380.482 167.069 379.776 169.045C379.071 170.992 378.718 173.306 378.718 175.988C378.718 178.669 379.071 180.998 379.776 182.973C380.482 184.921 381.498 186.431 382.825 187.503C384.179 188.576 385.774 189.112 387.609 189.112ZM426.943 190.382L408.738 167.732V189.959H407.045V167.097C407.045 165.827 406.777 164.811 406.24 164.049C405.704 163.259 404.702 162.863 403.234 162.863H402.811V162.017H405.563C406.946 162.017 408.075 162.242 408.95 162.694C409.853 163.146 410.629 163.767 411.278 164.557L426.096 182.973V162.017H427.79V190.382H426.943ZM442.208 189.959V163.71H438.398C436.705 163.71 435.392 164.105 434.461 164.896C433.558 165.658 433.106 166.885 433.106 168.579H432.259V165.404C432.259 164.839 432.358 164.303 432.556 163.795C432.753 163.259 433.106 162.835 433.614 162.525C434.15 162.186 434.898 162.017 435.858 162.017H455.545V163.71H446.019V189.959H442.208ZM469.388 190.806C466.707 190.806 464.378 190.157 462.403 188.858C460.455 187.532 458.945 185.754 457.873 183.524C456.8 181.266 456.264 178.754 456.264 175.988C456.264 173.222 456.8 170.724 457.873 168.494C458.945 166.236 460.455 164.458 462.403 163.16C464.378 161.833 466.707 161.17 469.388 161.17C472.07 161.17 474.384 161.833 476.332 163.16C478.307 164.458 479.831 166.236 480.904 168.494C481.976 170.724 482.513 173.222 482.513 175.988C482.513 178.754 481.976 181.266 480.904 183.524C479.831 185.754 478.307 187.532 476.332 188.858C474.384 190.157 472.07 190.806 469.388 190.806ZM469.388 189.112C471.251 189.112 472.846 188.576 474.172 187.503C475.499 186.431 476.515 184.921 477.221 182.973C477.926 180.998 478.279 178.669 478.279 175.988C478.279 173.306 477.926 170.992 477.221 169.045C476.515 167.069 475.499 165.545 474.172 164.472C472.846 163.4 471.251 162.863 469.388 162.863C467.554 162.863 465.959 163.4 464.604 164.472C463.278 165.545 462.262 167.069 461.556 169.045C460.85 170.992 460.498 173.306 460.498 175.988C460.498 178.669 460.85 180.998 461.556 182.973C462.262 184.921 463.278 186.431 464.604 187.503C465.959 188.576 467.554 189.112 469.388 189.112ZM505.879 189.959V163.71H502.069C500.375 163.71 499.063 164.105 498.131 164.896C497.228 165.658 496.777 166.885 496.777 168.579H495.93V165.404C495.93 164.839 496.029 164.303 496.226 163.795C496.424 163.259 496.777 162.835 497.285 162.525C497.821 162.186 498.569 162.017 499.529 162.017H519.215V163.71H509.689V189.959H505.879ZM533.059 190.806C530.378 190.806 528.049 190.157 526.073 188.858C524.126 187.532 522.616 185.754 521.543 183.524C520.471 181.266 519.935 178.754 519.935 175.988C519.935 173.222 520.471 170.724 521.543 168.494C522.616 166.236 524.126 164.458 526.073 163.16C528.049 161.833 530.378 161.17 533.059 161.17C535.74 161.17 538.055 161.833 540.002 163.16C541.978 164.458 543.502 166.236 544.575 168.494C545.647 170.724 546.183 173.222 546.183 175.988C546.183 178.754 545.647 181.266 544.575 183.524C543.502 185.754 541.978 187.532 540.002 188.858C538.055 190.157 535.74 190.806 533.059 190.806ZM533.059 189.112C534.922 189.112 536.516 188.576 537.843 187.503C539.17 186.431 540.186 184.921 540.891 182.973C541.597 180.998 541.95 178.669 541.95 175.988C541.95 173.306 541.597 170.992 540.891 169.045C540.186 167.069 539.17 165.545 537.843 164.472C536.516 163.4 534.922 162.863 533.059 162.863C531.224 162.863 529.63 163.4 528.275 164.472C526.948 165.545 525.932 167.069 525.227 169.045C524.521 170.992 524.168 173.306 524.168 175.988C524.168 178.669 524.521 180.998 525.227 182.973C525.932 184.921 526.948 186.431 528.275 187.503C529.63 188.576 531.224 189.112 533.059 189.112ZM560.066 190.679C558.937 190.679 557.794 190.552 556.637 190.298C555.508 190.072 554.464 189.733 553.504 189.282C552.573 188.83 551.825 188.294 551.26 187.673C550.696 187.024 550.413 186.304 550.413 185.514V180.984H551.176C551.655 183.834 552.587 185.881 553.97 187.122C555.381 188.364 557.286 188.985 559.685 188.985C560.645 188.985 561.548 188.83 562.395 188.52C563.242 188.181 563.919 187.687 564.427 187.038C564.963 186.389 565.231 185.598 565.231 184.667C565.231 183.425 564.836 182.367 564.046 181.492C563.284 180.617 562.127 179.728 560.574 178.824L555.367 175.734C553.56 174.661 552.276 173.575 551.514 172.474C550.78 171.373 550.413 170.032 550.413 168.452C550.413 166.279 551.161 164.543 552.657 163.244C554.181 161.918 556.171 161.255 558.627 161.255C559.671 161.255 560.73 161.368 561.802 161.593C562.875 161.819 563.862 162.158 564.766 162.609C565.669 163.033 566.389 163.555 566.925 164.176C567.489 164.797 567.772 165.517 567.772 166.335V170.865H567.009C566.53 168.014 565.612 165.982 564.258 164.769C562.903 163.555 561.026 162.948 558.627 162.948C557.808 162.948 557.018 163.132 556.256 163.498C555.494 163.837 554.873 164.331 554.393 164.98C553.942 165.601 553.716 166.349 553.716 167.224C553.716 168.438 554.111 169.44 554.901 170.23C555.691 171.02 556.863 171.867 558.415 172.77L563.623 175.861C565.429 176.933 566.755 177.978 567.602 178.994C568.449 179.982 568.872 181.266 568.872 182.846C568.872 185.217 568.082 187.122 566.501 188.562C564.921 189.973 562.776 190.679 560.066 190.679ZM585.689 190.806C583.007 190.806 580.679 190.171 578.703 188.901C576.756 187.602 575.246 185.866 574.173 183.693C573.101 181.492 572.564 179.064 572.564 176.411C572.564 174.294 572.903 172.319 573.58 170.484C574.258 168.621 575.203 166.998 576.417 165.615C577.631 164.232 579.028 163.146 580.608 162.355C582.189 161.565 583.882 161.17 585.689 161.17C588.031 161.17 590.049 161.509 591.743 162.186C593.436 162.835 594.664 163.625 595.426 164.557C595.962 165.206 596.273 166.109 596.358 167.266C596.442 168.424 596.485 169.637 596.485 170.907H595.638C595.102 168.141 594.1 166.109 592.632 164.811C591.192 163.513 589.301 162.863 586.959 162.863C585.124 162.863 583.431 163.287 581.878 164.134C580.326 164.98 579.084 166.391 578.153 168.367C577.25 170.343 576.798 173.024 576.798 176.411C576.798 177.992 576.981 179.544 577.348 181.068C577.743 182.564 578.35 183.919 579.169 185.133C579.987 186.346 581.032 187.32 582.302 188.054C583.6 188.759 585.152 189.112 586.959 189.112C589.076 189.112 590.896 188.604 592.42 187.588C593.944 186.572 595.299 185.104 596.485 183.185L597.331 183.82C595.977 186.473 594.325 188.308 592.378 189.324C590.43 190.312 588.201 190.806 585.689 190.806ZM625.191 190.171C624.57 190.171 623.808 190.058 622.904 189.832C622.001 189.578 621.112 189.07 620.237 188.308C619.362 187.518 618.614 186.304 617.993 184.667L616.935 181.915H605.081L601.694 189.959H599.788L611.643 162.017H612.913L622.227 184.667C622.904 186.247 623.554 187.362 624.174 188.011C624.795 188.632 625.699 188.999 626.884 189.112V189.959C626.658 190.015 626.39 190.058 626.08 190.086C625.797 190.142 625.501 190.171 625.191 190.171ZM605.716 180.222H616.088L611.008 167.944L605.716 180.222ZM650.286 190.382L632.082 167.732V189.959H630.388V167.097C630.388 165.827 630.12 164.811 629.584 164.049C629.047 163.259 628.045 162.863 626.578 162.863H626.154V162.017H628.906C630.289 162.017 631.418 162.242 632.293 162.694C633.196 163.146 633.973 163.767 634.622 164.557L649.44 182.973V162.017H651.133V190.382H650.286ZM669.785 190.806C667.104 190.806 664.776 190.157 662.8 188.858C660.852 187.532 659.342 185.754 658.27 183.524C657.197 181.266 656.661 178.754 656.661 175.988C656.661 173.222 657.197 170.724 658.27 168.494C659.342 166.236 660.852 164.458 662.8 163.16C664.776 161.833 667.104 161.17 669.785 161.17C672.467 161.17 674.781 161.833 676.729 163.16C678.704 164.458 680.229 166.236 681.301 168.494C682.374 170.724 682.91 173.222 682.91 175.988C682.91 178.754 682.374 181.266 681.301 183.524C680.229 185.754 678.704 187.532 676.729 188.858C674.781 190.157 672.467 190.806 669.785 190.806ZM669.785 189.112C671.648 189.112 673.243 188.576 674.57 187.503C675.896 186.431 676.912 184.921 677.618 182.973C678.323 180.998 678.676 178.669 678.676 175.988C678.676 173.306 678.323 170.992 677.618 169.045C676.912 167.069 675.896 165.545 674.57 164.472C673.243 163.4 671.648 162.863 669.785 162.863C667.951 162.863 666.356 163.4 665.001 164.472C663.675 165.545 662.659 167.069 661.953 169.045C661.248 170.992 660.895 173.306 660.895 175.988C660.895 178.669 661.248 180.998 661.953 182.973C662.659 184.921 663.675 186.431 665.001 187.503C666.356 188.576 667.951 189.112 669.785 189.112Z" fill="#F8EDB7"/>
<path d="M182.902 227.652C183.351 227.664 183.782 227.495 184.1 227.177C184.417 226.86 184.596 226.419 184.596 225.959C184.596 225.499 184.417 225.058 184.1 224.741C183.782 224.423 183.351 224.254 182.902 224.266C181.754 224.294 180.605 224.322 179.456 224.35C158.779 224.858 138.102 225.366 117.425 225.874C116.277 225.903 115.128 225.931 113.979 225.959C115.128 225.987 116.277 226.015 117.425 226.044C138.102 226.552 158.779 227.06 179.456 227.568C180.605 227.596 181.754 227.624 182.902 227.652Z" fill="#F8EDB7"/>
<path d="M202.641 232.959V216.958C202.641 216.07 202.512 215.358 202.256 214.825C202.019 214.272 201.456 213.995 200.567 213.995H199.974V213.403H207.678C208.192 213.403 208.765 213.442 209.397 213.521C210.049 213.581 210.7 213.729 211.352 213.966C212.024 214.183 212.636 214.509 213.189 214.944C213.762 215.378 214.217 215.951 214.552 216.662C214.908 217.373 215.086 218.262 215.086 219.329C215.086 220.336 214.918 221.186 214.582 221.877C214.246 222.549 213.802 223.092 213.249 223.507C212.715 223.922 212.152 224.238 211.56 224.455C210.967 224.653 210.404 224.791 209.871 224.87C209.337 224.929 208.903 224.959 208.567 224.959H205.308V232.959H202.641ZM205.308 223.922H207.53C207.945 223.922 208.409 223.843 208.923 223.685C209.436 223.527 209.94 223.26 210.434 222.885C210.928 222.509 211.333 222.025 211.649 221.433C211.965 220.82 212.123 220.07 212.123 219.181C212.123 218.292 211.965 217.551 211.649 216.958C211.333 216.346 210.928 215.852 210.434 215.477C209.94 215.102 209.436 214.835 208.923 214.677C208.409 214.519 207.945 214.44 207.53 214.44C207.155 214.44 206.76 214.469 206.345 214.529C205.95 214.588 205.604 214.657 205.308 214.736V223.922ZM218.219 232.959V222.588C218.219 221.699 218.091 220.988 217.834 220.455C217.597 219.902 217.034 219.625 216.145 219.625H215.849V219.033H218.219C218.97 219.033 219.533 219.141 219.908 219.359C220.303 219.576 220.58 219.912 220.738 220.366C221.074 220.03 221.558 219.675 222.19 219.299C222.842 218.924 223.592 218.736 224.442 218.736C224.738 218.736 225.054 218.776 225.39 218.855C225.726 218.914 226.002 219.023 226.22 219.181C226.437 219.339 226.625 219.526 226.783 219.744C226.941 219.961 227.099 220.218 227.257 220.514L226.072 221.403C225.854 221.107 225.528 220.889 225.094 220.751C224.679 220.593 224.215 220.514 223.701 220.514C223.108 220.514 222.565 220.652 222.071 220.929C221.578 221.186 221.182 221.541 220.886 221.996C220.886 222.094 220.886 222.243 220.886 222.44C220.886 222.618 220.886 222.766 220.886 222.885V232.959H218.219ZM230.204 232.959V222.588C230.204 221.699 230.075 220.988 229.819 220.455C229.582 219.902 229.019 219.625 228.13 219.625H227.537V219.033H230.204C230.895 219.033 231.429 219.121 231.804 219.299C232.199 219.477 232.476 219.823 232.634 220.336C232.792 220.85 232.871 221.601 232.871 222.588V232.959H230.204ZM231.33 217.255C230.875 217.255 230.48 217.067 230.145 216.692C229.829 216.316 229.67 215.872 229.67 215.358C229.67 214.944 229.789 214.618 230.026 214.381C230.283 214.144 230.619 214.025 231.033 214.025C231.488 214.025 231.873 214.213 232.189 214.588C232.525 214.963 232.693 215.408 232.693 215.921C232.693 216.336 232.564 216.662 232.308 216.899C232.071 217.136 231.745 217.255 231.33 217.255ZM242.444 233.255L237.851 222.44C237.377 221.334 236.923 220.563 236.488 220.129C236.054 219.675 235.481 219.428 234.77 219.388V218.796C234.849 218.796 234.997 218.786 235.214 218.766C235.451 218.746 235.639 218.736 235.777 218.736C236.39 218.736 236.992 218.835 237.585 219.033C238.197 219.21 238.78 219.566 239.333 220.099C239.886 220.633 240.38 221.413 240.814 222.44L243.481 228.811L247.629 219.033H249.111L243.037 233.255H242.444ZM255.098 233.255C254.684 233.255 254.229 233.186 253.735 233.048C253.261 232.929 252.797 232.712 252.343 232.396C251.888 232.08 251.513 231.655 251.217 231.122C250.94 230.589 250.802 229.917 250.802 229.107C250.802 228.021 251.148 227.181 251.839 226.588C252.55 225.996 253.479 225.581 254.624 225.344C255.79 225.087 257.034 224.959 258.358 224.959H259.247C259.247 223.576 259.108 222.529 258.832 221.818C258.555 221.087 258.18 220.593 257.706 220.336C257.252 220.06 256.728 219.922 256.135 219.922C255.306 219.922 254.605 220.099 254.032 220.455C253.479 220.81 253.093 221.472 252.876 222.44H251.543C251.543 221.927 251.572 221.452 251.632 221.018C251.691 220.563 251.908 220.149 252.284 219.773C252.659 219.398 253.271 219.131 254.121 218.973C254.97 218.815 255.839 218.736 256.728 218.736C257.4 218.736 258.042 218.815 258.654 218.973C259.286 219.131 259.839 219.428 260.313 219.862C260.807 220.277 261.192 220.899 261.469 221.729C261.765 222.539 261.913 223.615 261.913 224.959V232.959H260.432L259.395 231.626H259.247C258.95 232.001 258.466 232.366 257.795 232.722C257.123 233.078 256.224 233.255 255.098 233.255ZM256.432 231.922C257.163 231.922 257.736 231.744 258.15 231.389C258.585 231.013 258.95 230.598 259.247 230.144V226.144H258.358C256.876 226.144 255.711 226.42 254.861 226.974C254.032 227.507 253.617 228.218 253.617 229.107C253.617 230.075 253.903 230.786 254.476 231.24C255.049 231.695 255.701 231.922 256.432 231.922ZM270.164 233.255C269.117 233.255 268.258 232.949 267.586 232.337C266.934 231.724 266.608 230.747 266.608 229.403V220.218H264.534V219.033H266.608V216.366L268.09 214.588H269.275V219.033H272.831V220.218H269.275V229.403C269.275 230.292 269.443 230.964 269.779 231.418C270.134 231.853 270.658 232.07 271.349 232.07C271.863 232.07 272.288 232.011 272.623 231.892C272.959 231.774 273.275 231.635 273.572 231.477L273.868 232.07C273.552 232.307 273.117 232.564 272.564 232.84C272.011 233.117 271.211 233.255 270.164 233.255ZM281.48 233.255C280.097 233.255 278.941 232.929 278.013 232.277C277.104 231.626 276.413 230.747 275.939 229.64C275.484 228.534 275.257 227.319 275.257 225.996C275.257 224.653 275.494 223.438 275.968 222.351C276.442 221.245 277.124 220.366 278.013 219.714C278.902 219.062 279.959 218.736 281.183 218.736C282.527 218.736 283.633 218.993 284.502 219.507C285.391 220.001 286.043 220.731 286.458 221.699C286.892 222.667 287.109 223.852 287.109 225.255L287.05 226.44H278.072C278.072 228.06 278.418 229.403 279.109 230.47C279.82 231.537 280.808 232.07 282.072 232.07C283.04 232.07 283.84 231.863 284.472 231.448C285.124 231.033 285.707 230.45 286.221 229.7L286.813 230.144C286.379 230.895 285.885 231.497 285.332 231.952C284.798 232.406 284.206 232.742 283.554 232.959C282.922 233.157 282.23 233.255 281.48 233.255ZM278.072 225.255H284.295C284.295 223.536 284.038 222.223 283.524 221.314C283.011 220.386 282.23 219.922 281.183 219.922C280.591 219.922 280.057 220.159 279.583 220.633C279.129 221.087 278.764 221.719 278.487 222.529C278.21 223.319 278.072 224.228 278.072 225.255ZM303.385 232.959V214.588H300.718C299.533 214.588 298.614 214.865 297.963 215.418C297.331 215.951 297.014 216.81 297.014 217.996H296.422V215.773C296.422 215.378 296.491 215.003 296.629 214.647C296.768 214.272 297.014 213.976 297.37 213.758C297.745 213.521 298.269 213.403 298.94 213.403H312.719V214.588H306.052V232.959H303.385ZM318.77 233.255C317.94 233.255 317.14 233.107 316.37 232.811C315.6 232.515 314.967 231.981 314.474 231.211C313.98 230.44 313.733 229.344 313.733 227.922V222.588C313.733 221.699 313.604 220.988 313.348 220.455C313.111 219.902 312.548 219.625 311.659 219.625H311.362V219.033H313.733C314.424 219.033 314.958 219.121 315.333 219.299C315.728 219.477 316.005 219.823 316.163 220.336C316.321 220.85 316.4 221.601 316.4 222.588V227.922C316.4 228.909 316.558 229.7 316.874 230.292C317.19 230.865 317.595 231.28 318.089 231.537C318.602 231.794 319.126 231.922 319.659 231.922C320.054 231.922 320.429 231.853 320.785 231.714C321.14 231.556 321.476 231.359 321.792 231.122C322.108 230.885 322.385 230.628 322.622 230.351V219.033H325.289V232.959H323.807L322.77 231.774H322.622C322.247 232.149 321.733 232.495 321.081 232.811C320.429 233.107 319.659 233.255 318.77 233.255ZM334.212 233.255C333.027 233.255 332.059 233.157 331.308 232.959C330.558 232.742 329.995 232.445 329.619 232.07C329.244 231.695 329.027 231.27 328.968 230.796C328.908 230.322 328.879 229.709 328.879 228.959H329.471C329.629 229.927 330.044 230.687 330.716 231.24C331.387 231.794 332.355 232.07 333.62 232.07C334.746 232.07 335.565 231.873 336.079 231.477C336.612 231.082 336.879 230.589 336.879 229.996C336.879 229.403 336.652 228.909 336.197 228.514C335.763 228.1 335.101 227.704 334.212 227.329L332.434 226.588C331.308 226.134 330.429 225.601 329.797 224.988C329.185 224.356 328.879 223.556 328.879 222.588C328.879 221.344 329.343 220.396 330.271 219.744C331.2 219.072 332.365 218.736 333.768 218.736C334.894 218.736 335.822 218.845 336.553 219.062C337.284 219.26 337.837 219.546 338.212 219.922C338.588 220.297 338.805 220.722 338.864 221.196C338.924 221.67 338.953 222.282 338.953 223.033H338.361C338.203 222.065 337.788 221.304 337.116 220.751C336.464 220.198 335.546 219.922 334.36 219.922C333.392 219.922 332.652 220.119 332.138 220.514C331.644 220.909 331.397 221.403 331.397 221.996C331.397 222.509 331.605 222.983 332.02 223.418C332.434 223.833 333.017 224.198 333.768 224.514L335.546 225.255C336.81 225.769 337.768 226.332 338.42 226.944C339.072 227.556 339.398 228.376 339.398 229.403C339.398 230.648 338.904 231.606 337.916 232.277C336.928 232.929 335.694 233.255 334.212 233.255ZM348.503 233.255C347.041 233.255 345.826 232.929 344.858 232.277C343.89 231.626 343.169 230.747 342.695 229.64C342.221 228.534 341.984 227.319 341.984 225.996C341.984 224.653 342.221 223.438 342.695 222.351C343.169 221.245 343.89 220.366 344.858 219.714C345.826 219.062 347.041 218.736 348.503 218.736C349.55 218.736 350.429 218.815 351.14 218.973C351.871 219.131 352.424 219.398 352.799 219.773C353.175 220.149 353.392 220.613 353.451 221.166C353.51 221.699 353.54 222.519 353.54 223.625H352.947C352.868 222.361 352.463 221.433 351.733 220.84C351.021 220.228 350.142 219.922 349.095 219.922C348.108 219.922 347.298 220.198 346.666 220.751C346.034 221.285 345.559 222.006 345.243 222.914C344.947 223.823 344.799 224.85 344.799 225.996C344.799 227.122 344.947 228.149 345.243 229.077C345.559 229.986 346.034 230.717 346.666 231.27C347.298 231.803 348.108 232.07 349.095 232.07C350.142 232.07 350.992 231.863 351.644 231.448C352.295 231.033 352.878 230.45 353.392 229.7L353.984 230.144C353.55 230.895 353.056 231.497 352.503 231.952C351.95 232.406 351.337 232.742 350.666 232.959C350.014 233.157 349.293 233.255 348.503 233.255ZM360.426 233.255C360.011 233.255 359.557 233.186 359.063 233.048C358.589 232.929 358.125 232.712 357.67 232.396C357.216 232.08 356.841 231.655 356.544 231.122C356.268 230.589 356.13 229.917 356.13 229.107C356.13 228.021 356.475 227.181 357.167 226.588C357.878 225.996 358.806 225.581 359.952 225.344C361.117 225.087 362.362 224.959 363.685 224.959H364.574C364.574 223.576 364.436 222.529 364.16 221.818C363.883 221.087 363.508 220.593 363.034 220.336C362.579 220.06 362.056 219.922 361.463 219.922C360.634 219.922 359.932 220.099 359.359 220.455C358.806 220.81 358.421 221.472 358.204 222.44H356.87C356.87 221.927 356.9 221.452 356.959 221.018C357.019 220.563 357.236 220.149 357.611 219.773C357.987 219.398 358.599 219.131 359.448 218.973C360.298 218.815 361.167 218.736 362.056 218.736C362.727 218.736 363.369 218.815 363.982 218.973C364.614 219.131 365.167 219.428 365.641 219.862C366.135 220.277 366.52 220.899 366.797 221.729C367.093 222.539 367.241 223.615 367.241 224.959V232.959H365.76L364.723 231.626H364.574C364.278 232.001 363.794 232.366 363.122 232.722C362.451 233.078 361.552 233.255 360.426 233.255ZM361.759 231.922C362.49 231.922 363.063 231.744 363.478 231.389C363.913 231.013 364.278 230.598 364.574 230.144V226.144H363.685C362.204 226.144 361.038 226.42 360.189 226.974C359.359 227.507 358.945 228.218 358.945 229.107C358.945 230.075 359.231 230.786 359.804 231.24C360.377 231.695 361.029 231.922 361.759 231.922ZM371.817 232.959V222.588C371.817 221.699 371.689 220.988 371.432 220.455C371.195 219.902 370.632 219.625 369.743 219.625H369.151V219.033H371.817C372.568 219.033 373.131 219.141 373.506 219.359C373.901 219.556 374.178 219.842 374.336 220.218C374.731 219.882 375.274 219.556 375.966 219.24C376.657 218.904 377.447 218.736 378.336 218.736C379.186 218.736 379.986 218.884 380.736 219.181C381.507 219.477 382.139 220.01 382.633 220.781C383.126 221.531 383.373 222.628 383.373 224.07V232.959H380.707V224.07C380.707 223.082 380.549 222.302 380.233 221.729C379.917 221.136 379.512 220.712 379.018 220.455C378.524 220.198 378 220.07 377.447 220.07C376.855 220.07 376.302 220.228 375.788 220.544C375.294 220.86 374.86 221.225 374.484 221.64V232.959H371.817ZM408.913 233.255C408.242 233.255 407.62 233.127 407.047 232.87C406.494 232.594 405.94 232.149 405.387 231.537C404.854 230.905 404.261 230.045 403.61 228.959L400.646 223.922H398.572V232.959H395.906V216.958C395.906 216.07 395.777 215.358 395.52 214.825C395.283 214.272 394.72 213.995 393.831 213.995H393.239V213.403H400.943C401.437 213.403 402.009 213.442 402.661 213.521C403.313 213.581 403.965 213.709 404.617 213.906C405.289 214.104 405.901 214.4 406.454 214.795C407.027 215.19 407.481 215.704 407.817 216.336C408.173 216.968 408.35 217.758 408.35 218.707C408.35 219.833 408.104 220.741 407.61 221.433C407.136 222.104 406.533 222.618 405.802 222.973C405.071 223.329 404.34 223.596 403.61 223.773L406.721 228.959C407.471 230.223 408.143 231.092 408.736 231.566C409.328 232.021 409.99 232.287 410.721 232.366V232.959C410.563 233.038 410.316 233.107 409.98 233.166C409.664 233.226 409.308 233.255 408.913 233.255ZM398.572 222.885H400.706C401.14 222.885 401.624 222.806 402.158 222.648C402.691 222.489 403.205 222.252 403.698 221.936C404.192 221.601 404.597 221.166 404.913 220.633C405.229 220.099 405.387 219.447 405.387 218.677C405.387 217.907 405.229 217.255 404.913 216.721C404.597 216.188 404.192 215.753 403.698 215.418C403.205 215.082 402.691 214.835 402.158 214.677C401.624 214.519 401.14 214.44 400.706 214.44C400.39 214.44 400.024 214.469 399.609 214.529C399.214 214.588 398.869 214.657 398.572 214.736V222.885ZM417.74 233.255C416.357 233.255 415.202 232.929 414.273 232.277C413.365 231.626 412.673 230.747 412.199 229.64C411.745 228.534 411.518 227.319 411.518 225.996C411.518 224.653 411.755 223.438 412.229 222.351C412.703 221.245 413.384 220.366 414.273 219.714C415.162 219.062 416.219 218.736 417.444 218.736C418.787 218.736 419.893 218.993 420.762 219.507C421.651 220.001 422.303 220.731 422.718 221.699C423.153 222.667 423.37 223.852 423.37 225.255L423.311 226.44H414.333C414.333 228.06 414.678 229.403 415.37 230.47C416.081 231.537 417.068 232.07 418.333 232.07C419.301 232.07 420.101 231.863 420.733 231.448C421.385 231.033 421.967 230.45 422.481 229.7L423.074 230.144C422.639 230.895 422.145 231.497 421.592 231.952C421.059 232.406 420.466 232.742 419.814 232.959C419.182 233.157 418.491 233.255 417.74 233.255ZM414.333 225.255H420.555C420.555 223.536 420.298 222.223 419.785 221.314C419.271 220.386 418.491 219.922 417.444 219.922C416.851 219.922 416.318 220.159 415.844 220.633C415.389 221.087 415.024 221.719 414.747 222.529C414.471 223.319 414.333 224.228 414.333 225.255ZM430.904 233.255C429.857 233.255 428.998 232.949 428.327 232.337C427.675 231.724 427.349 230.747 427.349 229.403V220.218H425.275V219.033H427.349V216.366L428.83 214.588H430.016V219.033H433.571V220.218H430.016V229.403C430.016 230.292 430.183 230.964 430.519 231.418C430.875 231.853 431.398 232.07 432.09 232.07C432.603 232.07 433.028 232.011 433.364 231.892C433.7 231.774 434.016 231.635 434.312 231.477L434.608 232.07C434.292 232.307 433.858 232.564 433.305 232.84C432.751 233.117 431.951 233.255 430.904 233.255ZM437.035 232.959V222.588C437.035 221.699 436.906 220.988 436.65 220.455C436.412 219.902 435.85 219.625 434.961 219.625H434.664V219.033H437.035C437.785 219.033 438.348 219.141 438.724 219.359C439.119 219.576 439.395 219.912 439.553 220.366C439.889 220.03 440.373 219.675 441.005 219.299C441.657 218.924 442.408 218.736 443.257 218.736C443.553 218.736 443.87 218.776 444.205 218.855C444.541 218.914 444.818 219.023 445.035 219.181C445.252 219.339 445.44 219.526 445.598 219.744C445.756 219.961 445.914 220.218 446.072 220.514L444.887 221.403C444.67 221.107 444.344 220.889 443.909 220.751C443.494 220.593 443.03 220.514 442.516 220.514C441.924 220.514 441.381 220.652 440.887 220.929C440.393 221.186 439.998 221.541 439.702 221.996C439.702 222.094 439.702 222.243 439.702 222.44C439.702 222.618 439.702 222.766 439.702 222.885V232.959H437.035ZM453.737 233.255C452.354 233.255 451.198 232.929 450.27 232.277C449.361 231.626 448.67 230.747 448.196 229.64C447.741 228.534 447.514 227.319 447.514 225.996C447.514 224.653 447.751 223.438 448.225 222.351C448.699 221.245 449.381 220.366 450.27 219.714C451.159 219.062 452.216 218.736 453.44 218.736C454.784 218.736 455.89 218.993 456.759 219.507C457.648 220.001 458.3 220.731 458.715 221.699C459.149 222.667 459.367 223.852 459.367 225.255L459.307 226.44H450.329C450.329 228.06 450.675 229.403 451.366 230.47C452.077 231.537 453.065 232.07 454.329 232.07C455.297 232.07 456.097 231.863 456.729 231.448C457.381 231.033 457.964 230.45 458.478 229.7L459.07 230.144C458.636 230.895 458.142 231.497 457.589 231.952C457.055 232.406 456.463 232.742 455.811 232.959C455.179 233.157 454.487 233.255 453.737 233.255ZM450.329 225.255H456.552C456.552 223.536 456.295 222.223 455.781 221.314C455.268 220.386 454.487 219.922 453.44 219.922C452.848 219.922 452.314 220.159 451.84 220.633C451.386 221.087 451.021 221.719 450.744 222.529C450.467 223.319 450.329 224.228 450.329 225.255ZM466.101 233.255C465.686 233.255 465.232 233.186 464.738 233.048C464.264 232.929 463.8 232.712 463.345 232.396C462.891 232.08 462.516 231.655 462.219 231.122C461.943 230.589 461.805 229.917 461.805 229.107C461.805 228.021 462.15 227.181 462.842 226.588C463.553 225.996 464.481 225.581 465.627 225.344C466.792 225.087 468.037 224.959 469.36 224.959H470.249C470.249 223.576 470.111 222.529 469.834 221.818C469.558 221.087 469.183 220.593 468.708 220.336C468.254 220.06 467.731 219.922 467.138 219.922C466.308 219.922 465.607 220.099 465.034 220.455C464.481 220.81 464.096 221.472 463.879 222.44H462.545C462.545 221.927 462.575 221.452 462.634 221.018C462.693 220.563 462.911 220.149 463.286 219.773C463.661 219.398 464.274 219.131 465.123 218.973C465.973 218.815 466.842 218.736 467.731 218.736C468.402 218.736 469.044 218.815 469.657 218.973C470.289 219.131 470.842 219.428 471.316 219.862C471.81 220.277 472.195 220.899 472.472 221.729C472.768 222.539 472.916 223.615 472.916 224.959V232.959H471.435L470.397 231.626H470.249C469.953 232.001 469.469 232.366 468.797 232.722C468.126 233.078 467.227 233.255 466.101 233.255ZM467.434 231.922C468.165 231.922 468.738 231.744 469.153 231.389C469.588 231.013 469.953 230.598 470.249 230.144V226.144H469.36C467.879 226.144 466.713 226.42 465.864 226.974C465.034 227.507 464.619 228.218 464.619 229.107C464.619 230.075 464.906 230.786 465.479 231.24C466.052 231.695 466.703 231.922 467.434 231.922ZM481.167 233.255C480.12 233.255 479.26 232.949 478.589 232.337C477.937 231.724 477.611 230.747 477.611 229.403V220.218H475.537V219.033H477.611V216.366L479.092 214.588H480.278V219.033H483.833V220.218H480.278V229.403C480.278 230.292 480.446 230.964 480.781 231.418C481.137 231.853 481.66 232.07 482.352 232.07C482.865 232.07 483.29 232.011 483.626 231.892C483.962 231.774 484.278 231.635 484.574 231.477L484.87 232.07C484.554 232.307 484.12 232.564 483.567 232.84C483.014 233.117 482.214 233.255 481.167 233.255Z" fill="#F8EDB7"/>
<path d="M502.094 227.652C501.645 227.664 501.214 227.495 500.896 227.177C500.579 226.86 500.4 226.419 500.4 225.959C500.4 225.499 500.579 225.058 500.896 224.741C501.214 224.423 501.645 224.254 502.094 224.266C503.242 224.294 504.391 224.322 505.54 224.35C526.217 224.858 546.894 225.366 567.571 225.874C568.72 225.903 569.868 225.931 571.017 225.959C569.868 225.987 568.72 226.015 567.571 226.044C546.894 226.552 526.217 227.06 505.54 227.568C504.391 227.596 503.242 227.624 502.094 227.652Z" fill="#F8EDB7"/>
</svg>
