<svg width="545" height="185" viewBox="0 0 545 185" fill="none" xmlns="http://www.w3.org/2000/svg">
<path fill-rule="evenodd" clip-rule="evenodd" d="M108.692 103.829C106.66 105.813 107.846 116.395 108.692 121.438H109.821C110.204 121.438 110.338 121.256 110.605 120.891C110.831 120.583 111.152 120.146 111.798 119.578C111.798 119.181 112.268 118.834 112.504 118.71C112.739 118.586 113.435 117.743 114.338 115.362C114.338 115.151 114.349 114.959 114.362 114.74C114.395 114.186 114.439 113.452 114.338 111.766C114.258 110.433 114.314 110.29 114.352 110.194C114.381 110.119 114.399 110.072 114.338 109.533C114.257 108.826 114.269 108.643 114.293 108.248C114.312 107.951 114.338 107.533 114.338 106.681V103.829V101.969V99.9845V97.0082C114.338 96.2641 114.197 94.7761 113.209 91.5518C112.749 90.5809 112.709 90.2434 112.658 89.8162C112.632 89.5885 112.602 89.3354 112.504 88.9475C112.221 87.8314 111.798 85.3511 111.798 82.4989V81.8788C111.61 81.3828 111.064 79.8202 110.387 77.5384C110.239 76.8215 110.09 76.5841 109.982 76.4122C109.885 76.2571 109.821 76.1553 109.821 75.8023C109.821 75.44 109.688 75.1659 109.535 74.8512C109.373 74.5196 109.189 74.1428 109.117 73.5701C109.071 73.2076 109.01 72.9366 108.949 72.6638C108.822 72.0966 108.692 71.5212 108.692 70.0978V66.9975V64.1453C108.692 63.7182 108.509 63.406 108.301 63.0505C108.025 62.5801 107.705 62.0337 107.705 61.045V59.3088V56.3325C107.705 54.9683 107.424 53.3562 106.577 51C106.283 50.289 106.372 49.6791 106.485 48.907C106.588 48.1975 106.712 47.3512 106.577 46.1636C106.414 44.7281 106.156 44.3312 105.776 43.7465C105.499 43.3211 105.158 42.7962 104.742 41.6992C104.087 39.9724 104.053 39.4996 103.981 38.5094C103.944 38.0062 103.897 37.3694 103.755 36.3667C103.465 34.3339 103.44 34.2102 103.317 33.6247C103.261 33.3531 103.183 32.9819 103.049 32.2743C102.774 30.8261 102.737 30.8395 102.591 30.892C102.512 30.9205 102.401 30.9605 102.202 30.7863C101.776 30.4113 101.591 29.6112 101.221 28.0109C101.102 27.4942 100.963 26.894 100.791 26.1978C100.66 25.6659 100.558 25.2591 100.476 24.9332C100.325 24.3331 100.243 24.0069 100.173 23.6788C100.089 23.2879 100.022 22.8943 99.8755 22.0317C99.8534 21.9021 99.8295 21.7618 99.8035 21.6094C99.5082 19.8793 99.3502 19.2957 99.138 18.5116C99.0459 18.1716 98.9437 17.794 98.8157 17.269C98.604 16.4009 98.4982 16.1839 98.3924 15.9669C98.2865 15.7498 98.1807 15.5328 97.969 14.6647C97.6218 13.2408 97.1797 12.7345 96.6427 12.1195C96.5249 11.9847 96.4026 11.8446 96.2757 11.6885C95.8927 11.2172 95.676 10.7826 95.4677 10.3646C95.2922 10.0126 95.1226 9.67245 94.8646 9.33226C94.5442 8.90994 94.4966 8.64746 94.4121 8.18204C94.3478 7.82738 94.262 7.35488 94.0179 6.60401C93.7218 5.69327 93.814 5.15793 93.9279 4.49677C94.0311 3.8975 94.1521 3.19487 94.0179 2.01565C93.8004 0.103961 93.3313 0.402493 92.8693 0.69659C92.7319 0.784054 92.5951 0.871126 92.4657 0.899552C92.1112 0.977428 91.9237 1.25092 91.7284 1.53577C91.6127 1.70452 91.4943 1.87725 91.3368 2.01565C90.9135 2.38769 90.7723 3.87582 90.7723 5.48797C90.7723 6.13037 90.8172 6.4971 90.8532 6.79216C90.9076 7.23757 90.9421 7.51967 90.7723 8.34023C90.5801 9.26923 90.5188 9.39301 90.4101 9.61247C90.3592 9.71526 90.2979 9.83905 90.2079 10.0764C89.9257 10.8205 89.7846 11.1925 89.2201 12.5566C88.8584 13.4308 88.9603 13.8976 89.0801 14.4465C89.1473 14.7541 89.2201 15.0875 89.2201 15.5329C89.2201 15.9988 89.2599 16.2896 89.2947 16.5435C89.3525 16.9655 89.3963 17.2855 89.2201 18.1371C89.1445 18.5026 89.0689 18.8147 88.9987 19.1044C88.8069 19.8958 88.6557 20.52 88.6557 21.6094V25.3298V27.686V30.7863C88.6557 31.3607 88.4314 32.9537 88.2136 34.4998C88.0084 35.9575 87.809 37.3735 87.809 37.8549V40.7072C87.809 41.4896 87.5797 41.9698 87.0179 43.1465C86.9563 43.2754 86.8908 43.4126 86.8212 43.5594C86.4106 44.4254 86.4779 44.5355 86.6059 44.745C86.6979 44.8955 86.8212 45.0973 86.8212 45.6676V49.3879V52.3642C86.8212 53.2106 86.7299 53.375 86.5993 53.6104C86.5002 53.7889 86.3785 54.0081 86.2568 54.5964C86.2256 54.7468 86.198 54.8837 86.1724 55.0101L86.1723 55.0105C85.9659 56.0304 85.8967 56.3728 85.269 57.6967C84.807 58.6711 84.95 59.2733 85.1038 59.921C85.1849 60.2626 85.269 60.6168 85.269 61.045C85.269 61.4843 85.2867 61.768 85.3033 62.0339C85.3335 62.5186 85.3601 62.9441 85.269 64.1453C85.1944 65.1284 85.1198 65.7305 85.0244 66.5007C84.9393 67.1879 84.8376 68.0089 84.7045 69.3538C84.6312 70.0945 84.577 70.693 84.5319 71.1906C84.4033 72.6092 84.349 73.2077 84.1401 73.9422C83.9308 74.6777 83.644 74.9361 82.8771 75.627C82.6096 75.868 82.2837 76.1616 81.8823 76.5464C80.9779 77.4134 81.1274 77.4806 81.298 77.5574C81.4203 77.6124 81.5534 77.6722 81.3179 78.0345C80.8715 78.721 81.1311 81.5785 81.2592 82.9897C81.2931 83.3631 81.3179 83.6353 81.3179 83.7391C81.3179 84.2351 81.3179 84.8552 81.8823 87.5834C81.8823 88.2035 81.7412 88.8855 81.6001 89.5676C81.459 90.2497 81.3179 90.9317 81.3179 91.5518V94.032C81.3179 94.7071 81.3426 95.0778 81.361 95.3534C81.3865 95.736 81.3999 95.9356 81.3179 96.5122C81.2556 96.9502 81.1658 97.2432 81.0485 97.6258C80.9001 98.11 80.7076 98.7378 80.4712 99.9845C80.3784 100.474 80.2924 100.892 80.2146 101.269C79.9377 102.614 79.7656 103.45 79.7656 105.193V110.277V114.494V120.074V121.438C80.6593 121.645 82.5879 122.133 83.1523 122.431C83.8579 122.803 86.539 122.803 87.809 122.803H91.7601C92.6225 122.803 93.2585 122.857 93.8016 122.903C94.6804 122.978 95.3164 123.033 96.2757 122.803C97.1941 122.582 97.5691 122.753 97.9561 122.929C98.2231 123.051 98.4957 123.175 98.9566 123.175C99.8596 123.175 99.7091 123.836 99.5211 124.167V125.283C99.5211 125.655 99.5211 126.275 98.9566 127.887C98.9566 128.383 99.3329 128.424 99.5211 128.383C99.8974 128.424 100.791 128.482 101.355 128.383C102.06 128.259 103.19 127.763 103.19 127.267C103.19 127.053 103.033 126.909 102.855 126.744C102.618 126.526 102.344 126.273 102.344 125.779V123.175C102.344 122.458 102.577 122.152 102.799 121.862C102.999 121.599 103.19 121.348 103.19 120.818C103.19 120.267 103.19 120.018 103.224 119.773C103.252 119.572 103.303 119.373 103.396 119.01C103.419 118.921 103.444 118.822 103.472 118.71C103.698 117.817 103.378 118.09 103.19 118.338L102.344 116.974C102.014 117.181 100.988 117.743 99.5211 118.338C98.3659 118.807 98.218 118.734 97.9142 118.585C97.7357 118.498 97.5033 118.384 96.9809 118.338C95.5696 118.214 94.8646 118.09 95.4286 116.106C96.6617 115.022 96.9251 114.696 97.9142 113.472L97.9155 113.47C98.0577 113.294 98.2149 113.1 98.3922 112.882C99.2644 111.809 99.2741 111.73 99.2875 111.622C99.2958 111.555 99.3055 111.477 99.5211 111.146C99.9726 110.451 100.932 109.781 101.355 109.533H96.9809C95.7062 109.533 95.7239 109.482 95.897 108.979C95.9922 108.702 96.1344 108.289 96.1344 107.673C96.1344 106.618 96.1344 106.204 96.3243 105.875C96.4469 105.662 96.6487 105.485 96.9809 105.193C97.6581 104.598 98.2039 104.036 98.3922 103.829C97.9217 103.829 96.6704 103.655 95.4286 102.961C94.3128 102.337 94.6554 102.097 95.0411 101.828C95.1919 101.722 95.3493 101.612 95.4286 101.473C95.5272 101.299 95.7463 101.247 95.9897 101.189C96.4431 101.081 96.9809 100.953 96.9809 99.9845C96.932 99.913 96.885 99.8464 96.8399 99.7824C96.4943 99.2924 96.2592 98.959 96.1344 97.7523C95.9933 96.3882 97.5455 95.2721 98.3922 94.7761C99.096 94.3637 99.0197 95.4939 98.9739 96.172C98.9646 96.3096 98.9566 96.4285 98.9566 96.5122C98.9566 96.8754 99.1079 97.1056 99.2996 97.3975C99.3698 97.5043 99.4454 97.6194 99.5211 97.7523C99.6115 97.9112 99.7019 98.0319 99.8247 98.196C100.085 98.5441 100.492 99.0874 101.355 100.605C101.711 101.152 101.618 101.305 101.501 101.498C101.432 101.612 101.355 101.739 101.355 101.969V103.829C101.355 104.164 101.323 104.514 101.291 104.859C101.229 105.533 101.168 106.189 101.355 106.681C101.581 107.276 104.742 108.252 106.294 108.665C106.059 108.169 105.588 106.929 105.588 105.937C105.588 104.801 105.114 104.393 104.601 103.952C104.554 103.911 104.507 103.871 104.459 103.829C104.07 103.487 104.218 102.496 104.347 101.629C104.405 101.239 104.459 100.874 104.459 100.605C104.459 99.918 104.901 99.0764 105.295 98.3249L105.295 98.3247C105.399 98.1261 105.5 97.9338 105.588 97.7523C105.924 97.0645 106.702 96.6102 107.292 96.2662C107.446 96.176 107.588 96.0934 107.705 96.0162C108.156 95.7185 109.304 93.4946 109.821 92.4198C110.292 95.3961 110.724 101.845 108.692 103.829ZM104.459 65.1373C104.413 65.2613 104.206 65.5341 103.755 65.6334C103.19 65.7574 101.355 66.1294 101.355 65.6334C101.355 65.3557 101.134 65.0392 100.841 64.6186C100.61 64.2878 100.334 63.8925 100.086 63.4012C99.7246 62.6873 99.8254 62.3286 99.945 61.9032C100.012 61.6635 100.086 61.4026 100.086 61.045C100.086 60.6992 100.103 60.4739 100.119 60.2589C100.15 59.857 100.178 59.491 100.086 58.4407C100.009 57.5621 99.848 56.9413 99.7176 56.4379C99.6087 56.0175 99.5211 55.679 99.5211 55.3404V53.4803C99.5211 52.3642 98.675 51.372 97.8279 51.8681C97.6489 51.973 97.4825 52.0557 97.3301 52.1314C96.7614 52.414 96.3871 52.6 96.2757 53.4803C96.2129 53.9763 96.0386 54.0804 95.8643 54.1845C95.6465 54.3147 95.4286 54.4448 95.4286 55.3404C95.4286 56.0283 95.3001 56.4227 95.2076 56.7067C95.0834 57.0881 95.024 57.2702 95.4286 57.6967C95.9932 58.2919 96.6987 57.9447 96.9809 57.6967H97.8279V58.4407C97.8279 58.7301 97.7652 59.0194 97.7025 59.3088C97.5772 59.8876 97.4518 60.4663 97.8279 61.045C98.1101 61.479 98.1101 61.634 98.1102 61.8355C98.1102 62.037 98.1103 62.2851 98.3924 62.9051C98.5804 63.3184 98.7058 63.6491 98.8102 63.9246C99.0192 64.4759 99.1446 64.8066 99.5211 65.1373C99.747 65.3358 99.6793 65.4945 99.5981 65.685C99.4763 65.9707 99.3241 66.3279 100.086 66.9975C100.086 67.975 100.183 68.5683 100.256 69.0165C100.36 69.6487 100.416 69.9922 100.086 70.7178C99.9024 71.1203 99.7787 71.3269 99.6758 71.4986C99.4616 71.8559 99.3379 72.0624 98.9566 73.5701C98.6537 74.768 98.3508 75.2517 98.1352 75.596C97.9491 75.8933 97.8279 76.0868 97.8279 76.5464C97.8279 76.8763 97.8279 77.0279 97.9109 77.1244C97.9816 77.2065 98.1123 77.2487 98.3542 77.3268C98.683 77.4329 99.2174 77.6053 100.086 78.0345C100.761 78.3683 101.285 78.6798 101.71 78.9328C102.706 79.5256 103.161 79.7962 103.755 79.2746C104.005 79.0547 104.267 78.9864 104.513 78.9226C105.098 78.7704 105.588 78.643 105.588 76.5464V71.7099C105.588 71.022 105.794 70.7631 105.942 70.5768C106.14 70.3264 106.235 70.2069 105.588 69.3538C105.217 68.8646 104.846 68.5095 104.555 68.2311C103.961 67.6623 103.701 67.4137 104.459 66.9975C105.362 66.5014 104.836 65.5507 104.459 65.1373ZM93.0533 15.5044C92.8852 14.7514 92.8659 14.6647 92.7479 14.6647C93.2183 14.6647 94.3001 14.8384 94.8646 15.5329C94.9747 15.6684 95.0643 15.7737 95.1401 15.863C95.5501 16.3453 95.5609 16.358 96.2757 18.1371C96.7375 19.2864 96.9053 19.588 97.0083 19.9059C97.0942 20.1711 97.1349 20.4476 97.2635 21.2373C97.352 21.7814 97.4405 22.2037 97.5203 22.5843C97.695 23.4183 97.8279 24.0525 97.8279 25.3298C97.8279 26.2813 97.9756 26.4865 98.1954 26.7919C98.4053 27.0835 98.681 27.4665 98.9566 28.678C99.1432 29.4982 99.299 30.0878 99.4342 30.5994C99.7077 31.6348 99.8968 32.3505 100.086 34.0105C100.264 35.5794 100.499 35.8085 100.648 35.9534C100.734 36.0376 100.791 36.0933 100.791 36.3667C100.791 37.1108 99.5211 36.3667 99.5211 35.6226C99.5211 35.2435 99.3745 35.0575 99.2121 34.8515C99.0558 34.6532 98.8848 34.4362 98.8157 34.0105C98.7586 33.6587 98.6087 33.3068 98.4412 32.9137C98.1955 32.3369 97.9118 31.6712 97.8279 30.7863C97.7463 29.9258 97.2401 29.6043 96.8276 29.3424C96.5267 29.1513 96.2757 28.9918 96.2757 28.678C96.2757 27.9339 96.2757 27.686 95.4286 25.3298C94.8958 23.8477 94.8101 23.8375 94.6443 23.818C94.5465 23.8064 94.4208 23.7916 94.159 23.4695C93.5946 22.7751 93.2653 22.6015 93.1712 22.6015V19.5012C93.1712 18.6396 93.2184 18.1095 93.2548 17.6991C93.3076 17.1052 93.3381 16.7622 93.1712 16.0289C93.125 15.8255 93.0863 15.6522 93.0533 15.5044Z" fill="#D9D9D9"/>
<path fill-rule="evenodd" clip-rule="evenodd" d="M108.692 103.829C106.66 105.813 107.846 116.395 108.692 121.438H109.821C110.204 121.438 110.338 121.256 110.605 120.891C110.831 120.583 111.152 120.146 111.798 119.578C111.798 119.181 112.268 118.834 112.504 118.71C112.739 118.586 113.435 117.743 114.338 115.362C114.338 115.151 114.349 114.959 114.362 114.74C114.395 114.186 114.439 113.452 114.338 111.766C114.258 110.433 114.314 110.29 114.352 110.194C114.381 110.119 114.399 110.072 114.338 109.533C114.257 108.826 114.269 108.643 114.293 108.248C114.312 107.951 114.338 107.533 114.338 106.681V103.829V101.969V99.9845V97.0082C114.338 96.2641 114.197 94.7761 113.209 91.5518C112.749 90.5809 112.709 90.2434 112.658 89.8162C112.632 89.5885 112.602 89.3354 112.504 88.9475C112.221 87.8314 111.798 85.3511 111.798 82.4989V81.8788C111.61 81.3828 111.064 79.8202 110.387 77.5384C110.239 76.8215 110.09 76.5841 109.982 76.4122C109.885 76.2571 109.821 76.1553 109.821 75.8023C109.821 75.44 109.688 75.1659 109.535 74.8512C109.373 74.5196 109.189 74.1428 109.117 73.5701C109.071 73.2076 109.01 72.9366 108.949 72.6638C108.822 72.0966 108.692 71.5212 108.692 70.0978V66.9975V64.1453C108.692 63.7182 108.509 63.406 108.301 63.0505C108.025 62.5801 107.705 62.0337 107.705 61.045V59.3088V56.3325C107.705 54.9683 107.424 53.3562 106.577 51C106.283 50.289 106.372 49.6791 106.485 48.907C106.588 48.1975 106.712 47.3512 106.577 46.1636C106.414 44.7281 106.156 44.3312 105.776 43.7465C105.499 43.3211 105.158 42.7962 104.742 41.6992C104.087 39.9724 104.053 39.4996 103.981 38.5094C103.944 38.0062 103.897 37.3694 103.755 36.3667C103.465 34.3339 103.44 34.2102 103.317 33.6247C103.261 33.3531 103.183 32.9819 103.049 32.2743C102.774 30.8261 102.737 30.8395 102.591 30.892C102.512 30.9205 102.401 30.9605 102.202 30.7863C101.776 30.4113 101.591 29.6112 101.221 28.0109C101.102 27.4942 100.963 26.894 100.791 26.1978C100.66 25.6659 100.558 25.2591 100.476 24.9332C100.325 24.3331 100.243 24.0069 100.173 23.6788C100.089 23.2879 100.022 22.8943 99.8755 22.0317C99.8534 21.9021 99.8295 21.7618 99.8035 21.6094C99.5082 19.8793 99.3502 19.2957 99.138 18.5116C99.0459 18.1716 98.9437 17.794 98.8157 17.269C98.604 16.4009 98.4982 16.1839 98.3924 15.9669C98.2865 15.7498 98.1807 15.5328 97.969 14.6647C97.6218 13.2408 97.1797 12.7345 96.6427 12.1195C96.5249 11.9847 96.4026 11.8446 96.2757 11.6885C95.8927 11.2172 95.676 10.7826 95.4677 10.3646C95.2922 10.0126 95.1226 9.67245 94.8646 9.33226C94.5442 8.90994 94.4966 8.64746 94.4121 8.18204C94.3478 7.82738 94.262 7.35488 94.0179 6.60401C93.7218 5.69327 93.814 5.15793 93.9279 4.49677C94.0311 3.8975 94.1521 3.19487 94.0179 2.01565C93.8004 0.103961 93.3313 0.402493 92.8693 0.69659C92.7319 0.784054 92.5951 0.871126 92.4657 0.899552C92.1112 0.977428 91.9237 1.25092 91.7284 1.53577C91.6127 1.70452 91.4943 1.87725 91.3368 2.01565C90.9135 2.38769 90.7723 3.87582 90.7723 5.48797C90.7723 6.13037 90.8172 6.4971 90.8532 6.79216C90.9076 7.23757 90.9421 7.51967 90.7723 8.34023C90.5801 9.26923 90.5188 9.39301 90.4101 9.61247C90.3592 9.71526 90.2979 9.83905 90.2079 10.0764C89.9257 10.8205 89.7846 11.1925 89.2201 12.5566C88.8584 13.4308 88.9603 13.8976 89.0801 14.4465C89.1473 14.7541 89.2201 15.0875 89.2201 15.5329C89.2201 15.9988 89.2599 16.2896 89.2947 16.5435C89.3525 16.9655 89.3963 17.2855 89.2201 18.1371C89.1445 18.5026 89.0689 18.8147 88.9987 19.1044C88.8069 19.8958 88.6557 20.52 88.6557 21.6094V25.3298V27.686V30.7863C88.6557 31.3607 88.4314 32.9537 88.2136 34.4998C88.0084 35.9575 87.809 37.3735 87.809 37.8549V40.7072C87.809 41.4896 87.5797 41.9698 87.0179 43.1465C86.9563 43.2754 86.8908 43.4126 86.8212 43.5594C86.4106 44.4254 86.4779 44.5355 86.6059 44.745C86.6979 44.8955 86.8212 45.0973 86.8212 45.6676V49.3879V52.3642C86.8212 53.2106 86.7299 53.375 86.5993 53.6104C86.5002 53.7889 86.3785 54.0081 86.2568 54.5964C86.2256 54.7468 86.198 54.8837 86.1724 55.0101L86.1723 55.0105C85.9659 56.0304 85.8967 56.3728 85.269 57.6967C84.807 58.6711 84.95 59.2733 85.1038 59.921C85.1849 60.2626 85.269 60.6168 85.269 61.045C85.269 61.4843 85.2867 61.768 85.3033 62.0339C85.3335 62.5186 85.3601 62.9441 85.269 64.1453C85.1944 65.1284 85.1198 65.7305 85.0244 66.5007C84.9393 67.1879 84.8376 68.0089 84.7045 69.3538C84.6312 70.0945 84.577 70.693 84.5319 71.1906C84.4033 72.6092 84.349 73.2077 84.1401 73.9422C83.9308 74.6777 83.644 74.9361 82.8771 75.627C82.6096 75.868 82.2837 76.1616 81.8823 76.5464C80.9779 77.4134 81.1274 77.4806 81.298 77.5574C81.4203 77.6124 81.5534 77.6722 81.3179 78.0345C80.8715 78.721 81.1311 81.5785 81.2592 82.9897C81.2931 83.3631 81.3179 83.6353 81.3179 83.7391C81.3179 84.2351 81.3179 84.8552 81.8823 87.5834C81.8823 88.2035 81.7412 88.8855 81.6001 89.5676C81.459 90.2497 81.3179 90.9317 81.3179 91.5518V94.032C81.3179 94.7071 81.3426 95.0778 81.361 95.3534C81.3865 95.736 81.3999 95.9356 81.3179 96.5122C81.2556 96.9502 81.1658 97.2432 81.0485 97.6258C80.9001 98.11 80.7076 98.7378 80.4712 99.9845C80.3784 100.474 80.2924 100.892 80.2146 101.269C79.9377 102.614 79.7656 103.45 79.7656 105.193V110.277V114.494V120.074V121.438C80.6593 121.645 82.5879 122.133 83.1523 122.431C83.8579 122.803 86.539 122.803 87.809 122.803H91.7601C92.6225 122.803 93.2585 122.857 93.8016 122.903C94.6804 122.978 95.3164 123.033 96.2757 122.803C97.1941 122.582 97.5691 122.753 97.9561 122.929C98.2231 123.051 98.4957 123.175 98.9566 123.175C99.8596 123.175 99.7091 123.836 99.5211 124.167V125.283C99.5211 125.655 99.5211 126.275 98.9566 127.887C98.9566 128.383 99.3329 128.424 99.5211 128.383C99.8974 128.424 100.791 128.482 101.355 128.383C102.06 128.259 103.19 127.763 103.19 127.267C103.19 127.053 103.033 126.909 102.855 126.744C102.618 126.526 102.344 126.273 102.344 125.779V123.175C102.344 122.458 102.577 122.152 102.799 121.862C102.999 121.599 103.19 121.348 103.19 120.818C103.19 120.267 103.19 120.018 103.224 119.773C103.252 119.572 103.303 119.373 103.396 119.01C103.419 118.921 103.444 118.822 103.472 118.71C103.698 117.817 103.378 118.09 103.19 118.338L102.344 116.974C102.014 117.181 100.988 117.743 99.5211 118.338C98.3659 118.807 98.218 118.734 97.9142 118.585C97.7357 118.498 97.5033 118.384 96.9809 118.338C95.5696 118.214 94.8646 118.09 95.4286 116.106C96.6617 115.022 96.9251 114.696 97.9142 113.472L97.9155 113.47C98.0577 113.294 98.2149 113.1 98.3922 112.882C99.2644 111.809 99.2741 111.73 99.2875 111.622C99.2958 111.555 99.3055 111.477 99.5211 111.146C99.9726 110.451 100.932 109.781 101.355 109.533H96.9809C95.7062 109.533 95.7239 109.482 95.897 108.979C95.9922 108.702 96.1344 108.289 96.1344 107.673C96.1344 106.618 96.1344 106.204 96.3243 105.875C96.4469 105.662 96.6487 105.485 96.9809 105.193C97.6581 104.598 98.2039 104.036 98.3922 103.829C97.9217 103.829 96.6704 103.655 95.4286 102.961C94.3128 102.337 94.6554 102.097 95.0411 101.828C95.1919 101.722 95.3493 101.612 95.4286 101.473C95.5272 101.299 95.7463 101.247 95.9897 101.189C96.4431 101.081 96.9809 100.953 96.9809 99.9845C96.932 99.913 96.885 99.8464 96.8399 99.7824C96.4943 99.2924 96.2592 98.959 96.1344 97.7523C95.9933 96.3882 97.5455 95.2721 98.3922 94.7761C99.096 94.3637 99.0197 95.4939 98.9739 96.172C98.9646 96.3096 98.9566 96.4285 98.9566 96.5122C98.9566 96.8754 99.1079 97.1056 99.2996 97.3975C99.3698 97.5043 99.4454 97.6194 99.5211 97.7523C99.6115 97.9112 99.7019 98.0319 99.8247 98.196C100.085 98.5441 100.492 99.0874 101.355 100.605C101.711 101.152 101.618 101.305 101.501 101.498C101.432 101.612 101.355 101.739 101.355 101.969V103.829C101.355 104.164 101.323 104.514 101.291 104.859C101.229 105.533 101.168 106.189 101.355 106.681C101.581 107.276 104.742 108.252 106.294 108.665C106.059 108.169 105.588 106.929 105.588 105.937C105.588 104.801 105.114 104.393 104.601 103.952C104.554 103.911 104.507 103.871 104.459 103.829C104.07 103.487 104.218 102.496 104.347 101.629C104.405 101.239 104.459 100.874 104.459 100.605C104.459 99.918 104.901 99.0764 105.295 98.3249L105.295 98.3247C105.399 98.1261 105.5 97.9338 105.588 97.7523C105.924 97.0645 106.702 96.6102 107.292 96.2662C107.446 96.176 107.588 96.0934 107.705 96.0162C108.156 95.7185 109.304 93.4946 109.821 92.4198C110.292 95.3961 110.724 101.845 108.692 103.829ZM104.459 65.1373C104.413 65.2613 104.206 65.5341 103.755 65.6334C103.19 65.7574 101.355 66.1294 101.355 65.6334C101.355 65.3557 101.134 65.0392 100.841 64.6186C100.61 64.2878 100.334 63.8925 100.086 63.4012C99.7246 62.6873 99.8254 62.3286 99.945 61.9032C100.012 61.6635 100.086 61.4026 100.086 61.045C100.086 60.6992 100.103 60.4739 100.119 60.2589C100.15 59.857 100.178 59.491 100.086 58.4407C100.009 57.5621 99.848 56.9413 99.7176 56.4379C99.6087 56.0175 99.5211 55.679 99.5211 55.3404V53.4803C99.5211 52.3642 98.675 51.372 97.8279 51.8681C97.6489 51.973 97.4825 52.0557 97.3301 52.1314C96.7614 52.414 96.3871 52.6 96.2757 53.4803C96.2129 53.9763 96.0386 54.0804 95.8643 54.1845C95.6465 54.3147 95.4286 54.4448 95.4286 55.3404C95.4286 56.0283 95.3001 56.4227 95.2076 56.7067C95.0834 57.0881 95.024 57.2702 95.4286 57.6967C95.9932 58.2919 96.6987 57.9447 96.9809 57.6967H97.8279V58.4407C97.8279 58.7301 97.7652 59.0194 97.7025 59.3088C97.5772 59.8876 97.4518 60.4663 97.8279 61.045C98.1101 61.479 98.1101 61.634 98.1102 61.8355C98.1102 62.037 98.1103 62.2851 98.3924 62.9051C98.5804 63.3184 98.7058 63.6491 98.8102 63.9246C99.0192 64.4759 99.1446 64.8066 99.5211 65.1373C99.747 65.3358 99.6793 65.4945 99.5981 65.685C99.4763 65.9707 99.3241 66.3279 100.086 66.9975C100.086 67.975 100.183 68.5683 100.256 69.0165C100.36 69.6487 100.416 69.9922 100.086 70.7178C99.9024 71.1203 99.7787 71.3269 99.6758 71.4986C99.4616 71.8559 99.3379 72.0624 98.9566 73.5701C98.6537 74.768 98.3508 75.2517 98.1352 75.596C97.9491 75.8933 97.8279 76.0868 97.8279 76.5464C97.8279 76.8763 97.8279 77.0279 97.9109 77.1244C97.9816 77.2065 98.1123 77.2487 98.3542 77.3268C98.683 77.4329 99.2174 77.6053 100.086 78.0345C100.761 78.3683 101.285 78.6798 101.71 78.9328C102.706 79.5256 103.161 79.7962 103.755 79.2746C104.005 79.0547 104.267 78.9864 104.513 78.9226C105.098 78.7704 105.588 78.643 105.588 76.5464V71.7099C105.588 71.022 105.794 70.7631 105.942 70.5768C106.14 70.3264 106.235 70.2069 105.588 69.3538C105.217 68.8646 104.846 68.5095 104.555 68.2311C103.961 67.6623 103.701 67.4137 104.459 66.9975C105.362 66.5014 104.836 65.5507 104.459 65.1373ZM93.0533 15.5044C92.8852 14.7514 92.8659 14.6647 92.7479 14.6647C93.2183 14.6647 94.3001 14.8384 94.8646 15.5329C94.9747 15.6684 95.0643 15.7737 95.1401 15.863C95.5501 16.3453 95.5609 16.358 96.2757 18.1371C96.7375 19.2864 96.9053 19.588 97.0083 19.9059C97.0942 20.1711 97.1349 20.4476 97.2635 21.2373C97.352 21.7814 97.4405 22.2037 97.5203 22.5843C97.695 23.4183 97.8279 24.0525 97.8279 25.3298C97.8279 26.2813 97.9756 26.4865 98.1954 26.7919C98.4053 27.0835 98.681 27.4665 98.9566 28.678C99.1432 29.4982 99.299 30.0878 99.4342 30.5994C99.7077 31.6348 99.8968 32.3505 100.086 34.0105C100.264 35.5794 100.499 35.8085 100.648 35.9534C100.734 36.0376 100.791 36.0933 100.791 36.3667C100.791 37.1108 99.5211 36.3667 99.5211 35.6226C99.5211 35.2435 99.3745 35.0575 99.2121 34.8515C99.0558 34.6532 98.8848 34.4362 98.8157 34.0105C98.7586 33.6587 98.6087 33.3068 98.4412 32.9137C98.1955 32.3369 97.9118 31.6712 97.8279 30.7863C97.7463 29.9258 97.2401 29.6043 96.8276 29.3424C96.5267 29.1513 96.2757 28.9918 96.2757 28.678C96.2757 27.9339 96.2757 27.686 95.4286 25.3298C94.8958 23.8477 94.8101 23.8375 94.6443 23.818C94.5465 23.8064 94.4208 23.7916 94.159 23.4695C93.5946 22.7751 93.2653 22.6015 93.1712 22.6015V19.5012C93.1712 18.6396 93.2184 18.1095 93.2548 17.6991C93.3076 17.1052 93.3381 16.7622 93.1712 16.0289C93.125 15.8255 93.0863 15.6522 93.0533 15.5044Z" fill="#3C5633"/>
<path d="M108.692 121.438C107.846 116.395 106.66 105.813 108.692 103.829C110.724 101.845 110.292 95.3961 109.821 92.4198C109.304 93.4946 108.156 95.7185 107.705 96.0162C107.588 96.0934 107.446 96.176 107.292 96.2662C106.702 96.6102 105.924 97.0645 105.588 97.7523C105.5 97.9338 105.399 98.1261 105.295 98.3247L105.295 98.3249C104.901 99.0764 104.459 99.918 104.459 100.605C104.459 100.874 104.405 101.239 104.347 101.629C104.218 102.496 104.07 103.487 104.459 103.829C104.507 103.871 104.554 103.911 104.601 103.952C105.114 104.393 105.588 104.801 105.588 105.937C105.588 106.929 106.059 108.169 106.294 108.665C104.742 108.252 101.581 107.276 101.355 106.681C101.168 106.189 101.229 105.533 101.291 104.859C101.323 104.514 101.355 104.164 101.355 103.829M108.692 121.438C108.834 121.438 109.258 121.438 109.821 121.438M108.692 121.438H109.821M101.355 103.829C101.355 102.837 101.355 102.589 101.355 101.969M101.355 103.829V101.969M101.355 101.969C101.355 101.739 101.432 101.612 101.501 101.498C101.618 101.305 101.711 101.152 101.355 100.605C100.492 99.0874 100.085 98.5441 99.8247 98.196C99.7019 98.0319 99.6115 97.9112 99.5211 97.7523C99.4454 97.6194 99.3698 97.5043 99.2996 97.3975C99.1079 97.1056 98.9566 96.8754 98.9566 96.5122C98.9566 96.4285 98.9646 96.3096 98.9739 96.172C99.0197 95.4939 99.096 94.3637 98.3922 94.7761C97.5455 95.2721 95.9933 96.3882 96.1344 97.7523C96.2592 98.959 96.4943 99.2924 96.8399 99.7824C96.885 99.8464 96.932 99.913 96.9809 99.9845C96.9809 100.953 96.4431 101.081 95.9897 101.189C95.7463 101.247 95.5272 101.299 95.4286 101.473C95.3493 101.612 95.1919 101.722 95.0411 101.828C94.6554 102.097 94.3128 102.337 95.4286 102.961C96.6704 103.655 97.9217 103.829 98.3922 103.829C98.2039 104.036 97.6581 104.598 96.9809 105.193C96.6487 105.485 96.4469 105.662 96.3243 105.875C96.1344 106.204 96.1344 106.618 96.1344 107.673C96.1344 108.289 95.9922 108.702 95.897 108.979C95.7239 109.482 95.7062 109.533 96.9809 109.533M96.9809 109.533C98.5615 109.533 100.556 109.533 101.355 109.533M96.9809 109.533H101.355M101.355 109.533C100.932 109.781 99.9726 110.451 99.5211 111.146C99.3055 111.477 99.2958 111.555 99.2875 111.622C99.2741 111.73 99.2644 111.809 98.3922 112.882C98.2149 113.1 98.0577 113.294 97.9155 113.47M102.344 123.175C102.344 124.539 102.344 124.911 102.344 125.779M102.344 123.175V125.779M102.344 123.175C102.344 122.458 102.577 122.152 102.799 121.862C102.999 121.599 103.19 121.348 103.19 120.818C103.19 120.267 103.19 120.018 103.224 119.773C103.252 119.572 103.303 119.373 103.396 119.01C103.419 118.921 103.444 118.822 103.472 118.71C103.698 117.817 103.378 118.09 103.19 118.338L102.344 116.974C102.014 117.181 100.988 117.743 99.5211 118.338C98.3659 118.807 98.218 118.734 97.9142 118.585C97.7357 118.498 97.5033 118.384 96.9809 118.338C95.5696 118.214 94.8646 118.09 95.4286 116.106C96.6617 115.022 96.9251 114.696 97.9142 113.472M102.344 125.779C102.344 126.273 102.618 126.526 102.855 126.744C103.033 126.909 103.19 127.053 103.19 127.267C103.19 127.763 102.06 128.259 101.355 128.383C100.791 128.482 99.8974 128.424 99.5211 128.383C99.3329 128.424 98.9566 128.383 98.9566 127.887C99.5211 126.275 99.5211 125.655 99.5211 125.283M99.5211 125.283C99.5211 124.985 99.5211 124.415 99.5211 124.167M99.5211 125.283V124.167M99.5211 124.167C99.7091 123.836 99.8596 123.175 98.9566 123.175C98.4957 123.175 98.2231 123.051 97.9561 122.929C97.5691 122.753 97.1941 122.582 96.2757 122.803C95.3164 123.033 94.6804 122.978 93.8016 122.903C93.2585 122.857 92.6225 122.803 91.7601 122.803M91.7601 122.803C89.5023 122.803 89.079 122.803 87.809 122.803M91.7601 122.803H87.809M87.809 122.803C86.539 122.803 83.8579 122.803 83.1523 122.431C82.5879 122.133 80.6593 121.645 79.7656 121.438M79.7656 121.438C79.7656 121.852 79.7656 122.158 79.7656 120.074M79.7656 121.438V120.074M79.7656 120.074C79.7656 117.47 79.7656 116.106 79.7656 114.494M79.7656 120.074V114.494M79.7656 114.494C79.7656 112.882 79.7656 112.882 79.7656 110.277M79.7656 114.494V110.277M79.7656 110.277C79.7656 107.673 79.7656 107.425 79.7656 105.193M79.7656 110.277V105.193M79.7656 105.193C79.7656 103.45 79.9377 102.614 80.2146 101.269C80.2924 100.892 80.3784 100.474 80.4712 99.9845C80.7076 98.7378 80.9001 98.11 81.0485 97.6258C81.1658 97.2432 81.2556 96.9502 81.3179 96.5122C81.3999 95.9356 81.3865 95.736 81.361 95.3534C81.3426 95.0778 81.3179 94.7071 81.3179 94.032M81.3179 94.032C81.3179 92.4198 81.3179 92.7919 81.3179 91.5518M81.3179 94.032V91.5518M81.3179 91.5518C81.3179 90.9317 81.459 90.2497 81.6001 89.5676C81.7412 88.8855 81.8823 88.2035 81.8823 87.5834C81.3179 84.8552 81.3179 84.2351 81.3179 83.7391C81.3179 83.6353 81.2931 83.3631 81.2592 82.9897C81.1311 81.5785 80.8715 78.721 81.3179 78.0345C81.5534 77.6722 81.4203 77.6124 81.298 77.5574C81.1274 77.4806 80.9779 77.4134 81.8823 76.5464C82.2837 76.1616 82.6096 75.868 82.8771 75.627C83.644 74.9361 83.9308 74.6777 84.1401 73.9422C84.349 73.2077 84.4033 72.6092 84.5319 71.1906C84.577 70.693 84.6312 70.0945 84.7045 69.3538C84.8376 68.0089 84.9393 67.1879 85.0244 66.5007C85.1198 65.7305 85.1944 65.1284 85.269 64.1453C85.3601 62.9441 85.3335 62.5186 85.3033 62.0339C85.2867 61.768 85.269 61.4843 85.269 61.045C85.269 60.6168 85.1849 60.2626 85.1038 59.921C84.95 59.2733 84.807 58.6711 85.269 57.6967C85.8967 56.3728 85.9659 56.0304 86.1723 55.0105L86.1724 55.0101C86.198 54.8837 86.2256 54.7468 86.2568 54.5964C86.3785 54.0081 86.5002 53.7889 86.5993 53.6104C86.7299 53.375 86.8212 53.2106 86.8212 52.3642M86.8212 52.3642C86.8212 50.8761 86.8212 51.1241 86.8212 49.3879M86.8212 52.3642V49.3879M86.8212 49.3879C86.8212 47.6518 86.8212 47.0317 86.8212 45.6676M86.8212 49.3879V45.6676M86.8212 45.6676C86.8212 45.0973 86.6979 44.8955 86.6059 44.745C86.4779 44.5355 86.4106 44.4254 86.8212 43.5594C86.8908 43.4126 86.9563 43.2754 87.0179 43.1465C87.5797 41.9698 87.809 41.4896 87.809 40.7072M87.809 40.7072C87.809 39.8391 87.809 38.847 87.809 37.8549M87.809 40.7072V37.8549M87.809 37.8549C87.809 37.3735 88.0084 35.9575 88.2136 34.4998C88.4314 32.9537 88.6557 31.3607 88.6557 30.7863M88.6557 30.7863C88.6557 29.6702 88.6557 28.8021 88.6557 27.686M88.6557 30.7863V27.686M88.6557 27.686C88.6557 26.5699 88.6557 27.438 88.6557 25.3298M88.6557 27.686V25.3298M88.6557 25.3298C88.6557 23.2216 88.6557 23.0976 88.6557 21.6094M88.6557 25.3298V21.6094M88.6557 21.6094C88.6557 20.52 88.8069 19.8958 88.9987 19.1044C89.0689 18.8147 89.1445 18.5026 89.2201 18.1371C89.3963 17.2855 89.3525 16.9655 89.2947 16.5435C89.2599 16.2896 89.2201 15.9988 89.2201 15.5329C89.2201 15.0875 89.1473 14.7541 89.0801 14.4465C88.9603 13.8976 88.8584 13.4308 89.2201 12.5566C89.7846 11.1925 89.9257 10.8205 90.2079 10.0764C90.2979 9.83905 90.3592 9.71526 90.4101 9.61247C90.5188 9.39301 90.5801 9.26923 90.7723 8.34023C90.9421 7.51967 90.9076 7.23757 90.8532 6.79216C90.8172 6.4971 90.7723 6.13037 90.7723 5.48797C90.7723 3.87582 90.9135 2.38769 91.3368 2.01565C91.4943 1.87725 91.6127 1.70452 91.7284 1.53577C91.9237 1.25092 92.1112 0.977428 92.4657 0.899552C92.5951 0.871126 92.7319 0.784054 92.8693 0.69659C93.3313 0.402493 93.8004 0.103961 94.0179 2.01565C94.1521 3.19487 94.0311 3.8975 93.9279 4.49677C93.814 5.15793 93.7218 5.69327 94.0179 6.60401C94.262 7.35488 94.3478 7.82738 94.4121 8.18204C94.4966 8.64746 94.5442 8.90994 94.8646 9.33226C95.1226 9.67245 95.2922 10.0126 95.4677 10.3646C95.676 10.7826 95.8927 11.2172 96.2757 11.6885C96.4026 11.8446 96.5249 11.9847 96.6427 12.1195C97.1797 12.7345 97.6218 13.2408 97.969 14.6647C98.1807 15.5328 98.2865 15.7498 98.3924 15.9669C98.4982 16.1839 98.604 16.4009 98.8157 17.269C98.9437 17.794 99.0459 18.1716 99.138 18.5116C99.3502 19.2957 99.5082 19.8793 99.8035 21.6094C99.8295 21.7618 99.8534 21.9021 99.8755 22.0317C100.022 22.8943 100.089 23.2879 100.173 23.6788C100.243 24.0069 100.325 24.3331 100.476 24.9332C100.558 25.2591 100.66 25.6659 100.791 26.1978C100.963 26.894 101.102 27.4942 101.221 28.0109C101.591 29.6112 101.776 30.4113 102.202 30.7863C102.401 30.9605 102.512 30.9205 102.591 30.892C102.737 30.8395 102.774 30.8261 103.049 32.2743C103.183 32.9819 103.261 33.3531 103.317 33.6247C103.44 34.2102 103.465 34.3339 103.755 36.3667C103.897 37.3694 103.944 38.0062 103.981 38.5094C104.053 39.4996 104.087 39.9724 104.742 41.6992C105.158 42.7962 105.499 43.3211 105.776 43.7465C106.156 44.3312 106.414 44.7281 106.577 46.1636C106.712 47.3512 106.588 48.1975 106.485 48.907C106.372 49.6791 106.283 50.289 106.577 51C107.424 53.3562 107.705 54.9683 107.705 56.3325M107.705 56.3325C107.705 57.6967 107.705 58.4407 107.705 59.3088M107.705 56.3325V59.3088M107.705 59.3088C107.705 60.1769 107.705 59.3089 107.705 61.045M107.705 59.3088V61.045M107.705 61.045C107.705 62.0337 108.025 62.5801 108.301 63.0505C108.509 63.406 108.692 63.7182 108.692 64.1453M108.692 64.1453C108.692 65.1373 108.692 65.1373 108.692 66.9975M108.692 64.1453V66.9975M108.692 66.9975C108.692 68.8577 108.692 67.9896 108.692 70.0978M108.692 66.9975V70.0978M108.692 70.0978C108.692 71.5212 108.822 72.0966 108.949 72.6638C109.01 72.9366 109.071 73.2076 109.117 73.5701C109.189 74.1428 109.373 74.5196 109.535 74.8512C109.688 75.1659 109.821 75.44 109.821 75.8023C109.821 76.1553 109.885 76.2571 109.982 76.4122C110.09 76.5841 110.239 76.8215 110.387 77.5384C111.064 79.8202 111.61 81.3828 111.798 81.8788M111.798 81.8788C111.798 81.1348 111.798 80.2171 111.798 82.4989M111.798 81.8788V82.4989M111.798 82.4989C111.798 85.3511 112.221 87.8314 112.504 88.9475C112.602 89.3354 112.632 89.5885 112.658 89.8162C112.709 90.2434 112.749 90.5809 113.209 91.5518C114.197 94.7761 114.338 96.2641 114.338 97.0082M114.338 97.0082C114.338 97.7523 114.338 99.3645 114.338 99.9845M114.338 97.0082V99.9845M114.338 99.9845C114.338 100.605 114.338 100.977 114.338 101.969M114.338 99.9845V101.969M114.338 101.969C114.338 102.961 114.338 102.465 114.338 103.829M114.338 101.969V103.829M114.338 103.829C114.338 105.193 114.338 104.697 114.338 106.681M114.338 103.829V106.681M114.338 106.681C114.338 107.533 114.312 107.951 114.293 108.248C114.269 108.643 114.257 108.826 114.338 109.533C114.399 110.072 114.381 110.119 114.352 110.194C114.314 110.29 114.258 110.433 114.338 111.766C114.439 113.452 114.395 114.186 114.362 114.74C114.349 114.959 114.338 115.151 114.338 115.362C113.435 117.743 112.739 118.586 112.504 118.71C112.268 118.834 111.798 119.181 111.798 119.578C111.152 120.146 110.831 120.583 110.605 120.891C110.338 121.256 110.204 121.438 109.821 121.438M99.5211 55.3404C99.5211 54.5964 99.5211 54.5963 99.5211 53.4803M99.5211 55.3404V53.4803M99.5211 55.3404C99.5211 55.679 99.6087 56.0175 99.7176 56.4379C99.848 56.9413 100.009 57.5621 100.086 58.4407C100.178 59.491 100.15 59.857 100.119 60.2589C100.103 60.4739 100.086 60.6992 100.086 61.045C100.086 61.4026 100.012 61.6635 99.945 61.9032C99.8254 62.3286 99.7246 62.6873 100.086 63.4012C100.334 63.8925 100.61 64.2878 100.841 64.6186C101.134 65.0392 101.355 65.3557 101.355 65.6334C101.355 66.1294 103.19 65.7574 103.755 65.6334C104.206 65.5341 104.413 65.2613 104.459 65.1373C104.836 65.5507 105.362 66.5014 104.459 66.9975C103.701 67.4137 103.961 67.6623 104.555 68.2311C104.846 68.5095 105.217 68.8646 105.588 69.3538C106.235 70.2069 106.14 70.3264 105.942 70.5768C105.794 70.7631 105.588 71.022 105.588 71.7099M99.5211 53.4803C99.5211 52.3642 98.675 51.372 97.8279 51.8681C97.6489 51.973 97.4825 52.0557 97.3301 52.1314C96.7614 52.414 96.3871 52.6 96.2757 53.4803C96.2129 53.9763 96.0386 54.0804 95.8643 54.1845C95.6465 54.3147 95.4286 54.4448 95.4286 55.3404C95.4286 56.0283 95.3001 56.4227 95.2076 56.7067C95.0834 57.0881 95.024 57.2702 95.4286 57.6967C95.9932 58.2919 96.6987 57.9447 96.9809 57.6967H97.8279M97.8279 57.6967C97.8279 57.6553 97.8279 57.7462 97.8279 58.4407M97.8279 57.6967V58.4407M97.8279 58.4407C97.8279 58.7301 97.7652 59.0194 97.7025 59.3088C97.5772 59.8876 97.4518 60.4663 97.8279 61.045C98.1101 61.479 98.1101 61.634 98.1102 61.8355C98.1102 62.037 98.1103 62.2851 98.3924 62.9051C98.5804 63.3184 98.7058 63.6491 98.8102 63.9246C99.0192 64.4759 99.1446 64.8066 99.5211 65.1373C99.747 65.3358 99.6793 65.4945 99.5981 65.685C99.4763 65.9707 99.3241 66.3279 100.086 66.9975C100.086 67.975 100.183 68.5683 100.256 69.0165C100.36 69.6487 100.416 69.9922 100.086 70.7178C99.9024 71.1203 99.7787 71.3269 99.6758 71.4986C99.4616 71.8559 99.3379 72.0624 98.9566 73.5701C98.6537 74.768 98.3508 75.2517 98.1352 75.596C97.9491 75.8933 97.8279 76.0868 97.8279 76.5464C97.8279 76.8763 97.8279 77.0279 97.9109 77.1244C97.9816 77.2065 98.1123 77.2487 98.3542 77.3268C98.683 77.4329 99.2174 77.6053 100.086 78.0345C100.761 78.3683 101.285 78.6798 101.71 78.9328C102.706 79.5256 103.161 79.7962 103.755 79.2746C104.005 79.0547 104.267 78.9864 104.513 78.9226C105.098 78.7704 105.588 78.643 105.588 76.5464M105.588 76.5464C105.588 73.5701 105.588 73.3221 105.588 71.7099M105.588 76.5464V71.7099M93.1712 19.5012C93.1712 21.1878 93.1712 22.2708 93.1712 22.6015M93.1712 19.5012V22.6015M93.1712 19.5012C93.1712 18.6396 93.2184 18.1095 93.2548 17.6991C93.3076 17.1052 93.3381 16.7622 93.1712 16.0289C93.125 15.8255 93.0863 15.6522 93.0533 15.5044C92.8852 14.7514 92.8659 14.6647 92.7479 14.6647C93.2183 14.6647 94.3001 14.8384 94.8646 15.5329C94.9747 15.6684 95.0643 15.7737 95.1401 15.863C95.5501 16.3453 95.5609 16.358 96.2757 18.1371C96.7375 19.2864 96.9053 19.588 97.0083 19.9059C97.0942 20.1711 97.1349 20.4476 97.2635 21.2373C97.352 21.7814 97.4405 22.2037 97.5203 22.5843C97.695 23.4183 97.8279 24.0525 97.8279 25.3298C97.8279 26.2813 97.9756 26.4865 98.1954 26.7919C98.4053 27.0835 98.681 27.4665 98.9566 28.678C99.1432 29.4982 99.299 30.0878 99.4342 30.5994C99.7077 31.6348 99.8968 32.3505 100.086 34.0105C100.264 35.5794 100.499 35.8085 100.648 35.9534C100.734 36.0376 100.791 36.0933 100.791 36.3667C100.791 37.1108 99.5211 36.3667 99.5211 35.6226C99.5211 35.2435 99.3745 35.0575 99.2121 34.8515C99.0558 34.6532 98.8848 34.4362 98.8157 34.0105C98.7586 33.6587 98.6087 33.3068 98.4412 32.9137C98.1955 32.3369 97.9118 31.6712 97.8279 30.7863C97.7463 29.9258 97.2401 29.6043 96.8276 29.3424C96.5267 29.1513 96.2757 28.9918 96.2757 28.678C96.2757 27.9339 96.2757 27.686 95.4286 25.3298C94.8958 23.8477 94.8101 23.8375 94.6443 23.818C94.5465 23.8064 94.4208 23.7916 94.159 23.4695C93.5946 22.7751 93.2653 22.6015 93.1712 22.6015M97.9142 113.472L97.9155 113.47M97.9142 113.472C97.9147 113.471 97.9151 113.471 97.9155 113.47" stroke="#3C5633" stroke-width="0.962086"/>
<path fill-rule="evenodd" clip-rule="evenodd" d="M70.8212 107.861C69.3536 109.442 70.2097 117.876 70.8212 121.896H71.6367C71.9128 121.896 72.0095 121.75 72.2029 121.459C72.366 121.214 72.5979 120.865 73.0642 120.413C73.0642 120.097 73.4039 119.82 73.5737 119.721C73.7436 119.623 74.2464 118.95 74.8986 117.053C74.8986 116.884 74.9068 116.732 74.9163 116.557C74.9401 116.116 74.9716 115.531 74.8986 114.187C74.841 113.124 74.8812 113.011 74.9085 112.934C74.9295 112.874 74.9429 112.837 74.8986 112.408C74.8405 111.844 74.8487 111.698 74.8665 111.383C74.8798 111.146 74.8986 110.813 74.8986 110.134V107.861V106.379V104.797V102.425C74.8986 101.832 74.7967 100.646 74.0833 98.0763C73.7509 97.3025 73.7221 97.0336 73.6856 96.693C73.6662 96.5116 73.6446 96.3099 73.5737 96.0007C73.3699 95.1112 73.0642 93.1345 73.0642 90.8612V90.367C72.9283 89.9717 72.5342 88.7264 72.045 86.9078C71.9379 86.3364 71.8306 86.1472 71.7529 86.0102C71.6827 85.8866 71.6367 85.8054 71.6367 85.5241C71.6367 85.2353 71.5402 85.0169 71.4295 84.7661C71.3127 84.5018 71.1801 84.2015 71.1278 83.745C71.0947 83.4561 71.0508 83.2402 71.0065 83.0227C70.9145 82.5707 70.8212 82.1121 70.8212 80.9776V78.5067V76.2335C70.8212 75.8932 70.689 75.6444 70.5384 75.361C70.3393 74.9861 70.108 74.5506 70.108 73.7626V72.3789V70.0068C70.108 68.9196 69.9048 67.6348 69.2934 65.7569C69.0809 65.1902 69.1453 64.7041 69.2268 64.0887C69.3016 63.5233 69.3909 62.8488 69.2934 61.9023C69.1754 60.7582 68.9891 60.4418 68.7149 59.9759C68.5152 59.6368 68.269 59.2185 67.9685 58.3442C67.4954 56.9679 67.4705 56.5911 67.4182 55.8019C67.3917 55.4009 67.3581 54.8934 67.2551 54.0942C67.0462 52.4741 67.0276 52.3755 66.9393 51.9089C66.8984 51.6924 66.8424 51.3966 66.7455 50.8326C66.5471 49.6784 66.5204 49.6891 66.4147 49.731C66.3575 49.7536 66.2772 49.7855 66.134 49.6467C65.8259 49.3478 65.6924 48.7101 65.4255 47.4347C65.3394 47.0229 65.2393 46.5445 65.1149 45.9897C65.0199 45.5658 64.9461 45.2416 64.887 44.9818C64.7782 44.5036 64.7191 44.2436 64.6684 43.9821C64.608 43.6705 64.5596 43.3568 64.4535 42.6693C64.4375 42.566 64.4203 42.4542 64.4015 42.3328C64.1882 40.9539 64.0741 40.4887 63.9208 39.8638C63.8544 39.5929 63.7805 39.2919 63.6881 38.8735C63.5352 38.1816 63.4588 38.0087 63.3823 37.8357C63.3059 37.6627 63.2295 37.4898 63.0766 36.7979C62.8258 35.6631 62.5065 35.2596 62.1187 34.7694C62.0336 34.6619 61.9453 34.5503 61.8536 34.4259C61.577 34.0503 61.4205 33.7039 61.2701 33.3708C61.1433 33.0902 61.0209 32.8191 60.8345 32.548C60.6031 32.2114 60.5687 32.0022 60.5077 31.6313C60.4612 31.3486 60.3993 30.972 60.223 30.3736C60.0092 29.6477 60.0758 29.2211 60.158 28.6941C60.2325 28.2165 60.3199 27.6565 60.223 26.7167C60.0659 25.1931 59.7272 25.431 59.3934 25.6654C59.2942 25.7351 59.1954 25.8045 59.1019 25.8272C58.846 25.8892 58.7105 26.1072 58.5695 26.3342C58.4859 26.4687 58.4004 26.6064 58.2866 26.7167C57.9809 27.0132 57.879 28.1992 57.879 29.4841C57.879 29.9961 57.9113 30.2884 57.9374 30.5235C57.9767 30.8785 58.0016 31.1034 57.879 31.7573C57.7402 32.4977 57.6959 32.5964 57.6174 32.7713C57.5806 32.8532 57.5363 32.9519 57.4713 33.141C57.2675 33.7341 57.1656 34.0306 56.7579 35.1178C56.4967 35.8145 56.5703 36.1865 56.6568 36.624C56.7054 36.8692 56.7579 37.1349 56.7579 37.4898C56.7579 37.8611 56.7867 38.0929 56.8118 38.2953C56.8535 38.6316 56.8852 38.8866 56.7579 39.5654C56.7033 39.8567 56.6487 40.1054 56.598 40.3363C56.4595 40.9671 56.3503 41.4645 56.3503 42.3328V45.2979V47.1758V49.6467C56.3503 50.1045 56.1883 51.3741 56.031 52.6063C55.8828 53.7681 55.7388 54.8966 55.7388 55.2803V57.5535C55.7388 58.1771 55.5732 58.5598 55.1674 59.4977C55.123 59.6004 55.0757 59.7097 55.0254 59.8268C54.7289 60.5169 54.7774 60.6047 54.8699 60.7716C54.9363 60.8916 55.0254 61.0524 55.0254 61.507V64.4721V66.8441C55.0254 67.5186 54.9595 67.6497 54.8651 67.8373C54.7935 67.9795 54.7056 68.1543 54.6177 68.6232C54.5953 68.743 54.5753 68.8521 54.5568 68.9528L54.5567 68.9532C54.4077 69.766 54.3577 70.0389 53.9043 71.0941C53.5707 71.8706 53.674 72.3506 53.785 72.8668C53.8436 73.1391 53.9043 73.4214 53.9043 73.7626C53.9043 74.1128 53.9171 74.3389 53.9291 74.5508C53.951 74.937 53.9701 75.2762 53.9043 76.2335C53.8505 77.0171 53.7966 77.4969 53.7277 78.1108C53.6662 78.6585 53.5928 79.3128 53.4967 80.3847C53.4437 80.975 53.4046 81.452 53.372 81.8486C53.2791 82.9792 53.2399 83.4562 53.089 84.0416C52.9379 84.6278 52.7308 84.8337 52.1769 85.3844C51.9837 85.5764 51.7483 85.8104 51.4584 86.1171C50.8052 86.8082 50.9132 86.8617 51.0364 86.9229C51.1247 86.9667 51.2209 87.0144 51.0507 87.3032C50.7284 87.8502 50.9158 90.1277 51.0084 91.2524C51.0329 91.55 51.0507 91.7669 51.0507 91.8496C51.0507 92.245 51.0507 92.7392 51.4584 94.9135C51.4584 95.4077 51.3565 95.9513 51.2546 96.4949C51.1527 97.0385 51.0507 97.5821 51.0507 98.0763V100.053C51.0507 100.591 51.0686 100.886 51.0819 101.106C51.1004 101.411 51.11 101.57 51.0507 102.03C51.0057 102.379 50.9409 102.612 50.8562 102.917C50.749 103.303 50.61 103.803 50.4393 104.797C50.3722 105.187 50.3101 105.52 50.2539 105.821C50.0539 106.893 49.9297 107.559 49.9297 108.948V113.001V116.361V120.809V121.896C50.5751 122.061 51.968 122.449 52.3756 122.686C52.8852 122.983 54.8216 122.983 55.7388 122.983H58.5924C59.2152 122.983 59.6745 123.026 60.0668 123.063C60.7015 123.123 61.1608 123.166 61.8536 122.983C62.5169 122.808 62.7878 122.944 63.0672 123.084C63.2601 123.181 63.457 123.279 63.7898 123.279C64.442 123.279 64.3333 123.807 64.1975 124.07V124.96C64.1975 125.256 64.1975 125.75 63.7898 127.035C63.7898 127.431 64.0616 127.464 64.1975 127.431C64.4693 127.464 65.1148 127.51 65.5222 127.431C66.0314 127.332 66.8474 126.936 66.8474 126.541C66.8474 126.371 66.7341 126.256 66.605 126.124C66.4343 125.951 66.2359 125.749 66.2359 125.355V123.279C66.2359 122.709 66.4045 122.465 66.5646 122.233C66.7095 122.024 66.8474 121.824 66.8474 121.402C66.8474 120.962 66.8474 120.764 66.872 120.569C66.8922 120.408 66.929 120.25 66.996 119.961C67.0125 119.889 67.0309 119.81 67.0512 119.721C67.2143 119.01 66.9833 119.227 66.8474 119.425L66.2359 118.338C65.998 118.502 65.2573 118.95 64.1975 119.425C63.3632 119.798 63.2564 119.741 63.037 119.622C62.9081 119.552 62.7402 119.461 62.3629 119.425C61.3436 119.326 60.8345 119.227 61.2419 117.646C62.1324 116.782 62.3226 116.522 63.037 115.546L63.0379 115.545C63.1406 115.405 63.2542 115.25 63.3822 115.076C64.0121 114.221 64.0191 114.159 64.0288 114.072C64.0348 114.019 64.0418 113.957 64.1975 113.692C64.5236 113.139 65.2165 112.605 65.5222 112.408H62.3629C61.4423 112.408 61.4551 112.366 61.5801 111.966C61.6489 111.745 61.7516 111.416 61.7516 110.925C61.7516 110.084 61.7516 109.754 61.8887 109.492C61.9773 109.322 62.123 109.181 62.3629 108.948C62.852 108.474 63.2462 108.026 63.3822 107.861C63.0424 107.861 62.1387 107.723 61.2419 107.169C60.436 106.672 60.6834 106.481 60.9619 106.266C61.0709 106.182 61.1846 106.094 61.2419 105.983C61.3131 105.845 61.4713 105.803 61.6471 105.757C61.9745 105.671 62.3629 105.569 62.3629 104.797C62.3276 104.74 62.2937 104.687 62.2611 104.636C62.0115 104.245 61.8417 103.98 61.7516 103.018C61.6497 101.931 62.7707 101.041 63.3822 100.646C63.8905 100.317 63.8354 101.218 63.8024 101.759C63.7956 101.868 63.7898 101.963 63.7898 102.03C63.7898 102.319 63.8991 102.503 64.0376 102.735C64.0883 102.82 64.1429 102.912 64.1975 103.018C64.2628 103.145 64.3281 103.241 64.4168 103.372C64.6051 103.649 64.8989 104.082 65.5222 105.291C65.779 105.727 65.7121 105.849 65.6276 106.004C65.5779 106.094 65.5222 106.196 65.5222 106.379V107.861C65.5222 108.128 65.4989 108.407 65.4759 108.682C65.431 109.219 65.3873 109.742 65.5222 110.134C65.6853 110.609 67.9681 111.386 69.0892 111.716C68.9192 111.32 68.5793 110.332 68.5793 109.541C68.5793 108.636 68.2372 108.311 67.8663 107.959C67.8324 107.927 67.7982 107.894 67.764 107.861C67.4828 107.588 67.5894 106.799 67.6827 106.108C67.7247 105.797 67.764 105.506 67.764 105.291C67.764 104.744 68.0827 104.073 68.3672 103.474L68.3673 103.474C68.4425 103.316 68.5154 103.163 68.5793 103.018C68.8215 102.47 69.3837 102.108 69.8095 101.834C69.9211 101.762 70.0233 101.696 70.108 101.634C70.4341 101.397 71.263 99.6247 71.6367 98.7682C71.9763 101.14 72.2887 106.28 70.8212 107.861ZM67.764 77.0242C67.7302 77.123 67.5812 77.3405 67.2551 77.4195C66.8474 77.5184 65.5222 77.8149 65.5222 77.4195C65.5222 77.1982 65.3627 76.946 65.1507 76.6108C64.984 76.3471 64.7848 76.0321 64.6053 75.6405C64.3445 75.0715 64.4173 74.7857 64.5037 74.4466C64.5523 74.2556 64.6053 74.0476 64.6053 73.7626C64.6053 73.4871 64.6177 73.3075 64.6295 73.1362C64.6516 72.8158 64.6717 72.5241 64.6053 71.687C64.5498 70.9868 64.4336 70.492 64.3395 70.0908C64.2608 69.7558 64.1975 69.4859 64.1975 69.2161V67.7336C64.1975 66.8441 63.5864 66.0533 62.9747 66.4487C62.8454 66.5323 62.7252 66.5982 62.6151 66.6586C62.2044 66.8838 61.9341 67.0321 61.8536 67.7336C61.8083 68.129 61.6824 68.2119 61.5565 68.2949C61.3992 68.3986 61.2419 68.5023 61.2419 69.2161C61.2419 69.7644 61.1491 70.0787 61.0822 70.305C60.9925 70.609 60.9497 70.7541 61.2419 71.0941C61.6496 71.5684 62.1591 71.2917 62.3629 71.0941H62.9747V71.687C62.9747 71.9177 62.9294 72.1483 62.8841 72.3789C62.7936 72.8402 62.703 73.3014 62.9747 73.7626C63.1784 74.1086 63.1785 74.2321 63.1785 74.3927C63.1785 74.5533 63.1786 74.7509 63.3823 75.2451C63.5181 75.5745 63.6087 75.838 63.6841 76.0577C63.8351 76.497 63.9256 76.7606 64.1975 77.0242C64.3606 77.1823 64.3118 77.3089 64.2531 77.4607C64.1652 77.6884 64.0552 77.9731 64.6053 78.5067C64.6053 79.2858 64.6755 79.7587 64.7285 80.1159C64.8033 80.6197 64.8439 80.8935 64.6053 81.4718C64.4729 81.7926 64.3835 81.9572 64.3092 82.094C64.1546 82.3788 64.0652 82.5434 63.7898 83.745C63.5711 84.6998 63.3523 85.0852 63.1966 85.3597C63.0622 85.5966 62.9747 85.7508 62.9747 86.1171C62.9747 86.38 62.9747 86.5009 63.0346 86.5778C63.0856 86.6432 63.18 86.6768 63.3548 86.7391C63.5923 86.8237 63.9782 86.9611 64.6053 87.3032C65.0929 87.5692 65.4712 87.8175 65.7782 88.019C66.498 88.4915 66.8264 88.7072 67.2551 88.2915C67.4358 88.1162 67.6254 88.0618 67.8028 88.0109C68.2256 87.8896 68.5793 87.7881 68.5793 86.1171V82.2625C68.5793 81.7142 68.7277 81.5079 68.8346 81.3594C68.9782 81.1598 69.0467 81.0646 68.5793 80.3847C68.3113 79.9948 68.0433 79.7118 67.8333 79.4899C67.4042 79.0366 67.2166 78.8385 67.764 78.5067C68.4162 78.1114 68.0357 77.3536 67.764 77.0242ZM59.5263 37.4672C59.405 36.867 59.391 36.7979 59.3058 36.7979C59.6455 36.7979 60.4268 36.9363 60.8345 37.4898C60.914 37.5978 60.9787 37.6818 61.0335 37.7529C61.3296 38.1373 61.3374 38.1475 61.8536 39.5654C62.1871 40.4813 62.3084 40.7217 62.3827 40.9751C62.4448 41.1864 62.4742 41.4068 62.567 42.0362C62.631 42.4698 62.6949 42.8064 62.7525 43.1097C62.8787 43.7745 62.9747 44.2799 62.9747 45.2979C62.9747 46.0563 63.0813 46.2198 63.2401 46.4632C63.3917 46.6956 63.5908 47.0008 63.7898 47.9664C63.9246 48.6201 64.0371 49.09 64.1347 49.4977C64.3323 50.323 64.4689 50.8933 64.6053 52.2163C64.7342 53.4667 64.9039 53.6493 65.0113 53.7648C65.0736 53.8319 65.1149 53.8763 65.1149 54.0942C65.1149 54.6872 64.1975 54.0942 64.1975 53.5012C64.1975 53.199 64.0917 53.0508 63.9744 52.8866C63.8615 52.7286 63.738 52.5557 63.6881 52.2163C63.6468 51.9359 63.5386 51.6555 63.4176 51.3422C63.2401 50.8825 63.0353 50.3519 62.9747 49.6467C62.9158 48.9609 62.5502 48.7047 62.2522 48.4959C62.0349 48.3436 61.8536 48.2165 61.8536 47.9664C61.8536 47.3734 61.8536 47.1758 61.2419 45.2979C60.8571 44.1166 60.7952 44.1086 60.6754 44.093C60.6047 44.0838 60.514 44.0719 60.3249 43.8153C59.9173 43.2618 59.6795 43.1234 59.6115 43.1234V40.6525C59.6115 39.9659 59.6456 39.5434 59.6719 39.2163C59.71 38.743 59.7321 38.4696 59.6115 37.8851C59.5781 37.723 59.5502 37.5849 59.5263 37.4672Z" fill="#D9D9D9"/>
<path fill-rule="evenodd" clip-rule="evenodd" d="M70.8212 107.861C69.3536 109.442 70.2097 117.876 70.8212 121.896H71.6367C71.9128 121.896 72.0095 121.75 72.2029 121.459C72.366 121.214 72.5979 120.865 73.0642 120.413C73.0642 120.097 73.4039 119.82 73.5737 119.721C73.7436 119.623 74.2464 118.95 74.8986 117.053C74.8986 116.884 74.9068 116.732 74.9163 116.557C74.9401 116.116 74.9716 115.531 74.8986 114.187C74.841 113.124 74.8812 113.011 74.9085 112.934C74.9295 112.874 74.9429 112.837 74.8986 112.408C74.8405 111.844 74.8487 111.698 74.8665 111.383C74.8798 111.146 74.8986 110.813 74.8986 110.134V107.861V106.379V104.797V102.425C74.8986 101.832 74.7967 100.646 74.0833 98.0763C73.7509 97.3025 73.7221 97.0336 73.6856 96.693C73.6662 96.5116 73.6446 96.3099 73.5737 96.0007C73.3699 95.1112 73.0642 93.1345 73.0642 90.8612V90.367C72.9283 89.9717 72.5342 88.7264 72.045 86.9078C71.9379 86.3364 71.8306 86.1472 71.7529 86.0102C71.6827 85.8866 71.6367 85.8054 71.6367 85.5241C71.6367 85.2353 71.5402 85.0169 71.4295 84.7661C71.3127 84.5018 71.1801 84.2015 71.1278 83.745C71.0947 83.4561 71.0508 83.2402 71.0065 83.0227C70.9145 82.5707 70.8212 82.1121 70.8212 80.9776V78.5067V76.2335C70.8212 75.8932 70.689 75.6444 70.5384 75.361C70.3393 74.9861 70.108 74.5506 70.108 73.7626V72.3789V70.0068C70.108 68.9196 69.9048 67.6348 69.2934 65.7569C69.0809 65.1902 69.1453 64.7041 69.2268 64.0887C69.3016 63.5233 69.3909 62.8488 69.2934 61.9023C69.1754 60.7582 68.9891 60.4418 68.7149 59.9759C68.5152 59.6368 68.269 59.2185 67.9685 58.3442C67.4954 56.9679 67.4705 56.5911 67.4182 55.8019C67.3917 55.4009 67.3581 54.8934 67.2551 54.0942C67.0462 52.4741 67.0276 52.3755 66.9393 51.9089C66.8984 51.6924 66.8424 51.3966 66.7455 50.8326C66.5471 49.6784 66.5204 49.6891 66.4147 49.731C66.3575 49.7536 66.2772 49.7855 66.134 49.6467C65.8259 49.3478 65.6924 48.7101 65.4255 47.4347C65.3394 47.0229 65.2393 46.5445 65.1149 45.9897C65.0199 45.5658 64.9461 45.2416 64.887 44.9818C64.7782 44.5036 64.7191 44.2436 64.6684 43.9821C64.608 43.6705 64.5596 43.3568 64.4535 42.6693C64.4375 42.566 64.4203 42.4542 64.4015 42.3328C64.1882 40.9539 64.0741 40.4887 63.9208 39.8638C63.8544 39.5929 63.7805 39.2919 63.6881 38.8735C63.5352 38.1816 63.4588 38.0087 63.3823 37.8357C63.3059 37.6627 63.2295 37.4898 63.0766 36.7979C62.8258 35.6631 62.5065 35.2596 62.1187 34.7694C62.0336 34.6619 61.9453 34.5503 61.8536 34.4259C61.577 34.0503 61.4205 33.7039 61.2701 33.3708C61.1433 33.0902 61.0209 32.8191 60.8345 32.548C60.6031 32.2114 60.5687 32.0022 60.5077 31.6313C60.4612 31.3486 60.3993 30.972 60.223 30.3736C60.0092 29.6477 60.0758 29.2211 60.158 28.6941C60.2325 28.2165 60.3199 27.6565 60.223 26.7167C60.0659 25.1931 59.7272 25.431 59.3934 25.6654C59.2942 25.7351 59.1954 25.8045 59.1019 25.8272C58.846 25.8892 58.7105 26.1072 58.5695 26.3342C58.4859 26.4687 58.4004 26.6064 58.2866 26.7167C57.9809 27.0132 57.879 28.1992 57.879 29.4841C57.879 29.9961 57.9113 30.2884 57.9374 30.5235C57.9767 30.8785 58.0016 31.1034 57.879 31.7573C57.7402 32.4977 57.6959 32.5964 57.6174 32.7713C57.5806 32.8532 57.5363 32.9519 57.4713 33.141C57.2675 33.7341 57.1656 34.0306 56.7579 35.1178C56.4967 35.8145 56.5703 36.1865 56.6568 36.624C56.7054 36.8692 56.7579 37.1349 56.7579 37.4898C56.7579 37.8611 56.7867 38.0929 56.8118 38.2953C56.8535 38.6316 56.8852 38.8866 56.7579 39.5654C56.7033 39.8567 56.6487 40.1054 56.598 40.3363C56.4595 40.9671 56.3503 41.4645 56.3503 42.3328V45.2979V47.1758V49.6467C56.3503 50.1045 56.1883 51.3741 56.031 52.6063C55.8828 53.7681 55.7388 54.8966 55.7388 55.2803V57.5535C55.7388 58.1771 55.5732 58.5598 55.1674 59.4977C55.123 59.6004 55.0757 59.7097 55.0254 59.8268C54.7289 60.5169 54.7774 60.6047 54.8699 60.7716C54.9363 60.8916 55.0254 61.0524 55.0254 61.507V64.4721V66.8441C55.0254 67.5186 54.9595 67.6497 54.8651 67.8373C54.7935 67.9795 54.7056 68.1543 54.6177 68.6232C54.5953 68.743 54.5753 68.8521 54.5568 68.9528L54.5567 68.9532C54.4077 69.766 54.3577 70.0389 53.9043 71.0941C53.5707 71.8706 53.674 72.3506 53.785 72.8668C53.8436 73.1391 53.9043 73.4214 53.9043 73.7626C53.9043 74.1128 53.9171 74.3389 53.9291 74.5508C53.951 74.937 53.9701 75.2762 53.9043 76.2335C53.8505 77.0171 53.7966 77.4969 53.7277 78.1108C53.6662 78.6585 53.5928 79.3128 53.4967 80.3847C53.4437 80.975 53.4046 81.452 53.372 81.8486C53.2791 82.9792 53.2399 83.4562 53.089 84.0416C52.9379 84.6278 52.7308 84.8337 52.1769 85.3844C51.9837 85.5764 51.7483 85.8104 51.4584 86.1171C50.8052 86.8082 50.9132 86.8617 51.0364 86.9229C51.1247 86.9667 51.2209 87.0144 51.0507 87.3032C50.7284 87.8502 50.9158 90.1277 51.0084 91.2524C51.0329 91.55 51.0507 91.7669 51.0507 91.8496C51.0507 92.245 51.0507 92.7392 51.4584 94.9135C51.4584 95.4077 51.3565 95.9513 51.2546 96.4949C51.1527 97.0385 51.0507 97.5821 51.0507 98.0763V100.053C51.0507 100.591 51.0686 100.886 51.0819 101.106C51.1004 101.411 51.11 101.57 51.0507 102.03C51.0057 102.379 50.9409 102.612 50.8562 102.917C50.749 103.303 50.61 103.803 50.4393 104.797C50.3722 105.187 50.3101 105.52 50.2539 105.821C50.0539 106.893 49.9297 107.559 49.9297 108.948V113.001V116.361V120.809V121.896C50.5751 122.061 51.968 122.449 52.3756 122.686C52.8852 122.983 54.8216 122.983 55.7388 122.983H58.5924C59.2152 122.983 59.6745 123.026 60.0668 123.063C60.7015 123.123 61.1608 123.166 61.8536 122.983C62.5169 122.808 62.7878 122.944 63.0672 123.084C63.2601 123.181 63.457 123.279 63.7898 123.279C64.442 123.279 64.3333 123.807 64.1975 124.07V124.96C64.1975 125.256 64.1975 125.75 63.7898 127.035C63.7898 127.431 64.0616 127.464 64.1975 127.431C64.4693 127.464 65.1148 127.51 65.5222 127.431C66.0314 127.332 66.8474 126.936 66.8474 126.541C66.8474 126.371 66.7341 126.256 66.605 126.124C66.4343 125.951 66.2359 125.749 66.2359 125.355V123.279C66.2359 122.709 66.4045 122.465 66.5646 122.233C66.7095 122.024 66.8474 121.824 66.8474 121.402C66.8474 120.962 66.8474 120.764 66.872 120.569C66.8922 120.408 66.929 120.25 66.996 119.961C67.0125 119.889 67.0309 119.81 67.0512 119.721C67.2143 119.01 66.9833 119.227 66.8474 119.425L66.2359 118.338C65.998 118.502 65.2573 118.95 64.1975 119.425C63.3632 119.798 63.2564 119.741 63.037 119.622C62.9081 119.552 62.7402 119.461 62.3629 119.425C61.3436 119.326 60.8345 119.227 61.2419 117.646C62.1324 116.782 62.3226 116.522 63.037 115.546L63.0379 115.545C63.1406 115.405 63.2542 115.25 63.3822 115.076C64.0121 114.221 64.0191 114.159 64.0288 114.072C64.0348 114.019 64.0418 113.957 64.1975 113.692C64.5236 113.139 65.2165 112.605 65.5222 112.408H62.3629C61.4423 112.408 61.4551 112.366 61.5801 111.966C61.6489 111.745 61.7516 111.416 61.7516 110.925C61.7516 110.084 61.7516 109.754 61.8887 109.492C61.9773 109.322 62.123 109.181 62.3629 108.948C62.852 108.474 63.2462 108.026 63.3822 107.861C63.0424 107.861 62.1387 107.723 61.2419 107.169C60.436 106.672 60.6834 106.481 60.9619 106.266C61.0709 106.182 61.1846 106.094 61.2419 105.983C61.3131 105.845 61.4713 105.803 61.6471 105.757C61.9745 105.671 62.3629 105.569 62.3629 104.797C62.3276 104.74 62.2937 104.687 62.2611 104.636C62.0115 104.245 61.8417 103.98 61.7516 103.018C61.6497 101.931 62.7707 101.041 63.3822 100.646C63.8905 100.317 63.8354 101.218 63.8024 101.759C63.7956 101.868 63.7898 101.963 63.7898 102.03C63.7898 102.319 63.8991 102.503 64.0376 102.735C64.0883 102.82 64.1429 102.912 64.1975 103.018C64.2628 103.145 64.3281 103.241 64.4168 103.372C64.6051 103.649 64.8989 104.082 65.5222 105.291C65.779 105.727 65.7121 105.849 65.6276 106.004C65.5779 106.094 65.5222 106.196 65.5222 106.379V107.861C65.5222 108.128 65.4989 108.407 65.4759 108.682C65.431 109.219 65.3873 109.742 65.5222 110.134C65.6853 110.609 67.9681 111.386 69.0892 111.716C68.9192 111.32 68.5793 110.332 68.5793 109.541C68.5793 108.636 68.2372 108.311 67.8663 107.959C67.8324 107.927 67.7982 107.894 67.764 107.861C67.4828 107.588 67.5894 106.799 67.6827 106.108C67.7247 105.797 67.764 105.506 67.764 105.291C67.764 104.744 68.0827 104.073 68.3672 103.474L68.3673 103.474C68.4425 103.316 68.5154 103.163 68.5793 103.018C68.8215 102.47 69.3837 102.108 69.8095 101.834C69.9211 101.762 70.0233 101.696 70.108 101.634C70.4341 101.397 71.263 99.6247 71.6367 98.7682C71.9763 101.14 72.2887 106.28 70.8212 107.861ZM67.764 77.0242C67.7302 77.123 67.5812 77.3405 67.2551 77.4195C66.8474 77.5184 65.5222 77.8149 65.5222 77.4195C65.5222 77.1982 65.3627 76.946 65.1507 76.6108C64.984 76.3471 64.7848 76.0321 64.6053 75.6405C64.3445 75.0715 64.4173 74.7857 64.5037 74.4466C64.5523 74.2556 64.6053 74.0476 64.6053 73.7626C64.6053 73.4871 64.6177 73.3075 64.6295 73.1362C64.6516 72.8158 64.6717 72.5241 64.6053 71.687C64.5498 70.9868 64.4336 70.492 64.3395 70.0908C64.2608 69.7558 64.1975 69.4859 64.1975 69.2161V67.7336C64.1975 66.8441 63.5864 66.0533 62.9747 66.4487C62.8454 66.5323 62.7252 66.5982 62.6151 66.6586C62.2044 66.8838 61.9341 67.0321 61.8536 67.7336C61.8083 68.129 61.6824 68.2119 61.5565 68.2949C61.3992 68.3986 61.2419 68.5023 61.2419 69.2161C61.2419 69.7644 61.1491 70.0787 61.0822 70.305C60.9925 70.609 60.9497 70.7541 61.2419 71.0941C61.6496 71.5684 62.1591 71.2917 62.3629 71.0941H62.9747V71.687C62.9747 71.9177 62.9294 72.1483 62.8841 72.3789C62.7936 72.8402 62.703 73.3014 62.9747 73.7626C63.1784 74.1086 63.1785 74.2321 63.1785 74.3927C63.1785 74.5533 63.1786 74.7509 63.3823 75.2451C63.5181 75.5745 63.6087 75.838 63.6841 76.0577C63.8351 76.497 63.9256 76.7606 64.1975 77.0242C64.3606 77.1823 64.3118 77.3089 64.2531 77.4607C64.1652 77.6884 64.0552 77.9731 64.6053 78.5067C64.6053 79.2858 64.6755 79.7587 64.7285 80.1159C64.8033 80.6197 64.8439 80.8935 64.6053 81.4718C64.4729 81.7926 64.3835 81.9572 64.3092 82.094C64.1546 82.3788 64.0652 82.5434 63.7898 83.745C63.5711 84.6998 63.3523 85.0852 63.1966 85.3597C63.0622 85.5966 62.9747 85.7508 62.9747 86.1171C62.9747 86.38 62.9747 86.5009 63.0346 86.5778C63.0856 86.6432 63.18 86.6768 63.3548 86.7391C63.5923 86.8237 63.9782 86.9611 64.6053 87.3032C65.0929 87.5692 65.4712 87.8175 65.7782 88.019C66.498 88.4915 66.8264 88.7072 67.2551 88.2915C67.4358 88.1162 67.6254 88.0618 67.8028 88.0109C68.2256 87.8896 68.5793 87.7881 68.5793 86.1171V82.2625C68.5793 81.7142 68.7277 81.5079 68.8346 81.3594C68.9782 81.1598 69.0467 81.0646 68.5793 80.3847C68.3113 79.9948 68.0433 79.7118 67.8333 79.4899C67.4042 79.0366 67.2166 78.8385 67.764 78.5067C68.4162 78.1114 68.0357 77.3536 67.764 77.0242ZM59.5263 37.4672C59.405 36.867 59.391 36.7979 59.3058 36.7979C59.6455 36.7979 60.4268 36.9363 60.8345 37.4898C60.914 37.5978 60.9787 37.6818 61.0335 37.7529C61.3296 38.1373 61.3374 38.1475 61.8536 39.5654C62.1871 40.4813 62.3084 40.7217 62.3827 40.9751C62.4448 41.1864 62.4742 41.4068 62.567 42.0362C62.631 42.4698 62.6949 42.8064 62.7525 43.1097C62.8787 43.7745 62.9747 44.2799 62.9747 45.2979C62.9747 46.0563 63.0813 46.2198 63.2401 46.4632C63.3917 46.6956 63.5908 47.0008 63.7898 47.9664C63.9246 48.6201 64.0371 49.09 64.1347 49.4977C64.3323 50.323 64.4689 50.8933 64.6053 52.2163C64.7342 53.4667 64.9039 53.6493 65.0113 53.7648C65.0736 53.8319 65.1149 53.8763 65.1149 54.0942C65.1149 54.6872 64.1975 54.0942 64.1975 53.5012C64.1975 53.199 64.0917 53.0508 63.9744 52.8866C63.8615 52.7286 63.738 52.5557 63.6881 52.2163C63.6468 51.9359 63.5386 51.6555 63.4176 51.3422C63.2401 50.8825 63.0353 50.3519 62.9747 49.6467C62.9158 48.9609 62.5502 48.7047 62.2522 48.4959C62.0349 48.3436 61.8536 48.2165 61.8536 47.9664C61.8536 47.3734 61.8536 47.1758 61.2419 45.2979C60.8571 44.1166 60.7952 44.1086 60.6754 44.093C60.6047 44.0838 60.514 44.0719 60.3249 43.8153C59.9173 43.2618 59.6795 43.1234 59.6115 43.1234V40.6525C59.6115 39.9659 59.6456 39.5434 59.6719 39.2163C59.71 38.743 59.7321 38.4696 59.6115 37.8851C59.5781 37.723 59.5502 37.5849 59.5263 37.4672Z" fill="#3C5633"/>
<path d="M70.8212 121.896C70.2097 117.876 69.3536 109.442 70.8212 107.861C72.2887 106.28 71.9763 101.14 71.6367 98.7682C71.263 99.6247 70.4341 101.397 70.108 101.634C70.0233 101.696 69.9211 101.762 69.8095 101.834C69.3837 102.108 68.8215 102.47 68.5793 103.018C68.5154 103.163 68.4425 103.316 68.3673 103.474L68.3672 103.474C68.0827 104.073 67.764 104.744 67.764 105.291C67.764 105.506 67.7247 105.797 67.6827 106.108C67.5894 106.799 67.4828 107.588 67.764 107.861C67.7982 107.894 67.8324 107.927 67.8663 107.959C68.2372 108.311 68.5793 108.636 68.5793 109.541C68.5793 110.332 68.9192 111.32 69.0892 111.716C67.9681 111.386 65.6853 110.609 65.5222 110.134C65.3873 109.742 65.431 109.219 65.4759 108.682C65.4989 108.407 65.5222 108.128 65.5222 107.861M70.8212 121.896C70.9234 121.896 71.2296 121.896 71.6367 121.896M70.8212 121.896H71.6367M65.5222 107.861C65.5222 107.07 65.5222 106.873 65.5222 106.379M65.5222 107.861V106.379M65.5222 106.379C65.5222 106.196 65.5779 106.094 65.6276 106.004C65.7121 105.849 65.779 105.727 65.5222 105.291C64.8989 104.082 64.6051 103.649 64.4168 103.372C64.3281 103.241 64.2628 103.145 64.1975 103.018C64.1429 102.912 64.0883 102.82 64.0376 102.735C63.8991 102.503 63.7898 102.319 63.7898 102.03C63.7898 101.963 63.7956 101.868 63.8024 101.759C63.8354 101.218 63.8905 100.317 63.3822 100.646C62.7707 101.041 61.6497 101.931 61.7516 103.018C61.8417 103.98 62.0115 104.245 62.2611 104.636C62.2937 104.687 62.3276 104.74 62.3629 104.797C62.3629 105.569 61.9745 105.671 61.6471 105.757C61.4713 105.803 61.3131 105.845 61.2419 105.983C61.1846 106.094 61.0709 106.182 60.9619 106.266C60.6834 106.481 60.436 106.672 61.2419 107.169C62.1387 107.723 63.0424 107.861 63.3822 107.861C63.2462 108.026 62.852 108.474 62.3629 108.948C62.123 109.181 61.9773 109.322 61.8887 109.492C61.7516 109.754 61.7516 110.084 61.7516 110.925C61.7516 111.416 61.6489 111.745 61.5801 111.966C61.4551 112.366 61.4423 112.408 62.3629 112.408M62.3629 112.408C63.5045 112.408 64.9448 112.408 65.5222 112.408M62.3629 112.408H65.5222M65.5222 112.408C65.2165 112.605 64.5236 113.139 64.1975 113.692C64.0418 113.957 64.0348 114.019 64.0288 114.072C64.0191 114.159 64.0121 114.221 63.3822 115.076C63.2542 115.25 63.1406 115.405 63.0379 115.545M66.2359 123.279C66.2359 124.367 66.2359 124.663 66.2359 125.355M66.2359 123.279V125.355M66.2359 123.279C66.2359 122.709 66.4045 122.465 66.5646 122.233C66.7095 122.024 66.8474 121.824 66.8474 121.402C66.8474 120.962 66.8474 120.764 66.872 120.569C66.8922 120.408 66.929 120.25 66.996 119.961C67.0125 119.889 67.0309 119.81 67.0512 119.721C67.2143 119.01 66.9833 119.227 66.8474 119.425L66.2359 118.338C65.998 118.502 65.2573 118.95 64.1975 119.425C63.3632 119.798 63.2564 119.741 63.037 119.622C62.9081 119.552 62.7402 119.461 62.3629 119.425C61.3436 119.326 60.8345 119.227 61.2419 117.646C62.1324 116.782 62.3226 116.522 63.037 115.546M66.2359 125.355C66.2359 125.749 66.4343 125.951 66.605 126.124C66.7341 126.256 66.8474 126.371 66.8474 126.541C66.8474 126.936 66.0314 127.332 65.5222 127.431C65.1148 127.51 64.4693 127.464 64.1975 127.431C64.0616 127.464 63.7898 127.431 63.7898 127.035C64.1975 125.75 64.1975 125.256 64.1975 124.96M64.1975 124.96C64.1975 124.722 64.1975 124.268 64.1975 124.07M64.1975 124.96V124.07M64.1975 124.07C64.3333 123.807 64.442 123.279 63.7898 123.279C63.457 123.279 63.2601 123.181 63.0672 123.084C62.7878 122.944 62.5169 122.808 61.8536 122.983C61.1608 123.166 60.7015 123.123 60.0668 123.063C59.6745 123.026 59.2152 122.983 58.5924 122.983M58.5924 122.983C56.9618 122.983 56.656 122.983 55.7388 122.983M58.5924 122.983H55.7388M55.7388 122.983C54.8216 122.983 52.8852 122.983 52.3756 122.686C51.968 122.449 50.5751 122.061 49.9297 121.896M49.9297 121.896C49.9297 122.225 49.9297 122.469 49.9297 120.809M49.9297 121.896V120.809M49.9297 120.809C49.9297 118.733 49.9297 117.646 49.9297 116.361M49.9297 120.809V116.361M49.9297 116.361C49.9297 115.076 49.9297 115.076 49.9297 113.001M49.9297 116.361V113.001M49.9297 113.001C49.9297 110.925 49.9297 110.727 49.9297 108.948M49.9297 113.001V108.948M49.9297 108.948C49.9297 107.559 50.0539 106.893 50.2539 105.821C50.3101 105.52 50.3722 105.187 50.4393 104.797C50.61 103.803 50.749 103.303 50.8562 102.917C50.9409 102.612 51.0057 102.379 51.0507 102.03C51.11 101.57 51.1004 101.411 51.0819 101.106C51.0686 100.886 51.0507 100.591 51.0507 100.053M51.0507 100.053C51.0507 98.7682 51.0507 99.0647 51.0507 98.0763M51.0507 100.053V98.0763M51.0507 98.0763C51.0507 97.5821 51.1527 97.0385 51.2546 96.4949C51.3565 95.9513 51.4584 95.4077 51.4584 94.9135C51.0507 92.7392 51.0507 92.245 51.0507 91.8496C51.0507 91.7669 51.0329 91.55 51.0084 91.2524C50.9158 90.1277 50.7284 87.8502 51.0507 87.3032C51.2209 87.0144 51.1247 86.9667 51.0364 86.9229C50.9132 86.8617 50.8052 86.8082 51.4584 86.1171C51.7483 85.8104 51.9837 85.5764 52.1769 85.3844C52.7308 84.8337 52.9379 84.6278 53.089 84.0416C53.2399 83.4562 53.2791 82.9792 53.372 81.8486C53.4046 81.452 53.4437 80.975 53.4967 80.3847C53.5928 79.3128 53.6662 78.6585 53.7277 78.1108C53.7966 77.4969 53.8505 77.0171 53.9043 76.2335C53.9701 75.2762 53.951 74.937 53.9291 74.5508C53.9171 74.3389 53.9043 74.1128 53.9043 73.7626C53.9043 73.4214 53.8436 73.1391 53.785 72.8668C53.674 72.3506 53.5707 71.8706 53.9043 71.0941C54.3577 70.0389 54.4077 69.766 54.5567 68.9532L54.5568 68.9528C54.5753 68.8521 54.5953 68.743 54.6177 68.6232C54.7056 68.1543 54.7935 67.9795 54.8651 67.8373C54.9595 67.6497 55.0254 67.5186 55.0254 66.8441M55.0254 66.8441C55.0254 65.6581 55.0254 65.8558 55.0254 64.4721M55.0254 66.8441V64.4721M55.0254 64.4721C55.0254 63.0883 55.0254 62.5942 55.0254 61.507M55.0254 64.4721V61.507M55.0254 61.507C55.0254 61.0524 54.9363 60.8916 54.8699 60.7716C54.7774 60.6047 54.7289 60.5169 55.0254 59.8268C55.0757 59.7097 55.123 59.6004 55.1674 59.4977C55.5732 58.5598 55.7388 58.1771 55.7388 57.5535M55.7388 57.5535C55.7388 56.8617 55.7388 56.071 55.7388 55.2803M55.7388 57.5535V55.2803M55.7388 55.2803C55.7388 54.8966 55.8828 53.7681 56.031 52.6063C56.1883 51.3741 56.3503 50.1045 56.3503 49.6467M56.3503 49.6467C56.3503 48.7571 56.3503 48.0653 56.3503 47.1758M56.3503 49.6467V47.1758M56.3503 47.1758C56.3503 46.2862 56.3503 46.9781 56.3503 45.2979M56.3503 47.1758V45.2979M56.3503 45.2979C56.3503 43.6177 56.3503 43.5188 56.3503 42.3328M56.3503 45.2979V42.3328M56.3503 42.3328C56.3503 41.4645 56.4595 40.9671 56.598 40.3363C56.6487 40.1054 56.7033 39.8567 56.7579 39.5654C56.8852 38.8866 56.8535 38.6316 56.8118 38.2953C56.7867 38.0929 56.7579 37.8611 56.7579 37.4898C56.7579 37.1349 56.7054 36.8692 56.6568 36.624C56.5703 36.1865 56.4967 35.8145 56.7579 35.1178C57.1656 34.0306 57.2675 33.7341 57.4713 33.141C57.5363 32.9519 57.5806 32.8532 57.6174 32.7713C57.6959 32.5964 57.7402 32.4977 57.879 31.7573C58.0016 31.1034 57.9767 30.8785 57.9374 30.5235C57.9113 30.2884 57.879 29.9961 57.879 29.4841C57.879 28.1992 57.9809 27.0132 58.2866 26.7167C58.4004 26.6064 58.4859 26.4687 58.5695 26.3342C58.7105 26.1072 58.846 25.8892 59.1019 25.8272C59.1954 25.8045 59.2942 25.7351 59.3934 25.6654C59.7272 25.431 60.0659 25.1931 60.223 26.7167C60.3199 27.6565 60.2325 28.2165 60.158 28.6941C60.0758 29.2211 60.0092 29.6477 60.223 30.3736C60.3993 30.972 60.4612 31.3486 60.5077 31.6313C60.5687 32.0022 60.6031 32.2114 60.8345 32.548C61.0209 32.8191 61.1433 33.0902 61.2701 33.3708C61.4205 33.7039 61.577 34.0503 61.8536 34.4259C61.9453 34.5503 62.0336 34.6619 62.1187 34.7694C62.5065 35.2596 62.8258 35.6631 63.0766 36.7979C63.2295 37.4898 63.3059 37.6627 63.3823 37.8357C63.4588 38.0087 63.5352 38.1816 63.6881 38.8735C63.7805 39.2919 63.8544 39.5929 63.9208 39.8638C64.0741 40.4887 64.1882 40.9539 64.4015 42.3328C64.4203 42.4542 64.4375 42.566 64.4535 42.6693C64.5596 43.3568 64.608 43.6705 64.6684 43.9821C64.7191 44.2436 64.7782 44.5036 64.887 44.9818C64.9461 45.2416 65.0199 45.5658 65.1149 45.9897C65.2393 46.5445 65.3394 47.0229 65.4255 47.4347C65.6924 48.7101 65.8259 49.3478 66.134 49.6467C66.2772 49.7855 66.3575 49.7536 66.4147 49.731C66.5204 49.6891 66.5471 49.6784 66.7455 50.8326C66.8424 51.3966 66.8984 51.6924 66.9393 51.9089C67.0276 52.3755 67.0462 52.4741 67.2551 54.0942C67.3581 54.8934 67.3917 55.4009 67.4182 55.8019C67.4705 56.5911 67.4954 56.9679 67.9685 58.3442C68.269 59.2185 68.5152 59.6368 68.7149 59.9759C68.9891 60.4418 69.1754 60.7582 69.2934 61.9023C69.3909 62.8488 69.3016 63.5233 69.2268 64.0887C69.1453 64.7041 69.0809 65.1902 69.2934 65.7569C69.9048 67.6348 70.108 68.9196 70.108 70.0068M70.108 70.0068C70.108 71.0941 70.108 71.687 70.108 72.3789M70.108 70.0068V72.3789M70.108 72.3789C70.108 73.0707 70.108 72.379 70.108 73.7626M70.108 72.3789V73.7626M70.108 73.7626C70.108 74.5506 70.3393 74.9861 70.5384 75.361C70.689 75.6444 70.8212 75.8932 70.8212 76.2335M70.8212 76.2335C70.8212 77.0242 70.8212 77.0242 70.8212 78.5067M70.8212 76.2335V78.5067M70.8212 78.5067C70.8212 79.9893 70.8212 79.2974 70.8212 80.9776M70.8212 78.5067V80.9776M70.8212 80.9776C70.8212 82.1121 70.9145 82.5707 71.0065 83.0227C71.0508 83.2402 71.0947 83.4561 71.1278 83.745C71.1801 84.2015 71.3127 84.5018 71.4295 84.7661C71.5402 85.0169 71.6367 85.2353 71.6367 85.5241C71.6367 85.8054 71.6827 85.8866 71.7529 86.0102C71.8306 86.1472 71.9379 86.3364 72.045 86.9078C72.5342 88.7264 72.9283 89.9717 73.0642 90.367M73.0642 90.367C73.0642 89.774 73.0642 89.0426 73.0642 90.8612M73.0642 90.367V90.8612M73.0642 90.8612C73.0642 93.1345 73.3699 95.1112 73.5737 96.0007C73.6446 96.3099 73.6662 96.5116 73.6856 96.693C73.7221 97.0336 73.7509 97.3025 74.0833 98.0763C74.7967 100.646 74.8986 101.832 74.8986 102.425M74.8986 102.425C74.8986 103.018 74.8986 104.303 74.8986 104.797M74.8986 102.425V104.797M74.8986 104.797C74.8986 105.291 74.8986 105.588 74.8986 106.379M74.8986 104.797V106.379M74.8986 106.379C74.8986 107.169 74.8986 106.774 74.8986 107.861M74.8986 106.379V107.861M74.8986 107.861C74.8986 108.948 74.8986 108.553 74.8986 110.134M74.8986 107.861V110.134M74.8986 110.134C74.8986 110.813 74.8798 111.146 74.8665 111.383C74.8487 111.698 74.8405 111.844 74.8986 112.408C74.9429 112.837 74.9295 112.874 74.9085 112.934C74.8812 113.011 74.841 113.124 74.8986 114.187C74.9716 115.531 74.9401 116.116 74.9163 116.557C74.9068 116.732 74.8986 116.884 74.8986 117.053C74.2464 118.95 73.7436 119.623 73.5737 119.721C73.4039 119.82 73.0642 120.097 73.0642 120.413C72.5979 120.865 72.366 121.214 72.2029 121.459C72.0095 121.75 71.9128 121.896 71.6367 121.896M64.1975 69.2161C64.1975 68.6232 64.1975 68.6231 64.1975 67.7336M64.1975 69.2161V67.7336M64.1975 69.2161C64.1975 69.4859 64.2608 69.7558 64.3395 70.0908C64.4336 70.492 64.5498 70.9868 64.6053 71.687C64.6717 72.5241 64.6516 72.8158 64.6295 73.1362C64.6177 73.3075 64.6053 73.4871 64.6053 73.7626C64.6053 74.0476 64.5523 74.2556 64.5037 74.4466C64.4173 74.7857 64.3445 75.0715 64.6053 75.6405C64.7848 76.0321 64.984 76.3471 65.1507 76.6108C65.3627 76.946 65.5222 77.1982 65.5222 77.4195C65.5222 77.8149 66.8474 77.5184 67.2551 77.4195C67.5812 77.3405 67.7302 77.123 67.764 77.0242C68.0357 77.3536 68.4162 78.1114 67.764 78.5067C67.2166 78.8385 67.4042 79.0366 67.8333 79.4899C68.0433 79.7118 68.3113 79.9948 68.5793 80.3847C69.0467 81.0646 68.9782 81.1598 68.8346 81.3594C68.7277 81.5079 68.5793 81.7142 68.5793 82.2625M64.1975 67.7336C64.1975 66.8441 63.5864 66.0533 62.9747 66.4487C62.8454 66.5323 62.7252 66.5982 62.6151 66.6586C62.2044 66.8838 61.9341 67.0321 61.8536 67.7336C61.8083 68.129 61.6824 68.2119 61.5565 68.2949C61.3992 68.3986 61.2419 68.5023 61.2419 69.2161C61.2419 69.7644 61.1491 70.0787 61.0822 70.305C60.9925 70.609 60.9497 70.7541 61.2419 71.0941C61.6496 71.5684 62.1591 71.2917 62.3629 71.0941H62.9747M62.9747 71.0941C62.9747 71.0611 62.9747 71.1336 62.9747 71.687M62.9747 71.0941V71.687M62.9747 71.687C62.9747 71.9177 62.9294 72.1483 62.8841 72.3789C62.7936 72.8402 62.703 73.3014 62.9747 73.7626C63.1784 74.1086 63.1785 74.2321 63.1785 74.3927C63.1785 74.5533 63.1786 74.7509 63.3823 75.2451C63.5181 75.5745 63.6087 75.838 63.6841 76.0577C63.8351 76.497 63.9256 76.7606 64.1975 77.0242C64.3606 77.1823 64.3118 77.3089 64.2531 77.4607C64.1652 77.6884 64.0552 77.9731 64.6053 78.5067C64.6053 79.2858 64.6755 79.7587 64.7285 80.1159C64.8033 80.6197 64.8439 80.8935 64.6053 81.4718C64.4729 81.7926 64.3835 81.9572 64.3092 82.094C64.1546 82.3788 64.0652 82.5434 63.7898 83.745C63.5711 84.6998 63.3523 85.0852 63.1966 85.3597C63.0622 85.5966 62.9747 85.7508 62.9747 86.1171C62.9747 86.38 62.9747 86.5009 63.0346 86.5778C63.0856 86.6432 63.18 86.6768 63.3548 86.7391C63.5923 86.8237 63.9782 86.9611 64.6053 87.3032C65.0929 87.5692 65.4712 87.8175 65.7782 88.019C66.498 88.4915 66.8264 88.7072 67.2551 88.2915C67.4358 88.1162 67.6254 88.0618 67.8028 88.0109C68.2256 87.8896 68.5793 87.7881 68.5793 86.1171M68.5793 86.1171C68.5793 83.745 68.5793 83.5474 68.5793 82.2625M68.5793 86.1171V82.2625M59.6115 40.6525C59.6115 41.9967 59.6115 42.8599 59.6115 43.1234M59.6115 40.6525V43.1234M59.6115 40.6525C59.6115 39.9659 59.6456 39.5434 59.6719 39.2163C59.71 38.743 59.7321 38.4696 59.6115 37.8851C59.5781 37.723 59.5502 37.5849 59.5263 37.4672C59.405 36.867 59.391 36.7979 59.3058 36.7979C59.6455 36.7979 60.4268 36.9363 60.8345 37.4898C60.914 37.5978 60.9787 37.6818 61.0335 37.7529C61.3296 38.1373 61.3374 38.1475 61.8536 39.5654C62.1871 40.4813 62.3084 40.7217 62.3827 40.9751C62.4448 41.1864 62.4742 41.4068 62.567 42.0362C62.631 42.4698 62.6949 42.8064 62.7525 43.1097C62.8787 43.7745 62.9747 44.2799 62.9747 45.2979C62.9747 46.0563 63.0813 46.2198 63.2401 46.4632C63.3917 46.6956 63.5908 47.0008 63.7898 47.9664C63.9246 48.6201 64.0371 49.09 64.1347 49.4977C64.3323 50.323 64.4689 50.8933 64.6053 52.2163C64.7342 53.4667 64.9039 53.6493 65.0113 53.7648C65.0736 53.8319 65.1149 53.8763 65.1149 54.0942C65.1149 54.6872 64.1975 54.0942 64.1975 53.5012C64.1975 53.199 64.0917 53.0508 63.9744 52.8866C63.8615 52.7286 63.738 52.5557 63.6881 52.2163C63.6468 51.9359 63.5386 51.6555 63.4176 51.3422C63.2401 50.8825 63.0353 50.3519 62.9747 49.6467C62.9158 48.9609 62.5502 48.7047 62.2522 48.4959C62.0349 48.3436 61.8536 48.2165 61.8536 47.9664C61.8536 47.3734 61.8536 47.1758 61.2419 45.2979C60.8571 44.1166 60.7952 44.1086 60.6754 44.093C60.6047 44.0838 60.514 44.0719 60.3249 43.8153C59.9173 43.2618 59.6795 43.1234 59.6115 43.1234M63.037 115.546L63.0379 115.545M63.037 115.546C63.0373 115.546 63.0376 115.546 63.0379 115.545" stroke="#3C5633" stroke-width="0.962086"/>
<path d="M276.824 71.8497C276.957 70.8034 277.084 69.757 277.205 68.7105C278.294 59.2919 278.905 49.8667 279.038 40.4347C279.171 31.0027 278.826 21.5639 278.002 12.1185C277.911 11.069 277.813 10.0194 277.71 8.96973C277.577 10.0161 277.45 11.0625 277.329 12.109C276.24 21.5275 275.629 30.9528 275.496 40.3848C275.363 49.8168 275.708 59.2555 276.532 68.701C276.623 69.7505 276.721 70.8001 276.824 71.8497Z" fill="#584B21"/>
<path d="M276.824 71.8497C276.957 70.8034 277.084 69.757 277.205 68.7105C278.294 59.2919 278.905 49.8667 279.038 40.4347C279.171 31.0027 278.826 21.5639 278.002 12.1185C277.911 11.069 277.813 10.0194 277.71 8.96973C277.577 10.0161 277.45 11.0625 277.329 12.109C276.24 21.5275 275.629 30.9528 275.496 40.3848C275.363 49.8168 275.708 59.2555 276.532 68.701C276.623 69.7505 276.721 70.8001 276.824 71.8497Z" fill="#3C5633"/>
<path d="M289.857 74.9346C290.389 74.0241 290.916 73.1113 291.438 72.196C296.133 63.9588 300.39 55.5279 304.211 46.9032C308.031 38.2786 311.415 29.4603 314.361 20.4483C314.688 19.4469 315.01 18.4432 315.326 17.4371C314.794 18.3476 314.267 19.2604 313.745 20.1757C309.05 28.4129 304.792 36.8438 300.972 45.4685C297.151 54.0931 293.768 62.9114 290.822 71.9234C290.495 72.9248 290.173 73.9285 289.857 74.9346Z" fill="#584B21"/>
<path d="M289.857 74.9346C290.389 74.0241 290.916 73.1113 291.438 72.196C296.133 63.9588 300.39 55.5279 304.211 46.9032C308.031 38.2786 311.415 29.4603 314.361 20.4483C314.688 19.4469 315.01 18.4432 315.326 17.4371C314.794 18.3476 314.267 19.2604 313.745 20.1757C309.05 28.4129 304.792 36.8438 300.972 45.4685C297.151 54.0931 293.768 62.9114 290.822 71.9234C290.495 72.9248 290.173 73.9285 289.857 74.9346Z" fill="#3C5633"/>
<path d="M262.335 73.8965C261.802 72.986 261.275 72.0732 260.754 71.1579C256.059 62.9207 251.801 54.4898 247.98 45.8652C244.16 37.2405 240.777 28.4222 237.831 19.4102C237.503 18.4089 237.182 17.4051 236.865 16.399C237.397 17.3095 237.925 18.2223 238.446 19.1376C243.141 27.3748 247.399 35.8057 251.219 44.4304C255.04 53.055 258.423 61.8733 261.369 70.8853C261.696 71.8867 262.018 72.8904 262.335 73.8965Z" fill="#584B21"/>
<path d="M262.335 73.8965C261.802 72.986 261.275 72.0732 260.754 71.1579C256.059 62.9207 251.801 54.4898 247.98 45.8652C244.16 37.2405 240.777 28.4222 237.831 19.4102C237.503 18.4089 237.182 17.4051 236.865 16.399C237.397 17.3095 237.925 18.2223 238.446 19.1376C243.141 27.3748 247.399 35.8057 251.219 44.4304C255.04 53.055 258.423 61.8733 261.369 70.8853C261.696 71.8867 262.018 72.8904 262.335 73.8965Z" fill="#3C5633"/>
<path d="M301.635 82.4614C302.431 81.769 303.222 81.0726 304.009 80.3722C311.091 74.0687 317.822 67.4418 324.199 60.4916C330.577 53.5414 336.602 46.2678 342.275 38.6709C342.905 37.8268 343.531 36.9787 344.153 36.1266C343.357 36.8191 342.566 37.5155 341.779 38.2158C334.697 44.5194 327.967 51.1462 321.589 58.0965C315.211 65.0467 309.186 72.3202 303.513 79.9171C302.883 80.7612 302.257 81.6093 301.635 82.4614Z" fill="#584B21"/>
<path d="M301.635 82.4614C302.431 81.769 303.222 81.0726 304.009 80.3722C311.091 74.0687 317.822 67.4418 324.199 60.4916C330.577 53.5414 336.602 46.2678 342.275 38.6709C342.905 37.8268 343.531 36.9787 344.153 36.1266C343.357 36.8191 342.566 37.5155 341.779 38.2158C334.697 44.5194 327.967 51.1462 321.589 58.0965C315.211 65.0467 309.186 72.3202 303.513 79.9171C302.883 80.7612 302.257 81.6093 301.635 82.4614Z" fill="#3C5633"/>
<path d="M250.564 81.4214C249.768 80.729 248.977 80.0325 248.19 79.3322C241.108 73.0286 234.378 66.4018 228 59.4516C221.622 52.5013 215.597 45.2278 209.924 37.6309C209.294 36.7868 208.668 35.9387 208.046 35.0866C208.842 35.779 209.633 36.4754 210.42 37.1758C217.502 43.4793 224.232 50.1062 230.61 57.0564C236.988 64.0066 243.013 71.2802 248.686 78.8771C249.316 79.7212 249.942 80.5693 250.564 81.4214Z" fill="#584B21"/>
<path d="M250.564 81.4214C249.768 80.729 248.977 80.0325 248.19 79.3322C241.108 73.0286 234.378 66.4018 228 59.4516C221.622 52.5013 215.597 45.2278 209.924 37.6309C209.294 36.7868 208.668 35.9387 208.046 35.0866C208.842 35.779 209.633 36.4754 210.42 37.1758C217.502 43.4793 224.232 50.1062 230.61 57.0564C236.988 64.0066 243.013 71.2802 248.686 78.8771C249.316 79.7212 249.942 80.5693 250.564 81.4214Z" fill="#3C5633"/>
<path d="M314.013 91.773C314.986 91.3649 315.955 90.9516 316.922 90.5332C325.623 86.7672 334.091 82.5837 342.326 77.9828C350.561 73.3818 358.563 68.3634 366.331 62.9274C367.194 62.3234 368.054 61.7143 368.912 61.1C367.939 61.5081 366.969 61.9214 366.002 62.3398C357.301 66.1058 348.833 70.2893 340.598 74.8902C332.364 79.4912 324.362 84.5096 316.594 89.9456C315.731 90.5496 314.87 91.1587 314.013 91.773Z" fill="#584B21"/>
<path d="M314.013 91.773C314.986 91.3649 315.955 90.9516 316.922 90.5332C325.623 86.7672 334.091 82.5837 342.326 77.9828C350.561 73.3818 358.563 68.3634 366.331 62.9274C367.194 62.3234 368.054 61.7143 368.912 61.1C367.939 61.5081 366.969 61.9214 366.002 62.3398C357.301 66.1058 348.833 70.2893 340.598 74.8902C332.364 79.4912 324.362 84.5096 316.594 89.9456C315.731 90.5496 314.87 91.1587 314.013 91.773Z" fill="#3C5633"/>
<path d="M238.174 90.7349C237.202 90.3268 236.232 89.9135 235.265 89.4951C226.564 85.7291 218.096 81.5456 209.861 76.9447C201.626 72.3437 193.625 67.3253 185.857 61.8893C184.994 61.2854 184.133 60.6762 183.276 60.0619C184.249 60.47 185.218 60.8833 186.185 61.3018C194.886 65.0677 203.354 69.2512 211.589 73.8521C219.824 78.4531 227.825 83.4715 235.594 88.9075C236.457 89.5115 237.317 90.1206 238.174 90.7349Z" fill="#584B21"/>
<path d="M238.174 90.7349C237.202 90.3268 236.232 89.9135 235.265 89.4951C226.564 85.7291 218.096 81.5456 209.861 76.9447C201.626 72.3437 193.625 67.3253 185.857 61.8893C184.994 61.2854 184.133 60.6762 183.276 60.0619C184.249 60.47 185.218 60.8833 186.185 61.3018C194.886 65.0677 203.354 69.2512 211.589 73.8521C219.824 78.4531 227.825 83.4715 235.594 88.9075C236.457 89.5115 237.317 90.1206 238.174 90.7349Z" fill="#3C5633"/>
<path d="M315.803 105.108C316.858 105.084 317.911 105.054 318.964 105.018C328.44 104.695 337.851 103.898 347.198 102.627C356.545 101.356 365.828 99.6113 375.046 97.3927C376.07 97.1461 377.093 96.8938 378.116 96.6356C377.062 96.6598 376.008 96.6898 374.955 96.7257C365.479 97.0489 356.068 97.8459 346.721 99.1168C337.374 100.388 328.092 102.132 318.873 104.351C317.849 104.598 316.826 104.85 315.803 105.108Z" fill="#584B21"/>
<path d="M315.803 105.108C316.858 105.084 317.911 105.054 318.964 105.018C328.44 104.695 337.851 103.898 347.198 102.627C356.545 101.356 365.828 99.6113 375.046 97.3927C376.07 97.1461 377.093 96.8938 378.116 96.6356C377.062 96.6598 376.008 96.6898 374.955 96.7257C365.479 97.0489 356.068 97.8459 346.721 99.1168C337.374 100.388 328.092 102.132 318.873 104.351C317.849 104.598 316.826 104.85 315.803 105.108Z" fill="#3C5633"/>
<path d="M236.412 104.069C235.357 104.045 234.304 104.015 233.251 103.979C223.775 103.656 214.364 102.859 205.017 101.588C195.67 100.317 186.387 98.5723 177.169 96.3536C176.145 96.1071 175.121 95.8547 174.099 95.5965C175.153 95.6207 176.207 95.6508 177.26 95.6867C186.736 96.0098 196.147 96.8068 205.494 98.0777C214.841 99.3486 224.123 101.093 233.341 103.312C234.366 103.559 235.389 103.811 236.412 104.069Z" fill="#584B21"/>
<path d="M236.412 104.069C235.357 104.045 234.304 104.015 233.251 103.979C223.775 103.656 214.364 102.859 205.017 101.588C195.67 100.317 186.387 98.5723 177.169 96.3536C176.145 96.1071 175.121 95.8547 174.099 95.5965C175.153 95.6207 176.207 95.6508 177.26 95.6867C186.736 96.0098 196.147 96.8068 205.494 98.0777C214.841 99.3486 224.123 101.093 233.341 103.312C234.366 103.559 235.389 103.811 236.412 104.069Z" fill="#3C5633"/>
<path d="M-104 146.398C-104 146.398 -104 146.398 -104 146.398C-95.3951 144.324 -86.673 142.432 -77.9481 140.638C-38.0405 132.743 2.61606 125.63 42.9004 127.107C81.8404 129.214 120.138 138.227 157.947 148.407C186.288 155.941 214.317 164.914 243.435 170.748C293.909 179.075 344.683 181.145 395.387 183.529C404.287 183.893 413.312 184.226 422.067 184.48C413.339 183.755 404.344 182.974 395.474 182.186C345.04 177.404 294.062 173.607 244.673 164.558C216.308 158.364 188.253 149.138 159.795 141.567C121.797 131.338 82.8656 122.629 43.1301 121.408C1.69617 120.886 -38.6542 129.529 -78.2499 139.326C-86.8925 141.537 -95.5168 143.868 -104 146.398Z" fill="#584B21"/>
<path d="M-104 146.398C-104 146.398 -104 146.398 -104 146.398C-95.3951 144.324 -86.673 142.432 -77.9481 140.638C-38.0405 132.743 2.61606 125.63 42.9004 127.107C81.8404 129.214 120.138 138.227 157.947 148.407C186.288 155.941 214.317 164.914 243.435 170.748C293.909 179.075 344.683 181.145 395.387 183.529C404.287 183.893 413.312 184.226 422.067 184.48C413.339 183.755 404.344 182.974 395.474 182.186C345.04 177.404 294.062 173.607 244.673 164.558C216.308 158.364 188.253 149.138 159.795 141.567C121.797 131.338 82.8656 122.629 43.1301 121.408C1.69617 120.886 -38.6542 129.529 -78.2499 139.326C-86.8925 141.537 -95.5168 143.868 -104 146.398Z" fill="#3C5633"/>
<path d="M317.582 166.612C324.014 166.409 329.877 166.145 336.185 165.731C392.091 163.469 445.87 144.05 498.503 128.996C551.789 114.661 607.846 120.875 662.512 131.126C668.383 132.227 674.43 133.424 680.692 134.729C680.692 134.729 680.692 134.729 680.692 134.729C674.543 132.966 668.595 131.33 662.807 129.813C609.067 115.84 551.693 107.377 496.769 122.127C442.803 137.558 391.653 158.236 336.051 164.391C329.8 165.227 323.982 165.938 317.582 166.612Z" fill="#584B21"/>
<path d="M317.582 166.612C324.014 166.409 329.877 166.145 336.185 165.731C392.091 163.469 445.87 144.05 498.503 128.996C551.789 114.661 607.846 120.875 662.512 131.126C668.383 132.227 674.43 133.424 680.692 134.729C680.692 134.729 680.692 134.729 680.692 134.729C674.543 132.966 668.595 131.33 662.807 129.813C609.067 115.84 551.693 107.377 496.769 122.127C442.803 137.558 391.653 158.236 336.051 164.391C329.8 165.227 323.982 165.938 317.582 166.612Z" fill="#3C5633"/>
<path d="M127.152 118.783C133.231 117.996 139.367 117.313 145.484 116.703C159.75 115.33 174.098 114.148 188.243 114.551C218.713 114.729 246.503 130.868 278.429 131.963C289.046 132.554 299.684 132.023 310.146 130.432C352.456 123.741 389.655 101.319 431.669 104.747C445.106 105.465 458.633 107.413 472.066 109.496C478.158 110.46 484.209 111.474 490.262 112.584C484.311 111.013 478.344 109.558 472.322 108.175C459.024 105.163 445.641 102.389 431.952 100.937C388.87 95.2066 349.11 117.293 309.087 123.427C299.061 124.95 288.939 125.521 278.763 125.087C248.798 124.648 219.976 109.319 188.279 110.617C173.741 110.953 159.492 113.011 145.304 115.369C139.231 116.402 133.153 117.53 127.152 118.783Z" fill="#584B21"/>
<path d="M127.152 118.783C133.231 117.996 139.367 117.313 145.484 116.703C159.75 115.33 174.098 114.148 188.243 114.551C218.713 114.729 246.503 130.868 278.429 131.963C289.046 132.554 299.684 132.023 310.146 130.432C352.456 123.741 389.655 101.319 431.669 104.747C445.106 105.465 458.633 107.413 472.066 109.496C478.158 110.46 484.209 111.474 490.262 112.584C484.311 111.013 478.344 109.558 472.322 108.175C459.024 105.163 445.641 102.389 431.952 100.937C388.87 95.2066 349.11 117.293 309.087 123.427C299.061 124.95 288.939 125.521 278.763 125.087C248.798 124.648 219.976 109.319 188.279 110.617C173.741 110.953 159.492 113.011 145.304 115.369C139.231 116.402 133.153 117.53 127.152 118.783Z" fill="#3C5633"/>
<path d="M172.32 124.1C174.462 124.334 176.585 124.63 178.707 124.954C196.987 128.046 215.584 131.501 232.772 137.256C233.465 137.534 234.148 137.806 234.822 138.072C252.733 145.196 272.167 150.92 291.63 149.645C293.78 149.649 295.928 149.686 298.08 149.783C295.952 149.451 293.811 149.189 291.664 148.973C272.165 148.285 254.031 141.858 236.122 134.776C235.453 134.513 234.775 134.244 234.086 133.97C215.935 127.971 197.437 125.592 178.775 124.284C176.625 124.171 174.475 124.098 172.32 124.1Z" fill="#584B21"/>
<path d="M172.32 124.1C174.462 124.334 176.585 124.63 178.707 124.954C196.987 128.046 215.584 131.501 232.772 137.256C233.465 137.534 234.148 137.806 234.822 138.072C252.733 145.196 272.167 150.92 291.63 149.645C293.78 149.649 295.928 149.686 298.08 149.783C295.952 149.451 293.811 149.189 291.664 148.973C272.165 148.285 254.031 141.858 236.122 134.776C235.453 134.513 234.775 134.244 234.086 133.97C215.935 127.971 197.437 125.592 178.775 124.284C176.625 124.171 174.475 124.098 172.32 124.1Z" fill="#3C5633"/>
<path d="M274.173 80.7041C292.759 80.7043 307.826 95.7719 307.826 114.358C307.826 119.031 306.876 121.877 305.335 123.617C303.805 125.345 301.546 126.146 298.526 126.385C295.495 126.624 291.858 126.287 287.705 125.874C283.617 125.467 279.071 124.993 274.295 124.985C269.781 123.653 265.346 123.466 261.268 123.628C259.21 123.71 257.232 123.882 255.384 124.041C253.527 124.201 251.811 124.348 250.237 124.39C247.05 124.474 244.693 124.111 243.108 122.779C241.554 121.473 240.519 119.032 240.519 114.358C240.519 95.7718 255.586 80.7041 274.173 80.7041Z" fill="#584B21"/>
<path d="M274.173 80.7041C292.759 80.7043 307.826 95.7719 307.826 114.358C307.826 119.031 306.876 121.877 305.335 123.617C303.805 125.345 301.546 126.146 298.526 126.385C295.495 126.624 291.858 126.287 287.705 125.874C283.617 125.467 279.071 124.993 274.295 124.985C269.781 123.653 265.346 123.466 261.268 123.628C259.21 123.71 257.232 123.882 255.384 124.041C253.527 124.201 251.811 124.348 250.237 124.39C247.05 124.474 244.693 124.111 243.108 122.779C241.554 121.473 240.519 119.032 240.519 114.358C240.519 95.7718 255.586 80.7041 274.173 80.7041Z" fill="#3C5633"/>
<path d="M274.173 80.7041C292.759 80.7043 307.826 95.7719 307.826 114.358C307.826 119.031 306.876 121.877 305.335 123.617C303.805 125.345 301.546 126.146 298.526 126.385C295.495 126.624 291.858 126.287 287.705 125.874C283.617 125.467 279.071 124.993 274.295 124.985C269.781 123.653 265.346 123.466 261.268 123.628C259.21 123.71 257.232 123.882 255.384 124.041C253.527 124.201 251.811 124.348 250.237 124.39C247.05 124.474 244.693 124.111 243.108 122.779C241.554 121.473 240.519 119.032 240.519 114.358C240.519 95.7718 255.586 80.7041 274.173 80.7041Z" stroke="#584B21" stroke-width="1.77127"/>
<path d="M274.173 80.7041C292.759 80.7043 307.826 95.7719 307.826 114.358C307.826 119.031 306.876 121.877 305.335 123.617C303.805 125.345 301.546 126.146 298.526 126.385C295.495 126.624 291.858 126.287 287.705 125.874C283.617 125.467 279.071 124.993 274.295 124.985C269.781 123.653 265.346 123.466 261.268 123.628C259.21 123.71 257.232 123.882 255.384 124.041C253.527 124.201 251.811 124.348 250.237 124.39C247.05 124.474 244.693 124.111 243.108 122.779C241.554 121.473 240.519 119.032 240.519 114.358C240.519 95.7718 255.586 80.7041 274.173 80.7041Z" stroke="#3C5633" stroke-width="1.77127"/>
</svg>
