<svg width="685" height="249" viewBox="0 0 685 249" fill="none" xmlns="http://www.w3.org/2000/svg">
<path fill-rule="evenodd" clip-rule="evenodd" d="M230.024 64.7023C228.752 65.9445 229.494 72.5696 230.024 75.7269H230.731C230.97 75.7269 231.054 75.6127 231.222 75.3842C231.363 75.1915 231.564 74.9175 231.968 74.5623C231.968 74.3138 232.263 74.0965 232.41 74.0189C232.557 73.9412 232.993 73.4133 233.558 71.9226C233.558 71.7903 233.566 71.6705 233.574 71.533C233.594 71.1864 233.622 70.7272 233.558 69.6711C233.508 68.8365 233.543 68.7475 233.567 68.6869C233.585 68.6404 233.597 68.6108 233.558 68.2736C233.508 67.8306 233.515 67.7162 233.531 67.4688C233.542 67.2827 233.558 67.0213 233.558 66.488V64.7023V63.5377V62.2955V60.4321C233.558 59.9662 233.47 59.0347 232.852 57.0161C232.563 56.4083 232.539 56.197 232.507 55.9295C232.49 55.787 232.471 55.6285 232.41 55.3856C232.233 54.6869 231.968 53.1341 231.968 51.3484V50.9602C231.85 50.6497 231.509 49.6714 231.085 48.2429C230.992 47.794 230.899 47.6454 230.832 47.5378C230.771 47.4407 230.731 47.377 230.731 47.1559C230.731 46.9291 230.647 46.7575 230.551 46.5605C230.45 46.3529 230.335 46.117 230.29 45.7585C230.261 45.5315 230.223 45.3619 230.185 45.1911C230.105 44.836 230.024 44.4758 230.024 43.5846V41.6436V39.858C230.024 39.5906 229.909 39.3952 229.779 39.1725C229.606 38.878 229.406 38.536 229.406 37.917V36.83V34.9667C229.406 34.1127 229.23 33.1034 228.699 31.6283C228.515 31.1831 228.571 30.8013 228.642 30.3179C228.707 29.8737 228.784 29.3439 228.699 28.6004C228.597 27.7017 228.436 27.4531 228.198 27.0871C228.025 26.8208 227.812 26.4922 227.551 25.8054C227.141 24.7243 227.119 24.4283 227.074 23.8083C227.051 23.4933 227.022 23.0947 226.933 22.4669C226.752 21.1943 226.735 21.1168 226.659 20.7503C226.623 20.5802 226.575 20.3478 226.491 19.9049C226.319 18.9982 226.296 19.0065 226.204 19.0395C226.155 19.0573 226.085 19.0823 225.961 18.9732C225.694 18.7385 225.578 18.2376 225.347 17.2357C225.272 16.9122 225.185 16.5364 225.077 16.1006C224.995 15.7676 224.931 15.5129 224.88 15.3088C224.786 14.9332 224.734 14.729 224.69 14.5235C224.638 14.2788 224.596 14.0324 224.504 13.4923C224.49 13.4112 224.475 13.3234 224.459 13.228C224.274 12.1448 224.175 11.7794 224.042 11.2885C223.985 11.0757 223.921 10.8393 223.841 10.5106C223.708 9.96714 223.642 9.83127 223.576 9.6954C223.509 9.55954 223.443 9.42367 223.31 8.8802C223.093 7.98874 222.816 7.67177 222.48 7.28675C222.406 7.20232 222.33 7.11462 222.25 7.01688C222.011 6.72185 221.875 6.44973 221.744 6.18807C221.635 5.96769 221.528 5.75473 221.367 5.54175C221.166 5.27735 221.137 5.11302 221.084 4.82164C221.043 4.5996 220.99 4.30379 220.837 3.8337C220.651 3.26352 220.709 2.92837 220.78 2.51444C220.845 2.13927 220.921 1.69938 220.837 0.961117C220.701 -0.235716 220.407 -0.0488178 220.118 0.135305C220.032 0.190063 219.946 0.244575 219.865 0.262371C219.643 0.311126 219.526 0.482349 219.403 0.66068C219.331 0.766326 219.257 0.874467 219.158 0.961117C218.893 1.19403 218.805 2.12569 218.805 3.13499C218.805 3.53717 218.833 3.76677 218.856 3.95149C218.89 4.23035 218.911 4.40696 218.805 4.92068C218.685 5.50229 218.646 5.57978 218.578 5.71718C218.546 5.78153 218.508 5.85903 218.452 6.00762C218.275 6.47345 218.187 6.70636 217.833 7.56038C217.607 8.1077 217.67 8.39992 217.746 8.74358C217.788 8.93616 217.833 9.14489 217.833 9.42371C217.833 9.71537 217.858 9.89747 217.88 10.0564C217.916 10.3206 217.943 10.5209 217.833 11.0541C217.786 11.2829 217.738 11.4783 217.695 11.6597C217.574 12.1552 217.48 12.546 217.48 13.228V15.5571V17.0323V18.9732C217.48 19.3329 217.339 20.3302 217.203 21.2981C217.075 22.2107 216.95 23.0972 216.95 23.3986V25.1843C216.95 25.6741 216.806 25.9748 216.454 26.7115C216.416 26.7922 216.375 26.878 216.331 26.97C216.074 27.5121 216.116 27.5811 216.196 27.7122C216.254 27.8064 216.331 27.9328 216.331 28.2898V30.619V32.4823C216.331 33.0122 216.274 33.1151 216.192 33.2625C216.13 33.3742 216.054 33.5115 215.978 33.8798C215.958 33.974 215.941 34.0596 215.925 34.1388L215.925 34.139C215.796 34.7776 215.752 34.9919 215.359 35.8208C215.07 36.4308 215.16 36.8078 215.256 37.2133C215.307 37.4272 215.359 37.649 215.359 37.917C215.359 38.192 215.371 38.3696 215.381 38.5361C215.4 38.8395 215.417 39.1059 215.359 39.858C215.313 40.4735 215.266 40.8504 215.206 41.3326C215.153 41.7628 215.089 42.2768 215.006 43.1188C214.96 43.5825 214.926 43.9572 214.898 44.2688C214.818 45.1569 214.784 45.5316 214.653 45.9914C214.522 46.4519 214.342 46.6137 213.862 47.0462C213.695 47.1971 213.491 47.3809 213.239 47.6218C212.673 48.1646 212.767 48.2067 212.873 48.2547C212.95 48.2892 213.033 48.3266 212.886 48.5535C212.606 48.9832 212.769 50.7722 212.849 51.6557C212.87 51.8895 212.886 52.0599 212.886 52.1248C212.886 52.4354 212.886 52.8236 213.239 54.5316C213.239 54.9198 213.151 55.3468 213.063 55.7739C212.974 56.2009 212.886 56.6279 212.886 57.0161V58.5688C212.886 58.9915 212.901 59.2235 212.913 59.3961C212.929 59.6356 212.937 59.7606 212.886 60.1216C212.847 60.3958 212.791 60.5792 212.717 60.8188C212.624 61.1219 212.504 61.5149 212.356 62.2955C212.298 62.6018 212.244 62.8634 212.195 63.0999C212.022 63.942 211.914 64.4652 211.914 65.5563V68.7395V71.3792V74.8729V75.7269C212.474 75.8563 213.681 76.1617 214.034 76.348C214.476 76.5809 216.155 76.5809 216.95 76.5809H219.423C219.963 76.5809 220.361 76.6149 220.701 76.644C221.252 76.6909 221.65 76.7249 222.25 76.5809C222.825 76.4431 223.06 76.5499 223.302 76.6601C223.47 76.7362 223.64 76.8139 223.929 76.8139C224.494 76.8139 224.4 77.2279 224.282 77.435V78.1337C224.282 78.3666 224.282 78.7548 223.929 79.7641C223.929 80.0747 224.164 80.1006 224.282 80.0747C224.518 80.1006 225.077 80.1368 225.43 80.0747C225.872 79.997 226.579 79.6865 226.579 79.3759C226.579 79.2422 226.481 79.1517 226.369 79.0486C226.221 78.9122 226.049 78.7538 226.049 78.4443V76.8139C226.049 76.3654 226.195 76.1739 226.334 75.9919C226.46 75.8273 226.579 75.6706 226.579 75.3387C226.579 74.9936 226.579 74.8379 226.601 74.6844C226.618 74.5583 226.65 74.4337 226.708 74.2068C226.722 74.1509 226.738 74.0888 226.756 74.0189C226.897 73.4599 226.697 73.6307 226.579 73.786L226.049 72.9319C225.843 73.0613 225.201 73.4133 224.282 73.786C223.559 74.0794 223.466 74.034 223.276 73.9408C223.164 73.886 223.019 73.8147 222.692 73.786C221.808 73.7083 221.367 73.6307 221.72 72.3885C222.492 71.7099 222.657 71.5058 223.276 70.7394L223.277 70.7384C223.366 70.6282 223.464 70.5064 223.575 70.3699C224.121 69.6981 224.128 69.6491 224.136 69.5814C224.141 69.5395 224.147 69.4905 224.282 69.2829C224.565 68.8482 225.165 68.4289 225.43 68.2736H222.692C221.894 68.2736 221.905 68.2413 222.013 67.9265C222.073 67.7533 222.162 67.4947 222.162 67.1091C222.162 66.4486 222.162 66.1895 222.281 65.9833C222.358 65.8501 222.484 65.7391 222.692 65.5563C223.116 65.1836 223.458 64.8317 223.575 64.7023C223.281 64.7023 222.497 64.5936 221.72 64.1588C221.021 63.7681 221.236 63.6182 221.477 63.4494C221.572 63.3833 221.67 63.3144 221.72 63.2271C221.782 63.1187 221.919 63.086 222.071 63.0496C222.355 62.982 222.692 62.9017 222.692 62.2955C222.661 62.2507 222.632 62.209 222.604 62.1689C222.387 61.8621 222.24 61.6534 222.162 60.898C222.074 60.044 223.045 59.3452 223.575 59.0347C224.016 58.7765 223.968 59.4841 223.94 59.9086C223.934 59.9947 223.929 60.0692 223.929 60.1216C223.929 60.3489 224.023 60.4931 224.144 60.6758C224.187 60.7427 224.235 60.8148 224.282 60.898C224.339 60.9975 224.395 61.073 224.472 61.1757C224.635 61.3937 224.89 61.7338 225.43 62.6837C225.653 63.0262 225.595 63.122 225.522 63.2432C225.479 63.3143 225.43 63.3941 225.43 63.5377V64.7023C225.43 64.9123 225.41 65.1311 225.39 65.3469C225.351 65.7692 225.314 66.1796 225.43 66.488C225.572 66.8606 227.551 67.4714 228.523 67.7302C228.375 67.4196 228.08 66.6432 228.08 66.0221C228.08 65.3109 227.784 65.0557 227.462 64.7792C227.433 64.7538 227.403 64.7283 227.374 64.7023C227.13 64.4881 227.222 63.8678 227.303 63.3251C227.34 63.0809 227.374 62.8524 227.374 62.6837C227.374 62.2539 227.65 61.7269 227.897 61.2565L227.897 61.2563C227.962 61.132 228.025 61.0116 228.08 60.898C228.29 60.4674 228.778 60.183 229.147 59.9676C229.244 59.9111 229.332 59.8594 229.406 59.811C229.688 59.6247 230.407 58.2324 230.731 57.5595C231.025 59.4229 231.296 63.4601 230.024 64.7023ZM227.374 40.479C227.344 40.5567 227.215 40.7275 226.933 40.7896C226.579 40.8672 225.43 41.1001 225.43 40.7896C225.43 40.6158 225.292 40.4176 225.108 40.1543C224.964 39.9472 224.791 39.6997 224.636 39.3921C224.41 38.9452 224.473 38.7206 224.548 38.4543C224.59 38.3042 224.636 38.1409 224.636 37.917C224.636 37.7005 224.646 37.5595 224.657 37.4249C224.676 37.1733 224.693 36.9441 224.636 36.2866C224.588 35.7365 224.487 35.3479 224.405 35.0327C224.337 34.7695 224.282 34.5575 224.282 34.3456V33.181C224.282 32.4823 223.752 31.8611 223.222 32.1717C223.11 32.2374 223.006 32.2892 222.91 32.3366C222.554 32.5135 222.32 32.6299 222.25 33.181C222.211 33.4916 222.102 33.5568 221.993 33.622C221.856 33.7034 221.72 33.7849 221.72 34.3456C221.72 34.7763 221.64 35.0232 221.582 35.2009C221.504 35.4398 221.467 35.5537 221.72 35.8208C222.074 36.1934 222.515 35.976 222.692 35.8208H223.222V36.2866C223.222 36.4677 223.183 36.6489 223.144 36.83C223.065 37.1924 222.987 37.5547 223.222 37.917C223.399 38.1887 223.399 38.2858 223.399 38.4119C223.399 38.5381 223.399 38.6934 223.576 39.0815C223.693 39.3403 223.772 39.5473 223.837 39.7198C223.968 40.0649 224.046 40.272 224.282 40.479C224.424 40.6033 224.381 40.7027 224.33 40.822C224.254 41.0008 224.159 41.2244 224.636 41.6436C224.636 42.2556 224.696 42.6271 224.742 42.9077C224.807 43.3034 224.843 43.5185 224.636 43.9728C224.521 44.2248 224.443 44.3541 224.379 44.4616C224.245 44.6853 224.167 44.8145 223.929 45.7585C223.739 46.5084 223.55 46.8112 223.415 47.0268C223.298 47.2129 223.222 47.334 223.222 47.6218C223.222 47.8283 223.222 47.9233 223.274 47.9837C223.318 48.0351 223.4 48.0615 223.552 48.1104C223.757 48.1768 224.092 48.2848 224.636 48.5535C225.058 48.7624 225.386 48.9575 225.652 49.1158C226.276 49.487 226.561 49.6564 226.933 49.3298C227.089 49.1921 227.254 49.1494 227.407 49.1094C227.774 49.0141 228.08 48.9344 228.08 47.6218V44.5939C228.08 44.1632 228.209 44.0011 228.302 43.8845C228.426 43.7277 228.486 43.6529 228.08 43.1188C227.848 42.8126 227.616 42.5902 227.434 42.4159C227.062 42.0599 226.899 41.9042 227.374 41.6436C227.939 41.3331 227.609 40.7378 227.374 40.479ZM220.233 9.40591C220.128 8.93446 220.116 8.8802 220.042 8.8802C220.336 8.8802 221.014 8.9889 221.367 9.42371C221.436 9.50856 221.492 9.57449 221.539 9.63036C221.796 9.93231 221.803 9.9403 222.25 11.0541C222.539 11.7736 222.645 11.9625 222.709 12.1615C222.763 12.3275 222.788 12.5006 222.869 12.995C222.924 13.3356 222.98 13.6 223.03 13.8383C223.139 14.3605 223.222 14.7575 223.222 15.5571C223.222 16.1529 223.315 16.2813 223.452 16.4725C223.584 16.6551 223.756 16.8949 223.929 17.6533C224.046 18.1668 224.143 18.536 224.228 18.8563C224.399 19.5045 224.517 19.9525 224.636 20.9918C224.747 21.974 224.895 22.1175 224.988 22.2082C225.042 22.2609 225.077 22.2958 225.077 22.4669C225.077 22.9328 224.282 22.4669 224.282 22.0011C224.282 21.7637 224.19 21.6473 224.089 21.5183C223.991 21.3942 223.884 21.2583 223.841 20.9918C223.805 20.7715 223.711 20.5513 223.606 20.3051C223.452 19.944 223.275 19.5273 223.222 18.9732C223.171 18.4345 222.854 18.2333 222.596 18.0693C222.408 17.9496 222.25 17.8498 222.25 17.6533C222.25 17.1875 222.25 17.0323 221.72 15.5571C221.386 14.6293 221.333 14.6229 221.229 14.6107C221.168 14.6034 221.089 14.5941 220.925 14.3925C220.572 13.9578 220.366 13.8491 220.307 13.8491V11.9081C220.307 11.3687 220.336 11.0368 220.359 10.7799C220.392 10.4081 220.411 10.1933 220.307 9.73422C220.278 9.60691 220.254 9.49838 220.233 9.40591Z" fill="#D9D9D9"/>
<path fill-rule="evenodd" clip-rule="evenodd" d="M230.024 64.7023C228.752 65.9445 229.494 72.5696 230.024 75.7269H230.731C230.97 75.7269 231.054 75.6127 231.222 75.3842C231.363 75.1915 231.564 74.9175 231.968 74.5623C231.968 74.3138 232.263 74.0965 232.41 74.0189C232.557 73.9412 232.993 73.4133 233.558 71.9226C233.558 71.7903 233.566 71.6705 233.574 71.533C233.594 71.1864 233.622 70.7272 233.558 69.6711C233.508 68.8365 233.543 68.7475 233.567 68.6869C233.585 68.6404 233.597 68.6108 233.558 68.2736C233.508 67.8306 233.515 67.7162 233.531 67.4688C233.542 67.2827 233.558 67.0213 233.558 66.488V64.7023V63.5377V62.2955V60.4321C233.558 59.9662 233.47 59.0347 232.852 57.0161C232.563 56.4083 232.539 56.197 232.507 55.9295C232.49 55.787 232.471 55.6285 232.41 55.3856C232.233 54.6869 231.968 53.1341 231.968 51.3484V50.9602C231.85 50.6497 231.509 49.6714 231.085 48.2429C230.992 47.794 230.899 47.6454 230.832 47.5378C230.771 47.4407 230.731 47.377 230.731 47.1559C230.731 46.9291 230.647 46.7575 230.551 46.5605C230.45 46.3529 230.335 46.117 230.29 45.7585C230.261 45.5315 230.223 45.3619 230.185 45.1911C230.105 44.836 230.024 44.4758 230.024 43.5846V41.6436V39.858C230.024 39.5906 229.909 39.3952 229.779 39.1725C229.606 38.878 229.406 38.536 229.406 37.917V36.83V34.9667C229.406 34.1127 229.23 33.1034 228.699 31.6283C228.515 31.1831 228.571 30.8013 228.642 30.3179C228.707 29.8737 228.784 29.3439 228.699 28.6004C228.597 27.7017 228.436 27.4531 228.198 27.0871C228.025 26.8208 227.812 26.4922 227.551 25.8054C227.141 24.7243 227.119 24.4283 227.074 23.8083C227.051 23.4933 227.022 23.0947 226.933 22.4669C226.752 21.1943 226.735 21.1168 226.659 20.7503C226.623 20.5802 226.575 20.3478 226.491 19.9049C226.319 18.9982 226.296 19.0065 226.204 19.0395C226.155 19.0573 226.085 19.0823 225.961 18.9732C225.694 18.7385 225.578 18.2376 225.347 17.2357C225.272 16.9122 225.185 16.5364 225.077 16.1006C224.995 15.7676 224.931 15.5129 224.88 15.3088C224.786 14.9332 224.734 14.729 224.69 14.5235C224.638 14.2788 224.596 14.0324 224.504 13.4923C224.49 13.4112 224.475 13.3234 224.459 13.228C224.274 12.1448 224.175 11.7794 224.042 11.2885C223.985 11.0757 223.921 10.8393 223.841 10.5106C223.708 9.96714 223.642 9.83127 223.576 9.6954C223.509 9.55954 223.443 9.42367 223.31 8.8802C223.093 7.98874 222.816 7.67177 222.48 7.28675C222.406 7.20232 222.33 7.11462 222.25 7.01688C222.011 6.72185 221.875 6.44973 221.744 6.18807C221.635 5.96769 221.528 5.75473 221.367 5.54175C221.166 5.27735 221.137 5.11302 221.084 4.82164C221.043 4.5996 220.99 4.30379 220.837 3.8337C220.651 3.26352 220.709 2.92837 220.78 2.51444C220.845 2.13927 220.921 1.69938 220.837 0.961117C220.701 -0.235716 220.407 -0.0488178 220.118 0.135305C220.032 0.190063 219.946 0.244575 219.865 0.262371C219.643 0.311126 219.526 0.482349 219.403 0.66068C219.331 0.766326 219.257 0.874467 219.158 0.961117C218.893 1.19403 218.805 2.12569 218.805 3.13499C218.805 3.53717 218.833 3.76677 218.856 3.95149C218.89 4.23035 218.911 4.40696 218.805 4.92068C218.685 5.50229 218.646 5.57978 218.578 5.71718C218.546 5.78153 218.508 5.85903 218.452 6.00762C218.275 6.47345 218.187 6.70636 217.833 7.56038C217.607 8.1077 217.67 8.39992 217.746 8.74358C217.788 8.93616 217.833 9.14489 217.833 9.42371C217.833 9.71537 217.858 9.89747 217.88 10.0564C217.916 10.3206 217.943 10.5209 217.833 11.0541C217.786 11.2829 217.738 11.4783 217.695 11.6597C217.574 12.1552 217.48 12.546 217.48 13.228V15.5571V17.0323V18.9732C217.48 19.3329 217.339 20.3302 217.203 21.2981C217.075 22.2107 216.95 23.0972 216.95 23.3986V25.1843C216.95 25.6741 216.806 25.9748 216.454 26.7115C216.416 26.7922 216.375 26.878 216.331 26.97C216.074 27.5121 216.116 27.5811 216.196 27.7122C216.254 27.8064 216.331 27.9328 216.331 28.2898V30.619V32.4823C216.331 33.0122 216.274 33.1151 216.192 33.2625C216.13 33.3742 216.054 33.5115 215.978 33.8798C215.958 33.974 215.941 34.0596 215.925 34.1388L215.925 34.139C215.796 34.7776 215.752 34.9919 215.359 35.8208C215.07 36.4308 215.16 36.8078 215.256 37.2133C215.307 37.4272 215.359 37.649 215.359 37.917C215.359 38.192 215.371 38.3696 215.381 38.5361C215.4 38.8395 215.417 39.1059 215.359 39.858C215.313 40.4735 215.266 40.8504 215.206 41.3326C215.153 41.7628 215.089 42.2768 215.006 43.1188C214.96 43.5825 214.926 43.9572 214.898 44.2688C214.818 45.1569 214.784 45.5316 214.653 45.9914C214.522 46.4519 214.342 46.6137 213.862 47.0462C213.695 47.1971 213.491 47.3809 213.239 47.6218C212.673 48.1646 212.767 48.2067 212.873 48.2547C212.95 48.2892 213.033 48.3266 212.886 48.5535C212.606 48.9832 212.769 50.7722 212.849 51.6557C212.87 51.8895 212.886 52.0599 212.886 52.1248C212.886 52.4354 212.886 52.8236 213.239 54.5316C213.239 54.9198 213.151 55.3468 213.063 55.7739C212.974 56.2009 212.886 56.6279 212.886 57.0161V58.5688C212.886 58.9915 212.901 59.2235 212.913 59.3961C212.929 59.6356 212.937 59.7606 212.886 60.1216C212.847 60.3958 212.791 60.5792 212.717 60.8188C212.624 61.1219 212.504 61.5149 212.356 62.2955C212.298 62.6018 212.244 62.8634 212.195 63.0999C212.022 63.942 211.914 64.4652 211.914 65.5563V68.7395V71.3792V74.8729V75.7269C212.474 75.8563 213.681 76.1617 214.034 76.348C214.476 76.5809 216.155 76.5809 216.95 76.5809H219.423C219.963 76.5809 220.361 76.6149 220.701 76.644C221.252 76.6909 221.65 76.7249 222.25 76.5809C222.825 76.4431 223.06 76.5499 223.302 76.6601C223.47 76.7362 223.64 76.8139 223.929 76.8139C224.494 76.8139 224.4 77.2279 224.282 77.435V78.1337C224.282 78.3666 224.282 78.7548 223.929 79.7641C223.929 80.0747 224.164 80.1006 224.282 80.0747C224.518 80.1006 225.077 80.1368 225.43 80.0747C225.872 79.997 226.579 79.6865 226.579 79.3759C226.579 79.2422 226.481 79.1517 226.369 79.0486C226.221 78.9122 226.049 78.7538 226.049 78.4443V76.8139C226.049 76.3654 226.195 76.1739 226.334 75.9919C226.46 75.8273 226.579 75.6706 226.579 75.3387C226.579 74.9936 226.579 74.8379 226.601 74.6844C226.618 74.5583 226.65 74.4337 226.708 74.2068C226.722 74.1509 226.738 74.0888 226.756 74.0189C226.897 73.4599 226.697 73.6307 226.579 73.786L226.049 72.9319C225.843 73.0613 225.201 73.4133 224.282 73.786C223.559 74.0794 223.466 74.034 223.276 73.9408C223.164 73.886 223.019 73.8147 222.692 73.786C221.808 73.7083 221.367 73.6307 221.72 72.3885C222.492 71.7099 222.657 71.5058 223.276 70.7394L223.277 70.7384C223.366 70.6282 223.464 70.5064 223.575 70.3699C224.121 69.6981 224.128 69.6491 224.136 69.5814C224.141 69.5395 224.147 69.4905 224.282 69.2829C224.565 68.8482 225.165 68.4289 225.43 68.2736H222.692C221.894 68.2736 221.905 68.2413 222.013 67.9265C222.073 67.7533 222.162 67.4947 222.162 67.1091C222.162 66.4486 222.162 66.1895 222.281 65.9833C222.358 65.8501 222.484 65.7391 222.692 65.5563C223.116 65.1836 223.458 64.8317 223.575 64.7023C223.281 64.7023 222.497 64.5936 221.72 64.1588C221.021 63.7681 221.236 63.6182 221.477 63.4494C221.572 63.3833 221.67 63.3144 221.72 63.2271C221.782 63.1187 221.919 63.086 222.071 63.0496C222.355 62.982 222.692 62.9017 222.692 62.2955C222.661 62.2507 222.632 62.209 222.604 62.1689C222.387 61.8621 222.24 61.6534 222.162 60.898C222.074 60.044 223.045 59.3452 223.575 59.0347C224.016 58.7765 223.968 59.4841 223.94 59.9086C223.934 59.9947 223.929 60.0692 223.929 60.1216C223.929 60.3489 224.023 60.4931 224.144 60.6758C224.187 60.7427 224.235 60.8148 224.282 60.898C224.339 60.9975 224.395 61.073 224.472 61.1757C224.635 61.3937 224.89 61.7338 225.43 62.6837C225.653 63.0262 225.595 63.122 225.522 63.2432C225.479 63.3143 225.43 63.3941 225.43 63.5377V64.7023C225.43 64.9123 225.41 65.1311 225.39 65.3469C225.351 65.7692 225.314 66.1796 225.43 66.488C225.572 66.8606 227.551 67.4714 228.523 67.7302C228.375 67.4196 228.08 66.6432 228.08 66.0221C228.08 65.3109 227.784 65.0557 227.462 64.7792C227.433 64.7538 227.403 64.7283 227.374 64.7023C227.13 64.4881 227.222 63.8678 227.303 63.3251C227.34 63.0809 227.374 62.8524 227.374 62.6837C227.374 62.2539 227.65 61.7269 227.897 61.2565L227.897 61.2563C227.962 61.132 228.025 61.0116 228.08 60.898C228.29 60.4674 228.778 60.183 229.147 59.9676C229.244 59.9111 229.332 59.8594 229.406 59.811C229.688 59.6247 230.407 58.2324 230.731 57.5595C231.025 59.4229 231.296 63.4601 230.024 64.7023ZM227.374 40.479C227.344 40.5567 227.215 40.7275 226.933 40.7896C226.579 40.8672 225.43 41.1001 225.43 40.7896C225.43 40.6158 225.292 40.4176 225.108 40.1543C224.964 39.9472 224.791 39.6997 224.636 39.3921C224.41 38.9452 224.473 38.7206 224.548 38.4543C224.59 38.3042 224.636 38.1409 224.636 37.917C224.636 37.7005 224.646 37.5595 224.657 37.4249C224.676 37.1733 224.693 36.9441 224.636 36.2866C224.588 35.7365 224.487 35.3479 224.405 35.0327C224.337 34.7695 224.282 34.5575 224.282 34.3456V33.181C224.282 32.4823 223.752 31.8611 223.222 32.1717C223.11 32.2374 223.006 32.2892 222.91 32.3366C222.554 32.5135 222.32 32.6299 222.25 33.181C222.211 33.4916 222.102 33.5568 221.993 33.622C221.856 33.7034 221.72 33.7849 221.72 34.3456C221.72 34.7763 221.64 35.0232 221.582 35.2009C221.504 35.4398 221.467 35.5537 221.72 35.8208C222.074 36.1934 222.515 35.976 222.692 35.8208H223.222V36.2866C223.222 36.4677 223.183 36.6489 223.144 36.83C223.065 37.1924 222.987 37.5547 223.222 37.917C223.399 38.1887 223.399 38.2858 223.399 38.4119C223.399 38.5381 223.399 38.6934 223.576 39.0815C223.693 39.3403 223.772 39.5473 223.837 39.7198C223.968 40.0649 224.046 40.272 224.282 40.479C224.424 40.6033 224.381 40.7027 224.33 40.822C224.254 41.0008 224.159 41.2244 224.636 41.6436C224.636 42.2556 224.696 42.6271 224.742 42.9077C224.807 43.3034 224.843 43.5185 224.636 43.9728C224.521 44.2248 224.443 44.3541 224.379 44.4616C224.245 44.6853 224.167 44.8145 223.929 45.7585C223.739 46.5084 223.55 46.8112 223.415 47.0268C223.298 47.2129 223.222 47.334 223.222 47.6218C223.222 47.8283 223.222 47.9233 223.274 47.9837C223.318 48.0351 223.4 48.0615 223.552 48.1104C223.757 48.1768 224.092 48.2848 224.636 48.5535C225.058 48.7624 225.386 48.9575 225.652 49.1158C226.276 49.487 226.561 49.6564 226.933 49.3298C227.089 49.1921 227.254 49.1494 227.407 49.1094C227.774 49.0141 228.08 48.9344 228.08 47.6218V44.5939C228.08 44.1632 228.209 44.0011 228.302 43.8845C228.426 43.7277 228.486 43.6529 228.08 43.1188C227.848 42.8126 227.616 42.5902 227.434 42.4159C227.062 42.0599 226.899 41.9042 227.374 41.6436C227.939 41.3331 227.609 40.7378 227.374 40.479ZM220.233 9.40591C220.128 8.93446 220.116 8.8802 220.042 8.8802C220.336 8.8802 221.014 8.9889 221.367 9.42371C221.436 9.50856 221.492 9.57449 221.539 9.63036C221.796 9.93231 221.803 9.9403 222.25 11.0541C222.539 11.7736 222.645 11.9625 222.709 12.1615C222.763 12.3275 222.788 12.5006 222.869 12.995C222.924 13.3356 222.98 13.6 223.03 13.8383C223.139 14.3605 223.222 14.7575 223.222 15.5571C223.222 16.1529 223.315 16.2813 223.452 16.4725C223.584 16.6551 223.756 16.8949 223.929 17.6533C224.046 18.1668 224.143 18.536 224.228 18.8563C224.399 19.5045 224.517 19.9525 224.636 20.9918C224.747 21.974 224.895 22.1175 224.988 22.2082C225.042 22.2609 225.077 22.2958 225.077 22.4669C225.077 22.9328 224.282 22.4669 224.282 22.0011C224.282 21.7637 224.19 21.6473 224.089 21.5183C223.991 21.3942 223.884 21.2583 223.841 20.9918C223.805 20.7715 223.711 20.5513 223.606 20.3051C223.452 19.944 223.275 19.5273 223.222 18.9732C223.171 18.4345 222.854 18.2333 222.596 18.0693C222.408 17.9496 222.25 17.8498 222.25 17.6533C222.25 17.1875 222.25 17.0323 221.72 15.5571C221.386 14.6293 221.333 14.6229 221.229 14.6107C221.168 14.6034 221.089 14.5941 220.925 14.3925C220.572 13.9578 220.366 13.8491 220.307 13.8491V11.9081C220.307 11.3687 220.336 11.0368 220.359 10.7799C220.392 10.4081 220.411 10.1933 220.307 9.73422C220.278 9.60691 220.254 9.49838 220.233 9.40591Z" fill="#3C5633"/>
<path fill-rule="evenodd" clip-rule="evenodd" d="M206.314 67.2303C205.395 68.2203 205.931 73.5005 206.314 76.0169H206.824C206.997 76.0169 207.058 75.9258 207.179 75.7437C207.281 75.5901 207.426 75.3718 207.718 75.0887C207.718 74.8907 207.931 74.7174 208.037 74.6556C208.143 74.5937 208.458 74.1729 208.866 72.9849C208.866 72.8794 208.872 72.7839 208.877 72.6743C208.892 72.3981 208.912 72.0321 208.866 71.1904C208.83 70.5253 208.855 70.4543 208.873 70.406C208.886 70.369 208.894 70.3453 208.866 70.0767C208.83 69.7236 208.835 69.6324 208.846 69.4352C208.855 69.2869 208.866 69.0785 208.866 68.6535V67.2303V66.3021V65.3121V63.827C208.866 63.4557 208.803 62.7133 208.356 61.1045C208.148 60.62 208.13 60.4516 208.107 60.2385C208.095 60.1249 208.081 59.9986 208.037 59.805C207.909 59.2481 207.718 58.0106 207.718 56.5874V56.278C207.633 56.0305 207.386 55.2508 207.08 54.1123C207.013 53.7546 206.946 53.6361 206.897 53.5504C206.853 53.473 206.824 53.4222 206.824 53.246C206.824 53.0652 206.764 52.9285 206.695 52.7715C206.621 52.606 206.538 52.418 206.506 52.1322C206.485 51.9514 206.457 51.8162 206.43 51.68C206.372 51.397 206.314 51.1099 206.314 50.3997V48.8527V47.4296C206.314 47.2165 206.231 47.0607 206.137 46.8833C206.012 46.6486 205.867 46.376 205.867 45.8827V45.0163V43.5313C205.867 42.8506 205.74 42.0462 205.357 40.8706C205.224 40.5158 205.264 40.2115 205.315 39.8262C205.362 39.4722 205.418 39.0499 205.357 38.4574C205.283 37.7411 205.167 37.543 204.995 37.2513C204.87 37.039 204.716 36.7771 204.528 36.2298C204.232 35.3681 204.216 35.1323 204.183 34.6382C204.167 34.3871 204.146 34.0694 204.081 33.5691C203.95 32.5547 203.939 32.493 203.883 32.2009C203.858 32.0653 203.823 31.8802 203.762 31.5271C203.638 30.8045 203.621 30.8112 203.555 30.8374C203.519 30.8516 203.469 30.8715 203.379 30.7846C203.186 30.5975 203.103 30.1983 202.936 29.3998C202.882 29.142 202.819 28.8425 202.741 28.4951C202.682 28.2297 202.636 28.0268 202.599 27.8641C202.53 27.5647 202.493 27.402 202.462 27.2382C202.424 27.0432 202.394 26.8468 202.327 26.4164C202.317 26.3517 202.306 26.2817 202.295 26.2057C202.161 25.3424 202.09 25.0512 201.994 24.66C201.952 24.4904 201.906 24.3019 201.848 24.04C201.752 23.6068 201.704 23.4985 201.657 23.3902C201.609 23.282 201.561 23.1737 201.465 22.7405C201.308 22.0301 201.108 21.7774 200.865 21.4706C200.812 21.4033 200.757 21.3334 200.699 21.2555C200.526 21.0203 200.428 20.8035 200.334 20.5949C200.255 20.4193 200.178 20.2496 200.061 20.0798C199.917 19.8691 199.895 19.7381 199.857 19.5059C199.828 19.3289 199.789 19.0932 199.679 18.7185C199.545 18.2641 199.586 17.997 199.638 17.6671C199.685 17.3681 199.739 17.0175 199.679 16.4291C199.58 15.4752 199.368 15.6242 199.159 15.7709C199.097 15.8146 199.035 15.858 198.977 15.8722C198.816 15.9111 198.732 16.0475 198.643 16.1896C198.591 16.2738 198.538 16.36 198.466 16.4291C198.275 16.6147 198.211 17.3572 198.211 18.1617C198.211 18.4822 198.231 18.6652 198.248 18.8124C198.272 19.0346 198.288 19.1754 198.211 19.5848C198.124 20.0484 198.096 20.1101 198.047 20.2196C198.024 20.2709 197.997 20.3327 197.956 20.4511C197.828 20.8224 197.764 21.008 197.509 21.6887C197.346 22.1249 197.392 22.3578 197.446 22.6317C197.476 22.7851 197.509 22.9515 197.509 23.1737C197.509 23.4062 197.527 23.5513 197.543 23.678C197.569 23.8885 197.589 24.0482 197.509 24.4731C197.475 24.6555 197.441 24.8112 197.409 24.9558C197.322 25.3507 197.254 25.6621 197.254 26.2057V28.062V29.2377V30.7846C197.254 31.0713 197.153 31.8661 197.054 32.6375C196.961 33.3649 196.871 34.0714 196.871 34.3116V35.7348C196.871 36.1252 196.768 36.3648 196.514 36.9519C196.486 37.0162 196.456 37.0847 196.425 37.158C196.239 37.5901 196.269 37.645 196.327 37.7495C196.369 37.8246 196.425 37.9253 196.425 38.2099V40.0662V41.5512C196.425 41.9735 196.383 42.0556 196.324 42.173C196.279 42.2621 196.224 42.3715 196.169 42.665C196.155 42.7401 196.143 42.8084 196.131 42.8714L196.131 42.8716C196.038 43.3805 196.007 43.5514 195.723 44.212C195.514 44.6981 195.579 44.9986 195.648 45.3218C195.685 45.4923 195.723 45.669 195.723 45.8827C195.723 46.1019 195.731 46.2434 195.738 46.3761C195.752 46.6179 195.764 46.8302 195.723 47.4296C195.689 47.9201 195.655 48.2205 195.612 48.6049C195.574 48.9477 195.528 49.3574 195.468 50.0284C195.434 50.398 195.41 50.6967 195.389 50.945C195.331 51.6528 195.307 51.9514 195.212 52.3179C195.118 52.6849 194.988 52.8138 194.641 53.1585C194.52 53.2788 194.373 53.4253 194.191 53.6173C193.783 54.0499 193.85 54.0835 193.927 54.1218C193.983 54.1492 194.043 54.1791 193.936 54.3598C193.734 54.7023 193.852 56.1282 193.91 56.8323C193.925 57.0186 193.936 57.1544 193.936 57.2062C193.936 57.4537 193.936 57.7631 194.191 59.1244C194.191 59.4338 194.128 59.7741 194.064 60.1144C194 60.4547 193.936 60.7951 193.936 61.1045V62.342C193.936 62.6789 193.947 62.8638 193.956 63.0013C193.967 63.1922 193.973 63.2918 193.936 63.5795C193.908 63.7981 193.867 63.9443 193.814 64.1352C193.747 64.3768 193.66 64.69 193.553 65.3121C193.511 65.5563 193.473 65.7648 193.437 65.9532C193.312 66.6244 193.234 67.0413 193.234 67.911V70.4479V72.5517V75.3362V76.0169C193.638 76.12 194.51 76.3634 194.766 76.5119C195.085 76.6975 196.297 76.6975 196.871 76.6975H198.658C199.048 76.6975 199.335 76.7246 199.581 76.7477C199.978 76.7852 200.266 76.8123 200.699 76.6975C201.115 76.5877 201.284 76.6728 201.459 76.7606C201.58 76.8213 201.703 76.8832 201.912 76.8832C202.32 76.8832 202.252 77.2132 202.167 77.3782V77.9351C202.167 78.1207 202.167 78.4301 201.912 79.2345C201.912 79.482 202.082 79.5026 202.167 79.482C202.337 79.5026 202.741 79.5315 202.996 79.482C203.315 79.4201 203.826 79.1726 203.826 78.9251C203.826 78.8186 203.755 78.7464 203.674 78.6642C203.567 78.5555 203.443 78.4293 203.443 78.1826V76.8832C203.443 76.5258 203.549 76.3731 203.649 76.2281C203.74 76.0969 203.826 75.972 203.826 75.7075C203.826 75.4324 203.826 75.3083 203.841 75.186C203.854 75.0855 203.877 74.9862 203.919 74.8053C203.929 74.7608 203.941 74.7113 203.953 74.6556C204.056 74.2101 203.911 74.3462 203.826 74.4699L203.443 73.7893C203.294 73.8924 202.83 74.1729 202.167 74.4699C201.645 74.7038 201.578 74.6676 201.44 74.5933C201.36 74.5497 201.255 74.4928 201.018 74.4699C200.38 74.4081 200.061 74.3462 200.316 73.3562C200.874 72.8153 200.993 72.6527 201.44 72.0418L201.441 72.041C201.505 71.9532 201.576 71.8561 201.656 71.7473C202.051 71.212 202.055 71.1729 202.061 71.1189C202.065 71.0856 202.069 71.0465 202.167 70.8811C202.371 70.5346 202.805 70.2004 202.996 70.0767H201.018C200.442 70.0767 200.45 70.0509 200.528 69.8C200.571 69.662 200.636 69.4559 200.636 69.1485C200.636 68.6221 200.636 68.4156 200.721 68.2512C200.777 68.1451 200.868 68.0566 201.018 67.911C201.325 67.6139 201.571 67.3334 201.656 67.2303C201.444 67.2303 200.878 67.1437 200.316 66.7972C199.812 66.4858 199.967 66.3663 200.141 66.2317C200.209 66.1791 200.281 66.1242 200.316 66.0546C200.361 65.9682 200.46 65.9421 200.57 65.9132C200.775 65.8592 201.018 65.7953 201.018 65.3121C200.996 65.2764 200.975 65.2432 200.955 65.2113C200.798 64.9667 200.692 64.8004 200.636 64.1983C200.572 63.5177 201.274 62.9608 201.656 62.7133C201.975 62.5075 201.94 63.0715 201.919 63.4098C201.915 63.4784 201.912 63.5378 201.912 63.5795C201.912 63.7607 201.98 63.8756 202.067 64.0213C202.098 64.0746 202.133 64.132 202.167 64.1983C202.208 64.2776 202.249 64.3378 202.304 64.4197C202.422 64.5934 202.606 64.8645 202.996 65.6215C203.157 65.8945 203.115 65.9708 203.062 66.0674C203.031 66.1241 202.996 66.1877 202.996 66.3021V67.2303C202.996 67.3977 202.982 67.5721 202.967 67.7441C202.939 68.0807 202.912 68.4077 202.996 68.6535C203.098 68.9505 204.528 69.4373 205.229 69.6435C205.123 69.396 204.91 68.7772 204.91 68.2822C204.91 67.7154 204.696 67.512 204.464 67.2916C204.443 67.2714 204.421 67.2511 204.4 67.2303C204.224 67.0596 204.29 66.5652 204.349 66.1327C204.375 65.9381 204.4 65.7559 204.4 65.6215C204.4 65.2789 204.599 64.859 204.777 64.484L204.777 64.4839C204.825 64.3848 204.87 64.2889 204.91 64.1983C205.062 63.8551 205.414 63.6285 205.68 63.4568C205.75 63.4118 205.814 63.3706 205.867 63.332C206.071 63.1835 206.59 62.0739 206.824 61.5376C207.037 63.0227 207.232 66.2403 206.314 67.2303ZM204.4 47.9246C204.379 47.9865 204.285 48.1226 204.081 48.1721C203.826 48.234 202.996 48.4196 202.996 48.1721C202.996 48.0335 202.896 47.8756 202.764 47.6657C202.659 47.5007 202.535 47.3035 202.422 47.0583C202.259 46.7021 202.304 46.5231 202.359 46.3109C202.389 46.1913 202.422 46.0611 202.422 45.8827C202.422 45.7101 202.43 45.5977 202.437 45.4904C202.451 45.2899 202.464 45.1073 202.422 44.5832C202.387 44.1448 202.315 43.8351 202.256 43.5839C202.207 43.3741 202.167 43.2052 202.167 43.0363V42.1081C202.167 41.5512 201.784 41.0562 201.401 41.3037C201.32 41.356 201.245 41.3973 201.176 41.4351C200.919 41.5761 200.75 41.6689 200.699 42.1081C200.671 42.3556 200.592 42.4076 200.513 42.4595C200.415 42.5245 200.316 42.5894 200.316 43.0363C200.316 43.3795 200.258 43.5763 200.217 43.718C200.16 43.9083 200.134 43.9991 200.316 44.212C200.572 44.509 200.891 44.3357 201.018 44.212H201.401V44.5832C201.401 44.7276 201.373 44.872 201.345 45.0164C201.288 45.3051 201.231 45.5939 201.401 45.8827C201.529 46.0992 201.529 46.1766 201.529 46.2771C201.529 46.3776 201.529 46.5014 201.657 46.8108C201.742 47.017 201.798 47.182 201.845 47.3195C201.94 47.5945 201.997 47.7595 202.167 47.9246C202.269 48.0236 202.238 48.1028 202.202 48.1979C202.147 48.3404 202.078 48.5186 202.422 48.8527C202.422 49.3405 202.466 49.6365 202.499 49.8602C202.546 50.1756 202.572 50.347 202.422 50.7091C202.339 50.9099 202.283 51.0129 202.237 51.0986C202.14 51.2769 202.084 51.3799 201.912 52.1322C201.775 52.7299 201.638 52.9713 201.54 53.1431C201.456 53.2914 201.401 53.388 201.401 53.6173C201.401 53.7819 201.401 53.8576 201.439 53.9057C201.471 53.9467 201.53 53.9677 201.639 54.0067C201.788 54.0596 202.03 54.1457 202.422 54.3598C202.727 54.5264 202.964 54.6818 203.157 54.808C203.607 55.1038 203.813 55.2388 204.081 54.9786C204.194 54.8688 204.313 54.8348 204.424 54.8029C204.689 54.727 204.91 54.6635 204.91 53.6173V51.2041C204.91 50.8608 205.003 50.7317 205.07 50.6387C205.16 50.5137 205.203 50.4541 204.91 50.0284C204.742 49.7844 204.575 49.6072 204.443 49.4682C204.174 49.1845 204.057 49.0604 204.4 48.8527C204.808 48.6052 204.57 48.1308 204.4 47.9246ZM199.242 23.1595C199.166 22.7838 199.158 22.7405 199.104 22.7405C199.317 22.7405 199.806 22.8272 200.061 23.1737C200.111 23.2413 200.152 23.2939 200.186 23.3384C200.371 23.5791 200.376 23.5854 200.699 24.4731C200.908 25.0466 200.984 25.1971 201.031 25.3557C201.07 25.488 201.088 25.626 201.146 26.02C201.186 26.2915 201.226 26.5022 201.262 26.6921C201.341 27.1083 201.401 27.4247 201.401 28.062C201.401 28.5368 201.468 28.6392 201.567 28.7916C201.662 28.9371 201.787 29.1282 201.912 29.7327C201.996 30.1419 202.066 30.4361 202.128 30.6914C202.251 31.208 202.337 31.5651 202.422 32.3934C202.503 33.1762 202.609 33.2905 202.676 33.3628C202.715 33.4048 202.741 33.4326 202.741 33.5691C202.741 33.9403 202.167 33.5691 202.167 33.1978C202.167 33.0086 202.101 32.9158 202.027 32.813C201.957 32.7141 201.879 32.6058 201.848 32.3934C201.822 32.2178 201.754 32.0423 201.679 31.8461C201.568 31.5583 201.439 31.2262 201.401 30.7846C201.364 30.3553 201.136 30.1949 200.949 30.0642C200.813 29.9688 200.699 29.8893 200.699 29.7327C200.699 29.3614 200.699 29.2377 200.316 28.062C200.076 27.3225 200.037 27.3174 199.962 27.3077C199.918 27.3019 199.861 27.2945 199.742 27.1338C199.487 26.7873 199.338 26.7007 199.296 26.7007V25.1537C199.296 24.7239 199.317 24.4593 199.334 24.2546C199.357 23.9583 199.371 23.7871 199.296 23.4212C199.275 23.3197 199.257 23.2332 199.242 23.1595Z" fill="#D9D9D9"/>
<path fill-rule="evenodd" clip-rule="evenodd" d="M206.314 67.2303C205.395 68.2203 205.931 73.5005 206.314 76.0169H206.824C206.997 76.0169 207.058 75.9258 207.179 75.7437C207.281 75.5901 207.426 75.3718 207.718 75.0887C207.718 74.8907 207.931 74.7174 208.037 74.6556C208.143 74.5937 208.458 74.1729 208.866 72.9849C208.866 72.8794 208.872 72.7839 208.877 72.6743C208.892 72.3981 208.912 72.0321 208.866 71.1904C208.83 70.5253 208.855 70.4543 208.873 70.406C208.886 70.369 208.894 70.3453 208.866 70.0767C208.83 69.7236 208.835 69.6324 208.846 69.4352C208.855 69.2869 208.866 69.0785 208.866 68.6535V67.2303V66.3021V65.3121V63.827C208.866 63.4557 208.803 62.7133 208.356 61.1045C208.148 60.62 208.13 60.4516 208.107 60.2385C208.095 60.1249 208.081 59.9986 208.037 59.805C207.909 59.2481 207.718 58.0106 207.718 56.5874V56.278C207.633 56.0305 207.386 55.2508 207.08 54.1123C207.013 53.7546 206.946 53.6361 206.897 53.5504C206.853 53.473 206.824 53.4222 206.824 53.246C206.824 53.0652 206.764 52.9285 206.695 52.7715C206.621 52.606 206.538 52.418 206.506 52.1322C206.485 51.9514 206.457 51.8162 206.43 51.68C206.372 51.397 206.314 51.1099 206.314 50.3997V48.8527V47.4296C206.314 47.2165 206.231 47.0607 206.137 46.8833C206.012 46.6486 205.867 46.376 205.867 45.8827V45.0163V43.5313C205.867 42.8506 205.74 42.0462 205.357 40.8706C205.224 40.5158 205.264 40.2115 205.315 39.8262C205.362 39.4722 205.418 39.0499 205.357 38.4574C205.283 37.7411 205.167 37.543 204.995 37.2513C204.87 37.039 204.716 36.7771 204.528 36.2298C204.232 35.3681 204.216 35.1323 204.183 34.6382C204.167 34.3871 204.146 34.0694 204.081 33.5691C203.95 32.5547 203.939 32.493 203.883 32.2009C203.858 32.0653 203.823 31.8802 203.762 31.5271C203.638 30.8045 203.621 30.8112 203.555 30.8374C203.519 30.8516 203.469 30.8715 203.379 30.7846C203.186 30.5975 203.103 30.1983 202.936 29.3998C202.882 29.142 202.819 28.8425 202.741 28.4951C202.682 28.2297 202.636 28.0268 202.599 27.8641C202.53 27.5647 202.493 27.402 202.462 27.2382C202.424 27.0432 202.394 26.8468 202.327 26.4164C202.317 26.3517 202.306 26.2817 202.295 26.2057C202.161 25.3424 202.09 25.0512 201.994 24.66C201.952 24.4904 201.906 24.3019 201.848 24.04C201.752 23.6068 201.704 23.4985 201.657 23.3902C201.609 23.282 201.561 23.1737 201.465 22.7405C201.308 22.0301 201.108 21.7774 200.865 21.4706C200.812 21.4033 200.757 21.3334 200.699 21.2555C200.526 21.0203 200.428 20.8035 200.334 20.5949C200.255 20.4193 200.178 20.2496 200.061 20.0798C199.917 19.8691 199.895 19.7381 199.857 19.5059C199.828 19.3289 199.789 19.0932 199.679 18.7185C199.545 18.2641 199.586 17.997 199.638 17.6671C199.685 17.3681 199.739 17.0175 199.679 16.4291C199.58 15.4752 199.368 15.6242 199.159 15.7709C199.097 15.8146 199.035 15.858 198.977 15.8722C198.816 15.9111 198.732 16.0475 198.643 16.1896C198.591 16.2738 198.538 16.36 198.466 16.4291C198.275 16.6147 198.211 17.3572 198.211 18.1617C198.211 18.4822 198.231 18.6652 198.248 18.8124C198.272 19.0346 198.288 19.1754 198.211 19.5848C198.124 20.0484 198.096 20.1101 198.047 20.2196C198.024 20.2709 197.997 20.3327 197.956 20.4511C197.828 20.8224 197.764 21.008 197.509 21.6887C197.346 22.1249 197.392 22.3578 197.446 22.6317C197.476 22.7851 197.509 22.9515 197.509 23.1737C197.509 23.4062 197.527 23.5513 197.543 23.678C197.569 23.8885 197.589 24.0482 197.509 24.4731C197.475 24.6555 197.441 24.8112 197.409 24.9558C197.322 25.3507 197.254 25.6621 197.254 26.2057V28.062V29.2377V30.7846C197.254 31.0713 197.153 31.8661 197.054 32.6375C196.961 33.3649 196.871 34.0714 196.871 34.3116V35.7348C196.871 36.1252 196.768 36.3648 196.514 36.9519C196.486 37.0162 196.456 37.0847 196.425 37.158C196.239 37.5901 196.269 37.645 196.327 37.7495C196.369 37.8246 196.425 37.9253 196.425 38.2099V40.0662V41.5512C196.425 41.9735 196.383 42.0556 196.324 42.173C196.279 42.2621 196.224 42.3715 196.169 42.665C196.155 42.7401 196.143 42.8084 196.131 42.8714L196.131 42.8716C196.038 43.3805 196.007 43.5514 195.723 44.212C195.514 44.6981 195.579 44.9986 195.648 45.3218C195.685 45.4923 195.723 45.669 195.723 45.8827C195.723 46.1019 195.731 46.2434 195.738 46.3761C195.752 46.6179 195.764 46.8302 195.723 47.4296C195.689 47.9201 195.655 48.2205 195.612 48.6049C195.574 48.9477 195.528 49.3574 195.468 50.0284C195.434 50.398 195.41 50.6967 195.389 50.945C195.331 51.6528 195.307 51.9514 195.212 52.3179C195.118 52.6849 194.988 52.8138 194.641 53.1585C194.52 53.2788 194.373 53.4253 194.191 53.6173C193.783 54.0499 193.85 54.0835 193.927 54.1218C193.983 54.1492 194.043 54.1791 193.936 54.3598C193.734 54.7023 193.852 56.1282 193.91 56.8323C193.925 57.0186 193.936 57.1544 193.936 57.2062C193.936 57.4537 193.936 57.7631 194.191 59.1244C194.191 59.4338 194.128 59.7741 194.064 60.1144C194 60.4547 193.936 60.7951 193.936 61.1045V62.342C193.936 62.6789 193.947 62.8638 193.956 63.0013C193.967 63.1922 193.973 63.2918 193.936 63.5795C193.908 63.7981 193.867 63.9443 193.814 64.1352C193.747 64.3768 193.66 64.69 193.553 65.3121C193.511 65.5563 193.473 65.7648 193.437 65.9532C193.312 66.6244 193.234 67.0413 193.234 67.911V70.4479V72.5517V75.3362V76.0169C193.638 76.12 194.51 76.3634 194.766 76.5119C195.085 76.6975 196.297 76.6975 196.871 76.6975H198.658C199.048 76.6975 199.335 76.7246 199.581 76.7477C199.978 76.7852 200.266 76.8123 200.699 76.6975C201.115 76.5877 201.284 76.6728 201.459 76.7606C201.58 76.8213 201.703 76.8832 201.912 76.8832C202.32 76.8832 202.252 77.2132 202.167 77.3782V77.9351C202.167 78.1207 202.167 78.4301 201.912 79.2345C201.912 79.482 202.082 79.5026 202.167 79.482C202.337 79.5026 202.741 79.5315 202.996 79.482C203.315 79.4201 203.826 79.1726 203.826 78.9251C203.826 78.8186 203.755 78.7464 203.674 78.6642C203.567 78.5555 203.443 78.4293 203.443 78.1826V76.8832C203.443 76.5258 203.549 76.3731 203.649 76.2281C203.74 76.0969 203.826 75.972 203.826 75.7075C203.826 75.4324 203.826 75.3083 203.841 75.186C203.854 75.0855 203.877 74.9862 203.919 74.8053C203.929 74.7608 203.941 74.7113 203.953 74.6556C204.056 74.2101 203.911 74.3462 203.826 74.4699L203.443 73.7893C203.294 73.8924 202.83 74.1729 202.167 74.4699C201.645 74.7038 201.578 74.6676 201.44 74.5933C201.36 74.5497 201.255 74.4928 201.018 74.4699C200.38 74.4081 200.061 74.3462 200.316 73.3562C200.874 72.8153 200.993 72.6527 201.44 72.0418L201.441 72.041C201.505 71.9532 201.576 71.8561 201.656 71.7473C202.051 71.212 202.055 71.1729 202.061 71.1189C202.065 71.0856 202.069 71.0465 202.167 70.8811C202.371 70.5346 202.805 70.2004 202.996 70.0767H201.018C200.442 70.0767 200.45 70.0509 200.528 69.8C200.571 69.662 200.636 69.4559 200.636 69.1485C200.636 68.6221 200.636 68.4156 200.721 68.2512C200.777 68.1451 200.868 68.0566 201.018 67.911C201.325 67.6139 201.571 67.3334 201.656 67.2303C201.444 67.2303 200.878 67.1437 200.316 66.7972C199.812 66.4858 199.967 66.3663 200.141 66.2317C200.209 66.1791 200.281 66.1242 200.316 66.0546C200.361 65.9682 200.46 65.9421 200.57 65.9132C200.775 65.8592 201.018 65.7953 201.018 65.3121C200.996 65.2764 200.975 65.2432 200.955 65.2113C200.798 64.9667 200.692 64.8004 200.636 64.1983C200.572 63.5177 201.274 62.9608 201.656 62.7133C201.975 62.5075 201.94 63.0715 201.919 63.4098C201.915 63.4784 201.912 63.5378 201.912 63.5795C201.912 63.7607 201.98 63.8756 202.067 64.0213C202.098 64.0746 202.133 64.132 202.167 64.1983C202.208 64.2776 202.249 64.3378 202.304 64.4197C202.422 64.5934 202.606 64.8645 202.996 65.6215C203.157 65.8945 203.115 65.9708 203.062 66.0674C203.031 66.1241 202.996 66.1877 202.996 66.3021V67.2303C202.996 67.3977 202.982 67.5721 202.967 67.7441C202.939 68.0807 202.912 68.4077 202.996 68.6535C203.098 68.9505 204.528 69.4373 205.229 69.6435C205.123 69.396 204.91 68.7772 204.91 68.2822C204.91 67.7154 204.696 67.512 204.464 67.2916C204.443 67.2714 204.421 67.2511 204.4 67.2303C204.224 67.0596 204.29 66.5652 204.349 66.1327C204.375 65.9381 204.4 65.7559 204.4 65.6215C204.4 65.2789 204.599 64.859 204.777 64.484L204.777 64.4839C204.825 64.3848 204.87 64.2889 204.91 64.1983C205.062 63.8551 205.414 63.6285 205.68 63.4568C205.75 63.4118 205.814 63.3706 205.867 63.332C206.071 63.1835 206.59 62.0739 206.824 61.5376C207.037 63.0227 207.232 66.2403 206.314 67.2303ZM204.4 47.9246C204.379 47.9865 204.285 48.1226 204.081 48.1721C203.826 48.234 202.996 48.4196 202.996 48.1721C202.996 48.0335 202.896 47.8756 202.764 47.6657C202.659 47.5007 202.535 47.3035 202.422 47.0583C202.259 46.7021 202.304 46.5231 202.359 46.3109C202.389 46.1913 202.422 46.0611 202.422 45.8827C202.422 45.7101 202.43 45.5977 202.437 45.4904C202.451 45.2899 202.464 45.1073 202.422 44.5832C202.387 44.1448 202.315 43.8351 202.256 43.5839C202.207 43.3741 202.167 43.2052 202.167 43.0363V42.1081C202.167 41.5512 201.784 41.0562 201.401 41.3037C201.32 41.356 201.245 41.3973 201.176 41.4351C200.919 41.5761 200.75 41.6689 200.699 42.1081C200.671 42.3556 200.592 42.4076 200.513 42.4595C200.415 42.5245 200.316 42.5894 200.316 43.0363C200.316 43.3795 200.258 43.5763 200.217 43.718C200.16 43.9083 200.134 43.9991 200.316 44.212C200.572 44.509 200.891 44.3357 201.018 44.212H201.401V44.5832C201.401 44.7276 201.373 44.872 201.345 45.0164C201.288 45.3051 201.231 45.5939 201.401 45.8827C201.529 46.0992 201.529 46.1766 201.529 46.2771C201.529 46.3776 201.529 46.5014 201.657 46.8108C201.742 47.017 201.798 47.182 201.845 47.3195C201.94 47.5945 201.997 47.7595 202.167 47.9246C202.269 48.0236 202.238 48.1028 202.202 48.1979C202.147 48.3404 202.078 48.5186 202.422 48.8527C202.422 49.3405 202.466 49.6365 202.499 49.8602C202.546 50.1756 202.572 50.347 202.422 50.7091C202.339 50.9099 202.283 51.0129 202.237 51.0986C202.14 51.2769 202.084 51.3799 201.912 52.1322C201.775 52.7299 201.638 52.9713 201.54 53.1431C201.456 53.2914 201.401 53.388 201.401 53.6173C201.401 53.7819 201.401 53.8576 201.439 53.9057C201.471 53.9467 201.53 53.9677 201.639 54.0067C201.788 54.0596 202.03 54.1457 202.422 54.3598C202.727 54.5264 202.964 54.6818 203.157 54.808C203.607 55.1038 203.813 55.2388 204.081 54.9786C204.194 54.8688 204.313 54.8348 204.424 54.8029C204.689 54.727 204.91 54.6635 204.91 53.6173V51.2041C204.91 50.8608 205.003 50.7317 205.07 50.6387C205.16 50.5137 205.203 50.4541 204.91 50.0284C204.742 49.7844 204.575 49.6072 204.443 49.4682C204.174 49.1845 204.057 49.0604 204.4 48.8527C204.808 48.6052 204.57 48.1308 204.4 47.9246ZM199.242 23.1595C199.166 22.7838 199.158 22.7405 199.104 22.7405C199.317 22.7405 199.806 22.8272 200.061 23.1737C200.111 23.2413 200.152 23.2939 200.186 23.3384C200.371 23.5791 200.376 23.5854 200.699 24.4731C200.908 25.0466 200.984 25.1971 201.031 25.3557C201.07 25.488 201.088 25.626 201.146 26.02C201.186 26.2915 201.226 26.5022 201.262 26.6921C201.341 27.1083 201.401 27.4247 201.401 28.062C201.401 28.5368 201.468 28.6392 201.567 28.7916C201.662 28.9371 201.787 29.1282 201.912 29.7327C201.996 30.1419 202.066 30.4361 202.128 30.6914C202.251 31.208 202.337 31.5651 202.422 32.3934C202.503 33.1762 202.609 33.2905 202.676 33.3628C202.715 33.4048 202.741 33.4326 202.741 33.5691C202.741 33.9403 202.167 33.5691 202.167 33.1978C202.167 33.0086 202.101 32.9158 202.027 32.813C201.957 32.7141 201.879 32.6058 201.848 32.3934C201.822 32.2178 201.754 32.0423 201.679 31.8461C201.568 31.5583 201.439 31.2262 201.401 30.7846C201.364 30.3553 201.136 30.1949 200.949 30.0642C200.813 29.9688 200.699 29.8893 200.699 29.7327C200.699 29.3614 200.699 29.2377 200.316 28.062C200.076 27.3225 200.037 27.3174 199.962 27.3077C199.918 27.3019 199.861 27.2945 199.742 27.1338C199.487 26.7873 199.338 26.7007 199.296 26.7007V25.1537C199.296 24.7239 199.317 24.4593 199.334 24.2546C199.357 23.9583 199.371 23.7871 199.296 23.4212C199.275 23.3197 199.257 23.2332 199.242 23.1595Z" fill="#3C5633"/>
<path d="M335.285 44.6811C335.368 44.026 335.448 43.3709 335.524 42.7157C336.205 36.8192 336.588 30.9184 336.671 25.0134C336.754 19.1084 336.538 13.1992 336.023 7.28575C335.965 6.6287 335.904 5.97161 335.84 5.31445C335.756 5.96952 335.677 6.62464 335.601 7.27982C334.919 13.1764 334.537 19.0772 334.454 24.9822C334.37 30.8871 334.587 36.7964 335.102 42.7098C335.159 43.3668 335.22 44.0239 335.285 44.6811Z" fill="#3C5633"/>
<path d="M335.285 44.6811C335.368 44.026 335.448 43.3709 335.524 42.7157C336.205 36.8192 336.588 30.9184 336.671 25.0134C336.754 19.1084 336.538 13.1992 336.023 7.28575C335.965 6.6287 335.904 5.97161 335.84 5.31445C335.756 5.96952 335.677 6.62464 335.601 7.27982C334.919 13.1764 334.537 19.0772 334.454 24.9822C334.37 30.8871 334.587 36.7964 335.102 42.7098C335.159 43.3668 335.22 44.0239 335.285 44.6811Z" fill="#3C5633"/>
<path d="M343.443 46.6127C343.777 46.0427 344.107 45.4712 344.433 44.8982C347.373 39.7412 350.038 34.4629 352.43 29.0634C354.822 23.6639 356.94 18.1431 358.784 12.501C358.989 11.8741 359.191 11.2457 359.389 10.6158C359.056 11.1858 358.726 11.7573 358.399 12.3304C355.46 17.4873 352.794 22.7656 350.402 28.1651C348.01 33.5647 345.892 39.0855 344.048 44.7275C343.843 45.3544 343.641 45.9828 343.443 46.6127Z" fill="#3C5633"/>
<path d="M343.443 46.6127C343.777 46.0427 344.107 45.4712 344.433 44.8982C347.373 39.7412 350.038 34.4629 352.43 29.0634C354.822 23.6639 356.94 18.1431 358.784 12.501C358.989 11.8741 359.191 11.2457 359.389 10.6158C359.056 11.1858 358.726 11.7573 358.399 12.3304C355.46 17.4873 352.794 22.7656 350.402 28.1651C348.01 33.5647 345.892 39.0855 344.048 44.7275C343.843 45.3544 343.641 45.9828 343.443 46.6127Z" fill="#3C5633"/>
<path d="M326.213 45.9662C325.88 45.3962 325.55 44.8247 325.223 44.2517C322.284 39.0947 319.618 33.8164 317.226 28.4169C314.834 23.0174 312.716 17.4966 310.872 11.8545C310.667 11.2276 310.465 10.5992 310.267 9.96936C310.601 10.5394 310.931 11.1109 311.257 11.6839C314.197 16.8409 316.862 22.1191 319.254 27.5187C321.646 32.9182 323.764 38.439 325.608 44.081C325.813 44.7079 326.015 45.3363 326.213 45.9662Z" fill="#3C5633"/>
<path d="M326.213 45.9662C325.88 45.3962 325.55 44.8247 325.223 44.2517C322.284 39.0947 319.618 33.8164 317.226 28.4169C314.834 23.0174 312.716 17.4966 310.872 11.8545C310.667 11.2276 310.465 10.5992 310.267 9.96936C310.601 10.5394 310.931 11.1109 311.257 11.6839C314.197 16.8409 316.862 22.1191 319.254 27.5187C321.646 32.9182 323.764 38.439 325.608 44.081C325.813 44.7079 326.015 45.3363 326.213 45.9662Z" fill="#3C5633"/>
<path d="M350.818 51.3276C351.317 50.8941 351.812 50.4581 352.305 50.0196C356.739 46.0733 360.952 41.9244 364.945 37.5732C368.938 33.2219 372.71 28.6683 376.262 23.9121C376.656 23.3837 377.048 22.8527 377.437 22.3193C376.939 22.7528 376.444 23.1888 375.951 23.6272C371.517 27.5736 367.304 31.7224 363.311 36.0737C359.318 40.4249 355.546 44.9786 351.994 49.7347C351.6 50.2632 351.208 50.7941 350.818 51.3276Z" fill="#3C5633"/>
<path d="M350.818 51.3276C351.317 50.8941 351.812 50.4581 352.305 50.0196C356.739 46.0733 360.952 41.9244 364.945 37.5732C368.938 33.2219 372.71 28.6683 376.262 23.9121C376.656 23.3837 377.048 22.8527 377.437 22.3193C376.939 22.7528 376.444 23.1888 375.951 23.6272C371.517 27.5736 367.304 31.7224 363.311 36.0737C359.318 40.4249 355.546 44.9786 351.994 49.7347C351.6 50.2632 351.208 50.7941 350.818 51.3276Z" fill="#3C5633"/>
<path d="M318.846 50.6762C318.347 50.2427 317.852 49.8068 317.359 49.3683C312.925 45.4219 308.712 41.2731 304.719 36.9218C300.726 32.5706 296.954 28.0169 293.403 23.2608C293.008 22.7323 292.616 22.2014 292.227 21.6679C292.725 22.1014 293.22 22.5374 293.713 22.9759C298.147 26.9223 302.36 31.0711 306.353 35.4223C310.346 39.7736 314.118 44.3273 317.67 49.0834C318.065 49.6118 318.456 50.1428 318.846 50.6762Z" fill="#3C5633"/>
<path d="M318.846 50.6762C318.347 50.2427 317.852 49.8068 317.359 49.3683C312.925 45.4219 308.712 41.2731 304.719 36.9218C300.726 32.5706 296.954 28.0169 293.403 23.2608C293.008 22.7323 292.616 22.2014 292.227 21.6679C292.725 22.1014 293.22 22.5374 293.713 22.9759C298.147 26.9223 302.36 31.0711 306.353 35.4223C310.346 39.7736 314.118 44.3273 317.67 49.0834C318.065 49.6118 318.456 50.1428 318.846 50.6762Z" fill="#3C5633"/>
<path d="M358.568 57.155C359.177 56.8995 359.784 56.6407 360.389 56.3788C365.836 54.0211 371.138 51.402 376.293 48.5215C381.449 45.641 386.458 42.4992 391.322 39.0959C391.862 38.7178 392.401 38.3364 392.937 37.9519C392.328 38.2074 391.721 38.4661 391.116 38.7281C385.669 41.0858 380.367 43.7049 375.212 46.5854C370.056 49.4658 365.047 52.6077 360.183 56.0109C359.643 56.389 359.104 56.7704 358.568 57.155Z" fill="#3C5633"/>
<path d="M358.568 57.155C359.177 56.8995 359.784 56.6407 360.389 56.3788C365.836 54.0211 371.138 51.402 376.293 48.5215C381.449 45.641 386.458 42.4992 391.322 39.0959C391.862 38.7178 392.401 38.3364 392.937 37.9519C392.328 38.2074 391.721 38.4661 391.116 38.7281C385.669 41.0858 380.367 43.7049 375.212 46.5854C370.056 49.4658 365.047 52.6077 360.183 56.0109C359.643 56.389 359.104 56.7704 358.568 57.155Z" fill="#3C5633"/>
<path d="M311.089 56.5075C310.48 56.252 309.873 55.9933 309.267 55.7313C303.82 53.3736 298.518 50.7545 293.363 47.874C288.207 44.9936 283.198 41.8517 278.335 38.4485C277.794 38.0703 277.256 37.689 276.719 37.3044C277.328 37.5599 277.935 37.8186 278.54 38.0806C283.988 40.4383 289.289 43.0574 294.445 45.9379C299.6 48.8184 304.609 51.9602 309.473 55.3634C310.013 55.7416 310.552 56.1229 311.089 56.5075Z" fill="#3C5633"/>
<path d="M311.089 56.5075C310.48 56.252 309.873 55.9933 309.267 55.7313C303.82 53.3736 298.518 50.7545 293.363 47.874C288.207 44.9936 283.198 41.8517 278.335 38.4485C277.794 38.0703 277.256 37.689 276.719 37.3044C277.328 37.5599 277.935 37.8186 278.54 38.0806C283.988 40.4383 289.289 43.0574 294.445 45.9379C299.6 48.8184 304.609 51.9602 309.473 55.3634C310.013 55.7416 310.552 56.1229 311.089 56.5075Z" fill="#3C5633"/>
<path d="M359.688 65.5031C360.348 65.4879 361.008 65.4691 361.667 65.4466C367.599 65.2443 373.492 64.7453 379.343 63.9497C385.195 63.154 391.006 62.0617 396.777 60.6727C397.419 60.5183 398.059 60.3603 398.7 60.1987C398.039 60.2138 397.38 60.2327 396.721 60.2551C390.788 60.4574 384.896 60.9564 379.044 61.7521C373.193 62.5477 367.381 63.6401 361.61 65.0291C360.969 65.1834 360.328 65.3414 359.688 65.5031Z" fill="#3C5633"/>
<path d="M359.688 65.5031C360.348 65.4879 361.008 65.4691 361.667 65.4466C367.599 65.2443 373.492 64.7453 379.343 63.9497C385.195 63.154 391.006 62.0617 396.777 60.6727C397.419 60.5183 398.059 60.3603 398.7 60.1987C398.039 60.2138 397.38 60.2327 396.721 60.2551C390.788 60.4574 384.896 60.9564 379.044 61.7521C373.193 62.5477 367.381 63.6401 361.61 65.0291C360.969 65.1834 360.328 65.3414 359.688 65.5031Z" fill="#3C5633"/>
<path d="M309.984 64.8537C309.324 64.8385 308.664 64.8197 308.005 64.7972C302.072 64.5949 296.18 64.0959 290.329 63.3003C284.477 62.5046 278.666 61.4123 272.894 60.0233C272.253 59.8689 271.612 59.7109 270.972 59.5493C271.632 59.5644 272.292 59.5832 272.951 59.6057C278.884 59.808 284.776 60.307 290.627 61.1027C296.479 61.8983 302.291 62.9907 308.062 64.3797C308.703 64.534 309.344 64.692 309.984 64.8537Z" fill="#3C5633"/>
<path d="M309.984 64.8537C309.324 64.8385 308.664 64.8197 308.005 64.7972C302.072 64.5949 296.18 64.0959 290.329 63.3003C284.477 62.5046 278.666 61.4123 272.894 60.0233C272.253 59.8689 271.612 59.7109 270.972 59.5493C271.632 59.5644 272.292 59.5832 272.951 59.6057C278.884 59.808 284.776 60.307 290.627 61.1027C296.479 61.8983 302.291 62.9907 308.062 64.3797C308.703 64.534 309.344 64.692 309.984 64.8537Z" fill="#3C5633"/>
<path d="M96.8672 91.3547C102.254 90.0563 107.715 88.8715 113.177 87.7485C138.162 82.806 163.615 78.3528 188.836 79.2771C213.214 80.5966 237.191 86.2389 260.862 92.6122C278.605 97.3292 296.153 102.947 314.382 106.599C345.982 111.813 377.769 113.109 409.513 114.601C415.085 114.829 420.735 115.038 426.216 115.196C420.752 114.742 415.121 114.253 409.568 113.76C377.993 110.766 346.078 108.389 315.157 102.724C297.399 98.8459 279.835 93.0703 262.019 88.33C238.229 81.926 213.856 76.4737 188.979 75.7093C163.039 75.3825 137.778 80.7934 112.988 86.9271C107.578 88.3114 102.178 89.7706 96.8672 91.3547Z" fill="#3C5633"/>
<path d="M96.8672 91.3547C102.254 90.0563 107.715 88.8715 113.177 87.7485C138.162 82.806 163.615 78.3528 188.836 79.2771C213.214 80.5966 237.191 86.2389 260.862 92.6122C278.605 97.3292 296.153 102.947 314.382 106.599C345.982 111.813 377.769 113.109 409.513 114.601C415.085 114.829 420.735 115.038 426.216 115.196C420.752 114.742 415.121 114.253 409.568 113.76C377.993 110.766 346.078 108.389 315.157 102.724C297.399 98.8459 279.835 93.0703 262.019 88.33C238.229 81.926 213.856 76.4737 188.979 75.7093C163.039 75.3825 137.778 80.7934 112.988 86.9271C107.578 88.3114 102.178 89.7706 96.8672 91.3547Z" fill="#3C5633"/>
<path d="M360.801 104.009C364.828 103.882 368.498 103.717 372.447 103.457C407.448 102.041 441.117 89.8838 474.068 80.4592C507.428 71.4845 542.524 75.3748 576.747 81.7924C580.423 82.4817 584.209 83.2312 588.129 84.0484C584.28 82.9441 580.556 81.9205 576.932 80.9701C543.288 72.2224 507.368 66.9238 472.982 76.1584C439.197 85.8194 407.173 98.7651 372.363 102.619C368.45 103.142 364.807 103.587 360.801 104.009Z" fill="#3C5633"/>
<path d="M360.801 104.009C364.828 103.882 368.498 103.717 372.447 103.457C407.448 102.041 441.117 89.8838 474.068 80.4592C507.428 71.4845 542.524 75.3748 576.747 81.7924C580.423 82.4817 584.209 83.2312 588.129 84.0484C584.28 82.9441 580.556 81.9205 576.932 80.9701C543.288 72.2224 507.368 66.9238 472.982 76.1584C439.197 85.8194 407.173 98.7651 372.363 102.619C368.45 103.142 364.807 103.587 360.801 104.009Z" fill="#3C5633"/>
<path d="M241.582 74.068C245.388 73.5754 249.229 73.1478 253.059 72.7656C261.99 71.9059 270.973 71.1663 279.828 71.4182C298.904 71.5296 316.303 81.6338 336.29 82.3193C342.937 82.6891 349.597 82.3569 356.147 81.361C382.636 77.1721 405.924 63.1342 432.227 65.2805C440.64 65.7297 449.109 66.9495 457.519 68.2539C461.332 68.8572 465.121 69.4923 468.911 70.1868C468.911 70.1868 468.911 70.1868 468.911 70.1868C465.185 69.2036 461.449 68.2925 457.679 67.4264C449.354 65.5406 440.975 63.8041 432.405 62.8949C405.433 59.3076 380.541 73.1353 355.484 76.9752C349.207 77.9288 342.87 78.286 336.499 78.0147C317.74 77.7396 299.695 68.1426 279.851 68.9554C270.749 69.1656 261.829 70.4542 252.946 71.9303C249.144 72.5775 245.339 73.2837 241.582 74.068Z" fill="#3C5633"/>
<path d="M241.582 74.068C245.388 73.5754 249.229 73.1478 253.059 72.7656C261.99 71.9059 270.973 71.1663 279.828 71.4182C298.904 71.5296 316.303 81.6338 336.29 82.3193C342.937 82.6891 349.597 82.3569 356.147 81.361C382.636 77.1721 405.924 63.1342 432.227 65.2805C440.64 65.7297 449.109 66.9495 457.519 68.2539C461.332 68.8572 465.121 69.4923 468.911 70.1868C468.911 70.1868 468.911 70.1868 468.911 70.1868C465.185 69.2036 461.449 68.2925 457.679 67.4264C449.354 65.5406 440.975 63.8041 432.405 62.8949C405.433 59.3076 380.541 73.1353 355.484 76.9752C349.207 77.9288 342.87 78.286 336.499 78.0147C317.74 77.7396 299.695 68.1426 279.851 68.9554C270.749 69.1656 261.829 70.4542 252.946 71.9303C249.144 72.5775 245.339 73.2837 241.582 74.068Z" fill="#3C5633"/>
<path d="M269.855 77.3945C271.196 77.541 272.526 77.7266 273.854 77.9291C285.299 79.8653 296.941 82.0285 307.702 85.6309C308.136 85.8053 308.563 85.9757 308.985 86.1421C320.199 90.602 332.365 94.1856 344.55 93.3874C345.896 93.39 347.241 93.4131 348.589 93.4739C347.256 93.2659 345.916 93.1022 344.572 92.9665C332.364 92.5357 321.012 88.5123 309.799 84.0789C309.38 83.9139 308.956 83.7456 308.525 83.5741C297.161 79.8185 285.58 78.3286 273.897 77.5099C272.55 77.4393 271.204 77.3933 269.855 77.3945Z" fill="#3C5633"/>
<path d="M269.855 77.3945C271.196 77.541 272.526 77.7266 273.854 77.9291C285.299 79.8653 296.941 82.0285 307.702 85.6309C308.136 85.8053 308.563 85.9757 308.985 86.1421C320.199 90.602 332.365 94.1856 344.55 93.3874C345.896 93.39 347.241 93.4131 348.589 93.4739C347.256 93.2659 345.916 93.1022 344.572 92.9665C332.364 92.5357 321.012 88.5123 309.799 84.0789C309.38 83.9139 308.956 83.7456 308.525 83.5741C297.161 79.8185 285.58 78.3286 273.897 77.5099C272.55 77.4393 271.204 77.3933 269.855 77.3945Z" fill="#3C5633"/>
<path d="M333.624 50.2246C345.26 50.2247 354.693 59.6576 354.693 71.2939C354.693 74.2191 354.098 76.0015 353.134 77.0908C352.176 78.1723 350.761 78.6738 348.871 78.8232C346.973 78.9732 344.696 78.7615 342.096 78.5029C339.537 78.2485 336.693 77.9535 333.704 77.9482C330.877 77.1133 328.099 76.996 325.545 77.0977C324.257 77.1489 323.018 77.2556 321.861 77.3555C320.699 77.4558 319.624 77.5481 318.639 77.5742C316.644 77.6272 315.168 77.3999 314.176 76.5664C313.203 75.7485 312.555 74.2201 312.555 71.2939C312.555 59.6576 321.988 50.2246 333.624 50.2246Z" fill="#3C5633"/>
<path d="M333.624 50.2246C345.26 50.2247 354.693 59.6576 354.693 71.2939C354.693 74.2191 354.098 76.0015 353.134 77.0908C352.176 78.1723 350.761 78.6738 348.871 78.8232C346.973 78.9732 344.696 78.7615 342.096 78.5029C339.537 78.2485 336.693 77.9535 333.704 77.9482C330.877 77.1133 328.099 76.996 325.545 77.0977C324.257 77.1489 323.018 77.2556 321.861 77.3555C320.699 77.4558 319.624 77.5481 318.639 77.5742C316.644 77.6272 315.168 77.3999 314.176 76.5664C313.203 75.7485 312.555 74.2201 312.555 71.2939C312.555 59.6576 321.988 50.2246 333.624 50.2246Z" fill="#3C5633"/>
<path d="M333.624 50.2246C345.26 50.2247 354.693 59.6576 354.693 71.2939C354.693 74.2191 354.098 76.0015 353.134 77.0908C352.176 78.1723 350.761 78.6738 348.871 78.8232C346.973 78.9732 344.696 78.7615 342.096 78.5029C339.537 78.2485 336.693 77.9535 333.704 77.9482C330.877 77.1133 328.099 76.996 325.545 77.0977C324.257 77.1489 323.018 77.2556 321.861 77.3555C320.699 77.4558 319.624 77.5481 318.639 77.5742C316.644 77.6272 315.168 77.3999 314.176 76.5664C313.203 75.7485 312.555 74.2201 312.555 71.2939C312.555 59.6576 321.988 50.2246 333.624 50.2246Z" stroke="#3C5633" stroke-width="1.10892"/>
<path d="M333.624 50.2246C345.26 50.2247 354.693 59.6576 354.693 71.2939C354.693 74.2191 354.098 76.0015 353.134 77.0908C352.176 78.1723 350.761 78.6738 348.871 78.8232C346.973 78.9732 344.696 78.7615 342.096 78.5029C339.537 78.2485 336.693 77.9535 333.704 77.9482C330.877 77.1133 328.099 76.996 325.545 77.0977C324.257 77.1489 323.018 77.2556 321.861 77.3555C320.699 77.4558 319.624 77.5481 318.639 77.5742C316.644 77.6272 315.168 77.3999 314.176 76.5664C313.203 75.7485 312.555 74.2201 312.555 71.2939C312.555 59.6576 321.988 50.2246 333.624 50.2246Z" stroke="#3C5633" stroke-width="1.10892"/>
<path d="M4.63395 189.961V167.099C4.63395 165.829 4.45049 164.813 4.08357 164.051C3.74487 163.26 2.94047 162.865 1.67037 162.865H0.82363V162.019H11.9159C17.5043 162.019 21.6675 163.26 24.4053 165.744C27.1713 168.228 28.5543 171.587 28.5543 175.82C28.5543 178.558 27.9615 181 26.7761 183.145C25.6189 185.262 23.8831 186.927 21.5687 188.14C19.2825 189.354 16.4318 189.961 13.0166 189.961H4.63395ZM12.8896 188.479C14.9782 188.479 16.8552 187.971 18.5204 186.955C20.1857 185.939 21.4981 184.499 22.4578 182.637C23.4456 180.746 23.9395 178.53 23.9395 175.99C23.9395 173.478 23.4597 171.29 22.5001 169.428C21.5405 167.565 20.228 166.111 18.5628 165.067C16.8975 164.023 14.9782 163.5 12.805 163.5C12.184 163.5 11.5066 163.557 10.7728 163.67C10.0672 163.783 9.33334 163.952 8.57127 164.178V187.929C9.13576 188.042 9.65792 188.14 10.1377 188.225C10.6458 188.31 11.1256 188.38 11.5772 188.437C12.057 188.465 12.4945 188.479 12.8896 188.479ZM37.9888 189.961C37.0009 189.961 36.2247 189.834 35.6602 189.58C35.124 189.326 34.7429 188.832 34.5171 188.098C34.2913 187.364 34.1784 186.292 34.1784 184.881V162.019H37.9888V184.881C37.9888 186.151 38.1581 187.181 38.4968 187.971C38.8637 188.733 39.6822 189.114 40.9523 189.114H41.7991V189.961H37.9888ZM78.0884 191.866C76.0562 191.866 74.4615 191.542 73.3043 190.892C72.1753 190.271 71.385 189.298 70.9334 187.971C70.4819 186.616 70.2561 184.881 70.2561 182.764V166.464L59.6718 189.961H58.8251L47.8175 166.041V189.961H46.1241V162.019H50.1461L60.3069 184.034L70.2561 162.019H74.0664V182.764C74.0664 185.332 74.391 187.35 75.0401 188.818C75.6893 190.286 76.7054 191.019 78.0884 191.019V191.866ZM93.4008 190.808C90.7194 190.808 88.3909 190.159 86.4152 188.86C84.4677 187.534 82.9577 185.755 81.8851 183.526C80.8126 181.268 80.2763 178.756 80.2763 175.99C80.2763 173.224 80.8126 170.726 81.8851 168.496C82.9577 166.238 84.4677 164.46 86.4152 163.162C88.3909 161.835 90.7194 161.172 93.4008 161.172C96.0821 161.172 98.3965 161.835 100.344 163.162C102.32 164.46 103.844 166.238 104.916 168.496C105.989 170.726 106.525 173.224 106.525 175.99C106.525 178.756 105.989 181.268 104.916 183.526C103.844 185.755 102.32 187.534 100.344 188.86C98.3965 190.159 96.0821 190.808 93.4008 190.808ZM93.4008 189.114C95.2636 189.114 96.8583 188.578 98.1848 187.505C99.5114 186.433 100.527 184.923 101.233 182.975C101.939 181 102.291 178.671 102.291 175.99C102.291 173.308 101.939 170.994 101.233 169.047C100.527 167.071 99.5114 165.547 98.1848 164.474C96.8583 163.402 95.2636 162.865 93.4008 162.865C91.5662 162.865 89.9715 163.402 88.6167 164.474C87.2901 165.547 86.274 167.071 85.5684 169.047C84.8628 170.994 84.51 173.308 84.51 175.99C84.51 178.671 84.8628 181 85.5684 182.975C86.274 184.923 87.2901 186.433 88.6167 187.505C89.9715 188.578 91.5662 189.114 93.4008 189.114ZM131.253 190.384C130.294 190.384 129.404 190.201 128.586 189.834C127.796 189.439 127.005 188.804 126.215 187.929C125.453 187.026 124.606 185.798 123.675 184.245L119.441 177.048H116.478V189.961H112.667V167.099C112.667 165.829 112.484 164.813 112.117 164.051C111.778 163.26 110.974 162.865 109.704 162.865H108.857V162.019H119.865C120.57 162.019 121.389 162.075 122.32 162.188C123.252 162.273 124.183 162.456 125.114 162.738C126.074 163.021 126.949 163.444 127.739 164.008C128.558 164.573 129.207 165.307 129.687 166.21C130.195 167.113 130.449 168.242 130.449 169.597C130.449 171.206 130.096 172.504 129.39 173.492C128.713 174.452 127.852 175.185 126.808 175.693C125.764 176.201 124.719 176.582 123.675 176.837L128.12 184.245C129.193 186.052 130.152 187.294 130.999 187.971C131.846 188.62 132.791 189.001 133.836 189.114V189.961C133.61 190.074 133.257 190.173 132.777 190.257C132.326 190.342 131.818 190.384 131.253 190.384ZM116.478 175.566H119.526C120.147 175.566 120.838 175.454 121.6 175.228C122.362 175.002 123.096 174.663 123.802 174.212C124.508 173.732 125.086 173.111 125.538 172.349C125.989 171.587 126.215 170.655 126.215 169.555C126.215 168.454 125.989 167.522 125.538 166.76C125.086 165.998 124.508 165.377 123.802 164.898C123.096 164.418 122.362 164.065 121.6 163.839C120.838 163.613 120.147 163.5 119.526 163.5C119.074 163.5 118.552 163.543 117.959 163.627C117.395 163.712 116.901 163.811 116.478 163.924V175.566ZM159.692 190.173C159.071 190.173 158.309 190.06 157.406 189.834C156.503 189.58 155.614 189.072 154.739 188.31C153.864 187.52 153.116 186.306 152.495 184.669L151.436 181.917H139.582L136.195 189.961H134.29L146.144 162.019H147.414L156.728 184.669C157.406 186.249 158.055 187.364 158.676 188.013C159.297 188.634 160.2 189.001 161.385 189.114V189.961C161.16 190.017 160.892 190.06 160.581 190.088C160.299 190.144 160.002 190.173 159.692 190.173ZM140.217 180.223H150.59L145.509 167.946L140.217 180.223ZM175.304 189.961V167.099C175.304 165.829 175.121 164.813 174.754 164.051C174.415 163.26 173.611 162.865 172.341 162.865H171.494V162.019H182.586C188.175 162.019 192.338 163.26 195.076 165.744C197.842 168.228 199.225 171.587 199.225 175.82C199.225 178.558 198.632 181 197.447 183.145C196.289 185.262 194.554 186.927 192.239 188.14C189.953 189.354 187.102 189.961 183.687 189.961H175.304ZM183.56 188.479C185.649 188.479 187.526 187.971 189.191 186.955C190.856 185.939 192.169 184.499 193.128 182.637C194.116 180.746 194.61 178.53 194.61 175.99C194.61 173.478 194.13 171.29 193.171 169.428C192.211 167.565 190.898 166.111 189.233 165.067C187.568 164.023 185.649 163.5 183.475 163.5C182.854 163.5 182.177 163.557 181.443 163.67C180.738 163.783 180.004 163.952 179.242 164.178V187.929C179.806 188.042 180.328 188.14 180.808 188.225C181.316 188.31 181.796 188.38 182.248 188.437C182.727 188.465 183.165 188.479 183.56 188.479ZM205.279 189.961V167.099C205.279 165.829 205.096 164.813 204.729 164.051C204.39 163.26 203.586 162.865 202.316 162.865H201.469V162.019H219.504C220.492 162.019 221.24 162.188 221.748 162.527C222.256 162.837 222.609 163.26 222.807 163.797C223.004 164.305 223.103 164.841 223.103 165.406V168.581H222.256C222.256 166.887 221.791 165.66 220.859 164.898C219.956 164.107 218.658 163.712 216.964 163.712H209.089V174.72H220.52V176.413H209.089V188.267H216.498C218.418 188.267 219.928 187.915 221.028 187.209C222.157 186.503 223.047 185.304 223.696 183.61L224.542 183.822L223.061 187.844C222.835 188.493 222.454 189.015 221.918 189.411C221.41 189.777 220.732 189.961 219.885 189.961H205.279ZM230.251 189.961V167.099C230.251 165.829 230.068 164.813 229.701 164.051C229.362 163.26 228.558 162.865 227.288 162.865H226.441V162.019H230.251C231.239 162.019 232.001 162.146 232.537 162.4C233.102 162.654 233.497 163.148 233.723 163.881C233.949 164.615 234.062 165.688 234.062 167.099V188.267H249.091V189.961H230.251ZM270.794 189.961V163.712H266.983C265.29 163.712 263.978 164.107 263.046 164.898C262.143 165.66 261.691 166.887 261.691 168.581H260.845V165.406C260.845 164.841 260.943 164.305 261.141 163.797C261.339 163.26 261.691 162.837 262.199 162.527C262.736 162.188 263.484 162.019 264.443 162.019H284.13V163.712H274.604V189.961H270.794ZM307.712 190.384C306.752 190.384 305.863 190.201 305.045 189.834C304.254 189.439 303.464 188.804 302.674 187.929C301.912 187.026 301.065 185.798 300.134 184.245L295.9 177.048H292.936V189.961H289.126V167.099C289.126 165.829 288.943 164.813 288.576 164.051C288.237 163.26 287.433 162.865 286.162 162.865H285.316V162.019H296.323C297.029 162.019 297.847 162.075 298.779 162.188C299.71 162.273 300.642 162.456 301.573 162.738C302.533 163.021 303.408 163.444 304.198 164.008C305.016 164.573 305.666 165.307 306.145 166.21C306.653 167.113 306.907 168.242 306.907 169.597C306.907 171.206 306.555 172.504 305.849 173.492C305.172 174.452 304.311 175.185 303.266 175.693C302.222 176.201 301.178 176.582 300.134 176.837L304.579 184.245C305.651 186.052 306.611 187.294 307.458 187.971C308.305 188.62 309.25 189.001 310.294 189.114V189.961C310.069 190.074 309.716 190.173 309.236 190.257C308.784 190.342 308.276 190.384 307.712 190.384ZM292.936 175.566H295.985C296.605 175.566 297.297 175.454 298.059 175.228C298.821 175.002 299.555 174.663 300.261 174.212C300.966 173.732 301.545 173.111 301.996 172.349C302.448 171.587 302.674 170.655 302.674 169.555C302.674 168.454 302.448 167.522 301.996 166.76C301.545 165.998 300.966 165.377 300.261 164.898C299.555 164.418 298.821 164.065 298.059 163.839C297.297 163.613 296.605 163.5 295.985 163.5C295.533 163.5 295.011 163.543 294.418 163.627C293.854 163.712 293.36 163.811 292.936 163.924V175.566ZM336.151 190.173C335.53 190.173 334.768 190.06 333.864 189.834C332.961 189.58 332.072 189.072 331.197 188.31C330.322 187.52 329.574 186.306 328.953 184.669L327.895 181.917H316.041L312.654 189.961H310.749L322.603 162.019H323.873L333.187 184.669C333.864 186.249 334.514 187.364 335.135 188.013C335.755 188.634 336.659 189.001 337.844 189.114V189.961C337.618 190.017 337.35 190.06 337.04 190.088C336.757 190.144 336.461 190.173 336.151 190.173ZM316.676 180.223H327.048L321.968 167.946L316.676 180.223ZM372.296 191.866C370.264 191.866 368.67 191.542 367.512 190.892C366.383 190.271 365.593 189.298 365.141 187.971C364.69 186.616 364.464 184.881 364.464 182.764V166.464L353.88 189.961H353.033L342.026 166.041V189.961H340.332V162.019H344.354L354.515 184.034L364.464 162.019H368.274V182.764C368.274 185.332 368.599 187.35 369.248 188.818C369.897 190.286 370.913 191.019 372.296 191.019V191.866ZM387.609 190.808C384.927 190.808 382.599 190.159 380.623 188.86C378.676 187.534 377.166 185.755 376.093 183.526C375.021 181.268 374.484 178.756 374.484 175.99C374.484 173.224 375.021 170.726 376.093 168.496C377.166 166.238 378.676 164.46 380.623 163.162C382.599 161.835 384.927 161.172 387.609 161.172C390.29 161.172 392.605 161.835 394.552 163.162C396.528 164.46 398.052 166.238 399.124 168.496C400.197 170.726 400.733 173.224 400.733 175.99C400.733 178.756 400.197 181.268 399.124 183.526C398.052 185.755 396.528 187.534 394.552 188.86C392.605 190.159 390.29 190.808 387.609 190.808ZM387.609 189.114C389.472 189.114 391.066 188.578 392.393 187.505C393.719 186.433 394.735 184.923 395.441 182.975C396.147 181 396.499 178.671 396.499 175.99C396.499 173.308 396.147 170.994 395.441 169.047C394.735 167.071 393.719 165.547 392.393 164.474C391.066 163.402 389.472 162.865 387.609 162.865C385.774 162.865 384.179 163.402 382.825 164.474C381.498 165.547 380.482 167.071 379.776 169.047C379.071 170.994 378.718 173.308 378.718 175.99C378.718 178.671 379.071 181 379.776 182.975C380.482 184.923 381.498 186.433 382.825 187.505C384.179 188.578 385.774 189.114 387.609 189.114ZM426.943 190.384L408.738 167.734V189.961H407.045V167.099C407.045 165.829 406.777 164.813 406.24 164.051C405.704 163.26 404.702 162.865 403.234 162.865H402.811V162.019H405.563C406.946 162.019 408.075 162.244 408.95 162.696C409.853 163.148 410.629 163.769 411.278 164.559L426.096 182.975V162.019H427.79V190.384H426.943ZM442.208 189.961V163.712H438.398C436.705 163.712 435.392 164.107 434.461 164.898C433.558 165.66 433.106 166.887 433.106 168.581H432.259V165.406C432.259 164.841 432.358 164.305 432.556 163.797C432.753 163.26 433.106 162.837 433.614 162.527C434.15 162.188 434.898 162.019 435.858 162.019H455.545V163.712H446.019V189.961H442.208ZM469.388 190.808C466.707 190.808 464.378 190.159 462.403 188.86C460.455 187.534 458.945 185.755 457.873 183.526C456.8 181.268 456.264 178.756 456.264 175.99C456.264 173.224 456.8 170.726 457.873 168.496C458.945 166.238 460.455 164.46 462.403 163.162C464.378 161.835 466.707 161.172 469.388 161.172C472.07 161.172 474.384 161.835 476.332 163.162C478.307 164.46 479.831 166.238 480.904 168.496C481.976 170.726 482.513 173.224 482.513 175.99C482.513 178.756 481.976 181.268 480.904 183.526C479.831 185.755 478.307 187.534 476.332 188.86C474.384 190.159 472.07 190.808 469.388 190.808ZM469.388 189.114C471.251 189.114 472.846 188.578 474.172 187.505C475.499 186.433 476.515 184.923 477.221 182.975C477.926 181 478.279 178.671 478.279 175.99C478.279 173.308 477.926 170.994 477.221 169.047C476.515 167.071 475.499 165.547 474.172 164.474C472.846 163.402 471.251 162.865 469.388 162.865C467.554 162.865 465.959 163.402 464.604 164.474C463.278 165.547 462.262 167.071 461.556 169.047C460.85 170.994 460.498 173.308 460.498 175.99C460.498 178.671 460.85 181 461.556 182.975C462.262 184.923 463.278 186.433 464.604 187.505C465.959 188.578 467.554 189.114 469.388 189.114ZM505.879 189.961V163.712H502.069C500.375 163.712 499.063 164.107 498.131 164.898C497.228 165.66 496.777 166.887 496.777 168.581H495.93V165.406C495.93 164.841 496.029 164.305 496.226 163.797C496.424 163.26 496.777 162.837 497.285 162.527C497.821 162.188 498.569 162.019 499.529 162.019H519.215V163.712H509.689V189.961H505.879ZM533.059 190.808C530.378 190.808 528.049 190.159 526.073 188.86C524.126 187.534 522.616 185.755 521.543 183.526C520.471 181.268 519.935 178.756 519.935 175.99C519.935 173.224 520.471 170.726 521.543 168.496C522.616 166.238 524.126 164.46 526.073 163.162C528.049 161.835 530.378 161.172 533.059 161.172C535.74 161.172 538.055 161.835 540.002 163.162C541.978 164.46 543.502 166.238 544.575 168.496C545.647 170.726 546.183 173.224 546.183 175.99C546.183 178.756 545.647 181.268 544.575 183.526C543.502 185.755 541.978 187.534 540.002 188.86C538.055 190.159 535.74 190.808 533.059 190.808ZM533.059 189.114C534.922 189.114 536.516 188.578 537.843 187.505C539.17 186.433 540.186 184.923 540.891 182.975C541.597 181 541.95 178.671 541.95 175.99C541.95 173.308 541.597 170.994 540.891 169.047C540.186 167.071 539.17 165.547 537.843 164.474C536.516 163.402 534.922 162.865 533.059 162.865C531.224 162.865 529.63 163.402 528.275 164.474C526.948 165.547 525.932 167.071 525.227 169.047C524.521 170.994 524.168 173.308 524.168 175.99C524.168 178.671 524.521 181 525.227 182.975C525.932 184.923 526.948 186.433 528.275 187.505C529.63 188.578 531.224 189.114 533.059 189.114ZM560.066 190.681C558.937 190.681 557.794 190.554 556.637 190.3C555.508 190.074 554.464 189.735 553.504 189.284C552.573 188.832 551.825 188.296 551.26 187.675C550.696 187.026 550.413 186.306 550.413 185.516V180.986H551.176C551.655 183.836 552.587 185.882 553.97 187.124C555.381 188.366 557.286 188.987 559.685 188.987C560.645 188.987 561.548 188.832 562.395 188.521C563.242 188.183 563.919 187.689 564.427 187.04C564.963 186.391 565.231 185.6 565.231 184.669C565.231 183.427 564.836 182.369 564.046 181.494C563.284 180.619 562.127 179.73 560.574 178.826L555.367 175.736C553.56 174.663 552.276 173.577 551.514 172.476C550.78 171.375 550.413 170.034 550.413 168.454C550.413 166.281 551.161 164.545 552.657 163.246C554.181 161.92 556.171 161.257 558.627 161.257C559.671 161.257 560.73 161.369 561.802 161.595C562.875 161.821 563.862 162.16 564.766 162.611C565.669 163.035 566.389 163.557 566.925 164.178C567.489 164.799 567.772 165.518 567.772 166.337V170.867H567.009C566.53 168.016 565.612 165.984 564.258 164.771C562.903 163.557 561.026 162.95 558.627 162.95C557.808 162.95 557.018 163.133 556.256 163.5C555.494 163.839 554.873 164.333 554.393 164.982C553.942 165.603 553.716 166.351 553.716 167.226C553.716 168.44 554.111 169.442 554.901 170.232C555.691 171.022 556.863 171.869 558.415 172.772L563.623 175.863C565.429 176.935 566.755 177.98 567.602 178.996C568.449 179.984 568.872 181.268 568.872 182.848C568.872 185.219 568.082 187.124 566.501 188.564C564.921 189.975 562.776 190.681 560.066 190.681ZM585.689 190.808C583.007 190.808 580.679 190.173 578.703 188.903C576.756 187.604 575.246 185.868 574.173 183.695C573.101 181.494 572.564 179.066 572.564 176.413C572.564 174.296 572.903 172.321 573.58 170.486C574.258 168.623 575.203 167 576.417 165.617C577.631 164.234 579.028 163.148 580.608 162.357C582.189 161.567 583.882 161.172 585.689 161.172C588.031 161.172 590.049 161.511 591.743 162.188C593.436 162.837 594.664 163.627 595.426 164.559C595.962 165.208 596.273 166.111 596.358 167.268C596.442 168.426 596.485 169.639 596.485 170.909H595.638C595.102 168.143 594.1 166.111 592.632 164.813C591.192 163.515 589.301 162.865 586.959 162.865C585.124 162.865 583.431 163.289 581.878 164.135C580.326 164.982 579.084 166.393 578.153 168.369C577.25 170.345 576.798 173.026 576.798 176.413C576.798 177.994 576.981 179.546 577.348 181.07C577.743 182.566 578.35 183.921 579.169 185.135C579.987 186.348 581.032 187.322 582.302 188.056C583.6 188.761 585.152 189.114 586.959 189.114C589.076 189.114 590.896 188.606 592.42 187.59C593.944 186.574 595.299 185.106 596.485 183.187L597.331 183.822C595.977 186.475 594.325 188.31 592.378 189.326C590.43 190.314 588.201 190.808 585.689 190.808ZM625.191 190.173C624.57 190.173 623.808 190.06 622.904 189.834C622.001 189.58 621.112 189.072 620.237 188.31C619.362 187.52 618.614 186.306 617.993 184.669L616.935 181.917H605.081L601.694 189.961H599.788L611.643 162.019H612.913L622.227 184.669C622.904 186.249 623.554 187.364 624.174 188.013C624.795 188.634 625.699 189.001 626.884 189.114V189.961C626.658 190.017 626.39 190.06 626.08 190.088C625.797 190.144 625.501 190.173 625.191 190.173ZM605.716 180.223H616.088L611.008 167.946L605.716 180.223ZM650.286 190.384L632.082 167.734V189.961H630.388V167.099C630.388 165.829 630.12 164.813 629.584 164.051C629.047 163.26 628.045 162.865 626.578 162.865H626.154V162.019H628.906C630.289 162.019 631.418 162.244 632.293 162.696C633.196 163.148 633.973 163.769 634.622 164.559L649.44 182.975V162.019H651.133V190.384H650.286ZM669.785 190.808C667.104 190.808 664.776 190.159 662.8 188.86C660.852 187.534 659.342 185.755 658.27 183.526C657.197 181.268 656.661 178.756 656.661 175.99C656.661 173.224 657.197 170.726 658.27 168.496C659.342 166.238 660.852 164.46 662.8 163.162C664.776 161.835 667.104 161.172 669.785 161.172C672.467 161.172 674.781 161.835 676.729 163.162C678.704 164.46 680.229 166.238 681.301 168.496C682.374 170.726 682.91 173.224 682.91 175.99C682.91 178.756 682.374 181.268 681.301 183.526C680.229 185.755 678.704 187.534 676.729 188.86C674.781 190.159 672.467 190.808 669.785 190.808ZM669.785 189.114C671.648 189.114 673.243 188.578 674.57 187.505C675.896 186.433 676.912 184.923 677.618 182.975C678.323 181 678.676 178.671 678.676 175.99C678.676 173.308 678.323 170.994 677.618 169.047C676.912 167.071 675.896 165.547 674.57 164.474C673.243 163.402 671.648 162.865 669.785 162.865C667.951 162.865 666.356 163.402 665.001 164.474C663.675 165.547 662.659 167.071 661.953 169.047C661.248 170.994 660.895 173.308 660.895 175.99C660.895 178.671 661.248 181 661.953 182.975C662.659 184.923 663.675 186.433 665.001 187.505C666.356 188.578 667.951 189.114 669.785 189.114Z" fill="#3C5633"/>
<path d="M182.902 227.654C183.351 227.666 183.782 227.497 184.1 227.179C184.417 226.862 184.596 226.421 184.596 225.961C184.596 225.501 184.417 225.06 184.1 224.743C183.782 224.425 183.351 224.256 182.902 224.267C181.754 224.296 180.605 224.324 179.456 224.352C158.779 224.86 138.102 225.368 117.425 225.876C116.277 225.904 115.128 225.933 113.979 225.961C115.128 225.989 116.277 226.017 117.425 226.046C138.102 226.554 158.779 227.062 179.456 227.57C180.605 227.598 181.754 227.626 182.902 227.654Z" fill="#3C5633"/>
<path d="M202.641 232.961V216.96C202.641 216.071 202.512 215.36 202.256 214.827C202.019 214.274 201.456 213.997 200.567 213.997H199.974V213.405H207.678C208.192 213.405 208.765 213.444 209.397 213.523C210.049 213.582 210.7 213.731 211.352 213.968C212.024 214.185 212.636 214.511 213.189 214.946C213.762 215.38 214.217 215.953 214.552 216.664C214.908 217.375 215.086 218.264 215.086 219.331C215.086 220.338 214.918 221.188 214.582 221.879C214.246 222.551 213.802 223.094 213.249 223.509C212.715 223.924 212.152 224.24 211.56 224.457C210.967 224.654 210.404 224.793 209.871 224.872C209.337 224.931 208.903 224.961 208.567 224.961H205.308V232.961H202.641ZM205.308 223.924H207.53C207.945 223.924 208.409 223.845 208.923 223.687C209.436 223.529 209.94 223.262 210.434 222.887C210.928 222.511 211.333 222.027 211.649 221.435C211.965 220.822 212.123 220.072 212.123 219.183C212.123 218.294 211.965 217.553 211.649 216.96C211.333 216.348 210.928 215.854 210.434 215.479C209.94 215.104 209.436 214.837 208.923 214.679C208.409 214.521 207.945 214.442 207.53 214.442C207.155 214.442 206.76 214.471 206.345 214.531C205.95 214.59 205.604 214.659 205.308 214.738V223.924ZM218.219 232.961V222.59C218.219 221.701 218.091 220.99 217.834 220.457C217.597 219.904 217.034 219.627 216.145 219.627H215.849V219.035H218.219C218.97 219.035 219.533 219.143 219.908 219.36C220.303 219.578 220.58 219.914 220.738 220.368C221.074 220.032 221.558 219.677 222.19 219.301C222.842 218.926 223.592 218.738 224.442 218.738C224.738 218.738 225.054 218.778 225.39 218.857C225.726 218.916 226.002 219.025 226.22 219.183C226.437 219.341 226.625 219.528 226.783 219.746C226.941 219.963 227.099 220.22 227.257 220.516L226.072 221.405C225.854 221.109 225.528 220.891 225.094 220.753C224.679 220.595 224.215 220.516 223.701 220.516C223.108 220.516 222.565 220.654 222.071 220.931C221.578 221.188 221.182 221.543 220.886 221.998C220.886 222.096 220.886 222.245 220.886 222.442C220.886 222.62 220.886 222.768 220.886 222.887V232.961H218.219ZM230.204 232.961V222.59C230.204 221.701 230.075 220.99 229.819 220.457C229.582 219.904 229.019 219.627 228.13 219.627H227.537V219.035H230.204C230.895 219.035 231.429 219.123 231.804 219.301C232.199 219.479 232.476 219.825 232.634 220.338C232.792 220.852 232.871 221.603 232.871 222.59V232.961H230.204ZM231.33 217.257C230.875 217.257 230.48 217.069 230.145 216.694C229.829 216.318 229.67 215.874 229.67 215.36C229.67 214.946 229.789 214.62 230.026 214.383C230.283 214.145 230.619 214.027 231.033 214.027C231.488 214.027 231.873 214.215 232.189 214.59C232.525 214.965 232.693 215.41 232.693 215.923C232.693 216.338 232.564 216.664 232.308 216.901C232.071 217.138 231.745 217.257 231.33 217.257ZM242.444 233.257L237.851 222.442C237.377 221.336 236.923 220.565 236.488 220.131C236.054 219.677 235.481 219.43 234.77 219.39V218.797C234.849 218.797 234.997 218.788 235.214 218.768C235.451 218.748 235.639 218.738 235.777 218.738C236.39 218.738 236.992 218.837 237.585 219.035C238.197 219.212 238.78 219.568 239.333 220.101C239.886 220.635 240.38 221.415 240.814 222.442L243.481 228.813L247.629 219.035H249.111L243.037 233.257H242.444ZM255.098 233.257C254.684 233.257 254.229 233.188 253.735 233.05C253.261 232.931 252.797 232.714 252.343 232.398C251.888 232.082 251.513 231.657 251.217 231.124C250.94 230.59 250.802 229.919 250.802 229.109C250.802 228.022 251.148 227.183 251.839 226.59C252.55 225.998 253.479 225.583 254.624 225.346C255.79 225.089 257.034 224.961 258.358 224.961H259.247C259.247 223.578 259.108 222.531 258.832 221.82C258.555 221.089 258.18 220.595 257.706 220.338C257.252 220.062 256.728 219.923 256.135 219.923C255.306 219.923 254.605 220.101 254.032 220.457C253.479 220.812 253.093 221.474 252.876 222.442H251.543C251.543 221.928 251.572 221.454 251.632 221.02C251.691 220.565 251.908 220.151 252.284 219.775C252.659 219.4 253.271 219.133 254.121 218.975C254.97 218.817 255.839 218.738 256.728 218.738C257.4 218.738 258.042 218.817 258.654 218.975C259.286 219.133 259.839 219.43 260.313 219.864C260.807 220.279 261.192 220.901 261.469 221.731C261.765 222.541 261.913 223.617 261.913 224.961V232.961H260.432L259.395 231.628H259.247C258.95 232.003 258.466 232.368 257.795 232.724C257.123 233.079 256.224 233.257 255.098 233.257ZM256.432 231.924C257.163 231.924 257.736 231.746 258.15 231.391C258.585 231.015 258.95 230.6 259.247 230.146V226.146H258.358C256.876 226.146 255.711 226.422 254.861 226.976C254.032 227.509 253.617 228.22 253.617 229.109C253.617 230.077 253.903 230.788 254.476 231.242C255.049 231.697 255.701 231.924 256.432 231.924ZM270.164 233.257C269.117 233.257 268.258 232.951 267.586 232.339C266.934 231.726 266.608 230.749 266.608 229.405V220.22H264.534V219.035H266.608V216.368L268.09 214.59H269.275V219.035H272.831V220.22H269.275V229.405C269.275 230.294 269.443 230.966 269.779 231.42C270.134 231.855 270.658 232.072 271.349 232.072C271.863 232.072 272.288 232.013 272.623 231.894C272.959 231.776 273.275 231.637 273.572 231.479L273.868 232.072C273.552 232.309 273.117 232.566 272.564 232.842C272.011 233.119 271.211 233.257 270.164 233.257ZM281.48 233.257C280.097 233.257 278.941 232.931 278.013 232.279C277.104 231.628 276.413 230.749 275.939 229.642C275.484 228.536 275.257 227.321 275.257 225.998C275.257 224.654 275.494 223.44 275.968 222.353C276.442 221.247 277.124 220.368 278.013 219.716C278.902 219.064 279.959 218.738 281.183 218.738C282.527 218.738 283.633 218.995 284.502 219.509C285.391 220.002 286.043 220.733 286.458 221.701C286.892 222.669 287.109 223.854 287.109 225.257L287.05 226.442H278.072C278.072 228.062 278.418 229.405 279.109 230.472C279.82 231.539 280.808 232.072 282.072 232.072C283.04 232.072 283.84 231.865 284.472 231.45C285.124 231.035 285.707 230.452 286.221 229.702L286.813 230.146C286.379 230.897 285.885 231.499 285.332 231.953C284.798 232.408 284.206 232.744 283.554 232.961C282.922 233.158 282.23 233.257 281.48 233.257ZM278.072 225.257H284.295C284.295 223.538 284.038 222.225 283.524 221.316C283.011 220.388 282.23 219.923 281.183 219.923C280.591 219.923 280.057 220.16 279.583 220.635C279.129 221.089 278.764 221.721 278.487 222.531C278.21 223.321 278.072 224.23 278.072 225.257ZM303.385 232.961V214.59H300.718C299.533 214.59 298.614 214.866 297.963 215.42C297.331 215.953 297.014 216.812 297.014 217.997H296.422V215.775C296.422 215.38 296.491 215.005 296.629 214.649C296.768 214.274 297.014 213.978 297.37 213.76C297.745 213.523 298.269 213.405 298.94 213.405H312.719V214.59H306.052V232.961H303.385ZM318.77 233.257C317.94 233.257 317.14 233.109 316.37 232.813C315.6 232.516 314.967 231.983 314.474 231.213C313.98 230.442 313.733 229.346 313.733 227.924V222.59C313.733 221.701 313.604 220.99 313.348 220.457C313.111 219.904 312.548 219.627 311.659 219.627H311.362V219.035H313.733C314.424 219.035 314.958 219.123 315.333 219.301C315.728 219.479 316.005 219.825 316.163 220.338C316.321 220.852 316.4 221.603 316.4 222.59V227.924C316.4 228.911 316.558 229.702 316.874 230.294C317.19 230.867 317.595 231.282 318.089 231.539C318.602 231.795 319.126 231.924 319.659 231.924C320.054 231.924 320.429 231.855 320.785 231.716C321.14 231.558 321.476 231.361 321.792 231.124C322.108 230.887 322.385 230.63 322.622 230.353V219.035H325.289V232.961H323.807L322.77 231.776H322.622C322.247 232.151 321.733 232.497 321.081 232.813C320.429 233.109 319.659 233.257 318.77 233.257ZM334.212 233.257C333.027 233.257 332.059 233.158 331.308 232.961C330.558 232.744 329.995 232.447 329.619 232.072C329.244 231.697 329.027 231.272 328.968 230.798C328.908 230.324 328.879 229.711 328.879 228.961H329.471C329.629 229.929 330.044 230.689 330.716 231.242C331.387 231.795 332.355 232.072 333.62 232.072C334.746 232.072 335.565 231.874 336.079 231.479C336.612 231.084 336.879 230.59 336.879 229.998C336.879 229.405 336.652 228.911 336.197 228.516C335.763 228.102 335.101 227.706 334.212 227.331L332.434 226.59C331.308 226.136 330.429 225.603 329.797 224.99C329.185 224.358 328.879 223.558 328.879 222.59C328.879 221.346 329.343 220.398 330.271 219.746C331.2 219.074 332.365 218.738 333.768 218.738C334.894 218.738 335.822 218.847 336.553 219.064C337.284 219.262 337.837 219.548 338.212 219.923C338.588 220.299 338.805 220.723 338.864 221.198C338.924 221.672 338.953 222.284 338.953 223.035H338.361C338.203 222.067 337.788 221.306 337.116 220.753C336.464 220.2 335.546 219.923 334.36 219.923C333.392 219.923 332.652 220.121 332.138 220.516C331.644 220.911 331.397 221.405 331.397 221.998C331.397 222.511 331.605 222.985 332.02 223.42C332.434 223.835 333.017 224.2 333.768 224.516L335.546 225.257C336.81 225.771 337.768 226.334 338.42 226.946C339.072 227.558 339.398 228.378 339.398 229.405C339.398 230.65 338.904 231.608 337.916 232.279C336.928 232.931 335.694 233.257 334.212 233.257ZM348.503 233.257C347.041 233.257 345.826 232.931 344.858 232.279C343.89 231.628 343.169 230.749 342.695 229.642C342.221 228.536 341.984 227.321 341.984 225.998C341.984 224.654 342.221 223.44 342.695 222.353C343.169 221.247 343.89 220.368 344.858 219.716C345.826 219.064 347.041 218.738 348.503 218.738C349.55 218.738 350.429 218.817 351.14 218.975C351.871 219.133 352.424 219.4 352.799 219.775C353.175 220.151 353.392 220.615 353.451 221.168C353.51 221.701 353.54 222.521 353.54 223.627H352.947C352.868 222.363 352.463 221.435 351.733 220.842C351.021 220.23 350.142 219.923 349.095 219.923C348.108 219.923 347.298 220.2 346.666 220.753C346.034 221.286 345.559 222.007 345.243 222.916C344.947 223.825 344.799 224.852 344.799 225.998C344.799 227.124 344.947 228.151 345.243 229.079C345.559 229.988 346.034 230.719 346.666 231.272C347.298 231.805 348.108 232.072 349.095 232.072C350.142 232.072 350.992 231.865 351.644 231.45C352.295 231.035 352.878 230.452 353.392 229.702L353.984 230.146C353.55 230.897 353.056 231.499 352.503 231.953C351.95 232.408 351.337 232.744 350.666 232.961C350.014 233.158 349.293 233.257 348.503 233.257ZM360.426 233.257C360.011 233.257 359.557 233.188 359.063 233.05C358.589 232.931 358.125 232.714 357.67 232.398C357.216 232.082 356.841 231.657 356.544 231.124C356.268 230.59 356.13 229.919 356.13 229.109C356.13 228.022 356.475 227.183 357.167 226.59C357.878 225.998 358.806 225.583 359.952 225.346C361.117 225.089 362.362 224.961 363.685 224.961H364.574C364.574 223.578 364.436 222.531 364.16 221.82C363.883 221.089 363.508 220.595 363.034 220.338C362.579 220.062 362.056 219.923 361.463 219.923C360.634 219.923 359.932 220.101 359.359 220.457C358.806 220.812 358.421 221.474 358.204 222.442H356.87C356.87 221.928 356.9 221.454 356.959 221.02C357.019 220.565 357.236 220.151 357.611 219.775C357.987 219.4 358.599 219.133 359.448 218.975C360.298 218.817 361.167 218.738 362.056 218.738C362.727 218.738 363.369 218.817 363.982 218.975C364.614 219.133 365.167 219.43 365.641 219.864C366.135 220.279 366.52 220.901 366.797 221.731C367.093 222.541 367.241 223.617 367.241 224.961V232.961H365.76L364.723 231.628H364.574C364.278 232.003 363.794 232.368 363.122 232.724C362.451 233.079 361.552 233.257 360.426 233.257ZM361.759 231.924C362.49 231.924 363.063 231.746 363.478 231.391C363.913 231.015 364.278 230.6 364.574 230.146V226.146H363.685C362.204 226.146 361.038 226.422 360.189 226.976C359.359 227.509 358.945 228.22 358.945 229.109C358.945 230.077 359.231 230.788 359.804 231.242C360.377 231.697 361.029 231.924 361.759 231.924ZM371.817 232.961V222.59C371.817 221.701 371.689 220.99 371.432 220.457C371.195 219.904 370.632 219.627 369.743 219.627H369.151V219.035H371.817C372.568 219.035 373.131 219.143 373.506 219.36C373.901 219.558 374.178 219.844 374.336 220.22C374.731 219.884 375.274 219.558 375.966 219.242C376.657 218.906 377.447 218.738 378.336 218.738C379.186 218.738 379.986 218.886 380.736 219.183C381.507 219.479 382.139 220.012 382.633 220.783C383.126 221.533 383.373 222.63 383.373 224.072V232.961H380.707V224.072C380.707 223.084 380.549 222.304 380.233 221.731C379.917 221.138 379.512 220.714 379.018 220.457C378.524 220.2 378 220.072 377.447 220.072C376.855 220.072 376.302 220.23 375.788 220.546C375.294 220.862 374.86 221.227 374.484 221.642V232.961H371.817ZM408.913 233.257C408.242 233.257 407.62 233.129 407.047 232.872C406.494 232.595 405.94 232.151 405.387 231.539C404.854 230.907 404.261 230.047 403.61 228.961L400.646 223.924H398.572V232.961H395.906V216.96C395.906 216.071 395.777 215.36 395.52 214.827C395.283 214.274 394.72 213.997 393.831 213.997H393.239V213.405H400.943C401.437 213.405 402.009 213.444 402.661 213.523C403.313 213.582 403.965 213.711 404.617 213.908C405.289 214.106 405.901 214.402 406.454 214.797C407.027 215.192 407.481 215.706 407.817 216.338C408.173 216.97 408.35 217.76 408.35 218.709C408.35 219.835 408.104 220.743 407.61 221.435C407.136 222.106 406.533 222.62 405.802 222.975C405.071 223.331 404.34 223.598 403.61 223.775L406.721 228.961C407.471 230.225 408.143 231.094 408.736 231.568C409.328 232.023 409.99 232.289 410.721 232.368V232.961C410.563 233.04 410.316 233.109 409.98 233.168C409.664 233.228 409.308 233.257 408.913 233.257ZM398.572 222.887H400.706C401.14 222.887 401.624 222.808 402.158 222.649C402.691 222.491 403.205 222.254 403.698 221.938C404.192 221.603 404.597 221.168 404.913 220.635C405.229 220.101 405.387 219.449 405.387 218.679C405.387 217.909 405.229 217.257 404.913 216.723C404.597 216.19 404.192 215.755 403.698 215.42C403.205 215.084 402.691 214.837 402.158 214.679C401.624 214.521 401.14 214.442 400.706 214.442C400.39 214.442 400.024 214.471 399.609 214.531C399.214 214.59 398.869 214.659 398.572 214.738V222.887ZM417.74 233.257C416.357 233.257 415.202 232.931 414.273 232.279C413.365 231.628 412.673 230.749 412.199 229.642C411.745 228.536 411.518 227.321 411.518 225.998C411.518 224.654 411.755 223.44 412.229 222.353C412.703 221.247 413.384 220.368 414.273 219.716C415.162 219.064 416.219 218.738 417.444 218.738C418.787 218.738 419.893 218.995 420.762 219.509C421.651 220.002 422.303 220.733 422.718 221.701C423.153 222.669 423.37 223.854 423.37 225.257L423.311 226.442H414.333C414.333 228.062 414.678 229.405 415.37 230.472C416.081 231.539 417.068 232.072 418.333 232.072C419.301 232.072 420.101 231.865 420.733 231.45C421.385 231.035 421.967 230.452 422.481 229.702L423.074 230.146C422.639 230.897 422.145 231.499 421.592 231.953C421.059 232.408 420.466 232.744 419.814 232.961C419.182 233.158 418.491 233.257 417.74 233.257ZM414.333 225.257H420.555C420.555 223.538 420.298 222.225 419.785 221.316C419.271 220.388 418.491 219.923 417.444 219.923C416.851 219.923 416.318 220.16 415.844 220.635C415.389 221.089 415.024 221.721 414.747 222.531C414.471 223.321 414.333 224.23 414.333 225.257ZM430.904 233.257C429.857 233.257 428.998 232.951 428.327 232.339C427.675 231.726 427.349 230.749 427.349 229.405V220.22H425.275V219.035H427.349V216.368L428.83 214.59H430.016V219.035H433.571V220.22H430.016V229.405C430.016 230.294 430.183 230.966 430.519 231.42C430.875 231.855 431.398 232.072 432.09 232.072C432.603 232.072 433.028 232.013 433.364 231.894C433.7 231.776 434.016 231.637 434.312 231.479L434.608 232.072C434.292 232.309 433.858 232.566 433.305 232.842C432.751 233.119 431.951 233.257 430.904 233.257ZM437.035 232.961V222.59C437.035 221.701 436.906 220.99 436.65 220.457C436.412 219.904 435.85 219.627 434.961 219.627H434.664V219.035H437.035C437.785 219.035 438.348 219.143 438.724 219.36C439.119 219.578 439.395 219.914 439.553 220.368C439.889 220.032 440.373 219.677 441.005 219.301C441.657 218.926 442.408 218.738 443.257 218.738C443.553 218.738 443.87 218.778 444.205 218.857C444.541 218.916 444.818 219.025 445.035 219.183C445.252 219.341 445.44 219.528 445.598 219.746C445.756 219.963 445.914 220.22 446.072 220.516L444.887 221.405C444.67 221.109 444.344 220.891 443.909 220.753C443.494 220.595 443.03 220.516 442.516 220.516C441.924 220.516 441.381 220.654 440.887 220.931C440.393 221.188 439.998 221.543 439.702 221.998C439.702 222.096 439.702 222.245 439.702 222.442C439.702 222.62 439.702 222.768 439.702 222.887V232.961H437.035ZM453.737 233.257C452.354 233.257 451.198 232.931 450.27 232.279C449.361 231.628 448.67 230.749 448.196 229.642C447.741 228.536 447.514 227.321 447.514 225.998C447.514 224.654 447.751 223.44 448.225 222.353C448.699 221.247 449.381 220.368 450.27 219.716C451.159 219.064 452.216 218.738 453.44 218.738C454.784 218.738 455.89 218.995 456.759 219.509C457.648 220.002 458.3 220.733 458.715 221.701C459.149 222.669 459.367 223.854 459.367 225.257L459.307 226.442H450.329C450.329 228.062 450.675 229.405 451.366 230.472C452.077 231.539 453.065 232.072 454.329 232.072C455.297 232.072 456.097 231.865 456.729 231.45C457.381 231.035 457.964 230.452 458.478 229.702L459.07 230.146C458.636 230.897 458.142 231.499 457.589 231.953C457.055 232.408 456.463 232.744 455.811 232.961C455.179 233.158 454.487 233.257 453.737 233.257ZM450.329 225.257H456.552C456.552 223.538 456.295 222.225 455.781 221.316C455.268 220.388 454.487 219.923 453.44 219.923C452.848 219.923 452.314 220.16 451.84 220.635C451.386 221.089 451.021 221.721 450.744 222.531C450.467 223.321 450.329 224.23 450.329 225.257ZM466.101 233.257C465.686 233.257 465.232 233.188 464.738 233.05C464.264 232.931 463.8 232.714 463.345 232.398C462.891 232.082 462.516 231.657 462.219 231.124C461.943 230.59 461.805 229.919 461.805 229.109C461.805 228.022 462.15 227.183 462.842 226.59C463.553 225.998 464.481 225.583 465.627 225.346C466.792 225.089 468.037 224.961 469.36 224.961H470.249C470.249 223.578 470.111 222.531 469.834 221.82C469.558 221.089 469.183 220.595 468.708 220.338C468.254 220.062 467.731 219.923 467.138 219.923C466.308 219.923 465.607 220.101 465.034 220.457C464.481 220.812 464.096 221.474 463.879 222.442H462.545C462.545 221.928 462.575 221.454 462.634 221.02C462.693 220.565 462.911 220.151 463.286 219.775C463.661 219.4 464.274 219.133 465.123 218.975C465.973 218.817 466.842 218.738 467.731 218.738C468.402 218.738 469.044 218.817 469.657 218.975C470.289 219.133 470.842 219.43 471.316 219.864C471.81 220.279 472.195 220.901 472.472 221.731C472.768 222.541 472.916 223.617 472.916 224.961V232.961H471.435L470.397 231.628H470.249C469.953 232.003 469.469 232.368 468.797 232.724C468.126 233.079 467.227 233.257 466.101 233.257ZM467.434 231.924C468.165 231.924 468.738 231.746 469.153 231.391C469.588 231.015 469.953 230.6 470.249 230.146V226.146H469.36C467.879 226.146 466.713 226.422 465.864 226.976C465.034 227.509 464.619 228.22 464.619 229.109C464.619 230.077 464.906 230.788 465.479 231.242C466.052 231.697 466.703 231.924 467.434 231.924ZM481.167 233.257C480.12 233.257 479.26 232.951 478.589 232.339C477.937 231.726 477.611 230.749 477.611 229.405V220.22H475.537V219.035H477.611V216.368L479.092 214.59H480.278V219.035H483.833V220.22H480.278V229.405C480.278 230.294 480.446 230.966 480.781 231.42C481.137 231.855 481.66 232.072 482.352 232.072C482.865 232.072 483.29 232.013 483.626 231.894C483.962 231.776 484.278 231.637 484.574 231.479L484.87 232.072C484.554 232.309 484.12 232.566 483.567 232.842C483.014 233.119 482.214 233.257 481.167 233.257Z" fill="#3C5633"/>
<path d="M502.094 227.654C501.645 227.666 501.214 227.497 500.896 227.179C500.579 226.862 500.4 226.421 500.4 225.961C500.4 225.501 500.579 225.06 500.896 224.743C501.214 224.425 501.645 224.256 502.094 224.267C503.242 224.296 504.391 224.324 505.54 224.352C526.217 224.86 546.894 225.368 567.571 225.876C568.72 225.904 569.868 225.933 571.017 225.961C569.868 225.989 568.72 226.017 567.571 226.046C546.894 226.554 526.217 227.062 505.54 227.57C504.391 227.598 503.242 227.626 502.094 227.654Z" fill="#3C5633"/>
</svg>
